M48
; DRILL file {KiCad 8.0.1} date 2024-05-23T13:31:58+0200
; FORMAT={-:-/ absolute / metric / decimal}
; #@! TF.CreationDate,2024-05-23T13:31:58+02:00
; #@! TF.GenerationSoftware,Kicad,Pcbnew,8.0.1
; #@! TF.FileFunction,Plated,1,2,PTH
FMAT,2
METRIC
; #@! TA.AperFunction,Plated,PTH,ViaDrill
T1C0.400
; #@! TA.AperFunction,Plated,PTH,ComponentDrill
T2C0.760
; #@! TA.AperFunction,Plated,PTH,ComponentDrill
T3C0.800
; #@! TA.AperFunction,Plated,PTH,ComponentDrill
T4C1.020
; #@! TA.AperFunction,Plated,PTH,ComponentDrill
T5C1.100
; #@! TA.AperFunction,Plated,PTH,ComponentDrill
T6C1.300
; #@! TA.AperFunction,Plated,PTH,ComponentDrill
T7C3.200
%
G90
G05
T1
X177.4Y-172.7
X179.2Y-178.8
X180.6Y-172.7
X182.6Y-139.2
X183.8Y-172.7
X185.2Y-175.6
X186.8Y-171.4
X190.0Y-172.7
X191.4Y-160.86
X193.2Y-171.4
X196.4Y-172.7
X203.4Y-139.6
X203.6Y-180.8
X204.2Y-149.2
X204.8Y-141.0
X205.4Y-158.8
X205.5Y-187.75
X207.5Y-187.75
X207.517Y-156.717
X209.2Y-137.4
X209.5Y-187.75
X211.5Y-187.75
X213.5Y-187.75
X213.803Y-173.803
X215.5Y-187.75
X217.5Y-187.75
X221.6Y-178.2
X236.75Y-187.75
X238.75Y-187.75
X240.75Y-187.75
X242.75Y-187.75
X244.75Y-187.75
X245.575Y-173.826
X246.75Y-187.75
X248.75Y-187.75
X253.6Y-178.285
X268.2Y-187.8
X270.2Y-187.8
X272.2Y-187.8
X274.2Y-187.8
X276.2Y-187.8
X277.0Y-174.2
X278.2Y-187.8
X280.2Y-187.8
X284.915Y-178.285
X296.2Y-144.0
X299.6Y-187.8
X300.8Y-147.8
X301.6Y-187.8
X303.6Y-187.8
X305.6Y-187.8
X307.6Y-187.8
X308.6Y-174.2
X309.6Y-187.8
X311.6Y-187.8
X316.0Y-178.2
X330.6Y-187.8
X332.6Y-187.8
X334.6Y-187.8
X336.6Y-187.8
X338.6Y-187.8
X339.6Y-173.8
X340.6Y-187.8
X342.6Y-187.8
X347.8Y-177.8
X363.4Y-181.8
X367.0Y-187.8
X369.0Y-187.8
X371.0Y-187.8
X373.0Y-187.8
T2
X176.915Y-214.15
X178.185Y-211.61
X179.455Y-214.15
X180.725Y-211.61
X181.995Y-214.15
X183.265Y-211.61
X184.535Y-214.15
X185.805Y-211.61
X208.165Y-214.15
X209.435Y-211.61
X210.705Y-214.15
X211.975Y-211.61
X213.245Y-214.15
X214.515Y-211.61
X215.785Y-214.15
X217.055Y-211.61
X222.392Y-144.84
X223.662Y-142.3
X224.932Y-144.84
X226.202Y-142.3
X227.472Y-144.84
X228.742Y-142.3
X230.012Y-144.84
X231.282Y-142.3
X239.415Y-214.15
X240.685Y-211.61
X241.955Y-214.15
X243.225Y-211.61
X244.495Y-214.15
X245.765Y-211.61
X247.035Y-214.15
X248.305Y-211.61
X270.717Y-214.15
X271.988Y-211.61
X273.257Y-214.15
X274.527Y-211.61
X275.798Y-214.15
X277.067Y-211.61
X278.337Y-214.15
X279.607Y-211.61
X301.915Y-214.15
X303.185Y-211.61
X304.455Y-214.15
X305.725Y-211.61
X306.995Y-214.15
X308.265Y-211.61
X309.535Y-214.15
X310.805Y-211.61
X333.217Y-214.15
X334.488Y-211.61
X335.757Y-214.15
X337.027Y-211.61
X338.297Y-214.15
X339.567Y-211.61
X340.837Y-214.15
X342.107Y-211.61
X364.52Y-214.15
X365.79Y-211.61
X367.06Y-214.15
X368.33Y-211.61
X369.6Y-214.15
X370.87Y-211.61
X372.14Y-214.15
X373.41Y-211.61
T3
X180.24Y-139.26
X180.24Y-141.8
X180.24Y-144.34
X180.24Y-146.46
X180.24Y-149.0
X180.24Y-151.54
X180.24Y-153.66
X180.24Y-156.2
X180.24Y-158.74
X180.24Y-160.86
X180.24Y-163.4
X180.24Y-165.94
X190.44Y-146.46
X190.44Y-149.0
X190.44Y-151.54
X190.44Y-153.66
X190.44Y-156.2
X190.44Y-158.74
X190.44Y-160.86
X190.44Y-163.4
X190.44Y-165.94
X208.18Y-165.56
X208.18Y-168.1
X208.18Y-170.64
X208.18Y-173.18
X208.18Y-175.72
X208.18Y-178.26
X208.18Y-180.8
X215.8Y-165.56
X215.8Y-168.1
X215.8Y-170.64
X215.8Y-173.18
X215.8Y-175.72
X215.8Y-178.26
X215.8Y-180.8
X239.78Y-165.585
X239.78Y-168.125
X239.78Y-170.665
X239.78Y-173.205
X239.78Y-175.745
X239.78Y-178.285
X239.78Y-180.825
X247.4Y-165.585
X247.4Y-168.125
X247.4Y-170.665
X247.4Y-173.205
X247.4Y-175.745
X247.4Y-178.285
X247.4Y-180.825
X271.38Y-165.585
X271.38Y-168.125
X271.38Y-170.665
X271.38Y-173.205
X271.38Y-175.745
X271.38Y-178.285
X271.38Y-180.825
X279.0Y-165.585
X279.0Y-168.125
X279.0Y-170.665
X279.0Y-173.205
X279.0Y-175.745
X279.0Y-178.285
X279.0Y-180.825
X302.78Y-165.785
X302.78Y-168.325
X302.78Y-170.865
X302.78Y-173.405
X302.78Y-175.945
X302.78Y-178.485
X302.78Y-181.025
X310.4Y-165.785
X310.4Y-168.325
X310.4Y-170.865
X310.4Y-173.405
X310.4Y-175.945
X310.4Y-178.485
X310.4Y-181.025
X333.78Y-165.785
X333.78Y-168.325
X333.78Y-170.865
X333.78Y-173.405
X333.78Y-175.945
X333.78Y-178.485
X333.78Y-181.025
X341.4Y-165.785
X341.4Y-168.325
X341.4Y-170.865
X341.4Y-173.405
X341.4Y-175.945
X341.4Y-178.485
X341.4Y-181.025
X366.38Y-165.46
X366.38Y-168.0
X366.38Y-170.54
X366.38Y-173.08
X366.38Y-175.62
X366.38Y-178.16
X366.38Y-180.7
X374.0Y-165.46
X374.0Y-168.0
X374.0Y-170.54
X374.0Y-173.08
X374.0Y-175.62
X374.0Y-178.16
X374.0Y-180.7
T4
X174.32Y-138.46
X174.32Y-141.0
X174.32Y-143.54
X174.32Y-146.08
X174.32Y-148.62
X174.32Y-151.16
X174.32Y-153.7
X174.32Y-156.24
X174.32Y-158.78
X174.32Y-161.32
X174.32Y-163.86
X174.32Y-166.4
X174.32Y-168.94
X174.32Y-171.48
X174.32Y-174.02
X199.72Y-138.46
X199.72Y-141.0
X199.72Y-143.54
X199.72Y-146.08
X199.72Y-148.62
X199.72Y-151.16
X199.72Y-153.7
X199.72Y-156.24
X199.72Y-158.78
X199.72Y-161.32
X199.72Y-163.86
X199.72Y-166.4
X199.72Y-168.94
X199.72Y-171.48
X199.72Y-174.02
T5
X170.4Y-181.52
X170.4Y-184.06
X170.4Y-186.6
X170.4Y-192.72
X170.4Y-195.26
X170.4Y-197.8
X170.4Y-204.12
X170.4Y-206.66
X170.4Y-209.2
X176.8Y-187.26
X176.8Y-189.8
X176.8Y-192.34
X185.6Y-187.26
X185.6Y-189.8
X185.6Y-192.34
X192.145Y-204.26
X192.145Y-206.8
X192.145Y-209.34
X192.2Y-192.86
X192.2Y-195.4
X192.2Y-197.94
X202.0Y-183.52
X202.0Y-186.06
X202.0Y-188.6
X202.0Y-194.52
X202.0Y-197.06
X202.0Y-199.6
X202.0Y-205.92
X202.0Y-208.46
X202.0Y-211.0
X204.66Y-143.8
X207.2Y-143.8
X209.25Y-194.96
X209.25Y-197.5
X209.25Y-200.04
X209.74Y-143.8
X215.305Y-194.96
X215.305Y-197.5
X215.305Y-200.04
X223.2Y-192.86
X223.2Y-195.4
X223.2Y-197.94
X223.2Y-204.26
X223.2Y-206.8
X223.2Y-209.34
X223.25Y-181.46
X223.25Y-184.0
X223.25Y-186.54
X232.8Y-181.46
X232.8Y-184.0
X232.8Y-186.54
X232.8Y-192.86
X232.8Y-195.4
X232.8Y-197.94
X232.8Y-204.26
X232.8Y-206.8
X232.8Y-209.34
X240.4Y-194.86
X240.4Y-197.4
X240.4Y-199.94
X246.8Y-194.86
X246.8Y-197.4
X246.8Y-199.94
X248.46Y-134.945
X251.0Y-134.945
X253.54Y-134.945
X254.8Y-181.46
X254.8Y-184.0
X254.8Y-186.54
X254.8Y-192.86
X254.8Y-195.4
X254.8Y-197.94
X254.8Y-204.26
X254.8Y-206.8
X254.8Y-209.34
X264.4Y-181.46
X264.4Y-184.0
X264.4Y-186.54
X264.4Y-204.26
X264.4Y-206.8
X264.4Y-209.34
X264.455Y-192.86
X264.455Y-195.4
X264.455Y-197.94
X272.2Y-194.86
X272.2Y-197.4
X272.2Y-199.94
X278.2Y-194.86
X278.2Y-197.4
X278.2Y-199.94
X286.0Y-181.46
X286.0Y-184.0
X286.0Y-186.54
X286.0Y-192.86
X286.0Y-195.4
X286.0Y-197.94
X286.0Y-204.26
X286.0Y-206.8
X286.0Y-209.34
X295.6Y-181.46
X295.6Y-184.0
X295.6Y-186.54
X295.6Y-192.86
X295.6Y-195.4
X295.6Y-197.94
X295.6Y-204.26
X295.6Y-206.8
X295.6Y-209.34
X303.8Y-194.86
X303.8Y-197.4
X303.8Y-199.94
X309.055Y-194.86
X309.055Y-197.4
X309.055Y-199.94
X317.2Y-181.46
X317.2Y-184.0
X317.2Y-186.54
X317.2Y-192.86
X317.2Y-195.4
X317.2Y-197.94
X317.2Y-204.26
X317.2Y-206.8
X317.2Y-209.34
X326.745Y-181.46
X326.745Y-184.0
X326.745Y-186.54
X326.8Y-192.86
X326.8Y-195.4
X326.8Y-197.94
X326.8Y-204.26
X326.8Y-206.8
X326.8Y-209.34
X334.8Y-194.86
X334.8Y-197.4
X334.8Y-199.94
X340.6Y-194.86
X340.6Y-197.4
X340.6Y-199.94
X348.6Y-181.46
X348.6Y-184.0
X348.6Y-186.54
X348.6Y-192.86
X348.6Y-195.4
X348.6Y-197.94
X348.6Y-204.26
X348.6Y-206.8
X348.6Y-209.34
X358.6Y-192.86
X358.6Y-195.4
X358.6Y-197.94
X358.655Y-181.46
X358.655Y-184.0
X358.655Y-186.54
X358.655Y-204.26
X358.655Y-206.8
X358.655Y-209.34
X369.2Y-192.86
X369.2Y-195.4
X369.2Y-197.94
T6
X206.25Y-133.245
X213.75Y-133.245
X271.85Y-133.245
X279.35Y-133.245
T7
X158.8Y-131.6
X158.8Y-224.6
X380.8Y-131.6
X380.8Y-224.6
M30
