G04 #@! TF.GenerationSoftware,KiCad,Pcbnew,8.0.1*
G04 #@! TF.CreationDate,2024-05-23T13:26:50+02:00*
G04 #@! TF.ProjectId,ShrackThingy,53687261-636b-4546-9869-6e67792e6b69,rev?*
G04 #@! TF.SameCoordinates,Original*
G04 #@! TF.FileFunction,Paste,Top*
G04 #@! TF.FilePolarity,Positive*
%FSLAX46Y46*%
G04 Gerber Fmt 4.6, Leading zero omitted, Abs format (unit mm)*
G04 Created by KiCad (PCBNEW 8.0.1) date 2024-05-23 13:26:50*
%MOMM*%
%LPD*%
G01*
G04 APERTURE LIST*
G04 Aperture macros list*
%AMRoundRect*
0 Rectangle with rounded corners*
0 $1 Rounding radius*
0 $2 $3 $4 $5 $6 $7 $8 $9 X,Y pos of 4 corners*
0 Add a 4 corners polygon primitive as box body*
4,1,4,$2,$3,$4,$5,$6,$7,$8,$9,$2,$3,0*
0 Add four circle primitives for the rounded corners*
1,1,$1+$1,$2,$3*
1,1,$1+$1,$4,$5*
1,1,$1+$1,$6,$7*
1,1,$1+$1,$8,$9*
0 Add four rect primitives between the rounded corners*
20,1,$1+$1,$2,$3,$4,$5,0*
20,1,$1+$1,$4,$5,$6,$7,0*
20,1,$1+$1,$6,$7,$8,$9,0*
20,1,$1+$1,$8,$9,$2,$3,0*%
G04 Aperture macros list end*
%ADD10R,2.000000X5.700000*%
%ADD11RoundRect,0.250000X0.450000X-0.350000X0.450000X0.350000X-0.450000X0.350000X-0.450000X-0.350000X0*%
%ADD12RoundRect,0.250000X-0.475000X0.337500X-0.475000X-0.337500X0.475000X-0.337500X0.475000X0.337500X0*%
%ADD13RoundRect,0.250000X-0.537500X-0.425000X0.537500X-0.425000X0.537500X0.425000X-0.537500X0.425000X0*%
%ADD14RoundRect,0.250000X-0.450000X0.350000X-0.450000X-0.350000X0.450000X-0.350000X0.450000X0.350000X0*%
%ADD15RoundRect,0.250000X0.350000X0.450000X-0.350000X0.450000X-0.350000X-0.450000X0.350000X-0.450000X0*%
%ADD16RoundRect,0.250000X0.537500X0.425000X-0.537500X0.425000X-0.537500X-0.425000X0.537500X-0.425000X0*%
%ADD17RoundRect,0.250000X-0.350000X-0.450000X0.350000X-0.450000X0.350000X0.450000X-0.350000X0.450000X0*%
%ADD18RoundRect,0.250000X0.337500X0.475000X-0.337500X0.475000X-0.337500X-0.475000X0.337500X-0.475000X0*%
%ADD19RoundRect,0.250000X0.300000X-2.050000X0.300000X2.050000X-0.300000X2.050000X-0.300000X-2.050000X0*%
%ADD20RoundRect,0.250000X2.375000X-2.025000X2.375000X2.025000X-2.375000X2.025000X-2.375000X-2.025000X0*%
%ADD21RoundRect,0.250000X-0.625000X0.400000X-0.625000X-0.400000X0.625000X-0.400000X0.625000X0.400000X0*%
%ADD22RoundRect,0.250000X0.625000X-0.400000X0.625000X0.400000X-0.625000X0.400000X-0.625000X-0.400000X0*%
%ADD23RoundRect,0.250001X-0.624999X0.462499X-0.624999X-0.462499X0.624999X-0.462499X0.624999X0.462499X0*%
%ADD24R,2.900000X5.400000*%
G04 APERTURE END LIST*
D10*
X291200000Y-148550000D03*
X291200000Y-158250000D03*
D11*
X272200000Y-188200000D03*
X272200000Y-186200000D03*
X276200000Y-188200000D03*
X276200000Y-186200000D03*
X313600000Y-188200000D03*
X313600000Y-186200000D03*
X369000000Y-188200000D03*
X369000000Y-186200000D03*
X240750000Y-188250000D03*
X240750000Y-186250000D03*
D12*
X287700000Y-141962500D03*
X287700000Y-144037500D03*
D11*
X342600000Y-188200000D03*
X342600000Y-186200000D03*
X236750000Y-188250000D03*
X236750000Y-186250000D03*
D13*
X253562500Y-137545000D03*
X256437500Y-137545000D03*
D11*
X371000000Y-188200000D03*
X371000000Y-186200000D03*
D14*
X193200000Y-172000000D03*
X193200000Y-174000000D03*
D15*
X303600000Y-153000000D03*
X301600000Y-153000000D03*
D11*
X305600000Y-188200000D03*
X305600000Y-186200000D03*
D15*
X185840000Y-163400000D03*
X183840000Y-163400000D03*
D11*
X336600000Y-188200000D03*
X336600000Y-186200000D03*
X303600000Y-188200000D03*
X303600000Y-186200000D03*
X244750000Y-188250000D03*
X244750000Y-186250000D03*
D16*
X250940000Y-137545000D03*
X248065000Y-137545000D03*
D17*
X203600000Y-149200000D03*
X205600000Y-149200000D03*
D11*
X309600000Y-188200000D03*
X309600000Y-186200000D03*
D18*
X303637500Y-155000000D03*
X301562500Y-155000000D03*
D11*
X307600000Y-188200000D03*
X307600000Y-186200000D03*
X248750000Y-188250000D03*
X248750000Y-186250000D03*
D14*
X190000000Y-172000000D03*
X190000000Y-174000000D03*
D11*
X238750000Y-188250000D03*
X238750000Y-186250000D03*
D15*
X303600000Y-147800000D03*
X301600000Y-147800000D03*
D14*
X183800000Y-172000000D03*
X183800000Y-174000000D03*
D15*
X196040000Y-149000000D03*
X194040000Y-149000000D03*
D11*
X280200000Y-188200000D03*
X280200000Y-186200000D03*
D14*
X196400000Y-172000000D03*
X196400000Y-174000000D03*
D11*
X330600000Y-188200000D03*
X330600000Y-186200000D03*
D19*
X291100000Y-142750000D03*
X292800000Y-142750000D03*
X294500000Y-142750000D03*
X296200000Y-142750000D03*
X297900000Y-142750000D03*
D20*
X291725000Y-136025000D03*
X297275000Y-136025000D03*
X291725000Y-131175000D03*
X297275000Y-131175000D03*
D15*
X185840000Y-149000000D03*
X183840000Y-149000000D03*
D11*
X270200000Y-188200000D03*
X270200000Y-186200000D03*
X219500000Y-188250000D03*
X219500000Y-186250000D03*
D21*
X279400000Y-141850000D03*
X279400000Y-144950000D03*
D11*
X367000000Y-188200000D03*
X367000000Y-186200000D03*
D15*
X196040000Y-156200000D03*
X194040000Y-156200000D03*
D11*
X217500000Y-188250000D03*
X217500000Y-186250000D03*
X311600000Y-188200000D03*
X311600000Y-186200000D03*
X299600000Y-188200000D03*
X299600000Y-186200000D03*
X209500000Y-188250000D03*
X209500000Y-186250000D03*
X334600000Y-188200000D03*
X334600000Y-186200000D03*
X373000000Y-188200000D03*
X373000000Y-186200000D03*
X207500000Y-188250000D03*
X207500000Y-186250000D03*
X246750000Y-188250000D03*
X246750000Y-186250000D03*
D14*
X186800000Y-172000000D03*
X186800000Y-174000000D03*
D15*
X185840000Y-141800000D03*
X183840000Y-141800000D03*
X196040000Y-163400000D03*
X194040000Y-163400000D03*
D11*
X250750000Y-188250000D03*
X250750000Y-186250000D03*
X242750000Y-188250000D03*
X242750000Y-186250000D03*
D22*
X253600000Y-144950000D03*
X253600000Y-141850000D03*
D11*
X215550000Y-188250000D03*
X215550000Y-186250000D03*
X268200000Y-188200000D03*
X268200000Y-186200000D03*
X211500000Y-188250000D03*
X211500000Y-186250000D03*
X344600000Y-188200000D03*
X344600000Y-186200000D03*
X338600000Y-188200000D03*
X338600000Y-186200000D03*
D15*
X185840000Y-156200000D03*
X183840000Y-156200000D03*
D17*
X301600000Y-150000000D03*
X303600000Y-150000000D03*
D11*
X213550000Y-188250000D03*
X213550000Y-186250000D03*
D14*
X177400000Y-172000000D03*
X177400000Y-174000000D03*
D11*
X301600000Y-188200000D03*
X301600000Y-186200000D03*
X205500000Y-188250000D03*
X205500000Y-186250000D03*
X332600000Y-188200000D03*
X332600000Y-186200000D03*
X278200000Y-188200000D03*
X278200000Y-186200000D03*
D10*
X315000000Y-148550000D03*
X315000000Y-158250000D03*
D11*
X274200000Y-188200000D03*
X274200000Y-186200000D03*
X340600000Y-188200000D03*
X340600000Y-186200000D03*
D23*
X306000000Y-151912500D03*
X306000000Y-154887500D03*
D24*
X302650000Y-138600000D03*
X312550000Y-138600000D03*
D14*
X180600000Y-172000000D03*
X180600000Y-174000000D03*
D15*
X205600000Y-153200000D03*
X203600000Y-153200000D03*
D11*
X282200000Y-188200000D03*
X282200000Y-186200000D03*
M02*
