G04 #@! TF.GenerationSoftware,KiCad,Pcbnew,8.0.1*
G04 #@! TF.CreationDate,2024-05-23T13:26:50+02:00*
G04 #@! TF.ProjectId,ShrackThingy,53687261-636b-4546-9869-6e67792e6b69,rev?*
G04 #@! TF.SameCoordinates,Original*
G04 #@! TF.FileFunction,Soldermask,Top*
G04 #@! TF.FilePolarity,Negative*
%FSLAX46Y46*%
G04 Gerber Fmt 4.6, Leading zero omitted, Abs format (unit mm)*
G04 Created by KiCad (PCBNEW 8.0.1) date 2024-05-23 13:26:50*
%MOMM*%
%LPD*%
G01*
G04 APERTURE LIST*
G04 Aperture macros list*
%AMRoundRect*
0 Rectangle with rounded corners*
0 $1 Rounding radius*
0 $2 $3 $4 $5 $6 $7 $8 $9 X,Y pos of 4 corners*
0 Add a 4 corners polygon primitive as box body*
4,1,4,$2,$3,$4,$5,$6,$7,$8,$9,$2,$3,0*
0 Add four circle primitives for the rounded corners*
1,1,$1+$1,$2,$3*
1,1,$1+$1,$4,$5*
1,1,$1+$1,$6,$7*
1,1,$1+$1,$8,$9*
0 Add four rect primitives between the rounded corners*
20,1,$1+$1,$2,$3,$4,$5,0*
20,1,$1+$1,$4,$5,$6,$7,0*
20,1,$1+$1,$6,$7,$8,$9,0*
20,1,$1+$1,$8,$9,$2,$3,0*%
G04 Aperture macros list end*
%ADD10RoundRect,0.102000X-1.000000X2.850000X-1.000000X-2.850000X1.000000X-2.850000X1.000000X2.850000X0*%
%ADD11RoundRect,0.102000X1.000000X-2.850000X1.000000X2.850000X-1.000000X2.850000X-1.000000X-2.850000X0*%
%ADD12R,2.000000X1.905000*%
%ADD13O,2.000000X1.905000*%
%ADD14RoundRect,0.250000X0.450000X-0.350000X0.450000X0.350000X-0.450000X0.350000X-0.450000X-0.350000X0*%
%ADD15R,1.500000X1.500000*%
%ADD16C,1.500000*%
%ADD17R,1.600000X1.600000*%
%ADD18O,1.600000X1.600000*%
%ADD19RoundRect,0.250000X-0.475000X0.337500X-0.475000X-0.337500X0.475000X-0.337500X0.475000X0.337500X0*%
%ADD20RoundRect,0.250000X-0.537500X-0.425000X0.537500X-0.425000X0.537500X0.425000X-0.537500X0.425000X0*%
%ADD21C,3.200000*%
%ADD22R,2.500000X2.500000*%
%ADD23C,2.500000*%
%ADD24RoundRect,0.250000X-0.450000X0.350000X-0.450000X-0.350000X0.450000X-0.350000X0.450000X0.350000X0*%
%ADD25RoundRect,0.250000X0.350000X0.450000X-0.350000X0.450000X-0.350000X-0.450000X0.350000X-0.450000X0*%
%ADD26C,5.700000*%
%ADD27RoundRect,0.250000X0.537500X0.425000X-0.537500X0.425000X-0.537500X-0.425000X0.537500X-0.425000X0*%
%ADD28RoundRect,0.250000X-0.350000X-0.450000X0.350000X-0.450000X0.350000X0.450000X-0.350000X0.450000X0*%
%ADD29RoundRect,0.250000X0.337500X0.475000X-0.337500X0.475000X-0.337500X-0.475000X0.337500X-0.475000X0*%
%ADD30RoundRect,0.250000X0.300000X-2.050000X0.300000X2.050000X-0.300000X2.050000X-0.300000X-2.050000X0*%
%ADD31RoundRect,0.250002X5.149998X-4.449998X5.149998X4.449998X-5.149998X4.449998X-5.149998X-4.449998X0*%
%ADD32RoundRect,0.250000X-0.625000X0.400000X-0.625000X-0.400000X0.625000X-0.400000X0.625000X0.400000X0*%
%ADD33R,1.905000X2.000000*%
%ADD34O,1.905000X2.000000*%
%ADD35RoundRect,0.102000X-1.000000X-1.000000X1.000000X-1.000000X1.000000X1.000000X-1.000000X1.000000X0*%
%ADD36C,2.204000*%
%ADD37RoundRect,0.250000X0.625000X-0.400000X0.625000X0.400000X-0.625000X0.400000X-0.625000X-0.400000X0*%
%ADD38RoundRect,0.250001X-0.624999X0.462499X-0.624999X-0.462499X0.624999X-0.462499X0.624999X0.462499X0*%
%ADD39R,2.900000X5.400000*%
%ADD40C,0.800000*%
G04 APERTURE END LIST*
D10*
X291200000Y-148550000D03*
D11*
X291200000Y-158250000D03*
D12*
X358655000Y-186540000D03*
D13*
X358655000Y-184000000D03*
X358655000Y-181460000D03*
D12*
X286000000Y-181460000D03*
D13*
X286000000Y-184000000D03*
X286000000Y-186540000D03*
D12*
X272200000Y-199940000D03*
D13*
X272200000Y-197400000D03*
X272200000Y-194860000D03*
D14*
X272200000Y-188200000D03*
X272200000Y-186200000D03*
D15*
X180240000Y-146460000D03*
D16*
X180240000Y-149000000D03*
X180240000Y-151540000D03*
D14*
X276200000Y-188200000D03*
X276200000Y-186200000D03*
D12*
X232800000Y-186540000D03*
D13*
X232800000Y-184000000D03*
X232800000Y-181460000D03*
D12*
X264455000Y-197940000D03*
D13*
X264455000Y-195400000D03*
X264455000Y-192860000D03*
D17*
X341400000Y-181025000D03*
D18*
X341400000Y-178485000D03*
X341400000Y-175945000D03*
X341400000Y-173405000D03*
X341400000Y-170865000D03*
X341400000Y-168325000D03*
X341400000Y-165785000D03*
X333780000Y-165785000D03*
X333780000Y-168325000D03*
X333780000Y-170865000D03*
X333780000Y-173405000D03*
X333780000Y-175945000D03*
X333780000Y-178485000D03*
X333780000Y-181025000D03*
D14*
X313600000Y-188200000D03*
X313600000Y-186200000D03*
D12*
X317200000Y-181460000D03*
D13*
X317200000Y-184000000D03*
X317200000Y-186540000D03*
D14*
X369000000Y-188200000D03*
X369000000Y-186200000D03*
D17*
X279000000Y-180825000D03*
D18*
X279000000Y-178285000D03*
X279000000Y-175745000D03*
X279000000Y-173205000D03*
X279000000Y-170665000D03*
X279000000Y-168125000D03*
X279000000Y-165585000D03*
X271380000Y-165585000D03*
X271380000Y-168125000D03*
X271380000Y-170665000D03*
X271380000Y-173205000D03*
X271380000Y-175745000D03*
X271380000Y-178285000D03*
X271380000Y-180825000D03*
D12*
X192200000Y-192860000D03*
D13*
X192200000Y-195400000D03*
X192200000Y-197940000D03*
D14*
X240750000Y-188250000D03*
X240750000Y-186250000D03*
D12*
X295600000Y-209340000D03*
D13*
X295600000Y-206800000D03*
X295600000Y-204260000D03*
D19*
X287700000Y-141962500D03*
X287700000Y-144037500D03*
D14*
X342600000Y-188200000D03*
X342600000Y-186200000D03*
D12*
X286000000Y-192860000D03*
D13*
X286000000Y-195400000D03*
X286000000Y-197940000D03*
D14*
X236750000Y-188250000D03*
X236750000Y-186250000D03*
D20*
X253562500Y-137545000D03*
X256437500Y-137545000D03*
D14*
X371000000Y-188200000D03*
X371000000Y-186200000D03*
D12*
X185600000Y-187260000D03*
D13*
X185600000Y-189800000D03*
X185600000Y-192340000D03*
D21*
X363250000Y-220500000D03*
X374680000Y-220500000D03*
D15*
X364520000Y-214150000D03*
D16*
X365790000Y-211610000D03*
X367060000Y-214150000D03*
X368330000Y-211610000D03*
X369600000Y-214150000D03*
X370870000Y-211610000D03*
X372140000Y-214150000D03*
X373410000Y-211610000D03*
D12*
X240400000Y-199940000D03*
D13*
X240400000Y-197400000D03*
X240400000Y-194860000D03*
D22*
X279350000Y-133245000D03*
D23*
X271850000Y-133245000D03*
D24*
X193200000Y-172000000D03*
X193200000Y-174000000D03*
D12*
X232800000Y-197940000D03*
D13*
X232800000Y-195400000D03*
X232800000Y-192860000D03*
D25*
X303600000Y-153000000D03*
X301600000Y-153000000D03*
D17*
X247400000Y-180825000D03*
D18*
X247400000Y-178285000D03*
X247400000Y-175745000D03*
X247400000Y-173205000D03*
X247400000Y-170665000D03*
X247400000Y-168125000D03*
X247400000Y-165585000D03*
X239780000Y-165585000D03*
X239780000Y-168125000D03*
X239780000Y-170665000D03*
X239780000Y-173205000D03*
X239780000Y-175745000D03*
X239780000Y-178285000D03*
X239780000Y-180825000D03*
D14*
X305600000Y-188200000D03*
X305600000Y-186200000D03*
D26*
X380800000Y-224600000D03*
D25*
X185840000Y-163400000D03*
X183840000Y-163400000D03*
D14*
X336600000Y-188200000D03*
X336600000Y-186200000D03*
D12*
X223200000Y-192860000D03*
D13*
X223200000Y-195400000D03*
X223200000Y-197940000D03*
D12*
X223250000Y-181460000D03*
D13*
X223250000Y-184000000D03*
X223250000Y-186540000D03*
D12*
X295600000Y-197940000D03*
D13*
X295600000Y-195400000D03*
X295600000Y-192860000D03*
D14*
X303600000Y-188200000D03*
X303600000Y-186200000D03*
D12*
X278200000Y-194860000D03*
D13*
X278200000Y-197400000D03*
X278200000Y-199940000D03*
D14*
X244750000Y-188250000D03*
X244750000Y-186250000D03*
D26*
X380800000Y-131600000D03*
D15*
X190440000Y-146460000D03*
D16*
X190440000Y-149000000D03*
X190440000Y-151540000D03*
D27*
X250940000Y-137545000D03*
X248065000Y-137545000D03*
D28*
X203600000Y-149200000D03*
X205600000Y-149200000D03*
D12*
X254800000Y-192860000D03*
D13*
X254800000Y-195400000D03*
X254800000Y-197940000D03*
D14*
X309600000Y-188200000D03*
X309600000Y-186200000D03*
D22*
X213750000Y-133245000D03*
D23*
X206250000Y-133245000D03*
D29*
X303637500Y-155000000D03*
X301562500Y-155000000D03*
D14*
X307600000Y-188200000D03*
X307600000Y-186200000D03*
X248750000Y-188250000D03*
X248750000Y-186250000D03*
D24*
X190000000Y-172000000D03*
X190000000Y-174000000D03*
D12*
X317200000Y-192860000D03*
D13*
X317200000Y-195400000D03*
X317200000Y-197940000D03*
D12*
X170400000Y-197800000D03*
D13*
X170400000Y-195260000D03*
X170400000Y-192720000D03*
D14*
X238750000Y-188250000D03*
X238750000Y-186250000D03*
D25*
X303600000Y-147800000D03*
X301600000Y-147800000D03*
D24*
X183800000Y-172000000D03*
X183800000Y-174000000D03*
D12*
X326800000Y-209340000D03*
D13*
X326800000Y-206800000D03*
X326800000Y-204260000D03*
D25*
X196040000Y-149000000D03*
X194040000Y-149000000D03*
D14*
X280200000Y-188200000D03*
X280200000Y-186200000D03*
D15*
X190440000Y-153660000D03*
D16*
X190440000Y-156200000D03*
X190440000Y-158740000D03*
D26*
X158800000Y-224600000D03*
D12*
X358600000Y-197940000D03*
D13*
X358600000Y-195400000D03*
X358600000Y-192860000D03*
D24*
X196400000Y-172000000D03*
X196400000Y-174000000D03*
D17*
X374000000Y-180700000D03*
D18*
X374000000Y-178160000D03*
X374000000Y-175620000D03*
X374000000Y-173080000D03*
X374000000Y-170540000D03*
X374000000Y-168000000D03*
X374000000Y-165460000D03*
X366380000Y-165460000D03*
X366380000Y-168000000D03*
X366380000Y-170540000D03*
X366380000Y-173080000D03*
X366380000Y-175620000D03*
X366380000Y-178160000D03*
X366380000Y-180700000D03*
D14*
X330600000Y-188200000D03*
X330600000Y-186200000D03*
D21*
X269447500Y-220500000D03*
X280877500Y-220500000D03*
D15*
X270717500Y-214150000D03*
D16*
X271987500Y-211610000D03*
X273257500Y-214150000D03*
X274527500Y-211610000D03*
X275797500Y-214150000D03*
X277067500Y-211610000D03*
X278337500Y-214150000D03*
X279607500Y-211610000D03*
D12*
X340600000Y-194860000D03*
D13*
X340600000Y-197400000D03*
X340600000Y-199940000D03*
D12*
X202000000Y-188600000D03*
D13*
X202000000Y-186060000D03*
X202000000Y-183520000D03*
D12*
X176800000Y-192340000D03*
D13*
X176800000Y-189800000D03*
X176800000Y-187260000D03*
D12*
X170400000Y-209200000D03*
D13*
X170400000Y-206660000D03*
X170400000Y-204120000D03*
D12*
X286000000Y-204260000D03*
D13*
X286000000Y-206800000D03*
X286000000Y-209340000D03*
D30*
X291100000Y-142750000D03*
X292800000Y-142750000D03*
X294500000Y-142750000D03*
X296200000Y-142750000D03*
X297900000Y-142750000D03*
D31*
X294500000Y-133600000D03*
D25*
X185840000Y-149000000D03*
X183840000Y-149000000D03*
D14*
X270200000Y-188200000D03*
X270200000Y-186200000D03*
D15*
X180240000Y-139260000D03*
D16*
X180240000Y-141800000D03*
X180240000Y-144340000D03*
D12*
X192145000Y-204260000D03*
D13*
X192145000Y-206800000D03*
X192145000Y-209340000D03*
D12*
X264400000Y-209340000D03*
D13*
X264400000Y-206800000D03*
X264400000Y-204260000D03*
D12*
X232800000Y-209340000D03*
D13*
X232800000Y-206800000D03*
X232800000Y-204260000D03*
D14*
X219500000Y-188250000D03*
X219500000Y-186250000D03*
D17*
X310400000Y-181025000D03*
D18*
X310400000Y-178485000D03*
X310400000Y-175945000D03*
X310400000Y-173405000D03*
X310400000Y-170865000D03*
X310400000Y-168325000D03*
X310400000Y-165785000D03*
X302780000Y-165785000D03*
X302780000Y-168325000D03*
X302780000Y-170865000D03*
X302780000Y-173405000D03*
X302780000Y-175945000D03*
X302780000Y-178485000D03*
X302780000Y-181025000D03*
D21*
X206895000Y-220500000D03*
X218325000Y-220500000D03*
D15*
X208165000Y-214150000D03*
D16*
X209435000Y-211610000D03*
X210705000Y-214150000D03*
X211975000Y-211610000D03*
X213245000Y-214150000D03*
X214515000Y-211610000D03*
X215785000Y-214150000D03*
X217055000Y-211610000D03*
D32*
X279400000Y-141850000D03*
X279400000Y-144950000D03*
D14*
X367000000Y-188200000D03*
X367000000Y-186200000D03*
D25*
X196040000Y-156200000D03*
X194040000Y-156200000D03*
D12*
X264400000Y-186540000D03*
D13*
X264400000Y-184000000D03*
X264400000Y-181460000D03*
D14*
X217500000Y-188250000D03*
X217500000Y-186250000D03*
D26*
X158800000Y-131600000D03*
D14*
X311600000Y-188200000D03*
X311600000Y-186200000D03*
D12*
X170400000Y-186600000D03*
D13*
X170400000Y-184060000D03*
X170400000Y-181520000D03*
D21*
X300645000Y-220500000D03*
X312075000Y-220500000D03*
D15*
X301915000Y-214150000D03*
D16*
X303185000Y-211610000D03*
X304455000Y-214150000D03*
X305725000Y-211610000D03*
X306995000Y-214150000D03*
X308265000Y-211610000D03*
X309535000Y-214150000D03*
X310805000Y-211610000D03*
D17*
X215800000Y-180800000D03*
D18*
X215800000Y-178260000D03*
X215800000Y-175720000D03*
X215800000Y-173180000D03*
X215800000Y-170640000D03*
X215800000Y-168100000D03*
X215800000Y-165560000D03*
X208180000Y-165560000D03*
X208180000Y-168100000D03*
X208180000Y-170640000D03*
X208180000Y-173180000D03*
X208180000Y-175720000D03*
X208180000Y-178260000D03*
X208180000Y-180800000D03*
D12*
X348600000Y-192860000D03*
D13*
X348600000Y-195400000D03*
X348600000Y-197940000D03*
D14*
X299600000Y-188200000D03*
X299600000Y-186200000D03*
D12*
X317200000Y-204260000D03*
D13*
X317200000Y-206800000D03*
X317200000Y-209340000D03*
D33*
X209740000Y-143800000D03*
D34*
X207200000Y-143800000D03*
X204660000Y-143800000D03*
D35*
X174320000Y-138460000D03*
D36*
X174320000Y-141000000D03*
X174320000Y-143540000D03*
X174320000Y-146080000D03*
X174320000Y-148620000D03*
X174320000Y-151160000D03*
X174320000Y-153700000D03*
X174320000Y-156240000D03*
X174320000Y-158780000D03*
X174320000Y-161320000D03*
X174320000Y-163860000D03*
X174320000Y-166400000D03*
X174320000Y-168940000D03*
X174320000Y-171480000D03*
X174320000Y-174020000D03*
X199720000Y-174020000D03*
X199720000Y-171480000D03*
X199720000Y-168940000D03*
X199720000Y-166400000D03*
X199720000Y-163860000D03*
X199720000Y-161320000D03*
X199720000Y-158780000D03*
X199720000Y-156240000D03*
X199720000Y-153700000D03*
X199720000Y-151160000D03*
X199720000Y-148620000D03*
X199720000Y-146080000D03*
X199720000Y-143540000D03*
X199720000Y-141000000D03*
X199720000Y-138460000D03*
D15*
X180240000Y-160860000D03*
D16*
X180240000Y-163400000D03*
X180240000Y-165940000D03*
D12*
X246800000Y-194860000D03*
D13*
X246800000Y-197400000D03*
X246800000Y-199940000D03*
D12*
X326745000Y-186540000D03*
D13*
X326745000Y-184000000D03*
X326745000Y-181460000D03*
D12*
X334800000Y-199940000D03*
D13*
X334800000Y-197400000D03*
X334800000Y-194860000D03*
D15*
X180240000Y-153660000D03*
D16*
X180240000Y-156200000D03*
X180240000Y-158740000D03*
D12*
X223200000Y-204260000D03*
D13*
X223200000Y-206800000D03*
X223200000Y-209340000D03*
D21*
X232552500Y-135950000D03*
X221122500Y-135950000D03*
D15*
X231282500Y-142300000D03*
D16*
X230012500Y-144840000D03*
X228742500Y-142300000D03*
X227472500Y-144840000D03*
X226202500Y-142300000D03*
X224932500Y-144840000D03*
X223662500Y-142300000D03*
X222392500Y-144840000D03*
D12*
X358655000Y-209340000D03*
D13*
X358655000Y-206800000D03*
X358655000Y-204260000D03*
D21*
X175645000Y-220500000D03*
X187075000Y-220500000D03*
D15*
X176915000Y-214150000D03*
D16*
X178185000Y-211610000D03*
X179455000Y-214150000D03*
X180725000Y-211610000D03*
X181995000Y-214150000D03*
X183265000Y-211610000D03*
X184535000Y-214150000D03*
X185805000Y-211610000D03*
D14*
X209500000Y-188250000D03*
X209500000Y-186250000D03*
X334600000Y-188200000D03*
X334600000Y-186200000D03*
X373000000Y-188200000D03*
X373000000Y-186200000D03*
X207500000Y-188250000D03*
X207500000Y-186250000D03*
X246750000Y-188250000D03*
X246750000Y-186250000D03*
D24*
X186800000Y-172000000D03*
X186800000Y-174000000D03*
D25*
X185840000Y-141800000D03*
X183840000Y-141800000D03*
X196040000Y-163400000D03*
X194040000Y-163400000D03*
D33*
X248460000Y-134945000D03*
D34*
X251000000Y-134945000D03*
X253540000Y-134945000D03*
D14*
X250750000Y-188250000D03*
X250750000Y-186250000D03*
D12*
X309055000Y-194860000D03*
D13*
X309055000Y-197400000D03*
X309055000Y-199940000D03*
D21*
X331947500Y-220500000D03*
X343377500Y-220500000D03*
D15*
X333217500Y-214150000D03*
D16*
X334487500Y-211610000D03*
X335757500Y-214150000D03*
X337027500Y-211610000D03*
X338297500Y-214150000D03*
X339567500Y-211610000D03*
X340837500Y-214150000D03*
X342107500Y-211610000D03*
D14*
X242750000Y-188250000D03*
X242750000Y-186250000D03*
D37*
X253600000Y-144950000D03*
X253600000Y-141850000D03*
D14*
X215550000Y-188250000D03*
X215550000Y-186250000D03*
X268200000Y-188200000D03*
X268200000Y-186200000D03*
D12*
X209250000Y-200040000D03*
D13*
X209250000Y-197500000D03*
X209250000Y-194960000D03*
D12*
X348600000Y-204260000D03*
D13*
X348600000Y-206800000D03*
X348600000Y-209340000D03*
D12*
X254800000Y-204260000D03*
D13*
X254800000Y-206800000D03*
X254800000Y-209340000D03*
D14*
X211500000Y-188250000D03*
X211500000Y-186250000D03*
X344600000Y-188200000D03*
X344600000Y-186200000D03*
D15*
X190440000Y-160860000D03*
D16*
X190440000Y-163400000D03*
X190440000Y-165940000D03*
D14*
X338600000Y-188200000D03*
X338600000Y-186200000D03*
D21*
X238145000Y-220500000D03*
X249575000Y-220500000D03*
D15*
X239415000Y-214150000D03*
D16*
X240685000Y-211610000D03*
X241955000Y-214150000D03*
X243225000Y-211610000D03*
X244495000Y-214150000D03*
X245765000Y-211610000D03*
X247035000Y-214150000D03*
X248305000Y-211610000D03*
D25*
X185840000Y-156200000D03*
X183840000Y-156200000D03*
D28*
X301600000Y-150000000D03*
X303600000Y-150000000D03*
D14*
X213550000Y-188250000D03*
X213550000Y-186250000D03*
D24*
X177400000Y-172000000D03*
X177400000Y-174000000D03*
D12*
X202000000Y-199600000D03*
D13*
X202000000Y-197060000D03*
X202000000Y-194520000D03*
D14*
X301600000Y-188200000D03*
X301600000Y-186200000D03*
X205500000Y-188250000D03*
X205500000Y-186250000D03*
X332600000Y-188200000D03*
X332600000Y-186200000D03*
X278200000Y-188200000D03*
X278200000Y-186200000D03*
D12*
X254800000Y-181460000D03*
D13*
X254800000Y-184000000D03*
X254800000Y-186540000D03*
D10*
X315000000Y-148550000D03*
D11*
X315000000Y-158250000D03*
D12*
X369200000Y-197940000D03*
D13*
X369200000Y-195400000D03*
X369200000Y-192860000D03*
D14*
X274200000Y-188200000D03*
X274200000Y-186200000D03*
D12*
X326800000Y-197940000D03*
D13*
X326800000Y-195400000D03*
X326800000Y-192860000D03*
D12*
X348600000Y-181460000D03*
D13*
X348600000Y-184000000D03*
X348600000Y-186540000D03*
D14*
X340600000Y-188200000D03*
X340600000Y-186200000D03*
D12*
X202000000Y-211000000D03*
D13*
X202000000Y-208460000D03*
X202000000Y-205920000D03*
D38*
X306000000Y-151912500D03*
X306000000Y-154887500D03*
D39*
X302650000Y-138600000D03*
X312550000Y-138600000D03*
D12*
X295600000Y-186540000D03*
D13*
X295600000Y-184000000D03*
X295600000Y-181460000D03*
D12*
X215305000Y-194960000D03*
D13*
X215305000Y-197500000D03*
X215305000Y-200040000D03*
D24*
X180600000Y-172000000D03*
X180600000Y-174000000D03*
D12*
X303800000Y-199940000D03*
D13*
X303800000Y-197400000D03*
X303800000Y-194860000D03*
D25*
X205600000Y-153200000D03*
X203600000Y-153200000D03*
D14*
X282200000Y-188200000D03*
X282200000Y-186200000D03*
D40*
X182600000Y-139200000D03*
X203600000Y-180800000D03*
X204200000Y-149200000D03*
X177400000Y-172700000D03*
X180600000Y-172700000D03*
X183800061Y-172700000D03*
X179200000Y-178800000D03*
X186800000Y-171400000D03*
X185200000Y-175600000D03*
X190000000Y-172700000D03*
X193200000Y-171400000D03*
X191400000Y-160860000D03*
X196400000Y-172700000D03*
X207500000Y-187750000D03*
X217500000Y-187750000D03*
X245575000Y-173825954D03*
X246750000Y-187750000D03*
X272200000Y-187800000D03*
X301600000Y-187800000D03*
X311600000Y-187800000D03*
X340600000Y-187800000D03*
X339600000Y-173800000D03*
X371000000Y-187800000D03*
X373000000Y-187800000D03*
X205500000Y-187750000D03*
X244750000Y-187750000D03*
X274200000Y-187800000D03*
X299600000Y-187800000D03*
X338600000Y-187800000D03*
X209500000Y-187750000D03*
X238750000Y-187750000D03*
X248750000Y-187750000D03*
X278200000Y-187800000D03*
X277000000Y-174200000D03*
X303600000Y-187800000D03*
X332600000Y-187800000D03*
X342600000Y-187800000D03*
X209200000Y-137400000D03*
X211500000Y-187750000D03*
X236750000Y-187750000D03*
X276200000Y-187800000D03*
X305600000Y-187800000D03*
X330600000Y-187800000D03*
X215500000Y-187750000D03*
X213803364Y-173803364D03*
X240750000Y-187750000D03*
X270200000Y-187800000D03*
X280200000Y-187800000D03*
X309600000Y-187800000D03*
X308600000Y-174200000D03*
X334600000Y-187800000D03*
X369000000Y-187800000D03*
X213500000Y-187750000D03*
X242750000Y-187750000D03*
X268200000Y-187800000D03*
X307600000Y-187800000D03*
X336600000Y-187800000D03*
X367000000Y-187800000D03*
X221600000Y-178200000D03*
X300800000Y-147800000D03*
X296200000Y-144000000D03*
X205400000Y-158800000D03*
X204800000Y-141000000D03*
X203400000Y-139600000D03*
X207516636Y-156716636D03*
X253600000Y-178285000D03*
X284915000Y-178285000D03*
X316000000Y-178200000D03*
X347800000Y-177800000D03*
X363400000Y-181800000D03*
M02*
