G04 #@! TF.GenerationSoftware,KiCad,Pcbnew,8.0.1*
G04 #@! TF.CreationDate,2024-05-23T13:26:50+02:00*
G04 #@! TF.ProjectId,ShrackThingy,53687261-636b-4546-9869-6e67792e6b69,rev?*
G04 #@! TF.SameCoordinates,Original*
G04 #@! TF.FileFunction,Legend,Bot*
G04 #@! TF.FilePolarity,Positive*
%FSLAX46Y46*%
G04 Gerber Fmt 4.6, Leading zero omitted, Abs format (unit mm)*
G04 Created by KiCad (PCBNEW 8.0.1) date 2024-05-23 13:26:50*
%MOMM*%
%LPD*%
G01*
G04 APERTURE LIST*
G04 Aperture macros list*
%AMRoundRect*
0 Rectangle with rounded corners*
0 $1 Rounding radius*
0 $2 $3 $4 $5 $6 $7 $8 $9 X,Y pos of 4 corners*
0 Add a 4 corners polygon primitive as box body*
4,1,4,$2,$3,$4,$5,$6,$7,$8,$9,$2,$3,0*
0 Add four circle primitives for the rounded corners*
1,1,$1+$1,$2,$3*
1,1,$1+$1,$4,$5*
1,1,$1+$1,$6,$7*
1,1,$1+$1,$8,$9*
0 Add four rect primitives between the rounded corners*
20,1,$1+$1,$2,$3,$4,$5,0*
20,1,$1+$1,$4,$5,$6,$7,0*
20,1,$1+$1,$6,$7,$8,$9,0*
20,1,$1+$1,$8,$9,$2,$3,0*%
G04 Aperture macros list end*
%ADD10C,0.150000*%
%ADD11C,0.120000*%
%ADD12R,2.000000X1.905000*%
%ADD13O,2.000000X1.905000*%
%ADD14R,1.500000X1.500000*%
%ADD15C,1.500000*%
%ADD16R,1.600000X1.600000*%
%ADD17O,1.600000X1.600000*%
%ADD18C,3.200000*%
%ADD19R,2.500000X2.500000*%
%ADD20C,2.500000*%
%ADD21C,5.700000*%
%ADD22R,1.905000X2.000000*%
%ADD23O,1.905000X2.000000*%
%ADD24RoundRect,0.102000X-1.000000X-1.000000X1.000000X-1.000000X1.000000X1.000000X-1.000000X1.000000X0*%
%ADD25C,2.204000*%
%ADD26RoundRect,0.250000X0.400000X0.625000X-0.400000X0.625000X-0.400000X-0.625000X0.400000X-0.625000X0*%
%ADD27C,0.800000*%
G04 APERTURE END LIST*
D10*
G36*
X213657048Y-141194658D02*
G01*
X213657048Y-141062034D01*
X213318039Y-141062034D01*
X213269406Y-141053946D01*
X213227467Y-141027331D01*
X213220341Y-141019780D01*
X213195130Y-140977358D01*
X213184361Y-140928589D01*
X213183461Y-140907428D01*
X213189548Y-140855385D01*
X213209717Y-140809437D01*
X213220341Y-140795565D01*
X213260176Y-140765061D01*
X213310530Y-140753233D01*
X213318039Y-140753066D01*
X213657048Y-140753066D01*
X213657048Y-140620443D01*
X213323412Y-140620443D01*
X213271343Y-140623949D01*
X213223520Y-140634468D01*
X213175819Y-140654137D01*
X213171737Y-140656346D01*
X213130506Y-140684378D01*
X213096143Y-140719105D01*
X213070865Y-140756486D01*
X213050424Y-140803303D01*
X213038467Y-140855431D01*
X213034961Y-140907428D01*
X213038515Y-140959215D01*
X213050634Y-141011332D01*
X213071353Y-141058370D01*
X213099582Y-141099323D01*
X213134564Y-141133523D01*
X213172226Y-141158754D01*
X213219182Y-141179195D01*
X213271391Y-141191151D01*
X213323412Y-141194658D01*
X213657048Y-141194658D01*
G37*
G36*
X213717864Y-141615000D02*
G01*
X213717864Y-140620443D01*
X213578401Y-140620443D01*
X213578401Y-141615000D01*
X213717864Y-141615000D01*
G37*
G36*
X213158792Y-141615000D02*
G01*
X213386427Y-141163883D01*
X213247697Y-141132376D01*
X212993196Y-141615000D01*
X213158792Y-141615000D01*
G37*
G36*
X212312491Y-140621175D02*
G01*
X212312491Y-140745495D01*
X212569678Y-141615000D01*
X212717934Y-141615000D01*
X212460990Y-140753555D01*
X212713782Y-140753555D01*
X212713782Y-140896437D01*
X212853244Y-140896437D01*
X212853244Y-140621175D01*
X212312491Y-140621175D01*
G37*
G36*
X211881646Y-140621175D02*
G01*
X211881646Y-141615000D01*
X212021109Y-141615000D01*
X212021109Y-140772850D01*
X212162526Y-140859556D01*
X212162526Y-140715453D01*
X212021109Y-140621175D01*
X211881646Y-140621175D01*
G37*
G36*
X213786008Y-143394658D02*
G01*
X213786008Y-143262034D01*
X213446999Y-143262034D01*
X213398366Y-143253946D01*
X213356427Y-143227331D01*
X213349301Y-143219780D01*
X213324090Y-143177358D01*
X213313321Y-143128589D01*
X213312421Y-143107428D01*
X213318508Y-143055385D01*
X213338677Y-143009437D01*
X213349301Y-142995565D01*
X213389136Y-142965061D01*
X213439490Y-142953233D01*
X213446999Y-142953066D01*
X213786008Y-142953066D01*
X213786008Y-142820443D01*
X213452372Y-142820443D01*
X213400303Y-142823949D01*
X213352480Y-142834468D01*
X213304779Y-142854137D01*
X213300697Y-142856346D01*
X213259466Y-142884378D01*
X213225103Y-142919105D01*
X213199825Y-142956486D01*
X213179384Y-143003303D01*
X213167427Y-143055431D01*
X213163921Y-143107428D01*
X213167475Y-143159215D01*
X213179594Y-143211332D01*
X213200313Y-143258370D01*
X213228542Y-143299323D01*
X213263524Y-143333523D01*
X213301186Y-143358754D01*
X213348142Y-143379195D01*
X213400351Y-143391151D01*
X213452372Y-143394658D01*
X213786008Y-143394658D01*
G37*
G36*
X213846824Y-143815000D02*
G01*
X213846824Y-142820443D01*
X213707361Y-142820443D01*
X213707361Y-143815000D01*
X213846824Y-143815000D01*
G37*
G36*
X213287752Y-143815000D02*
G01*
X213515387Y-143363883D01*
X213376657Y-143332376D01*
X213122156Y-143815000D01*
X213287752Y-143815000D01*
G37*
G36*
X212441451Y-142821175D02*
G01*
X212441451Y-142945495D01*
X212698638Y-143815000D01*
X212846894Y-143815000D01*
X212589950Y-142953555D01*
X212842742Y-142953555D01*
X212842742Y-143096437D01*
X212982204Y-143096437D01*
X212982204Y-142821175D01*
X212441451Y-142821175D01*
G37*
G36*
X212265596Y-143815000D02*
G01*
X212265596Y-143694099D01*
X211919015Y-143231992D01*
X211890818Y-143189003D01*
X211872121Y-143149926D01*
X211858049Y-143101182D01*
X211855268Y-143069815D01*
X211855268Y-143068593D01*
X211862942Y-143018626D01*
X211890195Y-142976270D01*
X211932449Y-142951540D01*
X211981442Y-142943426D01*
X211989357Y-142943297D01*
X212037723Y-142950169D01*
X212082694Y-142974853D01*
X212087543Y-142979200D01*
X212116541Y-143019408D01*
X212131888Y-143068748D01*
X212133705Y-143080806D01*
X212133705Y-143081538D01*
X212277808Y-143081538D01*
X212277808Y-143080806D01*
X212267071Y-143027369D01*
X212250887Y-142979472D01*
X212225722Y-142931517D01*
X212193444Y-142890797D01*
X212184263Y-142881748D01*
X212143963Y-142850759D01*
X212098290Y-142828625D01*
X212047243Y-142815344D01*
X211998169Y-142810986D01*
X211990823Y-142810917D01*
X211935080Y-142814155D01*
X211885182Y-142823867D01*
X211835311Y-142842895D01*
X211793072Y-142870380D01*
X211783705Y-142878572D01*
X211751648Y-142915896D01*
X211728750Y-142960211D01*
X211715011Y-143011517D01*
X211710503Y-143062145D01*
X211710432Y-143069815D01*
X211710432Y-143070547D01*
X211715262Y-143121133D01*
X211728485Y-143170381D01*
X211732414Y-143181189D01*
X211752938Y-143227176D01*
X211779185Y-143271470D01*
X211793230Y-143291343D01*
X212080948Y-143682376D01*
X211705059Y-143682376D01*
X211705059Y-143815000D01*
X212265596Y-143815000D01*
G37*
D11*
X216072936Y-140090000D02*
X217527064Y-140090000D01*
X216072936Y-141910000D02*
X217527064Y-141910000D01*
X216072936Y-142490000D02*
X217527064Y-142490000D01*
X216072936Y-144310000D02*
X217527064Y-144310000D01*
%LPC*%
D12*
X358655000Y-186540000D03*
D13*
X358655000Y-184000000D03*
X358655000Y-181460000D03*
D12*
X286000000Y-181460000D03*
D13*
X286000000Y-184000000D03*
X286000000Y-186540000D03*
D12*
X272200000Y-199940000D03*
D13*
X272200000Y-197400000D03*
X272200000Y-194860000D03*
D14*
X180240000Y-146460000D03*
D15*
X180240000Y-149000000D03*
X180240000Y-151540000D03*
D12*
X232800000Y-186540000D03*
D13*
X232800000Y-184000000D03*
X232800000Y-181460000D03*
D12*
X264455000Y-197940000D03*
D13*
X264455000Y-195400000D03*
X264455000Y-192860000D03*
D16*
X341400000Y-181025000D03*
D17*
X341400000Y-178485000D03*
X341400000Y-175945000D03*
X341400000Y-173405000D03*
X341400000Y-170865000D03*
X341400000Y-168325000D03*
X341400000Y-165785000D03*
X333780000Y-165785000D03*
X333780000Y-168325000D03*
X333780000Y-170865000D03*
X333780000Y-173405000D03*
X333780000Y-175945000D03*
X333780000Y-178485000D03*
X333780000Y-181025000D03*
D12*
X317200000Y-181460000D03*
D13*
X317200000Y-184000000D03*
X317200000Y-186540000D03*
D16*
X279000000Y-180825000D03*
D17*
X279000000Y-178285000D03*
X279000000Y-175745000D03*
X279000000Y-173205000D03*
X279000000Y-170665000D03*
X279000000Y-168125000D03*
X279000000Y-165585000D03*
X271380000Y-165585000D03*
X271380000Y-168125000D03*
X271380000Y-170665000D03*
X271380000Y-173205000D03*
X271380000Y-175745000D03*
X271380000Y-178285000D03*
X271380000Y-180825000D03*
D12*
X192200000Y-192860000D03*
D13*
X192200000Y-195400000D03*
X192200000Y-197940000D03*
D12*
X295600000Y-209340000D03*
D13*
X295600000Y-206800000D03*
X295600000Y-204260000D03*
D12*
X286000000Y-192860000D03*
D13*
X286000000Y-195400000D03*
X286000000Y-197940000D03*
D12*
X185600000Y-187260000D03*
D13*
X185600000Y-189800000D03*
X185600000Y-192340000D03*
D18*
X363250000Y-220500000D03*
X374680000Y-220500000D03*
D14*
X364520000Y-214150000D03*
D15*
X365790000Y-211610000D03*
X367060000Y-214150000D03*
X368330000Y-211610000D03*
X369600000Y-214150000D03*
X370870000Y-211610000D03*
X372140000Y-214150000D03*
X373410000Y-211610000D03*
D12*
X240400000Y-199940000D03*
D13*
X240400000Y-197400000D03*
X240400000Y-194860000D03*
D19*
X279350000Y-133245000D03*
D20*
X271850000Y-133245000D03*
D12*
X232800000Y-197940000D03*
D13*
X232800000Y-195400000D03*
X232800000Y-192860000D03*
D16*
X247400000Y-180825000D03*
D17*
X247400000Y-178285000D03*
X247400000Y-175745000D03*
X247400000Y-173205000D03*
X247400000Y-170665000D03*
X247400000Y-168125000D03*
X247400000Y-165585000D03*
X239780000Y-165585000D03*
X239780000Y-168125000D03*
X239780000Y-170665000D03*
X239780000Y-173205000D03*
X239780000Y-175745000D03*
X239780000Y-178285000D03*
X239780000Y-180825000D03*
D21*
X380800000Y-224600000D03*
D12*
X223200000Y-192860000D03*
D13*
X223200000Y-195400000D03*
X223200000Y-197940000D03*
D12*
X223250000Y-181460000D03*
D13*
X223250000Y-184000000D03*
X223250000Y-186540000D03*
D12*
X295600000Y-197940000D03*
D13*
X295600000Y-195400000D03*
X295600000Y-192860000D03*
D12*
X278200000Y-194860000D03*
D13*
X278200000Y-197400000D03*
X278200000Y-199940000D03*
D21*
X380800000Y-131600000D03*
D14*
X190440000Y-146460000D03*
D15*
X190440000Y-149000000D03*
X190440000Y-151540000D03*
D12*
X254800000Y-192860000D03*
D13*
X254800000Y-195400000D03*
X254800000Y-197940000D03*
D19*
X213750000Y-133245000D03*
D20*
X206250000Y-133245000D03*
D12*
X317200000Y-192860000D03*
D13*
X317200000Y-195400000D03*
X317200000Y-197940000D03*
D12*
X170400000Y-197800000D03*
D13*
X170400000Y-195260000D03*
X170400000Y-192720000D03*
D12*
X326800000Y-209340000D03*
D13*
X326800000Y-206800000D03*
X326800000Y-204260000D03*
D14*
X190440000Y-153660000D03*
D15*
X190440000Y-156200000D03*
X190440000Y-158740000D03*
D21*
X158800000Y-224600000D03*
D12*
X358600000Y-197940000D03*
D13*
X358600000Y-195400000D03*
X358600000Y-192860000D03*
D16*
X374000000Y-180700000D03*
D17*
X374000000Y-178160000D03*
X374000000Y-175620000D03*
X374000000Y-173080000D03*
X374000000Y-170540000D03*
X374000000Y-168000000D03*
X374000000Y-165460000D03*
X366380000Y-165460000D03*
X366380000Y-168000000D03*
X366380000Y-170540000D03*
X366380000Y-173080000D03*
X366380000Y-175620000D03*
X366380000Y-178160000D03*
X366380000Y-180700000D03*
D18*
X269447500Y-220500000D03*
X280877500Y-220500000D03*
D14*
X270717500Y-214150000D03*
D15*
X271987500Y-211610000D03*
X273257500Y-214150000D03*
X274527500Y-211610000D03*
X275797500Y-214150000D03*
X277067500Y-211610000D03*
X278337500Y-214150000D03*
X279607500Y-211610000D03*
D12*
X340600000Y-194860000D03*
D13*
X340600000Y-197400000D03*
X340600000Y-199940000D03*
D12*
X202000000Y-188600000D03*
D13*
X202000000Y-186060000D03*
X202000000Y-183520000D03*
D12*
X176800000Y-192340000D03*
D13*
X176800000Y-189800000D03*
X176800000Y-187260000D03*
D12*
X170400000Y-209200000D03*
D13*
X170400000Y-206660000D03*
X170400000Y-204120000D03*
D12*
X286000000Y-204260000D03*
D13*
X286000000Y-206800000D03*
X286000000Y-209340000D03*
D14*
X180240000Y-139260000D03*
D15*
X180240000Y-141800000D03*
X180240000Y-144340000D03*
D12*
X192145000Y-204260000D03*
D13*
X192145000Y-206800000D03*
X192145000Y-209340000D03*
D12*
X264400000Y-209340000D03*
D13*
X264400000Y-206800000D03*
X264400000Y-204260000D03*
D12*
X232800000Y-209340000D03*
D13*
X232800000Y-206800000D03*
X232800000Y-204260000D03*
D16*
X310400000Y-181025000D03*
D17*
X310400000Y-178485000D03*
X310400000Y-175945000D03*
X310400000Y-173405000D03*
X310400000Y-170865000D03*
X310400000Y-168325000D03*
X310400000Y-165785000D03*
X302780000Y-165785000D03*
X302780000Y-168325000D03*
X302780000Y-170865000D03*
X302780000Y-173405000D03*
X302780000Y-175945000D03*
X302780000Y-178485000D03*
X302780000Y-181025000D03*
D18*
X206895000Y-220500000D03*
X218325000Y-220500000D03*
D14*
X208165000Y-214150000D03*
D15*
X209435000Y-211610000D03*
X210705000Y-214150000D03*
X211975000Y-211610000D03*
X213245000Y-214150000D03*
X214515000Y-211610000D03*
X215785000Y-214150000D03*
X217055000Y-211610000D03*
D12*
X264400000Y-186540000D03*
D13*
X264400000Y-184000000D03*
X264400000Y-181460000D03*
D21*
X158800000Y-131600000D03*
D12*
X170400000Y-186600000D03*
D13*
X170400000Y-184060000D03*
X170400000Y-181520000D03*
D18*
X300645000Y-220500000D03*
X312075000Y-220500000D03*
D14*
X301915000Y-214150000D03*
D15*
X303185000Y-211610000D03*
X304455000Y-214150000D03*
X305725000Y-211610000D03*
X306995000Y-214150000D03*
X308265000Y-211610000D03*
X309535000Y-214150000D03*
X310805000Y-211610000D03*
D16*
X215800000Y-180800000D03*
D17*
X215800000Y-178260000D03*
X215800000Y-175720000D03*
X215800000Y-173180000D03*
X215800000Y-170640000D03*
X215800000Y-168100000D03*
X215800000Y-165560000D03*
X208180000Y-165560000D03*
X208180000Y-168100000D03*
X208180000Y-170640000D03*
X208180000Y-173180000D03*
X208180000Y-175720000D03*
X208180000Y-178260000D03*
X208180000Y-180800000D03*
D12*
X348600000Y-192860000D03*
D13*
X348600000Y-195400000D03*
X348600000Y-197940000D03*
D12*
X317200000Y-204260000D03*
D13*
X317200000Y-206800000D03*
X317200000Y-209340000D03*
D22*
X209740000Y-143800000D03*
D23*
X207200000Y-143800000D03*
X204660000Y-143800000D03*
D24*
X174320000Y-138460000D03*
D25*
X174320000Y-141000000D03*
X174320000Y-143540000D03*
X174320000Y-146080000D03*
X174320000Y-148620000D03*
X174320000Y-151160000D03*
X174320000Y-153700000D03*
X174320000Y-156240000D03*
X174320000Y-158780000D03*
X174320000Y-161320000D03*
X174320000Y-163860000D03*
X174320000Y-166400000D03*
X174320000Y-168940000D03*
X174320000Y-171480000D03*
X174320000Y-174020000D03*
X199720000Y-174020000D03*
X199720000Y-171480000D03*
X199720000Y-168940000D03*
X199720000Y-166400000D03*
X199720000Y-163860000D03*
X199720000Y-161320000D03*
X199720000Y-158780000D03*
X199720000Y-156240000D03*
X199720000Y-153700000D03*
X199720000Y-151160000D03*
X199720000Y-148620000D03*
X199720000Y-146080000D03*
X199720000Y-143540000D03*
X199720000Y-141000000D03*
X199720000Y-138460000D03*
D14*
X180240000Y-160860000D03*
D15*
X180240000Y-163400000D03*
X180240000Y-165940000D03*
D12*
X246800000Y-194860000D03*
D13*
X246800000Y-197400000D03*
X246800000Y-199940000D03*
D12*
X326745000Y-186540000D03*
D13*
X326745000Y-184000000D03*
X326745000Y-181460000D03*
D12*
X334800000Y-199940000D03*
D13*
X334800000Y-197400000D03*
X334800000Y-194860000D03*
D14*
X180240000Y-153660000D03*
D15*
X180240000Y-156200000D03*
X180240000Y-158740000D03*
D12*
X223200000Y-204260000D03*
D13*
X223200000Y-206800000D03*
X223200000Y-209340000D03*
D18*
X232552500Y-135950000D03*
X221122500Y-135950000D03*
D14*
X231282500Y-142300000D03*
D15*
X230012500Y-144840000D03*
X228742500Y-142300000D03*
X227472500Y-144840000D03*
X226202500Y-142300000D03*
X224932500Y-144840000D03*
X223662500Y-142300000D03*
X222392500Y-144840000D03*
D12*
X358655000Y-209340000D03*
D13*
X358655000Y-206800000D03*
X358655000Y-204260000D03*
D18*
X175645000Y-220500000D03*
X187075000Y-220500000D03*
D14*
X176915000Y-214150000D03*
D15*
X178185000Y-211610000D03*
X179455000Y-214150000D03*
X180725000Y-211610000D03*
X181995000Y-214150000D03*
X183265000Y-211610000D03*
X184535000Y-214150000D03*
X185805000Y-211610000D03*
D22*
X248460000Y-134945000D03*
D23*
X251000000Y-134945000D03*
X253540000Y-134945000D03*
D12*
X309055000Y-194860000D03*
D13*
X309055000Y-197400000D03*
X309055000Y-199940000D03*
D18*
X331947500Y-220500000D03*
X343377500Y-220500000D03*
D14*
X333217500Y-214150000D03*
D15*
X334487500Y-211610000D03*
X335757500Y-214150000D03*
X337027500Y-211610000D03*
X338297500Y-214150000D03*
X339567500Y-211610000D03*
X340837500Y-214150000D03*
X342107500Y-211610000D03*
D12*
X209250000Y-200040000D03*
D13*
X209250000Y-197500000D03*
X209250000Y-194960000D03*
D12*
X348600000Y-204260000D03*
D13*
X348600000Y-206800000D03*
X348600000Y-209340000D03*
D12*
X254800000Y-204260000D03*
D13*
X254800000Y-206800000D03*
X254800000Y-209340000D03*
D14*
X190440000Y-160860000D03*
D15*
X190440000Y-163400000D03*
X190440000Y-165940000D03*
D18*
X238145000Y-220500000D03*
X249575000Y-220500000D03*
D14*
X239415000Y-214150000D03*
D15*
X240685000Y-211610000D03*
X241955000Y-214150000D03*
X243225000Y-211610000D03*
X244495000Y-214150000D03*
X245765000Y-211610000D03*
X247035000Y-214150000D03*
X248305000Y-211610000D03*
D12*
X202000000Y-199600000D03*
D13*
X202000000Y-197060000D03*
X202000000Y-194520000D03*
D12*
X254800000Y-181460000D03*
D13*
X254800000Y-184000000D03*
X254800000Y-186540000D03*
D12*
X369200000Y-197940000D03*
D13*
X369200000Y-195400000D03*
X369200000Y-192860000D03*
D12*
X326800000Y-197940000D03*
D13*
X326800000Y-195400000D03*
X326800000Y-192860000D03*
D12*
X348600000Y-181460000D03*
D13*
X348600000Y-184000000D03*
X348600000Y-186540000D03*
D12*
X202000000Y-211000000D03*
D13*
X202000000Y-208460000D03*
X202000000Y-205920000D03*
D12*
X295600000Y-186540000D03*
D13*
X295600000Y-184000000D03*
X295600000Y-181460000D03*
D12*
X215305000Y-194960000D03*
D13*
X215305000Y-197500000D03*
X215305000Y-200040000D03*
D12*
X303800000Y-199940000D03*
D13*
X303800000Y-197400000D03*
X303800000Y-194860000D03*
D26*
X218350000Y-141000000D03*
X215250000Y-141000000D03*
X218350000Y-143400000D03*
X215250000Y-143400000D03*
D27*
X182600000Y-139200000D03*
X203600000Y-180800000D03*
X204200000Y-149200000D03*
X177400000Y-172700000D03*
X180600000Y-172700000D03*
X183800061Y-172700000D03*
X179200000Y-178800000D03*
X186800000Y-171400000D03*
X185200000Y-175600000D03*
X190000000Y-172700000D03*
X193200000Y-171400000D03*
X191400000Y-160860000D03*
X196400000Y-172700000D03*
X207500000Y-187750000D03*
X217500000Y-187750000D03*
X245575000Y-173825954D03*
X246750000Y-187750000D03*
X272200000Y-187800000D03*
X301600000Y-187800000D03*
X311600000Y-187800000D03*
X340600000Y-187800000D03*
X339600000Y-173800000D03*
X371000000Y-187800000D03*
X373000000Y-187800000D03*
X205500000Y-187750000D03*
X244750000Y-187750000D03*
X274200000Y-187800000D03*
X299600000Y-187800000D03*
X338600000Y-187800000D03*
X209500000Y-187750000D03*
X238750000Y-187750000D03*
X248750000Y-187750000D03*
X278200000Y-187800000D03*
X277000000Y-174200000D03*
X303600000Y-187800000D03*
X332600000Y-187800000D03*
X342600000Y-187800000D03*
X209200000Y-137400000D03*
X211500000Y-187750000D03*
X236750000Y-187750000D03*
X276200000Y-187800000D03*
X305600000Y-187800000D03*
X330600000Y-187800000D03*
X215500000Y-187750000D03*
X213803364Y-173803364D03*
X240750000Y-187750000D03*
X270200000Y-187800000D03*
X280200000Y-187800000D03*
X309600000Y-187800000D03*
X308600000Y-174200000D03*
X334600000Y-187800000D03*
X369000000Y-187800000D03*
X213500000Y-187750000D03*
X242750000Y-187750000D03*
X268200000Y-187800000D03*
X307600000Y-187800000D03*
X336600000Y-187800000D03*
X367000000Y-187800000D03*
X221600000Y-178200000D03*
X300800000Y-147800000D03*
X296200000Y-144000000D03*
X205400000Y-158800000D03*
X204800000Y-141000000D03*
X203400000Y-139600000D03*
X207516636Y-156716636D03*
X253600000Y-178285000D03*
X284915000Y-178285000D03*
X316000000Y-178200000D03*
X347800000Y-177800000D03*
X363400000Y-181800000D03*
%LPD*%
M02*
