G04 #@! TF.GenerationSoftware,KiCad,Pcbnew,8.0.4*
G04 #@! TF.CreationDate,2024-11-10T20:41:49+01:00*
G04 #@! TF.ProjectId,SchrackMulticlock,53636872-6163-46b4-9d75-6c7469636c6f,v0.0.4*
G04 #@! TF.SameCoordinates,Original*
G04 #@! TF.FileFunction,Paste,Bot*
G04 #@! TF.FilePolarity,Positive*
%FSLAX46Y46*%
G04 Gerber Fmt 4.6, Leading zero omitted, Abs format (unit mm)*
G04 Created by KiCad (PCBNEW 8.0.4) date 2024-11-10 20:41:49*
%MOMM*%
%LPD*%
G01*
G04 APERTURE LIST*
G04 Aperture macros list*
%AMRoundRect*
0 Rectangle with rounded corners*
0 $1 Rounding radius*
0 $2 $3 $4 $5 $6 $7 $8 $9 X,Y pos of 4 corners*
0 Add a 4 corners polygon primitive as box body*
4,1,4,$2,$3,$4,$5,$6,$7,$8,$9,$2,$3,0*
0 Add four circle primitives for the rounded corners*
1,1,$1+$1,$2,$3*
1,1,$1+$1,$4,$5*
1,1,$1+$1,$6,$7*
1,1,$1+$1,$8,$9*
0 Add four rect primitives between the rounded corners*
20,1,$1+$1,$2,$3,$4,$5,0*
20,1,$1+$1,$4,$5,$6,$7,0*
20,1,$1+$1,$6,$7,$8,$9,0*
20,1,$1+$1,$8,$9,$2,$3,0*%
G04 Aperture macros list end*
%ADD10RoundRect,0.250000X0.475000X-0.337500X0.475000X0.337500X-0.475000X0.337500X-0.475000X-0.337500X0*%
%ADD11RoundRect,0.250000X0.450000X-0.350000X0.450000X0.350000X-0.450000X0.350000X-0.450000X-0.350000X0*%
%ADD12RoundRect,0.250000X-0.475000X0.337500X-0.475000X-0.337500X0.475000X-0.337500X0.475000X0.337500X0*%
%ADD13RoundRect,0.162500X0.162500X-0.837500X0.162500X0.837500X-0.162500X0.837500X-0.162500X-0.837500X0*%
%ADD14R,2.000000X2.500000*%
%ADD15RoundRect,0.250000X0.337500X0.475000X-0.337500X0.475000X-0.337500X-0.475000X0.337500X-0.475000X0*%
%ADD16RoundRect,0.250000X-0.425000X0.537500X-0.425000X-0.537500X0.425000X-0.537500X0.425000X0.537500X0*%
%ADD17R,3.000000X4.000000*%
%ADD18RoundRect,0.250000X-0.337500X-0.475000X0.337500X-0.475000X0.337500X0.475000X-0.337500X0.475000X0*%
%ADD19RoundRect,0.137500X-0.862500X-0.137500X0.862500X-0.137500X0.862500X0.137500X-0.862500X0.137500X0*%
%ADD20RoundRect,0.250000X-0.450000X0.350000X-0.450000X-0.350000X0.450000X-0.350000X0.450000X0.350000X0*%
%ADD21RoundRect,0.250000X-0.350000X-0.450000X0.350000X-0.450000X0.350000X0.450000X-0.350000X0.450000X0*%
%ADD22RoundRect,0.250000X-0.537500X-0.425000X0.537500X-0.425000X0.537500X0.425000X-0.537500X0.425000X0*%
%ADD23RoundRect,0.250000X0.350000X0.450000X-0.350000X0.450000X-0.350000X-0.450000X0.350000X-0.450000X0*%
G04 APERTURE END LIST*
D10*
X138320000Y-75805000D03*
X138320000Y-73730000D03*
D11*
X235340000Y-103080000D03*
X235340000Y-101080000D03*
D12*
X245320000Y-97042500D03*
X245320000Y-99117500D03*
D13*
X157270000Y-107540000D03*
X156320000Y-107540000D03*
X155370000Y-107540000D03*
X155370000Y-104120000D03*
X156320000Y-104120000D03*
X157270000Y-104120000D03*
D14*
X181070000Y-109330000D03*
X196070000Y-109330000D03*
D15*
X147107500Y-114580000D03*
X145032500Y-114580000D03*
D16*
X136320000Y-77830000D03*
X136320000Y-80705000D03*
D11*
X237340000Y-103080000D03*
X237340000Y-101080000D03*
X245340000Y-103080000D03*
X245340000Y-101080000D03*
D12*
X239320000Y-97042500D03*
X239320000Y-99117500D03*
D17*
X170780000Y-116580000D03*
X175860000Y-116580000D03*
D12*
X235320000Y-97042500D03*
X235320000Y-99117500D03*
D11*
X230320000Y-103080000D03*
X230320000Y-101080000D03*
X243340000Y-103080000D03*
X243340000Y-101080000D03*
D18*
X133532500Y-114580000D03*
X135607500Y-114580000D03*
D19*
X124670000Y-82065000D03*
X124670000Y-80795000D03*
X124670000Y-79525000D03*
X124670000Y-78255000D03*
X124670000Y-76985000D03*
X124670000Y-75715000D03*
X124670000Y-74445000D03*
X124670000Y-73175000D03*
X124670000Y-71905000D03*
X124670000Y-70635000D03*
X124670000Y-69365000D03*
X124670000Y-68095000D03*
X133970000Y-68095000D03*
X133970000Y-69365000D03*
X133970000Y-70635000D03*
X133970000Y-71905000D03*
X133970000Y-73175000D03*
X133970000Y-74445000D03*
X133970000Y-75715000D03*
X133970000Y-76985000D03*
X133970000Y-78255000D03*
X133970000Y-79525000D03*
X133970000Y-80795000D03*
X133970000Y-82065000D03*
D11*
X136320000Y-75767500D03*
X136320000Y-73767500D03*
D20*
X178820000Y-107830000D03*
X178820000Y-109830000D03*
D21*
X167070000Y-73330000D03*
X169070000Y-73330000D03*
D12*
X243320000Y-97042500D03*
X243320000Y-99117500D03*
X241320000Y-97042500D03*
X241320000Y-99117500D03*
D11*
X239320000Y-103080000D03*
X239320000Y-101080000D03*
D22*
X131682500Y-102530000D03*
X134557500Y-102530000D03*
D11*
X221320000Y-103080000D03*
X221320000Y-101080000D03*
D18*
X170782500Y-111330000D03*
X172857500Y-111330000D03*
X131532500Y-104580000D03*
X133607500Y-104580000D03*
D20*
X168070000Y-102355000D03*
X168070000Y-104355000D03*
D11*
X164570000Y-104355000D03*
X164570000Y-102355000D03*
D22*
X170882500Y-109230000D03*
X173757500Y-109230000D03*
D23*
X133570000Y-106580000D03*
X131570000Y-106580000D03*
D12*
X237320000Y-97042500D03*
X237320000Y-99117500D03*
D21*
X211570000Y-73330000D03*
X213570000Y-73330000D03*
D11*
X241340000Y-103080000D03*
X241340000Y-101080000D03*
M02*
