%TF.GenerationSoftware,KiCad,Pcbnew,8.0.4*%
%TF.CreationDate,2024-11-10T20:41:44+01:00*%
%TF.ProjectId,SchrackMulticlock,53636872-6163-46b4-9d75-6c7469636c6f,v0.0.4*%
%TF.SameCoordinates,Original*%
%TF.FileFunction,Drillmap*%
%TF.FilePolarity,Positive*%
%FSLAX45Y45*%
G04 Gerber Fmt 4.5, Leading zero omitted, Abs format (unit mm)*
G04 Created by KiCad (PCBNEW 8.0.4) date 2024-11-10 20:41:44*
%MOMM*%
%LPD*%
G01*
G04 APERTURE LIST*
%ADD10C,0.100000*%
%ADD11C,0.200000*%
G04 APERTURE END LIST*
D10*
X25882000Y-5883000D02*
X12682000Y-5883000D01*
X12682000Y-11883000D02*
X25882000Y-11883000D01*
X12682000Y-11883000D02*
G75*
G02*
X12282000Y-11483000I0J400000D01*
G01*
X25882000Y-5883000D02*
G75*
G02*
X26282000Y-6283000I0J-400000D01*
G01*
X12282000Y-6283000D02*
G75*
G02*
X12682000Y-5883000I400000J0D01*
G01*
X26282000Y-11483000D02*
G75*
G02*
X25882000Y-11883000I-400000J0D01*
G01*
X12282000Y-6283000D02*
X12282000Y-11483000D01*
X26282000Y-11483000D02*
X26282000Y-6283000D01*
D11*
D10*
X15313000Y-11285000D02*
X15373000Y-11345000D01*
X15373000Y-11285000D02*
X15313000Y-11345000D01*
X15891000Y-11285000D02*
X15951000Y-11345000D01*
X15951000Y-11285000D02*
X15891000Y-11345000D01*
D11*
X12537777Y-12199484D02*
X12537777Y-11999484D01*
X12537777Y-11999484D02*
X12585396Y-11999484D01*
X12585396Y-11999484D02*
X12613967Y-12009008D01*
X12613967Y-12009008D02*
X12633015Y-12028055D01*
X12633015Y-12028055D02*
X12642539Y-12047103D01*
X12642539Y-12047103D02*
X12652062Y-12085198D01*
X12652062Y-12085198D02*
X12652062Y-12113769D01*
X12652062Y-12113769D02*
X12642539Y-12151865D01*
X12642539Y-12151865D02*
X12633015Y-12170912D01*
X12633015Y-12170912D02*
X12613967Y-12189960D01*
X12613967Y-12189960D02*
X12585396Y-12199484D01*
X12585396Y-12199484D02*
X12537777Y-12199484D01*
X12737777Y-12199484D02*
X12737777Y-12066150D01*
X12737777Y-12104246D02*
X12747301Y-12085198D01*
X12747301Y-12085198D02*
X12756824Y-12075674D01*
X12756824Y-12075674D02*
X12775872Y-12066150D01*
X12775872Y-12066150D02*
X12794920Y-12066150D01*
X12861586Y-12199484D02*
X12861586Y-12066150D01*
X12861586Y-11999484D02*
X12852062Y-12009008D01*
X12852062Y-12009008D02*
X12861586Y-12018531D01*
X12861586Y-12018531D02*
X12871110Y-12009008D01*
X12871110Y-12009008D02*
X12861586Y-11999484D01*
X12861586Y-11999484D02*
X12861586Y-12018531D01*
X12985396Y-12199484D02*
X12966348Y-12189960D01*
X12966348Y-12189960D02*
X12956824Y-12170912D01*
X12956824Y-12170912D02*
X12956824Y-11999484D01*
X13090158Y-12199484D02*
X13071110Y-12189960D01*
X13071110Y-12189960D02*
X13061586Y-12170912D01*
X13061586Y-12170912D02*
X13061586Y-11999484D01*
X13318729Y-12199484D02*
X13318729Y-11999484D01*
X13318729Y-11999484D02*
X13385396Y-12142341D01*
X13385396Y-12142341D02*
X13452062Y-11999484D01*
X13452062Y-11999484D02*
X13452062Y-12199484D01*
X13633015Y-12199484D02*
X13633015Y-12094722D01*
X13633015Y-12094722D02*
X13623491Y-12075674D01*
X13623491Y-12075674D02*
X13604443Y-12066150D01*
X13604443Y-12066150D02*
X13566348Y-12066150D01*
X13566348Y-12066150D02*
X13547301Y-12075674D01*
X13633015Y-12189960D02*
X13613967Y-12199484D01*
X13613967Y-12199484D02*
X13566348Y-12199484D01*
X13566348Y-12199484D02*
X13547301Y-12189960D01*
X13547301Y-12189960D02*
X13537777Y-12170912D01*
X13537777Y-12170912D02*
X13537777Y-12151865D01*
X13537777Y-12151865D02*
X13547301Y-12132817D01*
X13547301Y-12132817D02*
X13566348Y-12123293D01*
X13566348Y-12123293D02*
X13613967Y-12123293D01*
X13613967Y-12123293D02*
X13633015Y-12113769D01*
X13728253Y-12066150D02*
X13728253Y-12266150D01*
X13728253Y-12075674D02*
X13747301Y-12066150D01*
X13747301Y-12066150D02*
X13785396Y-12066150D01*
X13785396Y-12066150D02*
X13804443Y-12075674D01*
X13804443Y-12075674D02*
X13813967Y-12085198D01*
X13813967Y-12085198D02*
X13823491Y-12104246D01*
X13823491Y-12104246D02*
X13823491Y-12161388D01*
X13823491Y-12161388D02*
X13813967Y-12180436D01*
X13813967Y-12180436D02*
X13804443Y-12189960D01*
X13804443Y-12189960D02*
X13785396Y-12199484D01*
X13785396Y-12199484D02*
X13747301Y-12199484D01*
X13747301Y-12199484D02*
X13728253Y-12189960D01*
X13909205Y-12180436D02*
X13918729Y-12189960D01*
X13918729Y-12189960D02*
X13909205Y-12199484D01*
X13909205Y-12199484D02*
X13899682Y-12189960D01*
X13899682Y-12189960D02*
X13909205Y-12180436D01*
X13909205Y-12180436D02*
X13909205Y-12199484D01*
X13909205Y-12075674D02*
X13918729Y-12085198D01*
X13918729Y-12085198D02*
X13909205Y-12094722D01*
X13909205Y-12094722D02*
X13899682Y-12085198D01*
X13899682Y-12085198D02*
X13909205Y-12075674D01*
X13909205Y-12075674D02*
X13909205Y-12094722D01*
D10*
X12217000Y-12498000D02*
X12277000Y-12558000D01*
X12277000Y-12498000D02*
X12217000Y-12558000D01*
D11*
X12575872Y-12419484D02*
X12594920Y-12419484D01*
X12594920Y-12419484D02*
X12613967Y-12429008D01*
X12613967Y-12429008D02*
X12623491Y-12438531D01*
X12623491Y-12438531D02*
X12633015Y-12457579D01*
X12633015Y-12457579D02*
X12642539Y-12495674D01*
X12642539Y-12495674D02*
X12642539Y-12543293D01*
X12642539Y-12543293D02*
X12633015Y-12581388D01*
X12633015Y-12581388D02*
X12623491Y-12600436D01*
X12623491Y-12600436D02*
X12613967Y-12609960D01*
X12613967Y-12609960D02*
X12594920Y-12619484D01*
X12594920Y-12619484D02*
X12575872Y-12619484D01*
X12575872Y-12619484D02*
X12556824Y-12609960D01*
X12556824Y-12609960D02*
X12547301Y-12600436D01*
X12547301Y-12600436D02*
X12537777Y-12581388D01*
X12537777Y-12581388D02*
X12528253Y-12543293D01*
X12528253Y-12543293D02*
X12528253Y-12495674D01*
X12528253Y-12495674D02*
X12537777Y-12457579D01*
X12537777Y-12457579D02*
X12547301Y-12438531D01*
X12547301Y-12438531D02*
X12556824Y-12429008D01*
X12556824Y-12429008D02*
X12575872Y-12419484D01*
X12728253Y-12600436D02*
X12737777Y-12609960D01*
X12737777Y-12609960D02*
X12728253Y-12619484D01*
X12728253Y-12619484D02*
X12718729Y-12609960D01*
X12718729Y-12609960D02*
X12728253Y-12600436D01*
X12728253Y-12600436D02*
X12728253Y-12619484D01*
X12909205Y-12419484D02*
X12871110Y-12419484D01*
X12871110Y-12419484D02*
X12852062Y-12429008D01*
X12852062Y-12429008D02*
X12842539Y-12438531D01*
X12842539Y-12438531D02*
X12823491Y-12467103D01*
X12823491Y-12467103D02*
X12813967Y-12505198D01*
X12813967Y-12505198D02*
X12813967Y-12581388D01*
X12813967Y-12581388D02*
X12823491Y-12600436D01*
X12823491Y-12600436D02*
X12833015Y-12609960D01*
X12833015Y-12609960D02*
X12852062Y-12619484D01*
X12852062Y-12619484D02*
X12890158Y-12619484D01*
X12890158Y-12619484D02*
X12909205Y-12609960D01*
X12909205Y-12609960D02*
X12918729Y-12600436D01*
X12918729Y-12600436D02*
X12928253Y-12581388D01*
X12928253Y-12581388D02*
X12928253Y-12533769D01*
X12928253Y-12533769D02*
X12918729Y-12514722D01*
X12918729Y-12514722D02*
X12909205Y-12505198D01*
X12909205Y-12505198D02*
X12890158Y-12495674D01*
X12890158Y-12495674D02*
X12852062Y-12495674D01*
X12852062Y-12495674D02*
X12833015Y-12505198D01*
X12833015Y-12505198D02*
X12823491Y-12514722D01*
X12823491Y-12514722D02*
X12813967Y-12533769D01*
X13052062Y-12419484D02*
X13071110Y-12419484D01*
X13071110Y-12419484D02*
X13090158Y-12429008D01*
X13090158Y-12429008D02*
X13099682Y-12438531D01*
X13099682Y-12438531D02*
X13109205Y-12457579D01*
X13109205Y-12457579D02*
X13118729Y-12495674D01*
X13118729Y-12495674D02*
X13118729Y-12543293D01*
X13118729Y-12543293D02*
X13109205Y-12581388D01*
X13109205Y-12581388D02*
X13099682Y-12600436D01*
X13099682Y-12600436D02*
X13090158Y-12609960D01*
X13090158Y-12609960D02*
X13071110Y-12619484D01*
X13071110Y-12619484D02*
X13052062Y-12619484D01*
X13052062Y-12619484D02*
X13033015Y-12609960D01*
X13033015Y-12609960D02*
X13023491Y-12600436D01*
X13023491Y-12600436D02*
X13013967Y-12581388D01*
X13013967Y-12581388D02*
X13004443Y-12543293D01*
X13004443Y-12543293D02*
X13004443Y-12495674D01*
X13004443Y-12495674D02*
X13013967Y-12457579D01*
X13013967Y-12457579D02*
X13023491Y-12438531D01*
X13023491Y-12438531D02*
X13033015Y-12429008D01*
X13033015Y-12429008D02*
X13052062Y-12419484D01*
X13242539Y-12419484D02*
X13261586Y-12419484D01*
X13261586Y-12419484D02*
X13280634Y-12429008D01*
X13280634Y-12429008D02*
X13290158Y-12438531D01*
X13290158Y-12438531D02*
X13299682Y-12457579D01*
X13299682Y-12457579D02*
X13309205Y-12495674D01*
X13309205Y-12495674D02*
X13309205Y-12543293D01*
X13309205Y-12543293D02*
X13299682Y-12581388D01*
X13299682Y-12581388D02*
X13290158Y-12600436D01*
X13290158Y-12600436D02*
X13280634Y-12609960D01*
X13280634Y-12609960D02*
X13261586Y-12619484D01*
X13261586Y-12619484D02*
X13242539Y-12619484D01*
X13242539Y-12619484D02*
X13223491Y-12609960D01*
X13223491Y-12609960D02*
X13213967Y-12600436D01*
X13213967Y-12600436D02*
X13204443Y-12581388D01*
X13204443Y-12581388D02*
X13194920Y-12543293D01*
X13194920Y-12543293D02*
X13194920Y-12495674D01*
X13194920Y-12495674D02*
X13204443Y-12457579D01*
X13204443Y-12457579D02*
X13213967Y-12438531D01*
X13213967Y-12438531D02*
X13223491Y-12429008D01*
X13223491Y-12429008D02*
X13242539Y-12419484D01*
X13394920Y-12619484D02*
X13394920Y-12486150D01*
X13394920Y-12505198D02*
X13404443Y-12495674D01*
X13404443Y-12495674D02*
X13423491Y-12486150D01*
X13423491Y-12486150D02*
X13452063Y-12486150D01*
X13452063Y-12486150D02*
X13471110Y-12495674D01*
X13471110Y-12495674D02*
X13480634Y-12514722D01*
X13480634Y-12514722D02*
X13480634Y-12619484D01*
X13480634Y-12514722D02*
X13490158Y-12495674D01*
X13490158Y-12495674D02*
X13509205Y-12486150D01*
X13509205Y-12486150D02*
X13537777Y-12486150D01*
X13537777Y-12486150D02*
X13556824Y-12495674D01*
X13556824Y-12495674D02*
X13566348Y-12514722D01*
X13566348Y-12514722D02*
X13566348Y-12619484D01*
X13661586Y-12619484D02*
X13661586Y-12486150D01*
X13661586Y-12505198D02*
X13671110Y-12495674D01*
X13671110Y-12495674D02*
X13690158Y-12486150D01*
X13690158Y-12486150D02*
X13718729Y-12486150D01*
X13718729Y-12486150D02*
X13737777Y-12495674D01*
X13737777Y-12495674D02*
X13747301Y-12514722D01*
X13747301Y-12514722D02*
X13747301Y-12619484D01*
X13747301Y-12514722D02*
X13756824Y-12495674D01*
X13756824Y-12495674D02*
X13775872Y-12486150D01*
X13775872Y-12486150D02*
X13804443Y-12486150D01*
X13804443Y-12486150D02*
X13823491Y-12495674D01*
X13823491Y-12495674D02*
X13833015Y-12514722D01*
X13833015Y-12514722D02*
X13833015Y-12619484D01*
X14223491Y-12409960D02*
X14052063Y-12667103D01*
X14480634Y-12419484D02*
X14499682Y-12419484D01*
X14499682Y-12419484D02*
X14518729Y-12429008D01*
X14518729Y-12429008D02*
X14528253Y-12438531D01*
X14528253Y-12438531D02*
X14537777Y-12457579D01*
X14537777Y-12457579D02*
X14547301Y-12495674D01*
X14547301Y-12495674D02*
X14547301Y-12543293D01*
X14547301Y-12543293D02*
X14537777Y-12581388D01*
X14537777Y-12581388D02*
X14528253Y-12600436D01*
X14528253Y-12600436D02*
X14518729Y-12609960D01*
X14518729Y-12609960D02*
X14499682Y-12619484D01*
X14499682Y-12619484D02*
X14480634Y-12619484D01*
X14480634Y-12619484D02*
X14461586Y-12609960D01*
X14461586Y-12609960D02*
X14452063Y-12600436D01*
X14452063Y-12600436D02*
X14442539Y-12581388D01*
X14442539Y-12581388D02*
X14433015Y-12543293D01*
X14433015Y-12543293D02*
X14433015Y-12495674D01*
X14433015Y-12495674D02*
X14442539Y-12457579D01*
X14442539Y-12457579D02*
X14452063Y-12438531D01*
X14452063Y-12438531D02*
X14461586Y-12429008D01*
X14461586Y-12429008D02*
X14480634Y-12419484D01*
X14633015Y-12600436D02*
X14642539Y-12609960D01*
X14642539Y-12609960D02*
X14633015Y-12619484D01*
X14633015Y-12619484D02*
X14623491Y-12609960D01*
X14623491Y-12609960D02*
X14633015Y-12600436D01*
X14633015Y-12600436D02*
X14633015Y-12619484D01*
X14766348Y-12419484D02*
X14785396Y-12419484D01*
X14785396Y-12419484D02*
X14804444Y-12429008D01*
X14804444Y-12429008D02*
X14813967Y-12438531D01*
X14813967Y-12438531D02*
X14823491Y-12457579D01*
X14823491Y-12457579D02*
X14833015Y-12495674D01*
X14833015Y-12495674D02*
X14833015Y-12543293D01*
X14833015Y-12543293D02*
X14823491Y-12581388D01*
X14823491Y-12581388D02*
X14813967Y-12600436D01*
X14813967Y-12600436D02*
X14804444Y-12609960D01*
X14804444Y-12609960D02*
X14785396Y-12619484D01*
X14785396Y-12619484D02*
X14766348Y-12619484D01*
X14766348Y-12619484D02*
X14747301Y-12609960D01*
X14747301Y-12609960D02*
X14737777Y-12600436D01*
X14737777Y-12600436D02*
X14728253Y-12581388D01*
X14728253Y-12581388D02*
X14718729Y-12543293D01*
X14718729Y-12543293D02*
X14718729Y-12495674D01*
X14718729Y-12495674D02*
X14728253Y-12457579D01*
X14728253Y-12457579D02*
X14737777Y-12438531D01*
X14737777Y-12438531D02*
X14747301Y-12429008D01*
X14747301Y-12429008D02*
X14766348Y-12419484D01*
X14909206Y-12438531D02*
X14918729Y-12429008D01*
X14918729Y-12429008D02*
X14937777Y-12419484D01*
X14937777Y-12419484D02*
X14985396Y-12419484D01*
X14985396Y-12419484D02*
X15004444Y-12429008D01*
X15004444Y-12429008D02*
X15013967Y-12438531D01*
X15013967Y-12438531D02*
X15023491Y-12457579D01*
X15023491Y-12457579D02*
X15023491Y-12476627D01*
X15023491Y-12476627D02*
X15013967Y-12505198D01*
X15013967Y-12505198D02*
X14899682Y-12619484D01*
X14899682Y-12619484D02*
X15023491Y-12619484D01*
X15090158Y-12419484D02*
X15213967Y-12419484D01*
X15213967Y-12419484D02*
X15147301Y-12495674D01*
X15147301Y-12495674D02*
X15175872Y-12495674D01*
X15175872Y-12495674D02*
X15194920Y-12505198D01*
X15194920Y-12505198D02*
X15204444Y-12514722D01*
X15204444Y-12514722D02*
X15213967Y-12533769D01*
X15213967Y-12533769D02*
X15213967Y-12581388D01*
X15213967Y-12581388D02*
X15204444Y-12600436D01*
X15204444Y-12600436D02*
X15194920Y-12609960D01*
X15194920Y-12609960D02*
X15175872Y-12619484D01*
X15175872Y-12619484D02*
X15118729Y-12619484D01*
X15118729Y-12619484D02*
X15099682Y-12609960D01*
X15099682Y-12609960D02*
X15090158Y-12600436D01*
X15385396Y-12419484D02*
X15347301Y-12419484D01*
X15347301Y-12419484D02*
X15328253Y-12429008D01*
X15328253Y-12429008D02*
X15318729Y-12438531D01*
X15318729Y-12438531D02*
X15299682Y-12467103D01*
X15299682Y-12467103D02*
X15290158Y-12505198D01*
X15290158Y-12505198D02*
X15290158Y-12581388D01*
X15290158Y-12581388D02*
X15299682Y-12600436D01*
X15299682Y-12600436D02*
X15309206Y-12609960D01*
X15309206Y-12609960D02*
X15328253Y-12619484D01*
X15328253Y-12619484D02*
X15366348Y-12619484D01*
X15366348Y-12619484D02*
X15385396Y-12609960D01*
X15385396Y-12609960D02*
X15394920Y-12600436D01*
X15394920Y-12600436D02*
X15404444Y-12581388D01*
X15404444Y-12581388D02*
X15404444Y-12533769D01*
X15404444Y-12533769D02*
X15394920Y-12514722D01*
X15394920Y-12514722D02*
X15385396Y-12505198D01*
X15385396Y-12505198D02*
X15366348Y-12495674D01*
X15366348Y-12495674D02*
X15328253Y-12495674D01*
X15328253Y-12495674D02*
X15309206Y-12505198D01*
X15309206Y-12505198D02*
X15299682Y-12514722D01*
X15299682Y-12514722D02*
X15290158Y-12533769D01*
X15480634Y-12419484D02*
X15480634Y-12457579D01*
X15556825Y-12419484D02*
X15556825Y-12457579D01*
X15852063Y-12695674D02*
X15842539Y-12686150D01*
X15842539Y-12686150D02*
X15823491Y-12657579D01*
X15823491Y-12657579D02*
X15813968Y-12638531D01*
X15813968Y-12638531D02*
X15804444Y-12609960D01*
X15804444Y-12609960D02*
X15794920Y-12562341D01*
X15794920Y-12562341D02*
X15794920Y-12524246D01*
X15794920Y-12524246D02*
X15804444Y-12476627D01*
X15804444Y-12476627D02*
X15813968Y-12448055D01*
X15813968Y-12448055D02*
X15823491Y-12429008D01*
X15823491Y-12429008D02*
X15842539Y-12400436D01*
X15842539Y-12400436D02*
X15852063Y-12390912D01*
X15918729Y-12438531D02*
X15928253Y-12429008D01*
X15928253Y-12429008D02*
X15947301Y-12419484D01*
X15947301Y-12419484D02*
X15994920Y-12419484D01*
X15994920Y-12419484D02*
X16013968Y-12429008D01*
X16013968Y-12429008D02*
X16023491Y-12438531D01*
X16023491Y-12438531D02*
X16033015Y-12457579D01*
X16033015Y-12457579D02*
X16033015Y-12476627D01*
X16033015Y-12476627D02*
X16023491Y-12505198D01*
X16023491Y-12505198D02*
X15909206Y-12619484D01*
X15909206Y-12619484D02*
X16033015Y-12619484D01*
X16271110Y-12619484D02*
X16271110Y-12419484D01*
X16356825Y-12619484D02*
X16356825Y-12514722D01*
X16356825Y-12514722D02*
X16347301Y-12495674D01*
X16347301Y-12495674D02*
X16328253Y-12486150D01*
X16328253Y-12486150D02*
X16299682Y-12486150D01*
X16299682Y-12486150D02*
X16280634Y-12495674D01*
X16280634Y-12495674D02*
X16271110Y-12505198D01*
X16480634Y-12619484D02*
X16461587Y-12609960D01*
X16461587Y-12609960D02*
X16452063Y-12600436D01*
X16452063Y-12600436D02*
X16442539Y-12581388D01*
X16442539Y-12581388D02*
X16442539Y-12524246D01*
X16442539Y-12524246D02*
X16452063Y-12505198D01*
X16452063Y-12505198D02*
X16461587Y-12495674D01*
X16461587Y-12495674D02*
X16480634Y-12486150D01*
X16480634Y-12486150D02*
X16509206Y-12486150D01*
X16509206Y-12486150D02*
X16528253Y-12495674D01*
X16528253Y-12495674D02*
X16537777Y-12505198D01*
X16537777Y-12505198D02*
X16547301Y-12524246D01*
X16547301Y-12524246D02*
X16547301Y-12581388D01*
X16547301Y-12581388D02*
X16537777Y-12600436D01*
X16537777Y-12600436D02*
X16528253Y-12609960D01*
X16528253Y-12609960D02*
X16509206Y-12619484D01*
X16509206Y-12619484D02*
X16480634Y-12619484D01*
X16661587Y-12619484D02*
X16642539Y-12609960D01*
X16642539Y-12609960D02*
X16633015Y-12590912D01*
X16633015Y-12590912D02*
X16633015Y-12419484D01*
X16813968Y-12609960D02*
X16794920Y-12619484D01*
X16794920Y-12619484D02*
X16756825Y-12619484D01*
X16756825Y-12619484D02*
X16737777Y-12609960D01*
X16737777Y-12609960D02*
X16728253Y-12590912D01*
X16728253Y-12590912D02*
X16728253Y-12514722D01*
X16728253Y-12514722D02*
X16737777Y-12495674D01*
X16737777Y-12495674D02*
X16756825Y-12486150D01*
X16756825Y-12486150D02*
X16794920Y-12486150D01*
X16794920Y-12486150D02*
X16813968Y-12495674D01*
X16813968Y-12495674D02*
X16823492Y-12514722D01*
X16823492Y-12514722D02*
X16823492Y-12533769D01*
X16823492Y-12533769D02*
X16728253Y-12552817D01*
X16899682Y-12609960D02*
X16918730Y-12619484D01*
X16918730Y-12619484D02*
X16956825Y-12619484D01*
X16956825Y-12619484D02*
X16975873Y-12609960D01*
X16975873Y-12609960D02*
X16985396Y-12590912D01*
X16985396Y-12590912D02*
X16985396Y-12581388D01*
X16985396Y-12581388D02*
X16975873Y-12562341D01*
X16975873Y-12562341D02*
X16956825Y-12552817D01*
X16956825Y-12552817D02*
X16928253Y-12552817D01*
X16928253Y-12552817D02*
X16909206Y-12543293D01*
X16909206Y-12543293D02*
X16899682Y-12524246D01*
X16899682Y-12524246D02*
X16899682Y-12514722D01*
X16899682Y-12514722D02*
X16909206Y-12495674D01*
X16909206Y-12495674D02*
X16928253Y-12486150D01*
X16928253Y-12486150D02*
X16956825Y-12486150D01*
X16956825Y-12486150D02*
X16975873Y-12495674D01*
X17052063Y-12695674D02*
X17061587Y-12686150D01*
X17061587Y-12686150D02*
X17080634Y-12657579D01*
X17080634Y-12657579D02*
X17090158Y-12638531D01*
X17090158Y-12638531D02*
X17099682Y-12609960D01*
X17099682Y-12609960D02*
X17109206Y-12562341D01*
X17109206Y-12562341D02*
X17109206Y-12524246D01*
X17109206Y-12524246D02*
X17099682Y-12476627D01*
X17099682Y-12476627D02*
X17090158Y-12448055D01*
X17090158Y-12448055D02*
X17080634Y-12429008D01*
X17080634Y-12429008D02*
X17061587Y-12400436D01*
X17061587Y-12400436D02*
X17052063Y-12390912D01*
X17413968Y-12695674D02*
X17404444Y-12686150D01*
X17404444Y-12686150D02*
X17385396Y-12657579D01*
X17385396Y-12657579D02*
X17375873Y-12638531D01*
X17375873Y-12638531D02*
X17366349Y-12609960D01*
X17366349Y-12609960D02*
X17356825Y-12562341D01*
X17356825Y-12562341D02*
X17356825Y-12524246D01*
X17356825Y-12524246D02*
X17366349Y-12476627D01*
X17366349Y-12476627D02*
X17375873Y-12448055D01*
X17375873Y-12448055D02*
X17385396Y-12429008D01*
X17385396Y-12429008D02*
X17404444Y-12400436D01*
X17404444Y-12400436D02*
X17413968Y-12390912D01*
X17490158Y-12486150D02*
X17490158Y-12619484D01*
X17490158Y-12505198D02*
X17499682Y-12495674D01*
X17499682Y-12495674D02*
X17518730Y-12486150D01*
X17518730Y-12486150D02*
X17547301Y-12486150D01*
X17547301Y-12486150D02*
X17566349Y-12495674D01*
X17566349Y-12495674D02*
X17575873Y-12514722D01*
X17575873Y-12514722D02*
X17575873Y-12619484D01*
X17699682Y-12619484D02*
X17680634Y-12609960D01*
X17680634Y-12609960D02*
X17671111Y-12600436D01*
X17671111Y-12600436D02*
X17661587Y-12581388D01*
X17661587Y-12581388D02*
X17661587Y-12524246D01*
X17661587Y-12524246D02*
X17671111Y-12505198D01*
X17671111Y-12505198D02*
X17680634Y-12495674D01*
X17680634Y-12495674D02*
X17699682Y-12486150D01*
X17699682Y-12486150D02*
X17728254Y-12486150D01*
X17728254Y-12486150D02*
X17747301Y-12495674D01*
X17747301Y-12495674D02*
X17756825Y-12505198D01*
X17756825Y-12505198D02*
X17766349Y-12524246D01*
X17766349Y-12524246D02*
X17766349Y-12581388D01*
X17766349Y-12581388D02*
X17756825Y-12600436D01*
X17756825Y-12600436D02*
X17747301Y-12609960D01*
X17747301Y-12609960D02*
X17728254Y-12619484D01*
X17728254Y-12619484D02*
X17699682Y-12619484D01*
X17823492Y-12486150D02*
X17899682Y-12486150D01*
X17852063Y-12419484D02*
X17852063Y-12590912D01*
X17852063Y-12590912D02*
X17861587Y-12609960D01*
X17861587Y-12609960D02*
X17880634Y-12619484D01*
X17880634Y-12619484D02*
X17899682Y-12619484D01*
X18118730Y-12486150D02*
X18118730Y-12686150D01*
X18118730Y-12495674D02*
X18137777Y-12486150D01*
X18137777Y-12486150D02*
X18175873Y-12486150D01*
X18175873Y-12486150D02*
X18194920Y-12495674D01*
X18194920Y-12495674D02*
X18204444Y-12505198D01*
X18204444Y-12505198D02*
X18213968Y-12524246D01*
X18213968Y-12524246D02*
X18213968Y-12581388D01*
X18213968Y-12581388D02*
X18204444Y-12600436D01*
X18204444Y-12600436D02*
X18194920Y-12609960D01*
X18194920Y-12609960D02*
X18175873Y-12619484D01*
X18175873Y-12619484D02*
X18137777Y-12619484D01*
X18137777Y-12619484D02*
X18118730Y-12609960D01*
X18328254Y-12619484D02*
X18309206Y-12609960D01*
X18309206Y-12609960D02*
X18299682Y-12590912D01*
X18299682Y-12590912D02*
X18299682Y-12419484D01*
X18490158Y-12619484D02*
X18490158Y-12514722D01*
X18490158Y-12514722D02*
X18480635Y-12495674D01*
X18480635Y-12495674D02*
X18461587Y-12486150D01*
X18461587Y-12486150D02*
X18423492Y-12486150D01*
X18423492Y-12486150D02*
X18404444Y-12495674D01*
X18490158Y-12609960D02*
X18471111Y-12619484D01*
X18471111Y-12619484D02*
X18423492Y-12619484D01*
X18423492Y-12619484D02*
X18404444Y-12609960D01*
X18404444Y-12609960D02*
X18394920Y-12590912D01*
X18394920Y-12590912D02*
X18394920Y-12571865D01*
X18394920Y-12571865D02*
X18404444Y-12552817D01*
X18404444Y-12552817D02*
X18423492Y-12543293D01*
X18423492Y-12543293D02*
X18471111Y-12543293D01*
X18471111Y-12543293D02*
X18490158Y-12533769D01*
X18556825Y-12486150D02*
X18633015Y-12486150D01*
X18585396Y-12419484D02*
X18585396Y-12590912D01*
X18585396Y-12590912D02*
X18594920Y-12609960D01*
X18594920Y-12609960D02*
X18613968Y-12619484D01*
X18613968Y-12619484D02*
X18633015Y-12619484D01*
X18775873Y-12609960D02*
X18756825Y-12619484D01*
X18756825Y-12619484D02*
X18718730Y-12619484D01*
X18718730Y-12619484D02*
X18699682Y-12609960D01*
X18699682Y-12609960D02*
X18690158Y-12590912D01*
X18690158Y-12590912D02*
X18690158Y-12514722D01*
X18690158Y-12514722D02*
X18699682Y-12495674D01*
X18699682Y-12495674D02*
X18718730Y-12486150D01*
X18718730Y-12486150D02*
X18756825Y-12486150D01*
X18756825Y-12486150D02*
X18775873Y-12495674D01*
X18775873Y-12495674D02*
X18785396Y-12514722D01*
X18785396Y-12514722D02*
X18785396Y-12533769D01*
X18785396Y-12533769D02*
X18690158Y-12552817D01*
X18956825Y-12619484D02*
X18956825Y-12419484D01*
X18956825Y-12609960D02*
X18937777Y-12619484D01*
X18937777Y-12619484D02*
X18899682Y-12619484D01*
X18899682Y-12619484D02*
X18880635Y-12609960D01*
X18880635Y-12609960D02*
X18871111Y-12600436D01*
X18871111Y-12600436D02*
X18861587Y-12581388D01*
X18861587Y-12581388D02*
X18861587Y-12524246D01*
X18861587Y-12524246D02*
X18871111Y-12505198D01*
X18871111Y-12505198D02*
X18880635Y-12495674D01*
X18880635Y-12495674D02*
X18899682Y-12486150D01*
X18899682Y-12486150D02*
X18937777Y-12486150D01*
X18937777Y-12486150D02*
X18956825Y-12495674D01*
X19033016Y-12695674D02*
X19042539Y-12686150D01*
X19042539Y-12686150D02*
X19061587Y-12657579D01*
X19061587Y-12657579D02*
X19071111Y-12638531D01*
X19071111Y-12638531D02*
X19080635Y-12609960D01*
X19080635Y-12609960D02*
X19090158Y-12562341D01*
X19090158Y-12562341D02*
X19090158Y-12524246D01*
X19090158Y-12524246D02*
X19080635Y-12476627D01*
X19080635Y-12476627D02*
X19071111Y-12448055D01*
X19071111Y-12448055D02*
X19061587Y-12429008D01*
X19061587Y-12429008D02*
X19042539Y-12400436D01*
X19042539Y-12400436D02*
X19033016Y-12390912D01*
M02*
