M48
; DRILL file {KiCad 8.0.4} date 2024-11-10T20:41:45+0100
; FORMAT={-:-/ absolute / metric / decimal}
; #@! TF.CreationDate,2024-11-10T20:41:45+01:00
; #@! TF.GenerationSoftware,Kicad,Pcbnew,8.0.4
; #@! TF.FileFunction,Plated,1,4,PTH
FMAT,2
METRIC
; #@! TA.AperFunction,Plated,PTH,ViaDrill
T1C0.300
; #@! TA.AperFunction,Plated,PTH,ComponentDrill
T2C0.500
; #@! TA.AperFunction,Plated,PTH,ComponentDrill
T3C0.600
; #@! TA.AperFunction,Plated,PTH,ComponentDrill
T4C0.800
; #@! TA.AperFunction,Plated,PTH,ComponentDrill
T5C0.900
; #@! TA.AperFunction,Plated,PTH,ComponentDrill
T6C1.000
; #@! TA.AperFunction,Plated,PTH,ComponentDrill
T7C3.200
%
G90
G05
T1
X124.02Y-71.93
X125.32Y-68.08
X125.32Y-82.08
X126.32Y-75.58
X126.57Y-86.53
X126.57Y-110.53
X127.32Y-76.83
X129.57Y-92.53
X129.57Y-95.53
X129.57Y-98.53
X129.57Y-101.53
X129.57Y-104.53
X129.57Y-110.53
X131.82Y-108.58
X132.57Y-62.53
X132.57Y-92.53
X132.57Y-95.53
X132.57Y-98.53
X132.57Y-116.53
X133.07Y-108.58
X133.532Y-114.58
X134.07Y-77.08
X134.07Y-78.33
X134.07Y-79.58
X134.07Y-80.83
X134.82Y-69.58
X134.82Y-70.83
X134.82Y-72.13
X134.82Y-73.33
X135.57Y-83.53
X135.57Y-92.53
X135.57Y-95.53
X135.57Y-98.53
X135.57Y-110.53
X135.57Y-116.53
X136.82Y-63.83
X136.82Y-64.83
X136.82Y-65.83
X136.82Y-66.83
X136.82Y-67.83
X136.82Y-68.83
X136.91Y-89.17
X138.02Y-71.33
X138.57Y-92.53
X138.57Y-95.53
X138.57Y-104.53
X138.57Y-110.53
X138.57Y-116.53
X141.57Y-92.53
X141.57Y-95.53
X141.57Y-101.53
X141.57Y-104.53
X141.57Y-110.53
X141.57Y-116.53
X142.07Y-74.53
X142.52Y-76.13
X142.82Y-72.93
X143.32Y-70.53
X144.57Y-92.53
X144.57Y-98.53
X144.57Y-101.53
X144.57Y-104.53
X144.57Y-116.53
X146.22Y-73.73
X146.695Y-96.455
X147.32Y-114.58
X147.57Y-116.53
X147.82Y-75.33
X148.02Y-72.13
X148.32Y-97.425
X148.32Y-98.695
X148.32Y-99.93
X148.32Y-101.23
X148.32Y-102.53
X148.32Y-103.73
X149.07Y-108.08
X149.07Y-109.33
X149.07Y-110.58
X150.42Y-74.53
X150.57Y-77.53
X150.57Y-80.53
X151.07Y-95.08
X151.57Y-94.33
X151.72Y-110.43
X151.82Y-86.08
X151.875Y-86.978
X152.07Y-95.08
X152.82Y-76.13
X153.42Y-72.93
X153.57Y-97.08
X154.07Y-96.33
X154.07Y-105.83
X154.57Y-97.08
X155.37Y-107.33
X155.57Y-64.33
X155.82Y-71.33
X157.27Y-107.33
X157.92Y-70.53
X158.07Y-105.83
X158.52Y-73.73
X158.57Y-75.33
X159.07Y-107.33
X159.52Y-110.482
X160.02Y-105.03
X160.02Y-105.83
X160.92Y-72.13
X162.57Y-68.53
X162.57Y-77.53
X162.57Y-80.53
X162.57Y-103.33
X162.57Y-113.53
X162.57Y-116.53
X162.82Y-107.83
X164.57Y-104.33
X165.57Y-65.53
X165.57Y-68.53
X165.57Y-77.53
X167.57Y-107.83
X168.07Y-102.355
X168.57Y-65.53
X168.57Y-68.53
X168.57Y-80.53
X168.57Y-83.53
X168.57Y-98.53
X170.07Y-103.33
X171.57Y-83.53
X171.57Y-92.53
X173.07Y-98.83
X173.07Y-100.08
X174.57Y-65.53
X174.57Y-68.53
X174.57Y-77.53
X174.57Y-80.53
X174.57Y-83.53
X174.57Y-92.53
X174.57Y-96.33
X174.57Y-101.53
X174.57Y-104.53
X177.57Y-68.53
X177.57Y-77.53
X177.57Y-80.53
X177.57Y-83.53
X177.57Y-92.53
X177.57Y-96.33
X177.57Y-101.53
X177.57Y-104.53
X180.57Y-68.53
X180.57Y-77.53
X180.57Y-80.53
X180.57Y-83.53
X180.57Y-92.53
X180.57Y-96.33
X180.57Y-101.53
X180.57Y-104.53
X181.77Y-71.33
X183.57Y-92.53
X183.57Y-96.33
X183.57Y-101.53
X183.57Y-104.53
X184.97Y-74.53
X186.27Y-76.13
X186.57Y-68.53
X186.57Y-72.93
X186.57Y-80.53
X186.57Y-92.53
X186.57Y-96.33
X186.57Y-101.53
X186.57Y-104.53
X187.07Y-70.53
X189.57Y-92.53
X189.57Y-96.33
X189.57Y-101.53
X189.57Y-104.53
X189.97Y-73.73
X191.57Y-75.33
X191.77Y-72.13
X192.57Y-68.53
X192.57Y-92.53
X192.57Y-96.33
X192.57Y-101.53
X192.57Y-104.53
X194.17Y-74.53
X195.57Y-68.53
X195.57Y-92.53
X195.57Y-96.33
X195.57Y-101.53
X195.57Y-104.53
X196.57Y-76.13
X197.17Y-72.93
X198.57Y-92.53
X198.57Y-96.33
X198.57Y-101.53
X198.57Y-104.53
X199.57Y-71.33
X201.57Y-92.53
X201.57Y-96.33
X201.57Y-101.53
X201.57Y-104.53
X201.67Y-70.53
X202.27Y-73.73
X202.32Y-75.33
X204.57Y-68.53
X204.57Y-77.53
X204.57Y-80.53
X204.57Y-92.53
X204.57Y-96.33
X204.57Y-101.53
X204.57Y-104.53
X204.67Y-72.13
X207.57Y-65.53
X207.57Y-68.53
X207.57Y-77.53
X207.57Y-80.53
X207.57Y-86.53
X207.57Y-92.53
X207.57Y-96.33
X207.57Y-101.53
X207.57Y-104.53
X210.57Y-65.53
X210.57Y-68.53
X210.57Y-77.53
X210.57Y-83.53
X210.57Y-86.53
X210.57Y-92.53
X210.57Y-96.33
X210.57Y-101.53
X210.57Y-104.53
X213.57Y-83.53
X213.57Y-86.53
X213.57Y-92.53
X213.57Y-96.33
X213.57Y-101.53
X213.57Y-104.53
X216.57Y-83.53
X216.57Y-86.53
X216.57Y-92.53
X216.57Y-104.53
X216.57Y-107.53
X216.57Y-110.53
X216.57Y-113.53
X216.57Y-116.53
X219.57Y-65.53
X219.57Y-68.53
X219.57Y-77.53
X219.57Y-80.53
X219.57Y-83.53
X219.57Y-86.53
X219.57Y-92.53
X219.57Y-107.53
X219.57Y-110.53
X219.57Y-113.53
X219.57Y-116.53
X222.57Y-65.53
X222.57Y-68.53
X222.57Y-77.53
X222.57Y-80.53
X222.57Y-83.53
X222.57Y-86.53
X222.57Y-92.53
X222.57Y-110.53
X222.57Y-116.53
X225.52Y-71.33
X225.57Y-68.53
X225.57Y-77.53
X225.57Y-80.53
X225.57Y-86.53
X225.57Y-92.53
X225.57Y-104.53
X225.57Y-107.53
X225.57Y-110.53
X225.57Y-116.53
X228.57Y-86.53
X228.57Y-92.53
X228.57Y-107.53
X228.57Y-110.53
X228.57Y-116.53
X228.72Y-74.53
X230.02Y-76.13
X230.32Y-72.93
X230.82Y-70.53
X231.57Y-86.53
X231.57Y-92.53
X231.57Y-116.53
X233.72Y-73.73
X234.57Y-86.53
X234.57Y-116.53
X235.32Y-75.33
X235.32Y-99.33
X235.32Y-102.58
X235.52Y-72.13
X237.32Y-99.33
X237.32Y-102.58
X237.57Y-68.53
X237.57Y-86.53
X237.57Y-113.53
X237.57Y-116.53
X237.92Y-74.53
X238.82Y-89.28
X238.82Y-91.78
X238.82Y-94.33
X239.32Y-99.33
X239.32Y-102.58
X240.32Y-76.13
X240.32Y-94.33
X240.57Y-65.53
X240.57Y-68.53
X240.57Y-80.53
X240.57Y-86.53
X240.57Y-110.53
X240.57Y-116.53
X240.92Y-72.93
X241.32Y-99.33
X241.32Y-102.58
X241.82Y-90.58
X241.82Y-93.08
X241.82Y-95.58
X243.32Y-71.33
X243.32Y-99.33
X243.32Y-102.58
X243.57Y-86.53
X243.57Y-116.53
X245.32Y-99.33
X245.32Y-102.58
X245.42Y-70.53
X246.02Y-73.73
X246.07Y-75.33
X246.57Y-86.53
X246.57Y-89.53
X246.57Y-113.53
X246.57Y-116.53
X248.42Y-72.13
X249.57Y-74.53
X249.57Y-77.53
X249.57Y-80.53
X249.57Y-83.53
X249.57Y-86.53
X249.57Y-89.53
X249.57Y-92.53
X249.57Y-95.53
X249.57Y-98.53
X249.57Y-101.53
X249.57Y-116.53
X252.57Y-74.53
X252.57Y-77.53
X252.57Y-80.53
X252.57Y-83.53
X252.57Y-86.53
X252.57Y-89.53
X252.57Y-92.53
X252.57Y-95.53
X252.57Y-98.53
X252.57Y-101.53
X252.57Y-104.53
X252.57Y-107.53
X252.57Y-110.53
X252.57Y-113.53
X252.57Y-116.53
X255.57Y-74.53
X255.57Y-77.53
X255.57Y-80.53
X255.57Y-83.53
X255.57Y-86.53
X255.57Y-89.53
X255.57Y-92.53
X255.57Y-95.53
X255.57Y-98.53
X255.57Y-101.53
X255.57Y-104.53
X255.57Y-107.53
X255.57Y-110.53
X258.57Y-74.53
X258.57Y-77.53
X258.57Y-80.53
X258.57Y-83.53
X258.57Y-86.53
X258.57Y-89.53
X258.57Y-92.53
X258.57Y-95.53
X258.57Y-98.53
X258.57Y-101.53
X258.57Y-104.53
X258.57Y-107.53
X258.57Y-110.53
X261.57Y-74.53
X261.57Y-77.53
X261.57Y-80.53
X261.57Y-83.53
X261.57Y-86.53
X261.57Y-89.53
X261.57Y-92.53
X261.57Y-95.53
X261.57Y-98.53
X261.57Y-101.53
X261.57Y-104.53
X261.57Y-107.53
X261.57Y-110.53
T2
X124.42Y-62.83
X124.42Y-114.83
X125.123Y-61.133
X125.123Y-64.527
X125.123Y-113.133
X125.123Y-116.527
X126.82Y-60.43
X126.82Y-65.23
X126.82Y-112.43
X126.82Y-117.23
X128.517Y-61.133
X128.517Y-64.527
X128.517Y-113.133
X128.517Y-116.527
X129.22Y-62.83
X129.22Y-114.83
X256.42Y-62.83
X256.42Y-114.83
X257.123Y-61.133
X257.123Y-64.527
X257.123Y-113.133
X257.123Y-116.527
X258.82Y-60.43
X258.82Y-65.23
X258.82Y-112.43
X258.82Y-117.23
X260.517Y-61.133
X260.517Y-64.527
X260.517Y-113.133
X260.517Y-116.527
X261.22Y-62.83
X261.22Y-114.83
T4
X139.17Y-62.3
X139.17Y-84.33
X141.71Y-62.3
X141.71Y-84.33
X144.25Y-62.3
X144.25Y-84.33
X146.79Y-62.33
X146.79Y-84.33
X149.33Y-62.33
X149.33Y-84.33
X151.87Y-62.33
X151.87Y-84.33
X154.41Y-62.33
X154.41Y-84.36
X156.95Y-62.33
X156.95Y-84.36
X159.49Y-62.33
X159.49Y-84.36
X182.92Y-62.3
X182.92Y-84.33
X185.46Y-62.3
X185.46Y-84.33
X188.0Y-62.3
X188.0Y-84.33
X190.54Y-62.33
X190.54Y-84.33
X193.08Y-62.33
X193.08Y-84.33
X195.62Y-62.33
X195.62Y-84.33
X198.16Y-62.33
X198.16Y-84.36
X200.7Y-62.33
X200.7Y-84.36
X203.24Y-62.33
X203.24Y-84.36
X226.67Y-62.3
X226.67Y-84.33
X229.21Y-62.3
X229.21Y-84.33
X231.75Y-62.3
X231.75Y-84.33
X234.29Y-62.33
X234.29Y-84.33
X236.83Y-62.33
X236.83Y-84.33
X239.37Y-62.33
X239.37Y-84.33
X241.91Y-62.33
X241.91Y-84.36
X244.45Y-62.33
X244.45Y-84.36
X246.99Y-62.33
X246.99Y-84.36
T5
X171.17Y-66.05
X171.17Y-68.59
X171.17Y-78.05
X171.17Y-80.59
X214.92Y-66.05
X214.92Y-68.59
X214.92Y-78.05
X214.92Y-80.59
T6
X165.07Y-113.58
X167.57Y-113.58
X221.32Y-105.805
X221.32Y-113.555
X223.82Y-105.805
X223.82Y-113.555
X230.32Y-105.805
X230.32Y-113.58
X232.82Y-105.805
X232.82Y-113.58
X239.32Y-105.83
X239.32Y-113.58
X241.82Y-105.83
X241.82Y-113.58
X248.32Y-105.805
X248.32Y-113.58
X250.82Y-105.805
X250.82Y-113.58
T7
X126.82Y-62.83
X126.82Y-114.83
X258.82Y-62.83
X258.82Y-114.83
T3
X151.995Y-112.11G85X151.995Y-113.21
G05
X151.995Y-116.43G85X151.995Y-117.23
G05
X160.645Y-112.11G85X160.645Y-113.21
G05
X160.645Y-116.43G85X160.645Y-117.23
G05
M30
