G04 #@! TF.GenerationSoftware,KiCad,Pcbnew,8.0.4*
G04 #@! TF.CreationDate,2024-11-10T20:41:49+01:00*
G04 #@! TF.ProjectId,SchrackMulticlock,53636872-6163-46b4-9d75-6c7469636c6f,v0.0.4*
G04 #@! TF.SameCoordinates,Original*
G04 #@! TF.FileFunction,Soldermask,Top*
G04 #@! TF.FilePolarity,Negative*
%FSLAX46Y46*%
G04 Gerber Fmt 4.6, Leading zero omitted, Abs format (unit mm)*
G04 Created by KiCad (PCBNEW 8.0.4) date 2024-11-10 20:41:49*
%MOMM*%
%LPD*%
G01*
G04 APERTURE LIST*
G04 Aperture macros list*
%AMRoundRect*
0 Rectangle with rounded corners*
0 $1 Rounding radius*
0 $2 $3 $4 $5 $6 $7 $8 $9 X,Y pos of 4 corners*
0 Add a 4 corners polygon primitive as box body*
4,1,4,$2,$3,$4,$5,$6,$7,$8,$9,$2,$3,0*
0 Add four circle primitives for the rounded corners*
1,1,$1+$1,$2,$3*
1,1,$1+$1,$4,$5*
1,1,$1+$1,$6,$7*
1,1,$1+$1,$8,$9*
0 Add four rect primitives between the rounded corners*
20,1,$1+$1,$2,$3,$4,$5,0*
20,1,$1+$1,$4,$5,$6,$7,0*
20,1,$1+$1,$6,$7,$8,$9,0*
20,1,$1+$1,$8,$9,$2,$3,0*%
G04 Aperture macros list end*
%ADD10C,0.010000*%
%ADD11RoundRect,0.243750X-0.456250X0.243750X-0.456250X-0.243750X0.456250X-0.243750X0.456250X0.243750X0*%
%ADD12C,0.800000*%
%ADD13C,6.400000*%
%ADD14RoundRect,0.250001X-0.624999X0.462499X-0.624999X-0.462499X0.624999X-0.462499X0.624999X0.462499X0*%
%ADD15RoundRect,0.250000X0.450000X-0.325000X0.450000X0.325000X-0.450000X0.325000X-0.450000X-0.325000X0*%
%ADD16R,2.000000X1.600000*%
%ADD17C,0.600000*%
%ADD18O,1.104000X2.204000*%
%ADD19O,1.104000X1.904000*%
%ADD20RoundRect,0.250000X-0.600000X-0.750000X0.600000X-0.750000X0.600000X0.750000X-0.600000X0.750000X0*%
%ADD21O,1.700000X2.000000*%
%ADD22RoundRect,0.250000X-0.450000X0.350000X-0.450000X-0.350000X0.450000X-0.350000X0.450000X0.350000X0*%
%ADD23R,1.600000X1.600000*%
%ADD24C,1.600000*%
%ADD25RoundRect,0.250000X-0.475000X0.337500X-0.475000X-0.337500X0.475000X-0.337500X0.475000X0.337500X0*%
%ADD26R,1.800000X1.800000*%
%ADD27C,1.800000*%
%ADD28R,0.900000X1.500000*%
%ADD29R,1.500000X0.900000*%
%ADD30R,0.900000X0.900000*%
%ADD31RoundRect,0.150000X0.150000X-0.512500X0.150000X0.512500X-0.150000X0.512500X-0.150000X-0.512500X0*%
%ADD32RoundRect,0.250000X0.450000X-0.350000X0.450000X0.350000X-0.450000X0.350000X-0.450000X-0.350000X0*%
%ADD33RoundRect,0.250000X-0.850000X-0.350000X0.850000X-0.350000X0.850000X0.350000X-0.850000X0.350000X0*%
%ADD34RoundRect,0.249997X-2.950003X-2.650003X2.950003X-2.650003X2.950003X2.650003X-2.950003X2.650003X0*%
%ADD35RoundRect,0.250000X0.475000X-0.337500X0.475000X0.337500X-0.475000X0.337500X-0.475000X-0.337500X0*%
%ADD36RoundRect,0.250000X-0.425000X0.537500X-0.425000X-0.537500X0.425000X-0.537500X0.425000X0.537500X0*%
%ADD37RoundRect,0.250000X0.425000X-0.537500X0.425000X0.537500X-0.425000X0.537500X-0.425000X-0.537500X0*%
%ADD38RoundRect,0.150000X0.825000X0.150000X-0.825000X0.150000X-0.825000X-0.150000X0.825000X-0.150000X0*%
G04 APERTURE END LIST*
D10*
X153470000Y-112700000D02*
X152770000Y-112700000D01*
X152770000Y-111260000D01*
X153470000Y-111260000D01*
X153470000Y-112700000D01*
G36*
X153470000Y-112700000D02*
G01*
X152770000Y-112700000D01*
X152770000Y-111260000D01*
X153470000Y-111260000D01*
X153470000Y-112700000D01*
G37*
X154270000Y-112700000D02*
X153570000Y-112700000D01*
X153570000Y-111260000D01*
X154270000Y-111260000D01*
X154270000Y-112700000D01*
G36*
X154270000Y-112700000D02*
G01*
X153570000Y-112700000D01*
X153570000Y-111260000D01*
X154270000Y-111260000D01*
X154270000Y-112700000D01*
G37*
X154770000Y-112700000D02*
X154370000Y-112700000D01*
X154370000Y-111260000D01*
X154770000Y-111260000D01*
X154770000Y-112700000D01*
G36*
X154770000Y-112700000D02*
G01*
X154370000Y-112700000D01*
X154370000Y-111260000D01*
X154770000Y-111260000D01*
X154770000Y-112700000D01*
G37*
X155270000Y-112700000D02*
X154870000Y-112700000D01*
X154870000Y-111260000D01*
X155270000Y-111260000D01*
X155270000Y-112700000D01*
G36*
X155270000Y-112700000D02*
G01*
X154870000Y-112700000D01*
X154870000Y-111260000D01*
X155270000Y-111260000D01*
X155270000Y-112700000D01*
G37*
X155770000Y-112700000D02*
X155370000Y-112700000D01*
X155370000Y-111260000D01*
X155770000Y-111260000D01*
X155770000Y-112700000D01*
G36*
X155770000Y-112700000D02*
G01*
X155370000Y-112700000D01*
X155370000Y-111260000D01*
X155770000Y-111260000D01*
X155770000Y-112700000D01*
G37*
X156270000Y-112700000D02*
X155870000Y-112700000D01*
X155870000Y-111260000D01*
X156270000Y-111260000D01*
X156270000Y-112700000D01*
G36*
X156270000Y-112700000D02*
G01*
X155870000Y-112700000D01*
X155870000Y-111260000D01*
X156270000Y-111260000D01*
X156270000Y-112700000D01*
G37*
X156770000Y-112700000D02*
X156370000Y-112700000D01*
X156370000Y-111260000D01*
X156770000Y-111260000D01*
X156770000Y-112700000D01*
G36*
X156770000Y-112700000D02*
G01*
X156370000Y-112700000D01*
X156370000Y-111260000D01*
X156770000Y-111260000D01*
X156770000Y-112700000D01*
G37*
X157270000Y-112700000D02*
X156870000Y-112700000D01*
X156870000Y-111260000D01*
X157270000Y-111260000D01*
X157270000Y-112700000D01*
G36*
X157270000Y-112700000D02*
G01*
X156870000Y-112700000D01*
X156870000Y-111260000D01*
X157270000Y-111260000D01*
X157270000Y-112700000D01*
G37*
X157770000Y-112700000D02*
X157370000Y-112700000D01*
X157370000Y-111260000D01*
X157770000Y-111260000D01*
X157770000Y-112700000D01*
G36*
X157770000Y-112700000D02*
G01*
X157370000Y-112700000D01*
X157370000Y-111260000D01*
X157770000Y-111260000D01*
X157770000Y-112700000D01*
G37*
X158270000Y-112700000D02*
X157870000Y-112700000D01*
X157870000Y-111260000D01*
X158270000Y-111260000D01*
X158270000Y-112700000D01*
G36*
X158270000Y-112700000D02*
G01*
X157870000Y-112700000D01*
X157870000Y-111260000D01*
X158270000Y-111260000D01*
X158270000Y-112700000D01*
G37*
X159070000Y-112700000D02*
X158370000Y-112700000D01*
X158370000Y-111260000D01*
X159070000Y-111260000D01*
X159070000Y-112700000D01*
G36*
X159070000Y-112700000D02*
G01*
X158370000Y-112700000D01*
X158370000Y-111260000D01*
X159070000Y-111260000D01*
X159070000Y-112700000D01*
G37*
X159870000Y-112700000D02*
X159170000Y-112700000D01*
X159170000Y-111260000D01*
X159870000Y-111260000D01*
X159870000Y-112700000D01*
G36*
X159870000Y-112700000D02*
G01*
X159170000Y-112700000D01*
X159170000Y-111260000D01*
X159870000Y-111260000D01*
X159870000Y-112700000D01*
G37*
D11*
X153470000Y-107342500D03*
X153470000Y-109217500D03*
D12*
X258820000Y-65230000D03*
X257122944Y-64527056D03*
X260517056Y-64527056D03*
X256420000Y-62830000D03*
D13*
X258820000Y-62830000D03*
D12*
X261220000Y-62830000D03*
X257122944Y-61132944D03*
X260517056Y-61132944D03*
X258820000Y-60430000D03*
D14*
X153820000Y-102442500D03*
X153820000Y-105417500D03*
D15*
X162570000Y-105355000D03*
X162570000Y-103305000D03*
D16*
X138232500Y-114580000D03*
X132832500Y-114580000D03*
D12*
X126820000Y-117230000D03*
X125122944Y-116527056D03*
X128517056Y-116527056D03*
X124420000Y-114830000D03*
D13*
X126820000Y-114830000D03*
D12*
X129220000Y-114830000D03*
X125122944Y-113132944D03*
X128517056Y-113132944D03*
X126820000Y-112430000D03*
D17*
X153430000Y-113150000D03*
X159210000Y-113150000D03*
D18*
X151995000Y-112660000D03*
X160645000Y-112660000D03*
D19*
X151995000Y-116830000D03*
X160645000Y-116830000D03*
D20*
X230320000Y-113580000D03*
D21*
X232820000Y-113580000D03*
D22*
X237320000Y-99830000D03*
X237320000Y-101830000D03*
D23*
X139170000Y-84330000D03*
D24*
X141710000Y-84330000D03*
X144250000Y-84330000D03*
X146790000Y-84330000D03*
X149330000Y-84330000D03*
X151870000Y-84330000D03*
X154410000Y-84360000D03*
X156950000Y-84360000D03*
X159490000Y-84360000D03*
X159490000Y-62330000D03*
X156950000Y-62330000D03*
X154410000Y-62330000D03*
X151870000Y-62330000D03*
X149330000Y-62330000D03*
X146790000Y-62330000D03*
X144250000Y-62300000D03*
X141710000Y-62300000D03*
X139170000Y-62300000D03*
D23*
X226670000Y-84330000D03*
D24*
X229210000Y-84330000D03*
X231750000Y-84330000D03*
X234290000Y-84330000D03*
X236830000Y-84330000D03*
X239370000Y-84330000D03*
X241910000Y-84360000D03*
X244450000Y-84360000D03*
X246990000Y-84360000D03*
X246990000Y-62330000D03*
X244450000Y-62330000D03*
X241910000Y-62330000D03*
X239370000Y-62330000D03*
X236830000Y-62330000D03*
X234290000Y-62330000D03*
X231750000Y-62300000D03*
X229210000Y-62300000D03*
X226670000Y-62300000D03*
D25*
X161170000Y-107292500D03*
X161170000Y-109367500D03*
D26*
X171170000Y-66050000D03*
D27*
X171170000Y-68590000D03*
D22*
X245320000Y-99830000D03*
X245320000Y-101830000D03*
D12*
X126820000Y-65230000D03*
X125122944Y-64527056D03*
X128517056Y-64527056D03*
X124420000Y-62830000D03*
D13*
X126820000Y-62830000D03*
D12*
X129220000Y-62830000D03*
X125122944Y-61132944D03*
X128517056Y-61132944D03*
X126820000Y-60430000D03*
D20*
X239320000Y-105830000D03*
D21*
X241820000Y-105830000D03*
D22*
X235320000Y-99830000D03*
X235320000Y-101830000D03*
X243320000Y-99830000D03*
X243320000Y-101830000D03*
D16*
X142870000Y-114580000D03*
X148270000Y-114580000D03*
D28*
X130560000Y-108080000D03*
X131830000Y-108080000D03*
X133100000Y-108080000D03*
X134370000Y-108080000D03*
X135640000Y-108080000D03*
X136910000Y-108080000D03*
X138180000Y-108080000D03*
X139450000Y-108080000D03*
X140720000Y-108080000D03*
X141990000Y-108080000D03*
X143260000Y-108080000D03*
X144530000Y-108080000D03*
X145800000Y-108080000D03*
X147070000Y-108080000D03*
D29*
X148320000Y-106315000D03*
X148320000Y-105045000D03*
X148320000Y-103775000D03*
X148320000Y-102505000D03*
X148320000Y-101235000D03*
X148320000Y-99965000D03*
X148320000Y-98695000D03*
X148320000Y-97425000D03*
X148320000Y-96155000D03*
X148320000Y-94885000D03*
X148320000Y-93615000D03*
X148320000Y-92345000D03*
D28*
X147070000Y-90580000D03*
X145800000Y-90580000D03*
X144530000Y-90580000D03*
X143260000Y-90580000D03*
X141990000Y-90580000D03*
X140720000Y-90580000D03*
X139450000Y-90580000D03*
X138180000Y-90580000D03*
X136910000Y-90580000D03*
X135640000Y-90580000D03*
X134370000Y-90580000D03*
X133100000Y-90580000D03*
X131830000Y-90580000D03*
X130560000Y-90580000D03*
D30*
X136880000Y-102230000D03*
X138280000Y-102230000D03*
X139680000Y-102230000D03*
X139680000Y-102230000D03*
X136880000Y-100830000D03*
X136880000Y-100830000D03*
X138280000Y-100830000D03*
X139680000Y-100830000D03*
X136880000Y-99430000D03*
X138280000Y-99430000D03*
X139680000Y-99430000D03*
D20*
X248320000Y-113580000D03*
D21*
X250820000Y-113580000D03*
D20*
X239320000Y-113580000D03*
D21*
X241820000Y-113580000D03*
D31*
X158120000Y-105467500D03*
X160020000Y-105467500D03*
X159070000Y-103192500D03*
D12*
X258820000Y-117230000D03*
X257122944Y-116527056D03*
X260517056Y-116527056D03*
X256420000Y-114830000D03*
D13*
X258820000Y-114830000D03*
D12*
X261220000Y-114830000D03*
X257122944Y-113132944D03*
X260517056Y-113132944D03*
X258820000Y-112430000D03*
D32*
X159170000Y-109330000D03*
X159170000Y-107330000D03*
D26*
X214920000Y-80590000D03*
D27*
X214920000Y-78050000D03*
D23*
X182920000Y-84330000D03*
D24*
X185460000Y-84330000D03*
X188000000Y-84330000D03*
X190540000Y-84330000D03*
X193080000Y-84330000D03*
X195620000Y-84330000D03*
X198160000Y-84360000D03*
X200700000Y-84360000D03*
X203240000Y-84360000D03*
X203240000Y-62330000D03*
X200700000Y-62330000D03*
X198160000Y-62330000D03*
X195620000Y-62330000D03*
X193080000Y-62330000D03*
X190540000Y-62330000D03*
X188000000Y-62300000D03*
X185460000Y-62300000D03*
X182920000Y-62300000D03*
D32*
X155370000Y-109330000D03*
X155370000Y-107330000D03*
D26*
X214920000Y-66050000D03*
D27*
X214920000Y-68590000D03*
D33*
X154132500Y-92550000D03*
X154132500Y-94830000D03*
D34*
X160432500Y-94830000D03*
D33*
X154132500Y-97110000D03*
D20*
X248320000Y-105805000D03*
D21*
X250820000Y-105805000D03*
D22*
X239300000Y-99830000D03*
X239300000Y-101830000D03*
X151570000Y-107400000D03*
X151570000Y-109400000D03*
D14*
X156170000Y-102442500D03*
X156170000Y-105417500D03*
D22*
X241320000Y-99830000D03*
X241320000Y-101830000D03*
D32*
X157270000Y-109330000D03*
X157270000Y-107330000D03*
D15*
X170070000Y-105355000D03*
X170070000Y-103305000D03*
D26*
X171170000Y-80590000D03*
D27*
X171170000Y-78050000D03*
D20*
X230320000Y-105805000D03*
D21*
X232820000Y-105805000D03*
D35*
X151570000Y-105617500D03*
X151570000Y-103542500D03*
D20*
X221320000Y-105805000D03*
D21*
X223820000Y-105805000D03*
D36*
X151570000Y-97142500D03*
X151570000Y-100017500D03*
D37*
X151570000Y-94830000D03*
X151570000Y-91955000D03*
D20*
X221320000Y-113555000D03*
D21*
X223820000Y-113555000D03*
D20*
X165070000Y-113580000D03*
D21*
X167570000Y-113580000D03*
D38*
X242795000Y-96890000D03*
X242795000Y-95620000D03*
X242795000Y-94350000D03*
X242795000Y-93080000D03*
X242795000Y-91810000D03*
X242795000Y-90540000D03*
X242795000Y-89270000D03*
X237845000Y-89270000D03*
X237845000Y-90540000D03*
X237845000Y-91810000D03*
X237845000Y-93080000D03*
X237845000Y-94350000D03*
X237845000Y-95620000D03*
X237845000Y-96890000D03*
M02*
