G04 #@! TF.GenerationSoftware,KiCad,Pcbnew,8.0.4*
G04 #@! TF.CreationDate,2024-11-10T19:37:50+01:00*
G04 #@! TF.ProjectId,SchrackCounter,53636872-6163-46b4-936f-756e7465722e,v0.0.4*
G04 #@! TF.SameCoordinates,Original*
G04 #@! TF.FileFunction,Soldermask,Bot*
G04 #@! TF.FilePolarity,Negative*
%FSLAX46Y46*%
G04 Gerber Fmt 4.6, Leading zero omitted, Abs format (unit mm)*
G04 Created by KiCad (PCBNEW 8.0.4) date 2024-11-10 19:37:50*
%MOMM*%
%LPD*%
G01*
G04 APERTURE LIST*
G04 Aperture macros list*
%AMRoundRect*
0 Rectangle with rounded corners*
0 $1 Rounding radius*
0 $2 $3 $4 $5 $6 $7 $8 $9 X,Y pos of 4 corners*
0 Add a 4 corners polygon primitive as box body*
4,1,4,$2,$3,$4,$5,$6,$7,$8,$9,$2,$3,0*
0 Add four circle primitives for the rounded corners*
1,1,$1+$1,$2,$3*
1,1,$1+$1,$4,$5*
1,1,$1+$1,$6,$7*
1,1,$1+$1,$8,$9*
0 Add four rect primitives between the rounded corners*
20,1,$1+$1,$2,$3,$4,$5,0*
20,1,$1+$1,$4,$5,$6,$7,0*
20,1,$1+$1,$6,$7,$8,$9,0*
20,1,$1+$1,$8,$9,$2,$3,0*%
G04 Aperture macros list end*
%ADD10R,1.600000X1.600000*%
%ADD11C,1.600000*%
%ADD12RoundRect,0.250000X0.600000X0.750000X-0.600000X0.750000X-0.600000X-0.750000X0.600000X-0.750000X0*%
%ADD13O,1.700000X2.000000*%
%ADD14C,0.800000*%
%ADD15C,6.400000*%
%ADD16RoundRect,0.250000X-0.600000X-0.750000X0.600000X-0.750000X0.600000X0.750000X-0.600000X0.750000X0*%
%ADD17C,0.600000*%
%ADD18O,1.104000X2.204000*%
%ADD19O,1.104000X1.904000*%
%ADD20RoundRect,0.250000X-0.425000X0.537500X-0.425000X-0.537500X0.425000X-0.537500X0.425000X0.537500X0*%
%ADD21RoundRect,0.250000X0.450000X-0.350000X0.450000X0.350000X-0.450000X0.350000X-0.450000X-0.350000X0*%
%ADD22RoundRect,0.137500X0.862500X0.137500X-0.862500X0.137500X-0.862500X-0.137500X0.862500X-0.137500X0*%
%ADD23RoundRect,0.250000X0.350000X0.450000X-0.350000X0.450000X-0.350000X-0.450000X0.350000X-0.450000X0*%
%ADD24RoundRect,0.250000X-0.450000X0.350000X-0.450000X-0.350000X0.450000X-0.350000X0.450000X0.350000X0*%
%ADD25RoundRect,0.162500X0.162500X-0.837500X0.162500X0.837500X-0.162500X0.837500X-0.162500X-0.837500X0*%
%ADD26RoundRect,0.250000X0.537500X0.425000X-0.537500X0.425000X-0.537500X-0.425000X0.537500X-0.425000X0*%
%ADD27RoundRect,0.250000X0.475000X-0.337500X0.475000X0.337500X-0.475000X0.337500X-0.475000X-0.337500X0*%
%ADD28RoundRect,0.250000X-0.475000X0.337500X-0.475000X-0.337500X0.475000X-0.337500X0.475000X0.337500X0*%
%ADD29RoundRect,0.250000X0.337500X0.475000X-0.337500X0.475000X-0.337500X-0.475000X0.337500X-0.475000X0*%
%ADD30RoundRect,0.250000X-0.350000X-0.450000X0.350000X-0.450000X0.350000X0.450000X-0.350000X0.450000X0*%
%ADD31RoundRect,0.250000X-0.337500X-0.475000X0.337500X-0.475000X0.337500X0.475000X-0.337500X0.475000X0*%
%ADD32RoundRect,0.150000X0.150000X-0.825000X0.150000X0.825000X-0.150000X0.825000X-0.150000X-0.825000X0*%
%ADD33RoundRect,0.250000X0.425000X-0.537500X0.425000X0.537500X-0.425000X0.537500X-0.425000X-0.537500X0*%
G04 APERTURE END LIST*
D10*
X170800000Y-90880000D03*
D11*
X173340000Y-90880000D03*
X175880000Y-90880000D03*
X178420000Y-90880000D03*
X180960000Y-90880000D03*
X183500000Y-90880000D03*
X186040000Y-90910000D03*
X188580000Y-90910000D03*
X191120000Y-90910000D03*
X193660000Y-90910000D03*
X196200000Y-90910000D03*
D12*
X235250000Y-126130000D03*
D13*
X232750000Y-126130000D03*
D10*
X201100000Y-84580000D03*
D11*
X203640000Y-84580000D03*
X206180000Y-84580000D03*
X208720000Y-84580000D03*
X211260000Y-84580000D03*
X213800000Y-84580000D03*
X216340000Y-84610000D03*
X218880000Y-84610000D03*
X221420000Y-84610000D03*
X221420000Y-62580000D03*
X218880000Y-62580000D03*
X216340000Y-62580000D03*
X213800000Y-62580000D03*
X211260000Y-62580000D03*
X208720000Y-62580000D03*
X206180000Y-62550000D03*
X203640000Y-62550000D03*
X201100000Y-62550000D03*
D14*
X242100000Y-137580000D03*
X242802944Y-135882944D03*
X242802944Y-139277056D03*
X244500000Y-135180000D03*
D15*
X244500000Y-137580000D03*
D14*
X244500000Y-139980000D03*
X246197056Y-135882944D03*
X246197056Y-139277056D03*
X246900000Y-137580000D03*
D12*
X226250000Y-126130000D03*
D13*
X223750000Y-126130000D03*
D14*
X242100000Y-57580000D03*
X242802944Y-55882944D03*
X242802944Y-59277056D03*
X244500000Y-55180000D03*
D15*
X244500000Y-57580000D03*
D14*
X244500000Y-59980000D03*
X246197056Y-55882944D03*
X246197056Y-59277056D03*
X246900000Y-57580000D03*
D10*
X164400000Y-84580000D03*
D11*
X166940000Y-84580000D03*
X169480000Y-84580000D03*
X172020000Y-84580000D03*
X174560000Y-84580000D03*
X177100000Y-84580000D03*
X179640000Y-84610000D03*
X182180000Y-84610000D03*
X184720000Y-84610000D03*
X184720000Y-62580000D03*
X182180000Y-62580000D03*
X179640000Y-62580000D03*
X177100000Y-62580000D03*
X174560000Y-62580000D03*
X172020000Y-62580000D03*
X169480000Y-62550000D03*
X166940000Y-62550000D03*
X164400000Y-62550000D03*
D16*
X214750000Y-133305000D03*
D13*
X217250000Y-133305000D03*
D12*
X217250000Y-126130000D03*
D13*
X214750000Y-126130000D03*
D12*
X166000000Y-126805000D03*
D13*
X163500000Y-126805000D03*
D14*
X152100000Y-137580000D03*
X152802944Y-135882944D03*
X152802944Y-139277056D03*
X154500000Y-135180000D03*
D15*
X154500000Y-137580000D03*
D14*
X154500000Y-139980000D03*
X156197056Y-135882944D03*
X156197056Y-139277056D03*
X156900000Y-137580000D03*
D16*
X232500000Y-133305000D03*
D13*
X235000000Y-133305000D03*
D16*
X223750000Y-133305000D03*
D13*
X226250000Y-133305000D03*
D17*
X203360000Y-131862500D03*
X209140000Y-131862500D03*
D18*
X201925000Y-131372500D03*
X210575000Y-131372500D03*
D19*
X201925000Y-135542500D03*
X210575000Y-135542500D03*
D14*
X152100000Y-57580000D03*
X152802944Y-55882944D03*
X152802944Y-59277056D03*
X154500000Y-55180000D03*
D15*
X154500000Y-57580000D03*
D14*
X154500000Y-59980000D03*
X156197056Y-55882944D03*
X156197056Y-59277056D03*
X156900000Y-57580000D03*
D20*
X190300000Y-133005000D03*
X190300000Y-135880000D03*
D21*
X232750000Y-86830000D03*
X232750000Y-84830000D03*
D22*
X237800000Y-66345000D03*
X237800000Y-67615000D03*
X237800000Y-68885000D03*
X237800000Y-70155000D03*
X237800000Y-71425000D03*
X237800000Y-72695000D03*
X237800000Y-73965000D03*
X237800000Y-75235000D03*
X237800000Y-76505000D03*
X237800000Y-77775000D03*
X237800000Y-79045000D03*
X237800000Y-80315000D03*
X228500000Y-80315000D03*
X228500000Y-79045000D03*
X228500000Y-77775000D03*
X228500000Y-76505000D03*
X228500000Y-75235000D03*
X228500000Y-73965000D03*
X228500000Y-72695000D03*
X228500000Y-71425000D03*
X228500000Y-70155000D03*
X228500000Y-68885000D03*
X228500000Y-67615000D03*
X228500000Y-66345000D03*
D23*
X235250000Y-123830000D03*
X233250000Y-123830000D03*
D24*
X226150000Y-73492500D03*
X226150000Y-75492500D03*
D25*
X205450000Y-127002500D03*
X204500000Y-127002500D03*
X203550000Y-127002500D03*
X203550000Y-123582500D03*
X204500000Y-123582500D03*
X205450000Y-123582500D03*
D26*
X235837500Y-99180000D03*
X232962500Y-99180000D03*
D27*
X226150000Y-71780000D03*
X226150000Y-69705000D03*
D28*
X207250000Y-132792500D03*
X207250000Y-134867500D03*
D21*
X234750000Y-86830000D03*
X234750000Y-84830000D03*
D24*
X215250000Y-129080000D03*
X215250000Y-131080000D03*
D26*
X167262500Y-133330000D03*
X164387500Y-133330000D03*
D24*
X233000000Y-129080000D03*
X233000000Y-131080000D03*
X235000000Y-129080000D03*
X235000000Y-131080000D03*
D21*
X205250000Y-134830000D03*
X205250000Y-132830000D03*
D24*
X195250000Y-116580000D03*
X195250000Y-118580000D03*
D29*
X167187500Y-135580000D03*
X165112500Y-135580000D03*
D24*
X194400000Y-132842500D03*
X194400000Y-134842500D03*
D29*
X235537500Y-97080000D03*
X233462500Y-97080000D03*
D24*
X187250000Y-128580000D03*
X187250000Y-130580000D03*
D30*
X224750000Y-123830000D03*
X226750000Y-123830000D03*
D29*
X216037500Y-118830000D03*
X213962500Y-118830000D03*
D30*
X233500000Y-95080000D03*
X235500000Y-95080000D03*
D27*
X219200000Y-131117500D03*
X219200000Y-129042500D03*
X237000000Y-131117500D03*
X237000000Y-129042500D03*
D31*
X234462500Y-118830000D03*
X236537500Y-118830000D03*
D32*
X232810000Y-109305000D03*
X231540000Y-109305000D03*
X230270000Y-109305000D03*
X229000000Y-109305000D03*
X227730000Y-109305000D03*
X226460000Y-109305000D03*
X225190000Y-109305000D03*
X225190000Y-104355000D03*
X226460000Y-104355000D03*
X227730000Y-104355000D03*
X229000000Y-104355000D03*
X230270000Y-104355000D03*
X231540000Y-104355000D03*
X232810000Y-104355000D03*
D24*
X226250000Y-129080000D03*
X226250000Y-131080000D03*
D33*
X224050000Y-72767500D03*
X224050000Y-69892500D03*
D27*
X228250000Y-131117500D03*
X228250000Y-129042500D03*
D30*
X217250001Y-123829999D03*
X219249999Y-123830001D03*
D24*
X224250000Y-129080000D03*
X224250000Y-131080000D03*
D28*
X192400000Y-132805000D03*
X192400000Y-134880000D03*
D24*
X190250000Y-116580000D03*
X190250000Y-118580000D03*
X217250000Y-129080000D03*
X217250000Y-131080000D03*
M02*
