%TF.GenerationSoftware,KiCad,Pcbnew,8.0.4*%
%TF.CreationDate,2024-11-10T19:38:01+01:00*%
%TF.ProjectId,SchrackCounter,53636872-6163-46b4-936f-756e7465722e,v0.0.4*%
%TF.SameCoordinates,Original*%
%TF.FileFunction,Drillmap*%
%TF.FilePolarity,Positive*%
%FSLAX45Y45*%
G04 Gerber Fmt 4.5, Leading zero omitted, Abs format (unit mm)*
G04 Created by KiCad (PCBNEW 8.0.4) date 2024-11-10 19:38:01*
%MOMM*%
%LPD*%
G01*
G04 APERTURE LIST*
%ADD10C,0.100000*%
%ADD11C,0.200000*%
%ADD12C,0.320000*%
G04 APERTURE END LIST*
D10*
X15625000Y-5333000D02*
X15275000Y-5333000D01*
X15025000Y-5583000D02*
X15275000Y-5333000D01*
X15750000Y-14058000D02*
X16050000Y-13758000D01*
X24875000Y-13933000D02*
X24875000Y-13583000D01*
X15275000Y-14183000D02*
X15025000Y-13933000D01*
X16200000Y-5758000D02*
X23850000Y-5758000D01*
X24450000Y-5333000D02*
X24625000Y-5333000D01*
X24750000Y-13458000D02*
X24875000Y-13583000D01*
X24025000Y-5583000D02*
X23850000Y-5758000D01*
X15150000Y-6058000D02*
X15025000Y-5933000D01*
X15025000Y-13583000D02*
X15450000Y-13158000D01*
X15275000Y-14183000D02*
X15625000Y-14183000D01*
X24750000Y-13458000D02*
X24450000Y-13158000D01*
X24450000Y-6358000D02*
X24450000Y-13158000D01*
X15150000Y-6058000D02*
X15450000Y-6358000D01*
X24875000Y-5583000D02*
X24875000Y-5933000D01*
X24275000Y-14183000D02*
X24625000Y-14183000D01*
X15450000Y-13158000D02*
X15450000Y-6358000D01*
X24625000Y-5333000D02*
X24875000Y-5583000D01*
X15025000Y-13583000D02*
X15025000Y-13933000D01*
X15750000Y-14058000D02*
X15625000Y-14183000D01*
X16200000Y-5758000D02*
X16050000Y-5758000D01*
X15025000Y-5583000D02*
X15025000Y-5933000D01*
X24875000Y-13933000D02*
X24625000Y-14183000D01*
X24450000Y-5333000D02*
X24275000Y-5333000D01*
X24875000Y-5933000D02*
X24625000Y-6183000D01*
X24625000Y-6183000D02*
X24450000Y-6358000D01*
X24275000Y-5333000D02*
X24025000Y-5583000D01*
X15625000Y-5333000D02*
X16050000Y-5758000D01*
X24275000Y-14183000D02*
X23850000Y-13758000D01*
X16050000Y-13758000D02*
X23850000Y-13758000D01*
D11*
D10*
X15810500Y-6113385D02*
X15840500Y-6143385D01*
X15840500Y-6113385D02*
X15810500Y-6143385D01*
X15810500Y-6413385D02*
X15840500Y-6443385D01*
X15840500Y-6413385D02*
X15810500Y-6443385D01*
X15810500Y-6713385D02*
X15840500Y-6743385D01*
X15840500Y-6713385D02*
X15810500Y-6743385D01*
X15810500Y-7013385D02*
X15840500Y-7043385D01*
X15840500Y-7013385D02*
X15810500Y-7043385D01*
X15810500Y-7313385D02*
X15840500Y-7343385D01*
X15840500Y-7313385D02*
X15810500Y-7343385D01*
X15810500Y-7613385D02*
X15840500Y-7643385D01*
X15840500Y-7613385D02*
X15810500Y-7643385D01*
X15810500Y-7913385D02*
X15840500Y-7943385D01*
X15840500Y-7913385D02*
X15810500Y-7943385D01*
X15810500Y-8213385D02*
X15840500Y-8243385D01*
X15840500Y-8213385D02*
X15810500Y-8243385D01*
X15810500Y-8513385D02*
X15840500Y-8543385D01*
X15840500Y-8513385D02*
X15810500Y-8543385D01*
X15810500Y-8813385D02*
X15840500Y-8843385D01*
X15840500Y-8813385D02*
X15810500Y-8843385D01*
X15810500Y-9113385D02*
X15840500Y-9143385D01*
X15840500Y-9113385D02*
X15810500Y-9143385D01*
X15810500Y-9413385D02*
X15840500Y-9443385D01*
X15840500Y-9413385D02*
X15810500Y-9443385D01*
X15810500Y-9713385D02*
X15840500Y-9743385D01*
X15840500Y-9713385D02*
X15810500Y-9743385D01*
X15810500Y-10013385D02*
X15840500Y-10043385D01*
X15840500Y-10013385D02*
X15810500Y-10043385D01*
X15810500Y-10313385D02*
X15840500Y-10343385D01*
X15840500Y-10313385D02*
X15810500Y-10343385D01*
X15810500Y-10613385D02*
X15840500Y-10643385D01*
X15840500Y-10613385D02*
X15810500Y-10643385D01*
X15810500Y-10913385D02*
X15840500Y-10943385D01*
X15840500Y-10913385D02*
X15810500Y-10943385D01*
X15810500Y-11213385D02*
X15840500Y-11243385D01*
X15840500Y-11213385D02*
X15810500Y-11243385D01*
X15810500Y-11513385D02*
X15840500Y-11543385D01*
X15840500Y-11513385D02*
X15810500Y-11543385D01*
X15810500Y-11813385D02*
X15840500Y-11843385D01*
X15840500Y-11813385D02*
X15810500Y-11843385D01*
X15810500Y-12113385D02*
X15840500Y-12143385D01*
X15840500Y-12113385D02*
X15810500Y-12143385D01*
X15810500Y-12413385D02*
X15840500Y-12443385D01*
X15840500Y-12413385D02*
X15810500Y-12443385D01*
X15810500Y-12713385D02*
X15840500Y-12743385D01*
X15840500Y-12713385D02*
X15810500Y-12743385D01*
X15810500Y-13013385D02*
X15840500Y-13043385D01*
X15840500Y-13013385D02*
X15810500Y-13043385D01*
X15810500Y-13313385D02*
X15840500Y-13343385D01*
X15840500Y-13313385D02*
X15810500Y-13343385D01*
X15985000Y-11693000D02*
X16015000Y-11723000D01*
X16015000Y-11693000D02*
X15985000Y-11723000D01*
X15985000Y-11793000D02*
X16015000Y-11823000D01*
X16015000Y-11793000D02*
X15985000Y-11823000D01*
X15985000Y-11893000D02*
X16015000Y-11923000D01*
X16015000Y-11893000D02*
X15985000Y-11923000D01*
X15985000Y-11993000D02*
X16015000Y-12023000D01*
X16015000Y-11993000D02*
X15985000Y-12023000D01*
X15985000Y-12093000D02*
X16015000Y-12123000D01*
X16015000Y-12093000D02*
X15985000Y-12123000D01*
X16085000Y-11643000D02*
X16115000Y-11673000D01*
X16115000Y-11643000D02*
X16085000Y-11673000D01*
X16085000Y-11743000D02*
X16115000Y-11773000D01*
X16115000Y-11743000D02*
X16085000Y-11773000D01*
X16085000Y-11843000D02*
X16115000Y-11873000D01*
X16115000Y-11843000D02*
X16085000Y-11873000D01*
X16085000Y-11943000D02*
X16115000Y-11973000D01*
X16115000Y-11943000D02*
X16085000Y-11973000D01*
X16085000Y-12043000D02*
X16115000Y-12073000D01*
X16115000Y-12043000D02*
X16085000Y-12073000D01*
X16085000Y-12143000D02*
X16115000Y-12173000D01*
X16115000Y-12143000D02*
X16085000Y-12173000D01*
X16110500Y-6113385D02*
X16140500Y-6143385D01*
X16140500Y-6113385D02*
X16110500Y-6143385D01*
X16110500Y-6413385D02*
X16140500Y-6443385D01*
X16140500Y-6413385D02*
X16110500Y-6443385D01*
X16110500Y-6713385D02*
X16140500Y-6743385D01*
X16140500Y-6713385D02*
X16110500Y-6743385D01*
X16110500Y-7013385D02*
X16140500Y-7043385D01*
X16140500Y-7013385D02*
X16110500Y-7043385D01*
X16110500Y-7313385D02*
X16140500Y-7343385D01*
X16140500Y-7313385D02*
X16110500Y-7343385D01*
X16110500Y-7613385D02*
X16140500Y-7643385D01*
X16140500Y-7613385D02*
X16110500Y-7643385D01*
X16110500Y-7913385D02*
X16140500Y-7943385D01*
X16140500Y-7913385D02*
X16110500Y-7943385D01*
X16110500Y-8213385D02*
X16140500Y-8243385D01*
X16140500Y-8213385D02*
X16110500Y-8243385D01*
X16110500Y-8513385D02*
X16140500Y-8543385D01*
X16140500Y-8513385D02*
X16110500Y-8543385D01*
X16110500Y-8813385D02*
X16140500Y-8843385D01*
X16140500Y-8813385D02*
X16110500Y-8843385D01*
X16110500Y-9113385D02*
X16140500Y-9143385D01*
X16140500Y-9113385D02*
X16110500Y-9143385D01*
X16110500Y-9413385D02*
X16140500Y-9443385D01*
X16140500Y-9413385D02*
X16110500Y-9443385D01*
X16110500Y-9713385D02*
X16140500Y-9743385D01*
X16140500Y-9713385D02*
X16110500Y-9743385D01*
X16110500Y-10013385D02*
X16140500Y-10043385D01*
X16140500Y-10013385D02*
X16110500Y-10043385D01*
X16110500Y-10313385D02*
X16140500Y-10343385D01*
X16140500Y-10313385D02*
X16110500Y-10343385D01*
X16110500Y-10613385D02*
X16140500Y-10643385D01*
X16140500Y-10613385D02*
X16110500Y-10643385D01*
X16110500Y-10913385D02*
X16140500Y-10943385D01*
X16140500Y-10913385D02*
X16110500Y-10943385D01*
X16110500Y-11213385D02*
X16140500Y-11243385D01*
X16140500Y-11213385D02*
X16110500Y-11243385D01*
X16110500Y-12713385D02*
X16140500Y-12743385D01*
X16140500Y-12713385D02*
X16110500Y-12743385D01*
X16110500Y-13013385D02*
X16140500Y-13043385D01*
X16140500Y-13013385D02*
X16110500Y-13043385D01*
X16185000Y-11693000D02*
X16215000Y-11723000D01*
X16215000Y-11693000D02*
X16185000Y-11723000D01*
X16185000Y-11793000D02*
X16215000Y-11823000D01*
X16215000Y-11793000D02*
X16185000Y-11823000D01*
X16185000Y-11893000D02*
X16215000Y-11923000D01*
X16215000Y-11893000D02*
X16185000Y-11923000D01*
X16185000Y-11993000D02*
X16215000Y-12023000D01*
X16215000Y-11993000D02*
X16185000Y-12023000D01*
X16185000Y-12093000D02*
X16215000Y-12123000D01*
X16215000Y-12093000D02*
X16185000Y-12123000D01*
X16275000Y-7763000D02*
X16305000Y-7793000D01*
X16305000Y-7763000D02*
X16275000Y-7793000D01*
X16285000Y-11643000D02*
X16315000Y-11673000D01*
X16315000Y-11643000D02*
X16285000Y-11673000D01*
X16285000Y-11743000D02*
X16315000Y-11773000D01*
X16315000Y-11743000D02*
X16285000Y-11773000D01*
X16285000Y-11843000D02*
X16315000Y-11873000D01*
X16315000Y-11843000D02*
X16285000Y-11873000D01*
X16285000Y-11943000D02*
X16315000Y-11973000D01*
X16315000Y-11943000D02*
X16285000Y-11973000D01*
X16285000Y-12043000D02*
X16315000Y-12073000D01*
X16315000Y-12043000D02*
X16285000Y-12073000D01*
X16285000Y-12143000D02*
X16315000Y-12173000D01*
X16315000Y-12143000D02*
X16285000Y-12173000D01*
X16385000Y-11693000D02*
X16415000Y-11723000D01*
X16415000Y-11693000D02*
X16385000Y-11723000D01*
X16385000Y-11793000D02*
X16415000Y-11823000D01*
X16415000Y-11793000D02*
X16385000Y-11823000D01*
X16385000Y-11893000D02*
X16415000Y-11923000D01*
X16415000Y-11893000D02*
X16385000Y-11923000D01*
X16385000Y-11993000D02*
X16415000Y-12023000D01*
X16415000Y-11993000D02*
X16385000Y-12023000D01*
X16385000Y-12093000D02*
X16415000Y-12123000D01*
X16415000Y-12093000D02*
X16385000Y-12123000D01*
X16410500Y-8813385D02*
X16440500Y-8843385D01*
X16440500Y-8813385D02*
X16410500Y-8843385D01*
X16410500Y-9113385D02*
X16440500Y-9143385D01*
X16440500Y-9113385D02*
X16410500Y-9143385D01*
X16410500Y-9413385D02*
X16440500Y-9443385D01*
X16440500Y-9413385D02*
X16410500Y-9443385D01*
X16410500Y-9713385D02*
X16440500Y-9743385D01*
X16440500Y-9713385D02*
X16410500Y-9743385D01*
X16410500Y-10013385D02*
X16440500Y-10043385D01*
X16440500Y-10013385D02*
X16410500Y-10043385D01*
X16410500Y-10313385D02*
X16440500Y-10343385D01*
X16440500Y-10313385D02*
X16410500Y-10343385D01*
X16410500Y-10613385D02*
X16440500Y-10643385D01*
X16440500Y-10613385D02*
X16410500Y-10643385D01*
X16410500Y-10913385D02*
X16440500Y-10943385D01*
X16440500Y-10913385D02*
X16410500Y-10943385D01*
X16410500Y-13013385D02*
X16440500Y-13043385D01*
X16440500Y-13013385D02*
X16410500Y-13043385D01*
X16540000Y-6993000D02*
X16570000Y-7023000D01*
X16570000Y-6993000D02*
X16540000Y-7023000D01*
X16555000Y-6413000D02*
X16585000Y-6443000D01*
X16585000Y-6413000D02*
X16555000Y-6443000D01*
X16555000Y-7313000D02*
X16585000Y-7343000D01*
X16585000Y-7313000D02*
X16555000Y-7343000D01*
X16570000Y-6748000D02*
X16600000Y-6778000D01*
X16600000Y-6748000D02*
X16570000Y-6778000D01*
X16665000Y-13658000D02*
X16695000Y-13688000D01*
X16695000Y-13658000D02*
X16665000Y-13688000D01*
X16710500Y-8813385D02*
X16740500Y-8843385D01*
X16740500Y-8813385D02*
X16710500Y-8843385D01*
X16710500Y-9113385D02*
X16740500Y-9143385D01*
X16740500Y-9113385D02*
X16710500Y-9143385D01*
X16710500Y-9413385D02*
X16740500Y-9443385D01*
X16740500Y-9413385D02*
X16710500Y-9443385D01*
X16710500Y-9713385D02*
X16740500Y-9743385D01*
X16740500Y-9713385D02*
X16710500Y-9743385D01*
X16710500Y-10013385D02*
X16740500Y-10043385D01*
X16740500Y-10013385D02*
X16710500Y-10043385D01*
X16710500Y-10313385D02*
X16740500Y-10343385D01*
X16740500Y-10313385D02*
X16710500Y-10343385D01*
X16710500Y-10613385D02*
X16740500Y-10643385D01*
X16740500Y-10613385D02*
X16710500Y-10643385D01*
X16710500Y-10913385D02*
X16740500Y-10943385D01*
X16740500Y-10913385D02*
X16710500Y-10943385D01*
X16720000Y-13583000D02*
X16750000Y-13613000D01*
X16750000Y-13583000D02*
X16720000Y-13613000D01*
X16770000Y-13658000D02*
X16800000Y-13688000D01*
X16800000Y-13658000D02*
X16770000Y-13688000D01*
X16785000Y-7888000D02*
X16815000Y-7918000D01*
X16815000Y-7888000D02*
X16785000Y-7918000D01*
X16785000Y-12393000D02*
X16815000Y-12423000D01*
X16815000Y-12393000D02*
X16785000Y-12423000D01*
X16835000Y-7507000D02*
X16865000Y-7537000D01*
X16865000Y-7507000D02*
X16835000Y-7537000D01*
X17010500Y-9413385D02*
X17040500Y-9443385D01*
X17040500Y-9413385D02*
X17010500Y-9443385D01*
X17010500Y-9713385D02*
X17040500Y-9743385D01*
X17040500Y-9713385D02*
X17010500Y-9743385D01*
X17010500Y-10013385D02*
X17040500Y-10043385D01*
X17040500Y-10013385D02*
X17010500Y-10043385D01*
X17010500Y-10313385D02*
X17040500Y-10343385D01*
X17040500Y-10313385D02*
X17010500Y-10343385D01*
X17010500Y-10613385D02*
X17040500Y-10643385D01*
X17040500Y-10613385D02*
X17010500Y-10643385D01*
X17010500Y-10913385D02*
X17040500Y-10943385D01*
X17040500Y-10913385D02*
X17010500Y-10943385D01*
X17010500Y-12713385D02*
X17040500Y-12743385D01*
X17040500Y-12713385D02*
X17010500Y-12743385D01*
X17010500Y-13013385D02*
X17040500Y-13043385D01*
X17040500Y-13013385D02*
X17010500Y-13043385D01*
X17010500Y-13313385D02*
X17040500Y-13343385D01*
X17040500Y-13313385D02*
X17010500Y-13343385D01*
X17010500Y-13613385D02*
X17040500Y-13643385D01*
X17040500Y-13613385D02*
X17010500Y-13643385D01*
X17065000Y-6413000D02*
X17095000Y-6443000D01*
X17095000Y-6413000D02*
X17065000Y-6443000D01*
X17065000Y-7133000D02*
X17095000Y-7163000D01*
X17095000Y-7133000D02*
X17065000Y-7163000D01*
X17095000Y-11518000D02*
X17125000Y-11548000D01*
X17125000Y-11518000D02*
X17095000Y-11548000D01*
X17185000Y-6873000D02*
X17215000Y-6903000D01*
X17215000Y-6873000D02*
X17185000Y-6903000D01*
X17195000Y-11518000D02*
X17225000Y-11548000D01*
X17225000Y-11518000D02*
X17195000Y-11548000D01*
X17205000Y-11863000D02*
X17235000Y-11893000D01*
X17235000Y-11863000D02*
X17205000Y-11893000D01*
X17310500Y-6413385D02*
X17340500Y-6443385D01*
X17340500Y-6413385D02*
X17310500Y-6443385D01*
X17310500Y-8213385D02*
X17340500Y-8243385D01*
X17340500Y-8213385D02*
X17310500Y-8243385D01*
X17310500Y-9713385D02*
X17340500Y-9743385D01*
X17340500Y-9713385D02*
X17310500Y-9743385D01*
X17310500Y-10013385D02*
X17340500Y-10043385D01*
X17340500Y-10013385D02*
X17310500Y-10043385D01*
X17310500Y-10313385D02*
X17340500Y-10343385D01*
X17340500Y-10313385D02*
X17310500Y-10343385D01*
X17310500Y-10613385D02*
X17340500Y-10643385D01*
X17340500Y-10613385D02*
X17310500Y-10643385D01*
X17310500Y-10913385D02*
X17340500Y-10943385D01*
X17340500Y-10913385D02*
X17310500Y-10943385D01*
X17310500Y-12413385D02*
X17340500Y-12443385D01*
X17340500Y-12413385D02*
X17310500Y-12443385D01*
X17310500Y-12713385D02*
X17340500Y-12743385D01*
X17340500Y-12713385D02*
X17310500Y-12743385D01*
X17310500Y-13013385D02*
X17340500Y-13043385D01*
X17340500Y-13013385D02*
X17310500Y-13043385D01*
X17310500Y-13313385D02*
X17340500Y-13343385D01*
X17340500Y-13313385D02*
X17310500Y-13343385D01*
X17310500Y-13613385D02*
X17340500Y-13643385D01*
X17340500Y-13613385D02*
X17310500Y-13643385D01*
X17315000Y-8713000D02*
X17345000Y-8743000D01*
X17345000Y-8713000D02*
X17315000Y-8743000D01*
X17325000Y-6993000D02*
X17355000Y-7023000D01*
X17355000Y-6993000D02*
X17325000Y-7023000D01*
X17485000Y-7633000D02*
X17515000Y-7663000D01*
X17515000Y-7633000D02*
X17485000Y-7663000D01*
X17610500Y-6413385D02*
X17640500Y-6443385D01*
X17640500Y-6413385D02*
X17610500Y-6443385D01*
X17610500Y-9713385D02*
X17640500Y-9743385D01*
X17640500Y-9713385D02*
X17610500Y-9743385D01*
X17610500Y-10013385D02*
X17640500Y-10043385D01*
X17640500Y-10013385D02*
X17610500Y-10043385D01*
X17610500Y-10313385D02*
X17640500Y-10343385D01*
X17640500Y-10313385D02*
X17610500Y-10343385D01*
X17610500Y-10613385D02*
X17640500Y-10643385D01*
X17640500Y-10613385D02*
X17610500Y-10643385D01*
X17610500Y-10913385D02*
X17640500Y-10943385D01*
X17640500Y-10913385D02*
X17610500Y-10943385D01*
X17610500Y-12413385D02*
X17640500Y-12443385D01*
X17640500Y-12413385D02*
X17610500Y-12443385D01*
X17610500Y-12713385D02*
X17640500Y-12743385D01*
X17640500Y-12713385D02*
X17610500Y-12743385D01*
X17610500Y-13013385D02*
X17640500Y-13043385D01*
X17640500Y-13013385D02*
X17610500Y-13043385D01*
X17610500Y-13313385D02*
X17640500Y-13343385D01*
X17640500Y-13313385D02*
X17610500Y-13343385D01*
X17615000Y-6743000D02*
X17645000Y-6773000D01*
X17645000Y-6743000D02*
X17615000Y-6773000D01*
X17875000Y-7773000D02*
X17905000Y-7803000D01*
X17905000Y-7773000D02*
X17875000Y-7803000D01*
X17910000Y-12413000D02*
X17940000Y-12443000D01*
X17940000Y-12413000D02*
X17910000Y-12443000D01*
X17910000Y-12713000D02*
X17940000Y-12743000D01*
X17940000Y-12713000D02*
X17910000Y-12743000D01*
X17910500Y-9713385D02*
X17940500Y-9743385D01*
X17940500Y-9713385D02*
X17910500Y-9743385D01*
X17910500Y-10313385D02*
X17940500Y-10343385D01*
X17940500Y-10313385D02*
X17910500Y-10343385D01*
X17910500Y-10613385D02*
X17940500Y-10643385D01*
X17940500Y-10613385D02*
X17910500Y-10643385D01*
X17910500Y-10913385D02*
X17940500Y-10943385D01*
X17940500Y-10913385D02*
X17910500Y-10943385D01*
X17910500Y-11513385D02*
X17940500Y-11543385D01*
X17940500Y-11513385D02*
X17910500Y-11543385D01*
X17910500Y-13013385D02*
X17940500Y-13043385D01*
X17940500Y-13013385D02*
X17910500Y-13043385D01*
X17910500Y-13313385D02*
X17940500Y-13343385D01*
X17940500Y-13313385D02*
X17910500Y-13343385D01*
X18055000Y-7513000D02*
X18085000Y-7543000D01*
X18085000Y-7513000D02*
X18055000Y-7543000D01*
X18075000Y-6413000D02*
X18105000Y-6443000D01*
X18105000Y-6413000D02*
X18075000Y-6443000D01*
X18115000Y-7133000D02*
X18145000Y-7163000D01*
X18145000Y-7133000D02*
X18115000Y-7163000D01*
X18210000Y-9218000D02*
X18240000Y-9248000D01*
X18240000Y-9218000D02*
X18210000Y-9248000D01*
X18210000Y-12713000D02*
X18240000Y-12743000D01*
X18240000Y-12713000D02*
X18210000Y-12743000D01*
X18210000Y-13013000D02*
X18240000Y-13043000D01*
X18240000Y-13013000D02*
X18210000Y-13043000D01*
X18210500Y-8813385D02*
X18240500Y-8843385D01*
X18240500Y-8813385D02*
X18210500Y-8843385D01*
X18210500Y-9713385D02*
X18240500Y-9743385D01*
X18240500Y-9713385D02*
X18210500Y-9743385D01*
X18210500Y-10313385D02*
X18240500Y-10343385D01*
X18240500Y-10313385D02*
X18210500Y-10343385D01*
X18210500Y-10613385D02*
X18240500Y-10643385D01*
X18240500Y-10613385D02*
X18210500Y-10643385D01*
X18210500Y-10913385D02*
X18240500Y-10943385D01*
X18240500Y-10913385D02*
X18210500Y-10943385D01*
X18210500Y-11513385D02*
X18240500Y-11543385D01*
X18240500Y-11513385D02*
X18210500Y-11543385D01*
X18210500Y-12413385D02*
X18240500Y-12443385D01*
X18240500Y-12413385D02*
X18210500Y-12443385D01*
X18210500Y-13313385D02*
X18240500Y-13343385D01*
X18240500Y-13313385D02*
X18210500Y-13343385D01*
X18335000Y-7893000D02*
X18365000Y-7923000D01*
X18365000Y-7893000D02*
X18335000Y-7923000D01*
X18455000Y-6873000D02*
X18485000Y-6903000D01*
X18485000Y-6873000D02*
X18455000Y-6903000D01*
X18510500Y-9713385D02*
X18540500Y-9743385D01*
X18540500Y-9713385D02*
X18510500Y-9743385D01*
X18510500Y-10313385D02*
X18540500Y-10343385D01*
X18540500Y-10313385D02*
X18510500Y-10343385D01*
X18510500Y-10613385D02*
X18540500Y-10643385D01*
X18540500Y-10613385D02*
X18510500Y-10643385D01*
X18510500Y-10913385D02*
X18540500Y-10943385D01*
X18540500Y-10913385D02*
X18510500Y-10943385D01*
X18510500Y-12413385D02*
X18540500Y-12443385D01*
X18540500Y-12413385D02*
X18510500Y-12443385D01*
X18565000Y-7643000D02*
X18595000Y-7673000D01*
X18595000Y-7643000D02*
X18565000Y-7673000D01*
X18635000Y-13043000D02*
X18665000Y-13073000D01*
X18665000Y-13043000D02*
X18635000Y-13073000D01*
X18810000Y-11118000D02*
X18840000Y-11148000D01*
X18840000Y-11118000D02*
X18810000Y-11148000D01*
X18810000Y-11843000D02*
X18840000Y-11873000D01*
X18840000Y-11843000D02*
X18810000Y-11873000D01*
X18810500Y-6113385D02*
X18840500Y-6143385D01*
X18840500Y-6113385D02*
X18810500Y-6143385D01*
X18810500Y-6413385D02*
X18840500Y-6443385D01*
X18840500Y-6413385D02*
X18810500Y-6443385D01*
X18810500Y-7313385D02*
X18840500Y-7343385D01*
X18840500Y-7313385D02*
X18810500Y-7343385D01*
X18810500Y-9713385D02*
X18840500Y-9743385D01*
X18840500Y-9713385D02*
X18810500Y-9743385D01*
X18810500Y-10013385D02*
X18840500Y-10043385D01*
X18840500Y-10013385D02*
X18810500Y-10043385D01*
X18810500Y-10313385D02*
X18840500Y-10343385D01*
X18840500Y-10313385D02*
X18810500Y-10343385D01*
X18810500Y-10613385D02*
X18840500Y-10643385D01*
X18840500Y-10613385D02*
X18810500Y-10643385D01*
X18810500Y-10913385D02*
X18840500Y-10943385D01*
X18840500Y-10913385D02*
X18810500Y-10943385D01*
X18810500Y-12113385D02*
X18840500Y-12143385D01*
X18840500Y-12113385D02*
X18810500Y-12143385D01*
X18810500Y-13613385D02*
X18840500Y-13643385D01*
X18840500Y-13613385D02*
X18810500Y-13643385D01*
X18912500Y-13139250D02*
X18942500Y-13169250D01*
X18942500Y-13139250D02*
X18912500Y-13169250D01*
X18935000Y-6993000D02*
X18965000Y-7023000D01*
X18965000Y-6993000D02*
X18935000Y-7023000D01*
X18975000Y-8813000D02*
X19005000Y-8843000D01*
X19005000Y-8813000D02*
X18975000Y-8843000D01*
X19015000Y-7763000D02*
X19045000Y-7793000D01*
X19045000Y-7763000D02*
X19015000Y-7793000D01*
X19110500Y-6113385D02*
X19140500Y-6143385D01*
X19140500Y-6113385D02*
X19110500Y-6143385D01*
X19110500Y-6413385D02*
X19140500Y-6443385D01*
X19140500Y-6413385D02*
X19110500Y-6443385D01*
X19110500Y-7313385D02*
X19140500Y-7343385D01*
X19140500Y-7313385D02*
X19110500Y-7343385D01*
X19110500Y-9713385D02*
X19140500Y-9743385D01*
X19140500Y-9713385D02*
X19110500Y-9743385D01*
X19110500Y-10013385D02*
X19140500Y-10043385D01*
X19140500Y-10013385D02*
X19110500Y-10043385D01*
X19110500Y-10313385D02*
X19140500Y-10343385D01*
X19140500Y-10313385D02*
X19110500Y-10343385D01*
X19110500Y-10613385D02*
X19140500Y-10643385D01*
X19140500Y-10613385D02*
X19110500Y-10643385D01*
X19110500Y-10913385D02*
X19140500Y-10943385D01*
X19140500Y-10913385D02*
X19110500Y-10943385D01*
X19132500Y-13139250D02*
X19162500Y-13169250D01*
X19162500Y-13139250D02*
X19132500Y-13169250D01*
X19235000Y-13593000D02*
X19265000Y-13623000D01*
X19265000Y-13593000D02*
X19235000Y-13623000D01*
X19240000Y-13139250D02*
X19270000Y-13169250D01*
X19270000Y-13139250D02*
X19240000Y-13169250D01*
X19350000Y-13139250D02*
X19380000Y-13169250D01*
X19380000Y-13139250D02*
X19350000Y-13169250D01*
X19410500Y-6113385D02*
X19440500Y-6143385D01*
X19440500Y-6113385D02*
X19410500Y-6143385D01*
X19410500Y-6413385D02*
X19440500Y-6443385D01*
X19440500Y-6413385D02*
X19410500Y-6443385D01*
X19410500Y-7313385D02*
X19440500Y-7343385D01*
X19440500Y-7313385D02*
X19410500Y-7343385D01*
X19410500Y-8213385D02*
X19440500Y-8243385D01*
X19440500Y-8213385D02*
X19410500Y-8243385D01*
X19410500Y-8513385D02*
X19440500Y-8543385D01*
X19440500Y-8513385D02*
X19410500Y-8543385D01*
X19410500Y-8813385D02*
X19440500Y-8843385D01*
X19440500Y-8813385D02*
X19410500Y-8843385D01*
X19410500Y-9713385D02*
X19440500Y-9743385D01*
X19440500Y-9713385D02*
X19410500Y-9743385D01*
X19410500Y-10013385D02*
X19440500Y-10043385D01*
X19440500Y-10013385D02*
X19410500Y-10043385D01*
X19410500Y-10313385D02*
X19440500Y-10343385D01*
X19440500Y-10313385D02*
X19410500Y-10343385D01*
X19410500Y-10613385D02*
X19440500Y-10643385D01*
X19440500Y-10613385D02*
X19410500Y-10643385D01*
X19410500Y-10913385D02*
X19440500Y-10943385D01*
X19440500Y-10913385D02*
X19410500Y-10943385D01*
X19465000Y-13139250D02*
X19495000Y-13169250D01*
X19495000Y-13139250D02*
X19465000Y-13169250D01*
X19495000Y-7503000D02*
X19525000Y-7533000D01*
X19525000Y-7503000D02*
X19495000Y-7533000D01*
X19510000Y-11843000D02*
X19540000Y-11873000D01*
X19540000Y-11843000D02*
X19510000Y-11873000D01*
X19671020Y-11806520D02*
X19701020Y-11836520D01*
X19701020Y-11806520D02*
X19671020Y-11836520D01*
X19710000Y-11593000D02*
X19740000Y-11623000D01*
X19740000Y-11593000D02*
X19710000Y-11623000D01*
X19710500Y-6113385D02*
X19740500Y-6143385D01*
X19740500Y-6113385D02*
X19710500Y-6143385D01*
X19710500Y-6413385D02*
X19740500Y-6443385D01*
X19740500Y-6413385D02*
X19710500Y-6443385D01*
X19710500Y-7313385D02*
X19740500Y-7343385D01*
X19740500Y-7313385D02*
X19710500Y-7343385D01*
X19710500Y-8213385D02*
X19740500Y-8243385D01*
X19740500Y-8213385D02*
X19710500Y-8243385D01*
X19710500Y-8513385D02*
X19740500Y-8543385D01*
X19740500Y-8513385D02*
X19710500Y-8543385D01*
X19710500Y-8813385D02*
X19740500Y-8843385D01*
X19740500Y-8813385D02*
X19710500Y-8843385D01*
X19710500Y-9713385D02*
X19740500Y-9743385D01*
X19740500Y-9713385D02*
X19710500Y-9743385D01*
X19710500Y-10013385D02*
X19740500Y-10043385D01*
X19740500Y-10013385D02*
X19710500Y-10043385D01*
X19710500Y-10313385D02*
X19740500Y-10343385D01*
X19740500Y-10313385D02*
X19710500Y-10343385D01*
X19710500Y-10613385D02*
X19740500Y-10643385D01*
X19740500Y-10613385D02*
X19710500Y-10643385D01*
X19710500Y-10913385D02*
X19740500Y-10943385D01*
X19740500Y-10913385D02*
X19710500Y-10943385D01*
X19710500Y-12713385D02*
X19740500Y-12743385D01*
X19740500Y-12713385D02*
X19710500Y-12743385D01*
X19710500Y-13013385D02*
X19740500Y-13043385D01*
X19740500Y-13013385D02*
X19710500Y-13043385D01*
X19710500Y-13613385D02*
X19740500Y-13643385D01*
X19740500Y-13613385D02*
X19710500Y-13643385D01*
X19715000Y-7883000D02*
X19745000Y-7913000D01*
X19745000Y-7883000D02*
X19715000Y-7913000D01*
X19895000Y-11343000D02*
X19925000Y-11373000D01*
X19925000Y-11343000D02*
X19895000Y-11373000D01*
X19895000Y-11433000D02*
X19925000Y-11463000D01*
X19925000Y-11433000D02*
X19895000Y-11463000D01*
X19945000Y-7763000D02*
X19975000Y-7793000D01*
X19975000Y-7763000D02*
X19945000Y-7793000D01*
X20010500Y-8813385D02*
X20040500Y-8843385D01*
X20040500Y-8813385D02*
X20010500Y-8843385D01*
X20010500Y-9713385D02*
X20040500Y-9743385D01*
X20040500Y-9713385D02*
X20010500Y-9743385D01*
X20010500Y-10013385D02*
X20040500Y-10043385D01*
X20040500Y-10013385D02*
X20010500Y-10043385D01*
X20010500Y-10313385D02*
X20040500Y-10343385D01*
X20040500Y-10313385D02*
X20010500Y-10343385D01*
X20010500Y-10613385D02*
X20040500Y-10643385D01*
X20040500Y-10613385D02*
X20010500Y-10643385D01*
X20010500Y-12413385D02*
X20040500Y-12443385D01*
X20040500Y-12413385D02*
X20010500Y-12443385D01*
X20035000Y-10943000D02*
X20065000Y-10973000D01*
X20065000Y-10943000D02*
X20035000Y-10973000D01*
X20135000Y-10843000D02*
X20165000Y-10873000D01*
X20165000Y-10843000D02*
X20135000Y-10873000D01*
X20135000Y-11243000D02*
X20165000Y-11273000D01*
X20165000Y-11243000D02*
X20135000Y-11273000D01*
X20210000Y-6993000D02*
X20240000Y-7023000D01*
X20240000Y-6993000D02*
X20210000Y-7023000D01*
X20225000Y-6413000D02*
X20255000Y-6443000D01*
X20255000Y-6413000D02*
X20225000Y-6443000D01*
X20235000Y-6753000D02*
X20265000Y-6783000D01*
X20265000Y-6753000D02*
X20235000Y-6783000D01*
X20235000Y-8213000D02*
X20265000Y-8243000D01*
X20265000Y-8213000D02*
X20235000Y-8243000D01*
X20285000Y-13018000D02*
X20315000Y-13048000D01*
X20315000Y-13018000D02*
X20285000Y-13048000D01*
X20310500Y-8813385D02*
X20340500Y-8843385D01*
X20340500Y-8813385D02*
X20310500Y-8843385D01*
X20310500Y-9413385D02*
X20340500Y-9443385D01*
X20340500Y-9413385D02*
X20310500Y-9443385D01*
X20310500Y-9713385D02*
X20340500Y-9743385D01*
X20340500Y-9713385D02*
X20310500Y-9743385D01*
X20310500Y-10013385D02*
X20340500Y-10043385D01*
X20340500Y-10013385D02*
X20310500Y-10043385D01*
X20310500Y-10313385D02*
X20340500Y-10343385D01*
X20340500Y-10313385D02*
X20310500Y-10343385D01*
X20340000Y-12659250D02*
X20370000Y-12689250D01*
X20370000Y-12659250D02*
X20340000Y-12689250D01*
X20435000Y-12423000D02*
X20465000Y-12453000D01*
X20465000Y-12423000D02*
X20435000Y-12453000D01*
X20455000Y-7888000D02*
X20485000Y-7918000D01*
X20485000Y-7888000D02*
X20455000Y-7918000D01*
X20505000Y-7507000D02*
X20535000Y-7537000D01*
X20535000Y-7507000D02*
X20505000Y-7537000D01*
X20540000Y-12659250D02*
X20570000Y-12689250D01*
X20570000Y-12659250D02*
X20540000Y-12689250D01*
X20610500Y-8813385D02*
X20640500Y-8843385D01*
X20640500Y-8813385D02*
X20610500Y-8843385D01*
X20610500Y-9413385D02*
X20640500Y-9443385D01*
X20640500Y-9413385D02*
X20610500Y-9443385D01*
X20610500Y-9713385D02*
X20640500Y-9743385D01*
X20640500Y-9713385D02*
X20610500Y-9743385D01*
X20610500Y-10013385D02*
X20640500Y-10043385D01*
X20640500Y-10013385D02*
X20610500Y-10043385D01*
X20730000Y-6413000D02*
X20760000Y-6443000D01*
X20760000Y-6413000D02*
X20730000Y-6443000D01*
X20735000Y-7133000D02*
X20765000Y-7163000D01*
X20765000Y-7133000D02*
X20735000Y-7163000D01*
X20855000Y-6873000D02*
X20885000Y-6903000D01*
X20885000Y-6873000D02*
X20855000Y-6903000D01*
X20910500Y-8813385D02*
X20940500Y-8843385D01*
X20940500Y-8813385D02*
X20910500Y-8843385D01*
X20910500Y-9413385D02*
X20940500Y-9443385D01*
X20940500Y-9413385D02*
X20910500Y-9443385D01*
X20910500Y-9713385D02*
X20940500Y-9743385D01*
X20940500Y-9713385D02*
X20910500Y-9743385D01*
X20910500Y-11813385D02*
X20940500Y-11843385D01*
X20940500Y-11813385D02*
X20910500Y-11843385D01*
X20910500Y-12113385D02*
X20940500Y-12143385D01*
X20940500Y-12113385D02*
X20910500Y-12143385D01*
X20935000Y-13018000D02*
X20965000Y-13048000D01*
X20965000Y-13018000D02*
X20935000Y-13048000D01*
X20995000Y-6993000D02*
X21025000Y-7023000D01*
X21025000Y-6993000D02*
X20995000Y-7023000D01*
X21155000Y-7633000D02*
X21185000Y-7663000D01*
X21185000Y-7633000D02*
X21155000Y-7663000D01*
X21210500Y-6413385D02*
X21240500Y-6443385D01*
X21240500Y-6413385D02*
X21210500Y-6443385D01*
X21210500Y-8213385D02*
X21240500Y-8243385D01*
X21240500Y-8213385D02*
X21210500Y-8243385D01*
X21210500Y-8813385D02*
X21240500Y-8843385D01*
X21240500Y-8813385D02*
X21210500Y-8843385D01*
X21210500Y-9413385D02*
X21240500Y-9443385D01*
X21240500Y-9413385D02*
X21210500Y-9443385D01*
X21210500Y-11513385D02*
X21240500Y-11543385D01*
X21240500Y-11513385D02*
X21210500Y-11543385D01*
X21210500Y-12113385D02*
X21240500Y-12143385D01*
X21240500Y-12113385D02*
X21210500Y-12143385D01*
X21210500Y-12413385D02*
X21240500Y-12443385D01*
X21240500Y-12413385D02*
X21210500Y-12443385D01*
X21210500Y-12713385D02*
X21240500Y-12743385D01*
X21240500Y-12713385D02*
X21210500Y-12743385D01*
X21210500Y-13613385D02*
X21240500Y-13643385D01*
X21240500Y-13613385D02*
X21210500Y-13643385D01*
X21285000Y-6743000D02*
X21315000Y-6773000D01*
X21315000Y-6743000D02*
X21285000Y-6773000D01*
X21510500Y-6413385D02*
X21540500Y-6443385D01*
X21540500Y-6413385D02*
X21510500Y-6443385D01*
X21510500Y-8213385D02*
X21540500Y-8243385D01*
X21540500Y-8213385D02*
X21510500Y-8243385D01*
X21510500Y-8813385D02*
X21540500Y-8843385D01*
X21540500Y-8813385D02*
X21510500Y-8843385D01*
X21510500Y-11213385D02*
X21540500Y-11243385D01*
X21540500Y-11213385D02*
X21510500Y-11243385D01*
X21510500Y-11513385D02*
X21540500Y-11543385D01*
X21540500Y-11513385D02*
X21510500Y-11543385D01*
X21510500Y-12113385D02*
X21540500Y-12143385D01*
X21540500Y-12113385D02*
X21510500Y-12143385D01*
X21510500Y-12413385D02*
X21540500Y-12443385D01*
X21540500Y-12413385D02*
X21510500Y-12443385D01*
X21510500Y-13613385D02*
X21540500Y-13643385D01*
X21540500Y-13613385D02*
X21510500Y-13643385D01*
X21545000Y-7773000D02*
X21575000Y-7803000D01*
X21575000Y-7773000D02*
X21545000Y-7803000D01*
X21610000Y-11868000D02*
X21640000Y-11898000D01*
X21640000Y-11868000D02*
X21610000Y-11898000D01*
X21675000Y-9898000D02*
X21705000Y-9928000D01*
X21705000Y-9898000D02*
X21675000Y-9928000D01*
X21675000Y-10023000D02*
X21705000Y-10053000D01*
X21705000Y-10023000D02*
X21675000Y-10053000D01*
X21675000Y-10153000D02*
X21705000Y-10183000D01*
X21705000Y-10153000D02*
X21675000Y-10183000D01*
X21675000Y-10283000D02*
X21705000Y-10313000D01*
X21705000Y-10283000D02*
X21675000Y-10313000D01*
X21675000Y-10403000D02*
X21705000Y-10433000D01*
X21705000Y-10403000D02*
X21675000Y-10433000D01*
X21725000Y-7513000D02*
X21755000Y-7543000D01*
X21755000Y-7513000D02*
X21725000Y-7543000D01*
X21745000Y-6413000D02*
X21775000Y-6443000D01*
X21775000Y-6413000D02*
X21745000Y-6443000D01*
X21785000Y-7133000D02*
X21815000Y-7163000D01*
X21815000Y-7133000D02*
X21785000Y-7163000D01*
X21810500Y-8813385D02*
X21840500Y-8843385D01*
X21840500Y-8813385D02*
X21810500Y-8843385D01*
X21810500Y-11213385D02*
X21840500Y-11243385D01*
X21840500Y-11213385D02*
X21810500Y-11243385D01*
X21810500Y-11513385D02*
X21840500Y-11543385D01*
X21840500Y-11513385D02*
X21810500Y-11543385D01*
X21810500Y-12113385D02*
X21840500Y-12143385D01*
X21840500Y-12113385D02*
X21810500Y-12143385D01*
X21810500Y-13613385D02*
X21840500Y-13643385D01*
X21840500Y-13613385D02*
X21810500Y-13643385D01*
X22005000Y-7893000D02*
X22035000Y-7923000D01*
X22035000Y-7893000D02*
X22005000Y-7923000D01*
X22110500Y-10613385D02*
X22140500Y-10643385D01*
X22140500Y-10613385D02*
X22110500Y-10643385D01*
X22110500Y-10913385D02*
X22140500Y-10943385D01*
X22140500Y-10913385D02*
X22110500Y-10943385D01*
X22110500Y-11513385D02*
X22140500Y-11543385D01*
X22140500Y-11513385D02*
X22110500Y-11543385D01*
X22110500Y-12713385D02*
X22140500Y-12743385D01*
X22140500Y-12713385D02*
X22110500Y-12743385D01*
X22110500Y-13013385D02*
X22140500Y-13043385D01*
X22140500Y-13013385D02*
X22110500Y-13043385D01*
X22110500Y-13613385D02*
X22140500Y-13643385D01*
X22140500Y-13613385D02*
X22110500Y-13643385D01*
X22125000Y-6873000D02*
X22155000Y-6903000D01*
X22155000Y-6873000D02*
X22125000Y-6903000D01*
X22160000Y-10043000D02*
X22190000Y-10073000D01*
X22190000Y-10043000D02*
X22160000Y-10073000D01*
X22160000Y-10243000D02*
X22190000Y-10273000D01*
X22190000Y-10243000D02*
X22160000Y-10273000D01*
X22235000Y-7643000D02*
X22265000Y-7673000D01*
X22265000Y-7643000D02*
X22235000Y-7673000D01*
X22410000Y-11468000D02*
X22440000Y-11498000D01*
X22440000Y-11468000D02*
X22410000Y-11498000D01*
X22410500Y-6413385D02*
X22440500Y-6443385D01*
X22440500Y-6413385D02*
X22410500Y-6443385D01*
X22410500Y-10013385D02*
X22440500Y-10043385D01*
X22440500Y-10013385D02*
X22410500Y-10043385D01*
X22410500Y-10613385D02*
X22440500Y-10643385D01*
X22440500Y-10613385D02*
X22410500Y-10643385D01*
X22410500Y-13613385D02*
X22440500Y-13643385D01*
X22440500Y-13613385D02*
X22410500Y-13643385D01*
X22635000Y-10818000D02*
X22665000Y-10848000D01*
X22665000Y-10818000D02*
X22635000Y-10848000D01*
X22645000Y-11468000D02*
X22675000Y-11498000D01*
X22675000Y-11468000D02*
X22645000Y-11498000D01*
X22710500Y-6413385D02*
X22740500Y-6443385D01*
X22740500Y-6413385D02*
X22710500Y-6443385D01*
X22710500Y-8213385D02*
X22740500Y-8243385D01*
X22740500Y-8213385D02*
X22710500Y-8243385D01*
X22710500Y-8513385D02*
X22740500Y-8543385D01*
X22740500Y-8513385D02*
X22710500Y-8543385D01*
X22710500Y-8813385D02*
X22740500Y-8843385D01*
X22740500Y-8813385D02*
X22710500Y-8843385D01*
X22710500Y-9713385D02*
X22740500Y-9743385D01*
X22740500Y-9713385D02*
X22710500Y-9743385D01*
X22710500Y-10013385D02*
X22740500Y-10043385D01*
X22740500Y-10013385D02*
X22710500Y-10043385D01*
X22710500Y-10613385D02*
X22740500Y-10643385D01*
X22740500Y-10613385D02*
X22710500Y-10643385D01*
X22710500Y-13613385D02*
X22740500Y-13643385D01*
X22740500Y-13613385D02*
X22710500Y-13643385D01*
X22885000Y-11468000D02*
X22915000Y-11498000D01*
X22915000Y-11468000D02*
X22885000Y-11498000D01*
X22889730Y-10818000D02*
X22919730Y-10848000D01*
X22919730Y-10818000D02*
X22889730Y-10848000D01*
X22905000Y-6748000D02*
X22935000Y-6778000D01*
X22935000Y-6748000D02*
X22905000Y-6778000D01*
X22905000Y-6873000D02*
X22935000Y-6903000D01*
X22935000Y-6873000D02*
X22905000Y-6903000D01*
X22905000Y-6998000D02*
X22935000Y-7028000D01*
X22935000Y-6998000D02*
X22905000Y-7028000D01*
X22905000Y-7128000D02*
X22935000Y-7158000D01*
X22935000Y-7128000D02*
X22905000Y-7158000D01*
X22905000Y-7508000D02*
X22935000Y-7538000D01*
X22935000Y-7508000D02*
X22905000Y-7538000D01*
X22905000Y-7633000D02*
X22935000Y-7663000D01*
X22935000Y-7633000D02*
X22905000Y-7663000D01*
X22905000Y-7763000D02*
X22935000Y-7793000D01*
X22935000Y-7763000D02*
X22905000Y-7793000D01*
X22905000Y-7888000D02*
X22935000Y-7918000D01*
X22935000Y-7888000D02*
X22905000Y-7918000D01*
X22905000Y-8843000D02*
X22935000Y-8873000D01*
X22935000Y-8843000D02*
X22905000Y-8873000D01*
X22905000Y-8943000D02*
X22935000Y-8973000D01*
X22935000Y-8943000D02*
X22905000Y-8973000D01*
X22905000Y-9043000D02*
X22935000Y-9073000D01*
X22935000Y-9043000D02*
X22905000Y-9073000D01*
X22905000Y-9293000D02*
X22935000Y-9323000D01*
X22935000Y-9293000D02*
X22905000Y-9323000D01*
X22910000Y-5838000D02*
X22940000Y-5868000D01*
X22940000Y-5838000D02*
X22910000Y-5868000D01*
X22910000Y-5938000D02*
X22940000Y-5968000D01*
X22940000Y-5938000D02*
X22910000Y-5968000D01*
X22910000Y-6038000D02*
X22940000Y-6068000D01*
X22940000Y-6038000D02*
X22910000Y-6068000D01*
X22910000Y-6138000D02*
X22940000Y-6168000D01*
X22940000Y-6138000D02*
X22910000Y-6168000D01*
X23010500Y-9713385D02*
X23040500Y-9743385D01*
X23040500Y-9713385D02*
X23010500Y-9743385D01*
X23010500Y-10613385D02*
X23040500Y-10643385D01*
X23040500Y-10613385D02*
X23010500Y-10643385D01*
X23010500Y-12113385D02*
X23040500Y-12143385D01*
X23040500Y-12113385D02*
X23010500Y-12143385D01*
X23010500Y-12413385D02*
X23040500Y-12443385D01*
X23040500Y-12413385D02*
X23010500Y-12443385D01*
X23010500Y-12713385D02*
X23040500Y-12743385D01*
X23040500Y-12713385D02*
X23010500Y-12743385D01*
X23010500Y-13013385D02*
X23040500Y-13043385D01*
X23040500Y-13013385D02*
X23010500Y-13043385D01*
X23010500Y-13613385D02*
X23040500Y-13643385D01*
X23040500Y-13613385D02*
X23010500Y-13643385D01*
X23026000Y-9293000D02*
X23056000Y-9323000D01*
X23056000Y-9293000D02*
X23026000Y-9323000D01*
X23110000Y-11468000D02*
X23140000Y-11498000D01*
X23140000Y-11468000D02*
X23110000Y-11498000D01*
X23135000Y-10818000D02*
X23165000Y-10848000D01*
X23165000Y-10818000D02*
X23135000Y-10848000D01*
X23153000Y-9293000D02*
X23183000Y-9323000D01*
X23183000Y-9293000D02*
X23153000Y-9323000D01*
X23210000Y-6593000D02*
X23240000Y-6623000D01*
X23240000Y-6593000D02*
X23210000Y-6623000D01*
X23235000Y-7193000D02*
X23265000Y-7223000D01*
X23265000Y-7193000D02*
X23235000Y-7223000D01*
X23260000Y-8468000D02*
X23290000Y-8498000D01*
X23290000Y-8468000D02*
X23260000Y-8498000D01*
X23280000Y-9293000D02*
X23310000Y-9323000D01*
X23310000Y-9293000D02*
X23280000Y-9323000D01*
X23305000Y-10593000D02*
X23335000Y-10623000D01*
X23335000Y-10593000D02*
X23305000Y-10623000D01*
X23310500Y-6113385D02*
X23340500Y-6143385D01*
X23340500Y-6113385D02*
X23310500Y-6143385D01*
X23310500Y-13613385D02*
X23340500Y-13643385D01*
X23340500Y-13613385D02*
X23310500Y-13643385D01*
X23407000Y-9293000D02*
X23437000Y-9323000D01*
X23437000Y-9293000D02*
X23407000Y-9323000D01*
X23410000Y-11868000D02*
X23440000Y-11898000D01*
X23440000Y-11868000D02*
X23410000Y-11898000D01*
X23460000Y-8468000D02*
X23490000Y-8498000D01*
X23490000Y-8468000D02*
X23460000Y-8498000D01*
X23505000Y-10633000D02*
X23535000Y-10663000D01*
X23535000Y-10633000D02*
X23505000Y-10663000D01*
X23534000Y-9293000D02*
X23564000Y-9323000D01*
X23564000Y-9293000D02*
X23534000Y-9323000D01*
X23610500Y-6113385D02*
X23640500Y-6143385D01*
X23640500Y-6113385D02*
X23610500Y-6143385D01*
X23610500Y-6413385D02*
X23640500Y-6443385D01*
X23640500Y-6413385D02*
X23610500Y-6443385D01*
X23610500Y-8213385D02*
X23640500Y-8243385D01*
X23640500Y-8213385D02*
X23610500Y-8243385D01*
X23610500Y-13613385D02*
X23640500Y-13643385D01*
X23640500Y-13613385D02*
X23610500Y-13643385D01*
X23645000Y-11873000D02*
X23675000Y-11903000D01*
X23675000Y-11873000D02*
X23645000Y-11903000D01*
X23665000Y-9293000D02*
X23695000Y-9323000D01*
X23695000Y-9293000D02*
X23665000Y-9323000D01*
X23685000Y-13163000D02*
X23715000Y-13193000D01*
X23715000Y-13163000D02*
X23685000Y-13193000D01*
X23910500Y-11513385D02*
X23940500Y-11543385D01*
X23940500Y-11513385D02*
X23910500Y-11543385D01*
X23910500Y-13613385D02*
X23940500Y-13643385D01*
X23940500Y-13613385D02*
X23910500Y-13643385D01*
X24210500Y-11513385D02*
X24240500Y-11543385D01*
X24240500Y-11513385D02*
X24210500Y-11543385D01*
X24210500Y-11813385D02*
X24240500Y-11843385D01*
X24240500Y-11813385D02*
X24210500Y-11843385D01*
X24210500Y-12113385D02*
X24240500Y-12143385D01*
X24240500Y-12113385D02*
X24210500Y-12143385D01*
X24210500Y-12413385D02*
X24240500Y-12443385D01*
X24240500Y-12413385D02*
X24210500Y-12443385D01*
X24210500Y-13313385D02*
X24240500Y-13343385D01*
X24240500Y-13313385D02*
X24210500Y-13343385D01*
X15235000Y-5758000D02*
G75*
G02*
X15185000Y-5758000I-25000J0D01*
G01*
X15185000Y-5758000D02*
G75*
G02*
X15235000Y-5758000I25000J0D01*
G01*
X15235000Y-13758000D02*
G75*
G02*
X15185000Y-13758000I-25000J0D01*
G01*
X15185000Y-13758000D02*
G75*
G02*
X15235000Y-13758000I25000J0D01*
G01*
X15305294Y-5588294D02*
G75*
G02*
X15255294Y-5588294I-25000J0D01*
G01*
X15255294Y-5588294D02*
G75*
G02*
X15305294Y-5588294I25000J0D01*
G01*
X15305294Y-5927706D02*
G75*
G02*
X15255294Y-5927706I-25000J0D01*
G01*
X15255294Y-5927706D02*
G75*
G02*
X15305294Y-5927706I25000J0D01*
G01*
X15305294Y-13588294D02*
G75*
G02*
X15255294Y-13588294I-25000J0D01*
G01*
X15255294Y-13588294D02*
G75*
G02*
X15305294Y-13588294I25000J0D01*
G01*
X15305294Y-13927706D02*
G75*
G02*
X15255294Y-13927706I-25000J0D01*
G01*
X15255294Y-13927706D02*
G75*
G02*
X15305294Y-13927706I25000J0D01*
G01*
X15475000Y-5518000D02*
G75*
G02*
X15425000Y-5518000I-25000J0D01*
G01*
X15425000Y-5518000D02*
G75*
G02*
X15475000Y-5518000I25000J0D01*
G01*
X15475000Y-5998000D02*
G75*
G02*
X15425000Y-5998000I-25000J0D01*
G01*
X15425000Y-5998000D02*
G75*
G02*
X15475000Y-5998000I25000J0D01*
G01*
X15475000Y-13518000D02*
G75*
G02*
X15425000Y-13518000I-25000J0D01*
G01*
X15425000Y-13518000D02*
G75*
G02*
X15475000Y-13518000I25000J0D01*
G01*
X15475000Y-13998000D02*
G75*
G02*
X15425000Y-13998000I-25000J0D01*
G01*
X15425000Y-13998000D02*
G75*
G02*
X15475000Y-13998000I25000J0D01*
G01*
X15644706Y-5588294D02*
G75*
G02*
X15594706Y-5588294I-25000J0D01*
G01*
X15594706Y-5588294D02*
G75*
G02*
X15644706Y-5588294I25000J0D01*
G01*
X15644706Y-5927706D02*
G75*
G02*
X15594706Y-5927706I-25000J0D01*
G01*
X15594706Y-5927706D02*
G75*
G02*
X15644706Y-5927706I25000J0D01*
G01*
X15644706Y-13588294D02*
G75*
G02*
X15594706Y-13588294I-25000J0D01*
G01*
X15594706Y-13588294D02*
G75*
G02*
X15644706Y-13588294I25000J0D01*
G01*
X15644706Y-13927706D02*
G75*
G02*
X15594706Y-13927706I-25000J0D01*
G01*
X15594706Y-13927706D02*
G75*
G02*
X15644706Y-13927706I25000J0D01*
G01*
X15715000Y-5758000D02*
G75*
G02*
X15665000Y-5758000I-25000J0D01*
G01*
X15665000Y-5758000D02*
G75*
G02*
X15715000Y-5758000I25000J0D01*
G01*
X15715000Y-13758000D02*
G75*
G02*
X15665000Y-13758000I-25000J0D01*
G01*
X15665000Y-13758000D02*
G75*
G02*
X15715000Y-13758000I25000J0D01*
G01*
X24235000Y-5758000D02*
G75*
G02*
X24185000Y-5758000I-25000J0D01*
G01*
X24185000Y-5758000D02*
G75*
G02*
X24235000Y-5758000I25000J0D01*
G01*
X24235000Y-13758000D02*
G75*
G02*
X24185000Y-13758000I-25000J0D01*
G01*
X24185000Y-13758000D02*
G75*
G02*
X24235000Y-13758000I25000J0D01*
G01*
X24305294Y-5588294D02*
G75*
G02*
X24255294Y-5588294I-25000J0D01*
G01*
X24255294Y-5588294D02*
G75*
G02*
X24305294Y-5588294I25000J0D01*
G01*
X24305294Y-5927706D02*
G75*
G02*
X24255294Y-5927706I-25000J0D01*
G01*
X24255294Y-5927706D02*
G75*
G02*
X24305294Y-5927706I25000J0D01*
G01*
X24305294Y-13588294D02*
G75*
G02*
X24255294Y-13588294I-25000J0D01*
G01*
X24255294Y-13588294D02*
G75*
G02*
X24305294Y-13588294I25000J0D01*
G01*
X24305294Y-13927706D02*
G75*
G02*
X24255294Y-13927706I-25000J0D01*
G01*
X24255294Y-13927706D02*
G75*
G02*
X24305294Y-13927706I25000J0D01*
G01*
X24475000Y-5518000D02*
G75*
G02*
X24425000Y-5518000I-25000J0D01*
G01*
X24425000Y-5518000D02*
G75*
G02*
X24475000Y-5518000I25000J0D01*
G01*
X24475000Y-5998000D02*
G75*
G02*
X24425000Y-5998000I-25000J0D01*
G01*
X24425000Y-5998000D02*
G75*
G02*
X24475000Y-5998000I25000J0D01*
G01*
X24475000Y-13518000D02*
G75*
G02*
X24425000Y-13518000I-25000J0D01*
G01*
X24425000Y-13518000D02*
G75*
G02*
X24475000Y-13518000I25000J0D01*
G01*
X24475000Y-13998000D02*
G75*
G02*
X24425000Y-13998000I-25000J0D01*
G01*
X24425000Y-13998000D02*
G75*
G02*
X24475000Y-13998000I25000J0D01*
G01*
X24644706Y-5588294D02*
G75*
G02*
X24594706Y-5588294I-25000J0D01*
G01*
X24594706Y-5588294D02*
G75*
G02*
X24644706Y-5588294I25000J0D01*
G01*
X24644706Y-5927706D02*
G75*
G02*
X24594706Y-5927706I-25000J0D01*
G01*
X24594706Y-5927706D02*
G75*
G02*
X24644706Y-5927706I25000J0D01*
G01*
X24644706Y-13588294D02*
G75*
G02*
X24594706Y-13588294I-25000J0D01*
G01*
X24594706Y-13588294D02*
G75*
G02*
X24644706Y-13588294I25000J0D01*
G01*
X24644706Y-13927706D02*
G75*
G02*
X24594706Y-13927706I-25000J0D01*
G01*
X24594706Y-13927706D02*
G75*
G02*
X24644706Y-13927706I25000J0D01*
G01*
X24715000Y-5758000D02*
G75*
G02*
X24665000Y-5758000I-25000J0D01*
G01*
X24665000Y-5758000D02*
G75*
G02*
X24715000Y-5758000I25000J0D01*
G01*
X24715000Y-13758000D02*
G75*
G02*
X24665000Y-13758000I-25000J0D01*
G01*
X24665000Y-13758000D02*
G75*
G02*
X24715000Y-13758000I25000J0D01*
G01*
X20192500Y-13107250D02*
X20192500Y-13167250D01*
X20162500Y-13137250D02*
X20222500Y-13137250D01*
X20162500Y-13082250D02*
X20162500Y-13192250D01*
X20222500Y-13192250D02*
G75*
G02*
X20162500Y-13192250I-30000J0D01*
G01*
X20222500Y-13192250D02*
X20222500Y-13082250D01*
X20222500Y-13082250D02*
G75*
G03*
X20162500Y-13082250I-30000J0D01*
G01*
X20192500Y-13524250D02*
X20192500Y-13584250D01*
X20162500Y-13554250D02*
X20222500Y-13554250D01*
X20162500Y-13514250D02*
X20162500Y-13594250D01*
X20222500Y-13594250D02*
G75*
G02*
X20162500Y-13594250I-30000J0D01*
G01*
X20222500Y-13594250D02*
X20222500Y-13514250D01*
X20222500Y-13514250D02*
G75*
G03*
X20162500Y-13514250I-30000J0D01*
G01*
X21057500Y-13107250D02*
X21057500Y-13167250D01*
X21027500Y-13137250D02*
X21087500Y-13137250D01*
X21027500Y-13082250D02*
X21027500Y-13192250D01*
X21087500Y-13192250D02*
G75*
G02*
X21027500Y-13192250I-30000J0D01*
G01*
X21087500Y-13192250D02*
X21087500Y-13082250D01*
X21087500Y-13082250D02*
G75*
G03*
X21027500Y-13082250I-30000J0D01*
G01*
X21057500Y-13524250D02*
X21057500Y-13584250D01*
X21027500Y-13554250D02*
X21087500Y-13554250D01*
X21027500Y-13514250D02*
X21027500Y-13594250D01*
X21087500Y-13594250D02*
G75*
G02*
X21027500Y-13594250I-30000J0D01*
G01*
X21087500Y-13594250D02*
X21087500Y-13514250D01*
X21087500Y-13514250D02*
G75*
G03*
X21027500Y-13514250I-30000J0D01*
G01*
X16468284Y-6283284D02*
X16468284Y-6226715D01*
X16411715Y-6226715D01*
X16411715Y-6283284D01*
X16468284Y-6283284D01*
X16468284Y-8486285D02*
X16468284Y-8429716D01*
X16411715Y-8429716D01*
X16411715Y-8486285D01*
X16468284Y-8486285D01*
X16722284Y-6283284D02*
X16722284Y-6226715D01*
X16665715Y-6226715D01*
X16665715Y-6283284D01*
X16722284Y-6283284D01*
X16722284Y-8486285D02*
X16722284Y-8429716D01*
X16665715Y-8429716D01*
X16665715Y-8486285D01*
X16722284Y-8486285D01*
X16976285Y-6283284D02*
X16976285Y-6226715D01*
X16919716Y-6226715D01*
X16919716Y-6283284D01*
X16976285Y-6283284D01*
X16976285Y-8486285D02*
X16976285Y-8429716D01*
X16919716Y-8429716D01*
X16919716Y-8486285D01*
X16976285Y-8486285D01*
X17108285Y-9116285D02*
X17108285Y-9059716D01*
X17051716Y-9059716D01*
X17051716Y-9116285D01*
X17108285Y-9116285D01*
X17230285Y-6286284D02*
X17230285Y-6229715D01*
X17173716Y-6229715D01*
X17173716Y-6286284D01*
X17230285Y-6286284D01*
X17230285Y-8486285D02*
X17230285Y-8429716D01*
X17173716Y-8429716D01*
X17173716Y-8486285D01*
X17230285Y-8486285D01*
X17362285Y-9116285D02*
X17362285Y-9059716D01*
X17305716Y-9059716D01*
X17305716Y-9116285D01*
X17362285Y-9116285D01*
X17484285Y-6286284D02*
X17484285Y-6229715D01*
X17427716Y-6229715D01*
X17427716Y-6286284D01*
X17484285Y-6286284D01*
X17484285Y-8486285D02*
X17484285Y-8429716D01*
X17427716Y-8429716D01*
X17427716Y-8486285D01*
X17484285Y-8486285D01*
X17616285Y-9116285D02*
X17616285Y-9059716D01*
X17559716Y-9059716D01*
X17559716Y-9116285D01*
X17616285Y-9116285D01*
X17738285Y-6286284D02*
X17738285Y-6229715D01*
X17681716Y-6229715D01*
X17681716Y-6286284D01*
X17738285Y-6286284D01*
X17738285Y-8486285D02*
X17738285Y-8429716D01*
X17681716Y-8429716D01*
X17681716Y-8486285D01*
X17738285Y-8486285D01*
X17870285Y-9116285D02*
X17870285Y-9059716D01*
X17813716Y-9059716D01*
X17813716Y-9116285D01*
X17870285Y-9116285D01*
X17992285Y-6286284D02*
X17992285Y-6229715D01*
X17935716Y-6229715D01*
X17935716Y-6286284D01*
X17992285Y-6286284D01*
X17992285Y-8489285D02*
X17992285Y-8432716D01*
X17935716Y-8432716D01*
X17935716Y-8489285D01*
X17992285Y-8489285D01*
X18124285Y-9116285D02*
X18124285Y-9059716D01*
X18067716Y-9059716D01*
X18067716Y-9116285D01*
X18124285Y-9116285D01*
X18246285Y-6286284D02*
X18246285Y-6229715D01*
X18189716Y-6229715D01*
X18189716Y-6286284D01*
X18246285Y-6286284D01*
X18246285Y-8489285D02*
X18246285Y-8432716D01*
X18189716Y-8432716D01*
X18189716Y-8489285D01*
X18246285Y-8489285D01*
X18378285Y-9116285D02*
X18378285Y-9059716D01*
X18321716Y-9059716D01*
X18321716Y-9116285D01*
X18378285Y-9116285D01*
X18500285Y-6286284D02*
X18500285Y-6229715D01*
X18443716Y-6229715D01*
X18443716Y-6286284D01*
X18500285Y-6286284D01*
X18500285Y-8489285D02*
X18500285Y-8432716D01*
X18443716Y-8432716D01*
X18443716Y-8489285D01*
X18500285Y-8489285D01*
X18632285Y-9119285D02*
X18632285Y-9062716D01*
X18575716Y-9062716D01*
X18575716Y-9119285D01*
X18632285Y-9119285D01*
X18886285Y-9119285D02*
X18886285Y-9062716D01*
X18829716Y-9062716D01*
X18829716Y-9119285D01*
X18886285Y-9119285D01*
X19140285Y-9119285D02*
X19140285Y-9062716D01*
X19083716Y-9062716D01*
X19083716Y-9119285D01*
X19140285Y-9119285D01*
X19394285Y-9119285D02*
X19394285Y-9062716D01*
X19337716Y-9062716D01*
X19337716Y-9119285D01*
X19394285Y-9119285D01*
X19648285Y-9119285D02*
X19648285Y-9062716D01*
X19591716Y-9062716D01*
X19591716Y-9119285D01*
X19648285Y-9119285D01*
X20138285Y-6283284D02*
X20138285Y-6226715D01*
X20081716Y-6226715D01*
X20081716Y-6283284D01*
X20138285Y-6283284D01*
X20138285Y-8486285D02*
X20138285Y-8429716D01*
X20081716Y-8429716D01*
X20081716Y-8486285D01*
X20138285Y-8486285D01*
X20392285Y-6283284D02*
X20392285Y-6226715D01*
X20335716Y-6226715D01*
X20335716Y-6283284D01*
X20392285Y-6283284D01*
X20392285Y-8486285D02*
X20392285Y-8429716D01*
X20335716Y-8429716D01*
X20335716Y-8486285D01*
X20392285Y-8486285D01*
X20646285Y-6283284D02*
X20646285Y-6226715D01*
X20589716Y-6226715D01*
X20589716Y-6283284D01*
X20646285Y-6283284D01*
X20646285Y-8486285D02*
X20646285Y-8429716D01*
X20589716Y-8429716D01*
X20589716Y-8486285D01*
X20646285Y-8486285D01*
X20900285Y-6286284D02*
X20900285Y-6229715D01*
X20843716Y-6229715D01*
X20843716Y-6286284D01*
X20900285Y-6286284D01*
X20900285Y-8486285D02*
X20900285Y-8429716D01*
X20843716Y-8429716D01*
X20843716Y-8486285D01*
X20900285Y-8486285D01*
X21154285Y-6286284D02*
X21154285Y-6229715D01*
X21097716Y-6229715D01*
X21097716Y-6286284D01*
X21154285Y-6286284D01*
X21154285Y-8486285D02*
X21154285Y-8429716D01*
X21097716Y-8429716D01*
X21097716Y-8486285D01*
X21154285Y-8486285D01*
X21408285Y-6286284D02*
X21408285Y-6229715D01*
X21351716Y-6229715D01*
X21351716Y-6286284D01*
X21408285Y-6286284D01*
X21408285Y-8486285D02*
X21408285Y-8429716D01*
X21351716Y-8429716D01*
X21351716Y-8486285D01*
X21408285Y-8486285D01*
X21662285Y-6286284D02*
X21662285Y-6229715D01*
X21605716Y-6229715D01*
X21605716Y-6286284D01*
X21662285Y-6286284D01*
X21662285Y-8489285D02*
X21662285Y-8432716D01*
X21605716Y-8432716D01*
X21605716Y-8489285D01*
X21662285Y-8489285D01*
X21916285Y-6286284D02*
X21916285Y-6229715D01*
X21859716Y-6229715D01*
X21859716Y-6286284D01*
X21916285Y-6286284D01*
X21916285Y-8489285D02*
X21916285Y-8432716D01*
X21859716Y-8432716D01*
X21859716Y-8489285D01*
X21916285Y-8489285D01*
X22170285Y-6286284D02*
X22170285Y-6229715D01*
X22113716Y-6229715D01*
X22113716Y-6286284D01*
X22170285Y-6286284D01*
X22170285Y-8489285D02*
X22170285Y-8432716D01*
X22113716Y-8432716D01*
X22113716Y-8489285D01*
X22170285Y-8489285D01*
X16350000Y-12730500D02*
X16400000Y-12680500D01*
X16350000Y-12630500D01*
X16300000Y-12680500D01*
X16350000Y-12730500D01*
X16600000Y-12730500D02*
X16650000Y-12680500D01*
X16600000Y-12630500D01*
X16550000Y-12680500D01*
X16600000Y-12730500D01*
X21475000Y-12663000D02*
X21525000Y-12613000D01*
X21475000Y-12563000D01*
X21425000Y-12613000D01*
X21475000Y-12663000D01*
X21475000Y-13380500D02*
X21525000Y-13330500D01*
X21475000Y-13280500D01*
X21425000Y-13330500D01*
X21475000Y-13380500D01*
X21725000Y-12663000D02*
X21775000Y-12613000D01*
X21725000Y-12563000D01*
X21675000Y-12613000D01*
X21725000Y-12663000D01*
X21725000Y-13380500D02*
X21775000Y-13330500D01*
X21725000Y-13280500D01*
X21675000Y-13330500D01*
X21725000Y-13380500D01*
X22375000Y-12663000D02*
X22425000Y-12613000D01*
X22375000Y-12563000D01*
X22325000Y-12613000D01*
X22375000Y-12663000D01*
X22375000Y-13380500D02*
X22425000Y-13330500D01*
X22375000Y-13280500D01*
X22325000Y-13330500D01*
X22375000Y-13380500D01*
X22625000Y-12663000D02*
X22675000Y-12613000D01*
X22625000Y-12563000D01*
X22575000Y-12613000D01*
X22625000Y-12663000D01*
X22625000Y-13380500D02*
X22675000Y-13330500D01*
X22625000Y-13280500D01*
X22575000Y-13330500D01*
X22625000Y-13380500D01*
X23250000Y-13380500D02*
X23300000Y-13330500D01*
X23250000Y-13280500D01*
X23200000Y-13330500D01*
X23250000Y-13380500D01*
X23275000Y-12663000D02*
X23325000Y-12613000D01*
X23275000Y-12563000D01*
X23225000Y-12613000D01*
X23275000Y-12663000D01*
X23500000Y-13380500D02*
X23550000Y-13330500D01*
X23500000Y-13280500D01*
X23450000Y-13330500D01*
X23500000Y-13380500D01*
X23525000Y-12663000D02*
X23575000Y-12613000D01*
X23525000Y-12563000D01*
X23475000Y-12613000D01*
X23525000Y-12663000D01*
D12*
X15290000Y-5598000D02*
X15610000Y-5918000D01*
X15610000Y-5598000D02*
X15290000Y-5918000D01*
X15610000Y-5758000D02*
G75*
G02*
X15290000Y-5758000I-160000J0D01*
G01*
X15290000Y-5758000D02*
G75*
G02*
X15610000Y-5758000I160000J0D01*
G01*
X15290000Y-13598000D02*
X15610000Y-13918000D01*
X15610000Y-13598000D02*
X15290000Y-13918000D01*
X15610000Y-13758000D02*
G75*
G02*
X15290000Y-13758000I-160000J0D01*
G01*
X15290000Y-13758000D02*
G75*
G02*
X15610000Y-13758000I160000J0D01*
G01*
X24290000Y-5598000D02*
X24610000Y-5918000D01*
X24610000Y-5598000D02*
X24290000Y-5918000D01*
X24610000Y-5758000D02*
G75*
G02*
X24290000Y-5758000I-160000J0D01*
G01*
X24290000Y-5758000D02*
G75*
G02*
X24610000Y-5758000I160000J0D01*
G01*
X24290000Y-13598000D02*
X24610000Y-13918000D01*
X24610000Y-13598000D02*
X24290000Y-13918000D01*
X24610000Y-13758000D02*
G75*
G02*
X24290000Y-13758000I-160000J0D01*
G01*
X24290000Y-13758000D02*
G75*
G02*
X24610000Y-13758000I160000J0D01*
G01*
D11*
X15280777Y-14499484D02*
X15280777Y-14299484D01*
X15280777Y-14299484D02*
X15328396Y-14299484D01*
X15328396Y-14299484D02*
X15356967Y-14309008D01*
X15356967Y-14309008D02*
X15376015Y-14328055D01*
X15376015Y-14328055D02*
X15385539Y-14347103D01*
X15385539Y-14347103D02*
X15395062Y-14385198D01*
X15395062Y-14385198D02*
X15395062Y-14413769D01*
X15395062Y-14413769D02*
X15385539Y-14451865D01*
X15385539Y-14451865D02*
X15376015Y-14470912D01*
X15376015Y-14470912D02*
X15356967Y-14489960D01*
X15356967Y-14489960D02*
X15328396Y-14499484D01*
X15328396Y-14499484D02*
X15280777Y-14499484D01*
X15480777Y-14499484D02*
X15480777Y-14366150D01*
X15480777Y-14404246D02*
X15490301Y-14385198D01*
X15490301Y-14385198D02*
X15499824Y-14375674D01*
X15499824Y-14375674D02*
X15518872Y-14366150D01*
X15518872Y-14366150D02*
X15537920Y-14366150D01*
X15604586Y-14499484D02*
X15604586Y-14366150D01*
X15604586Y-14299484D02*
X15595062Y-14309008D01*
X15595062Y-14309008D02*
X15604586Y-14318531D01*
X15604586Y-14318531D02*
X15614110Y-14309008D01*
X15614110Y-14309008D02*
X15604586Y-14299484D01*
X15604586Y-14299484D02*
X15604586Y-14318531D01*
X15728396Y-14499484D02*
X15709348Y-14489960D01*
X15709348Y-14489960D02*
X15699824Y-14470912D01*
X15699824Y-14470912D02*
X15699824Y-14299484D01*
X15833158Y-14499484D02*
X15814110Y-14489960D01*
X15814110Y-14489960D02*
X15804586Y-14470912D01*
X15804586Y-14470912D02*
X15804586Y-14299484D01*
X16061729Y-14499484D02*
X16061729Y-14299484D01*
X16061729Y-14299484D02*
X16128396Y-14442341D01*
X16128396Y-14442341D02*
X16195062Y-14299484D01*
X16195062Y-14299484D02*
X16195062Y-14499484D01*
X16376015Y-14499484D02*
X16376015Y-14394722D01*
X16376015Y-14394722D02*
X16366491Y-14375674D01*
X16366491Y-14375674D02*
X16347443Y-14366150D01*
X16347443Y-14366150D02*
X16309348Y-14366150D01*
X16309348Y-14366150D02*
X16290301Y-14375674D01*
X16376015Y-14489960D02*
X16356967Y-14499484D01*
X16356967Y-14499484D02*
X16309348Y-14499484D01*
X16309348Y-14499484D02*
X16290301Y-14489960D01*
X16290301Y-14489960D02*
X16280777Y-14470912D01*
X16280777Y-14470912D02*
X16280777Y-14451865D01*
X16280777Y-14451865D02*
X16290301Y-14432817D01*
X16290301Y-14432817D02*
X16309348Y-14423293D01*
X16309348Y-14423293D02*
X16356967Y-14423293D01*
X16356967Y-14423293D02*
X16376015Y-14413769D01*
X16471253Y-14366150D02*
X16471253Y-14566150D01*
X16471253Y-14375674D02*
X16490301Y-14366150D01*
X16490301Y-14366150D02*
X16528396Y-14366150D01*
X16528396Y-14366150D02*
X16547443Y-14375674D01*
X16547443Y-14375674D02*
X16556967Y-14385198D01*
X16556967Y-14385198D02*
X16566491Y-14404246D01*
X16566491Y-14404246D02*
X16566491Y-14461388D01*
X16566491Y-14461388D02*
X16556967Y-14480436D01*
X16556967Y-14480436D02*
X16547443Y-14489960D01*
X16547443Y-14489960D02*
X16528396Y-14499484D01*
X16528396Y-14499484D02*
X16490301Y-14499484D01*
X16490301Y-14499484D02*
X16471253Y-14489960D01*
X16652205Y-14480436D02*
X16661729Y-14489960D01*
X16661729Y-14489960D02*
X16652205Y-14499484D01*
X16652205Y-14499484D02*
X16642682Y-14489960D01*
X16642682Y-14489960D02*
X16652205Y-14480436D01*
X16652205Y-14480436D02*
X16652205Y-14499484D01*
X16652205Y-14375674D02*
X16661729Y-14385198D01*
X16661729Y-14385198D02*
X16652205Y-14394722D01*
X16652205Y-14394722D02*
X16642682Y-14385198D01*
X16642682Y-14385198D02*
X16652205Y-14375674D01*
X16652205Y-14375674D02*
X16652205Y-14394722D01*
D10*
X14990000Y-14813000D02*
X15020000Y-14843000D01*
X15020000Y-14813000D02*
X14990000Y-14843000D01*
D11*
X15318872Y-14719484D02*
X15337920Y-14719484D01*
X15337920Y-14719484D02*
X15356967Y-14729008D01*
X15356967Y-14729008D02*
X15366491Y-14738531D01*
X15366491Y-14738531D02*
X15376015Y-14757579D01*
X15376015Y-14757579D02*
X15385539Y-14795674D01*
X15385539Y-14795674D02*
X15385539Y-14843293D01*
X15385539Y-14843293D02*
X15376015Y-14881388D01*
X15376015Y-14881388D02*
X15366491Y-14900436D01*
X15366491Y-14900436D02*
X15356967Y-14909960D01*
X15356967Y-14909960D02*
X15337920Y-14919484D01*
X15337920Y-14919484D02*
X15318872Y-14919484D01*
X15318872Y-14919484D02*
X15299824Y-14909960D01*
X15299824Y-14909960D02*
X15290301Y-14900436D01*
X15290301Y-14900436D02*
X15280777Y-14881388D01*
X15280777Y-14881388D02*
X15271253Y-14843293D01*
X15271253Y-14843293D02*
X15271253Y-14795674D01*
X15271253Y-14795674D02*
X15280777Y-14757579D01*
X15280777Y-14757579D02*
X15290301Y-14738531D01*
X15290301Y-14738531D02*
X15299824Y-14729008D01*
X15299824Y-14729008D02*
X15318872Y-14719484D01*
X15471253Y-14900436D02*
X15480777Y-14909960D01*
X15480777Y-14909960D02*
X15471253Y-14919484D01*
X15471253Y-14919484D02*
X15461729Y-14909960D01*
X15461729Y-14909960D02*
X15471253Y-14900436D01*
X15471253Y-14900436D02*
X15471253Y-14919484D01*
X15547443Y-14719484D02*
X15671253Y-14719484D01*
X15671253Y-14719484D02*
X15604586Y-14795674D01*
X15604586Y-14795674D02*
X15633158Y-14795674D01*
X15633158Y-14795674D02*
X15652205Y-14805198D01*
X15652205Y-14805198D02*
X15661729Y-14814722D01*
X15661729Y-14814722D02*
X15671253Y-14833769D01*
X15671253Y-14833769D02*
X15671253Y-14881388D01*
X15671253Y-14881388D02*
X15661729Y-14900436D01*
X15661729Y-14900436D02*
X15652205Y-14909960D01*
X15652205Y-14909960D02*
X15633158Y-14919484D01*
X15633158Y-14919484D02*
X15576015Y-14919484D01*
X15576015Y-14919484D02*
X15556967Y-14909960D01*
X15556967Y-14909960D02*
X15547443Y-14900436D01*
X15795062Y-14719484D02*
X15814110Y-14719484D01*
X15814110Y-14719484D02*
X15833158Y-14729008D01*
X15833158Y-14729008D02*
X15842682Y-14738531D01*
X15842682Y-14738531D02*
X15852205Y-14757579D01*
X15852205Y-14757579D02*
X15861729Y-14795674D01*
X15861729Y-14795674D02*
X15861729Y-14843293D01*
X15861729Y-14843293D02*
X15852205Y-14881388D01*
X15852205Y-14881388D02*
X15842682Y-14900436D01*
X15842682Y-14900436D02*
X15833158Y-14909960D01*
X15833158Y-14909960D02*
X15814110Y-14919484D01*
X15814110Y-14919484D02*
X15795062Y-14919484D01*
X15795062Y-14919484D02*
X15776015Y-14909960D01*
X15776015Y-14909960D02*
X15766491Y-14900436D01*
X15766491Y-14900436D02*
X15756967Y-14881388D01*
X15756967Y-14881388D02*
X15747443Y-14843293D01*
X15747443Y-14843293D02*
X15747443Y-14795674D01*
X15747443Y-14795674D02*
X15756967Y-14757579D01*
X15756967Y-14757579D02*
X15766491Y-14738531D01*
X15766491Y-14738531D02*
X15776015Y-14729008D01*
X15776015Y-14729008D02*
X15795062Y-14719484D01*
X15985539Y-14719484D02*
X16004586Y-14719484D01*
X16004586Y-14719484D02*
X16023634Y-14729008D01*
X16023634Y-14729008D02*
X16033158Y-14738531D01*
X16033158Y-14738531D02*
X16042682Y-14757579D01*
X16042682Y-14757579D02*
X16052205Y-14795674D01*
X16052205Y-14795674D02*
X16052205Y-14843293D01*
X16052205Y-14843293D02*
X16042682Y-14881388D01*
X16042682Y-14881388D02*
X16033158Y-14900436D01*
X16033158Y-14900436D02*
X16023634Y-14909960D01*
X16023634Y-14909960D02*
X16004586Y-14919484D01*
X16004586Y-14919484D02*
X15985539Y-14919484D01*
X15985539Y-14919484D02*
X15966491Y-14909960D01*
X15966491Y-14909960D02*
X15956967Y-14900436D01*
X15956967Y-14900436D02*
X15947443Y-14881388D01*
X15947443Y-14881388D02*
X15937920Y-14843293D01*
X15937920Y-14843293D02*
X15937920Y-14795674D01*
X15937920Y-14795674D02*
X15947443Y-14757579D01*
X15947443Y-14757579D02*
X15956967Y-14738531D01*
X15956967Y-14738531D02*
X15966491Y-14729008D01*
X15966491Y-14729008D02*
X15985539Y-14719484D01*
X16137920Y-14919484D02*
X16137920Y-14786150D01*
X16137920Y-14805198D02*
X16147443Y-14795674D01*
X16147443Y-14795674D02*
X16166491Y-14786150D01*
X16166491Y-14786150D02*
X16195063Y-14786150D01*
X16195063Y-14786150D02*
X16214110Y-14795674D01*
X16214110Y-14795674D02*
X16223634Y-14814722D01*
X16223634Y-14814722D02*
X16223634Y-14919484D01*
X16223634Y-14814722D02*
X16233158Y-14795674D01*
X16233158Y-14795674D02*
X16252205Y-14786150D01*
X16252205Y-14786150D02*
X16280777Y-14786150D01*
X16280777Y-14786150D02*
X16299824Y-14795674D01*
X16299824Y-14795674D02*
X16309348Y-14814722D01*
X16309348Y-14814722D02*
X16309348Y-14919484D01*
X16404586Y-14919484D02*
X16404586Y-14786150D01*
X16404586Y-14805198D02*
X16414110Y-14795674D01*
X16414110Y-14795674D02*
X16433158Y-14786150D01*
X16433158Y-14786150D02*
X16461729Y-14786150D01*
X16461729Y-14786150D02*
X16480777Y-14795674D01*
X16480777Y-14795674D02*
X16490301Y-14814722D01*
X16490301Y-14814722D02*
X16490301Y-14919484D01*
X16490301Y-14814722D02*
X16499824Y-14795674D01*
X16499824Y-14795674D02*
X16518872Y-14786150D01*
X16518872Y-14786150D02*
X16547443Y-14786150D01*
X16547443Y-14786150D02*
X16566491Y-14795674D01*
X16566491Y-14795674D02*
X16576015Y-14814722D01*
X16576015Y-14814722D02*
X16576015Y-14919484D01*
X16966491Y-14709960D02*
X16795063Y-14967103D01*
X17223634Y-14719484D02*
X17242682Y-14719484D01*
X17242682Y-14719484D02*
X17261729Y-14729008D01*
X17261729Y-14729008D02*
X17271253Y-14738531D01*
X17271253Y-14738531D02*
X17280777Y-14757579D01*
X17280777Y-14757579D02*
X17290301Y-14795674D01*
X17290301Y-14795674D02*
X17290301Y-14843293D01*
X17290301Y-14843293D02*
X17280777Y-14881388D01*
X17280777Y-14881388D02*
X17271253Y-14900436D01*
X17271253Y-14900436D02*
X17261729Y-14909960D01*
X17261729Y-14909960D02*
X17242682Y-14919484D01*
X17242682Y-14919484D02*
X17223634Y-14919484D01*
X17223634Y-14919484D02*
X17204587Y-14909960D01*
X17204587Y-14909960D02*
X17195063Y-14900436D01*
X17195063Y-14900436D02*
X17185539Y-14881388D01*
X17185539Y-14881388D02*
X17176015Y-14843293D01*
X17176015Y-14843293D02*
X17176015Y-14795674D01*
X17176015Y-14795674D02*
X17185539Y-14757579D01*
X17185539Y-14757579D02*
X17195063Y-14738531D01*
X17195063Y-14738531D02*
X17204587Y-14729008D01*
X17204587Y-14729008D02*
X17223634Y-14719484D01*
X17376015Y-14900436D02*
X17385539Y-14909960D01*
X17385539Y-14909960D02*
X17376015Y-14919484D01*
X17376015Y-14919484D02*
X17366491Y-14909960D01*
X17366491Y-14909960D02*
X17376015Y-14900436D01*
X17376015Y-14900436D02*
X17376015Y-14919484D01*
X17509348Y-14719484D02*
X17528396Y-14719484D01*
X17528396Y-14719484D02*
X17547444Y-14729008D01*
X17547444Y-14729008D02*
X17556968Y-14738531D01*
X17556968Y-14738531D02*
X17566491Y-14757579D01*
X17566491Y-14757579D02*
X17576015Y-14795674D01*
X17576015Y-14795674D02*
X17576015Y-14843293D01*
X17576015Y-14843293D02*
X17566491Y-14881388D01*
X17566491Y-14881388D02*
X17556968Y-14900436D01*
X17556968Y-14900436D02*
X17547444Y-14909960D01*
X17547444Y-14909960D02*
X17528396Y-14919484D01*
X17528396Y-14919484D02*
X17509348Y-14919484D01*
X17509348Y-14919484D02*
X17490301Y-14909960D01*
X17490301Y-14909960D02*
X17480777Y-14900436D01*
X17480777Y-14900436D02*
X17471253Y-14881388D01*
X17471253Y-14881388D02*
X17461729Y-14843293D01*
X17461729Y-14843293D02*
X17461729Y-14795674D01*
X17461729Y-14795674D02*
X17471253Y-14757579D01*
X17471253Y-14757579D02*
X17480777Y-14738531D01*
X17480777Y-14738531D02*
X17490301Y-14729008D01*
X17490301Y-14729008D02*
X17509348Y-14719484D01*
X17766491Y-14919484D02*
X17652206Y-14919484D01*
X17709348Y-14919484D02*
X17709348Y-14719484D01*
X17709348Y-14719484D02*
X17690301Y-14748055D01*
X17690301Y-14748055D02*
X17671253Y-14767103D01*
X17671253Y-14767103D02*
X17652206Y-14776627D01*
X17956968Y-14919484D02*
X17842682Y-14919484D01*
X17899825Y-14919484D02*
X17899825Y-14719484D01*
X17899825Y-14719484D02*
X17880777Y-14748055D01*
X17880777Y-14748055D02*
X17861729Y-14767103D01*
X17861729Y-14767103D02*
X17842682Y-14776627D01*
X18071253Y-14805198D02*
X18052206Y-14795674D01*
X18052206Y-14795674D02*
X18042682Y-14786150D01*
X18042682Y-14786150D02*
X18033158Y-14767103D01*
X18033158Y-14767103D02*
X18033158Y-14757579D01*
X18033158Y-14757579D02*
X18042682Y-14738531D01*
X18042682Y-14738531D02*
X18052206Y-14729008D01*
X18052206Y-14729008D02*
X18071253Y-14719484D01*
X18071253Y-14719484D02*
X18109349Y-14719484D01*
X18109349Y-14719484D02*
X18128396Y-14729008D01*
X18128396Y-14729008D02*
X18137920Y-14738531D01*
X18137920Y-14738531D02*
X18147444Y-14757579D01*
X18147444Y-14757579D02*
X18147444Y-14767103D01*
X18147444Y-14767103D02*
X18137920Y-14786150D01*
X18137920Y-14786150D02*
X18128396Y-14795674D01*
X18128396Y-14795674D02*
X18109349Y-14805198D01*
X18109349Y-14805198D02*
X18071253Y-14805198D01*
X18071253Y-14805198D02*
X18052206Y-14814722D01*
X18052206Y-14814722D02*
X18042682Y-14824246D01*
X18042682Y-14824246D02*
X18033158Y-14843293D01*
X18033158Y-14843293D02*
X18033158Y-14881388D01*
X18033158Y-14881388D02*
X18042682Y-14900436D01*
X18042682Y-14900436D02*
X18052206Y-14909960D01*
X18052206Y-14909960D02*
X18071253Y-14919484D01*
X18071253Y-14919484D02*
X18109349Y-14919484D01*
X18109349Y-14919484D02*
X18128396Y-14909960D01*
X18128396Y-14909960D02*
X18137920Y-14900436D01*
X18137920Y-14900436D02*
X18147444Y-14881388D01*
X18147444Y-14881388D02*
X18147444Y-14843293D01*
X18147444Y-14843293D02*
X18137920Y-14824246D01*
X18137920Y-14824246D02*
X18128396Y-14814722D01*
X18128396Y-14814722D02*
X18109349Y-14805198D01*
X18223634Y-14719484D02*
X18223634Y-14757579D01*
X18299825Y-14719484D02*
X18299825Y-14757579D01*
X18595063Y-14995674D02*
X18585539Y-14986150D01*
X18585539Y-14986150D02*
X18566491Y-14957579D01*
X18566491Y-14957579D02*
X18556968Y-14938531D01*
X18556968Y-14938531D02*
X18547444Y-14909960D01*
X18547444Y-14909960D02*
X18537920Y-14862341D01*
X18537920Y-14862341D02*
X18537920Y-14824246D01*
X18537920Y-14824246D02*
X18547444Y-14776627D01*
X18547444Y-14776627D02*
X18556968Y-14748055D01*
X18556968Y-14748055D02*
X18566491Y-14729008D01*
X18566491Y-14729008D02*
X18585539Y-14700436D01*
X18585539Y-14700436D02*
X18595063Y-14690912D01*
X18652206Y-14719484D02*
X18776015Y-14719484D01*
X18776015Y-14719484D02*
X18709349Y-14795674D01*
X18709349Y-14795674D02*
X18737920Y-14795674D01*
X18737920Y-14795674D02*
X18756968Y-14805198D01*
X18756968Y-14805198D02*
X18766491Y-14814722D01*
X18766491Y-14814722D02*
X18776015Y-14833769D01*
X18776015Y-14833769D02*
X18776015Y-14881388D01*
X18776015Y-14881388D02*
X18766491Y-14900436D01*
X18766491Y-14900436D02*
X18756968Y-14909960D01*
X18756968Y-14909960D02*
X18737920Y-14919484D01*
X18737920Y-14919484D02*
X18680777Y-14919484D01*
X18680777Y-14919484D02*
X18661730Y-14909960D01*
X18661730Y-14909960D02*
X18652206Y-14900436D01*
X18871253Y-14919484D02*
X18909349Y-14919484D01*
X18909349Y-14919484D02*
X18928396Y-14909960D01*
X18928396Y-14909960D02*
X18937920Y-14900436D01*
X18937920Y-14900436D02*
X18956968Y-14871865D01*
X18956968Y-14871865D02*
X18966491Y-14833769D01*
X18966491Y-14833769D02*
X18966491Y-14757579D01*
X18966491Y-14757579D02*
X18956968Y-14738531D01*
X18956968Y-14738531D02*
X18947444Y-14729008D01*
X18947444Y-14729008D02*
X18928396Y-14719484D01*
X18928396Y-14719484D02*
X18890301Y-14719484D01*
X18890301Y-14719484D02*
X18871253Y-14729008D01*
X18871253Y-14729008D02*
X18861730Y-14738531D01*
X18861730Y-14738531D02*
X18852206Y-14757579D01*
X18852206Y-14757579D02*
X18852206Y-14805198D01*
X18852206Y-14805198D02*
X18861730Y-14824246D01*
X18861730Y-14824246D02*
X18871253Y-14833769D01*
X18871253Y-14833769D02*
X18890301Y-14843293D01*
X18890301Y-14843293D02*
X18928396Y-14843293D01*
X18928396Y-14843293D02*
X18947444Y-14833769D01*
X18947444Y-14833769D02*
X18956968Y-14824246D01*
X18956968Y-14824246D02*
X18966491Y-14805198D01*
X19090301Y-14719484D02*
X19109349Y-14719484D01*
X19109349Y-14719484D02*
X19128396Y-14729008D01*
X19128396Y-14729008D02*
X19137920Y-14738531D01*
X19137920Y-14738531D02*
X19147444Y-14757579D01*
X19147444Y-14757579D02*
X19156968Y-14795674D01*
X19156968Y-14795674D02*
X19156968Y-14843293D01*
X19156968Y-14843293D02*
X19147444Y-14881388D01*
X19147444Y-14881388D02*
X19137920Y-14900436D01*
X19137920Y-14900436D02*
X19128396Y-14909960D01*
X19128396Y-14909960D02*
X19109349Y-14919484D01*
X19109349Y-14919484D02*
X19090301Y-14919484D01*
X19090301Y-14919484D02*
X19071253Y-14909960D01*
X19071253Y-14909960D02*
X19061730Y-14900436D01*
X19061730Y-14900436D02*
X19052206Y-14881388D01*
X19052206Y-14881388D02*
X19042682Y-14843293D01*
X19042682Y-14843293D02*
X19042682Y-14795674D01*
X19042682Y-14795674D02*
X19052206Y-14757579D01*
X19052206Y-14757579D02*
X19061730Y-14738531D01*
X19061730Y-14738531D02*
X19071253Y-14729008D01*
X19071253Y-14729008D02*
X19090301Y-14719484D01*
X19395063Y-14919484D02*
X19395063Y-14719484D01*
X19480777Y-14919484D02*
X19480777Y-14814722D01*
X19480777Y-14814722D02*
X19471253Y-14795674D01*
X19471253Y-14795674D02*
X19452206Y-14786150D01*
X19452206Y-14786150D02*
X19423634Y-14786150D01*
X19423634Y-14786150D02*
X19404587Y-14795674D01*
X19404587Y-14795674D02*
X19395063Y-14805198D01*
X19604587Y-14919484D02*
X19585539Y-14909960D01*
X19585539Y-14909960D02*
X19576015Y-14900436D01*
X19576015Y-14900436D02*
X19566492Y-14881388D01*
X19566492Y-14881388D02*
X19566492Y-14824246D01*
X19566492Y-14824246D02*
X19576015Y-14805198D01*
X19576015Y-14805198D02*
X19585539Y-14795674D01*
X19585539Y-14795674D02*
X19604587Y-14786150D01*
X19604587Y-14786150D02*
X19633158Y-14786150D01*
X19633158Y-14786150D02*
X19652206Y-14795674D01*
X19652206Y-14795674D02*
X19661730Y-14805198D01*
X19661730Y-14805198D02*
X19671253Y-14824246D01*
X19671253Y-14824246D02*
X19671253Y-14881388D01*
X19671253Y-14881388D02*
X19661730Y-14900436D01*
X19661730Y-14900436D02*
X19652206Y-14909960D01*
X19652206Y-14909960D02*
X19633158Y-14919484D01*
X19633158Y-14919484D02*
X19604587Y-14919484D01*
X19785539Y-14919484D02*
X19766492Y-14909960D01*
X19766492Y-14909960D02*
X19756968Y-14890912D01*
X19756968Y-14890912D02*
X19756968Y-14719484D01*
X19937920Y-14909960D02*
X19918873Y-14919484D01*
X19918873Y-14919484D02*
X19880777Y-14919484D01*
X19880777Y-14919484D02*
X19861730Y-14909960D01*
X19861730Y-14909960D02*
X19852206Y-14890912D01*
X19852206Y-14890912D02*
X19852206Y-14814722D01*
X19852206Y-14814722D02*
X19861730Y-14795674D01*
X19861730Y-14795674D02*
X19880777Y-14786150D01*
X19880777Y-14786150D02*
X19918873Y-14786150D01*
X19918873Y-14786150D02*
X19937920Y-14795674D01*
X19937920Y-14795674D02*
X19947444Y-14814722D01*
X19947444Y-14814722D02*
X19947444Y-14833769D01*
X19947444Y-14833769D02*
X19852206Y-14852817D01*
X20023634Y-14909960D02*
X20042682Y-14919484D01*
X20042682Y-14919484D02*
X20080777Y-14919484D01*
X20080777Y-14919484D02*
X20099825Y-14909960D01*
X20099825Y-14909960D02*
X20109349Y-14890912D01*
X20109349Y-14890912D02*
X20109349Y-14881388D01*
X20109349Y-14881388D02*
X20099825Y-14862341D01*
X20099825Y-14862341D02*
X20080777Y-14852817D01*
X20080777Y-14852817D02*
X20052206Y-14852817D01*
X20052206Y-14852817D02*
X20033158Y-14843293D01*
X20033158Y-14843293D02*
X20023634Y-14824246D01*
X20023634Y-14824246D02*
X20023634Y-14814722D01*
X20023634Y-14814722D02*
X20033158Y-14795674D01*
X20033158Y-14795674D02*
X20052206Y-14786150D01*
X20052206Y-14786150D02*
X20080777Y-14786150D01*
X20080777Y-14786150D02*
X20099825Y-14795674D01*
X20176015Y-14995674D02*
X20185539Y-14986150D01*
X20185539Y-14986150D02*
X20204587Y-14957579D01*
X20204587Y-14957579D02*
X20214111Y-14938531D01*
X20214111Y-14938531D02*
X20223634Y-14909960D01*
X20223634Y-14909960D02*
X20233158Y-14862341D01*
X20233158Y-14862341D02*
X20233158Y-14824246D01*
X20233158Y-14824246D02*
X20223634Y-14776627D01*
X20223634Y-14776627D02*
X20214111Y-14748055D01*
X20214111Y-14748055D02*
X20204587Y-14729008D01*
X20204587Y-14729008D02*
X20185539Y-14700436D01*
X20185539Y-14700436D02*
X20176015Y-14690912D01*
D10*
X15020000Y-15092000D02*
G75*
G02*
X14970000Y-15092000I-25000J0D01*
G01*
X14970000Y-15092000D02*
G75*
G02*
X15020000Y-15092000I25000J0D01*
G01*
D11*
X15318872Y-14983484D02*
X15337920Y-14983484D01*
X15337920Y-14983484D02*
X15356967Y-14993008D01*
X15356967Y-14993008D02*
X15366491Y-15002531D01*
X15366491Y-15002531D02*
X15376015Y-15021579D01*
X15376015Y-15021579D02*
X15385539Y-15059674D01*
X15385539Y-15059674D02*
X15385539Y-15107293D01*
X15385539Y-15107293D02*
X15376015Y-15145388D01*
X15376015Y-15145388D02*
X15366491Y-15164436D01*
X15366491Y-15164436D02*
X15356967Y-15173960D01*
X15356967Y-15173960D02*
X15337920Y-15183484D01*
X15337920Y-15183484D02*
X15318872Y-15183484D01*
X15318872Y-15183484D02*
X15299824Y-15173960D01*
X15299824Y-15173960D02*
X15290301Y-15164436D01*
X15290301Y-15164436D02*
X15280777Y-15145388D01*
X15280777Y-15145388D02*
X15271253Y-15107293D01*
X15271253Y-15107293D02*
X15271253Y-15059674D01*
X15271253Y-15059674D02*
X15280777Y-15021579D01*
X15280777Y-15021579D02*
X15290301Y-15002531D01*
X15290301Y-15002531D02*
X15299824Y-14993008D01*
X15299824Y-14993008D02*
X15318872Y-14983484D01*
X15471253Y-15164436D02*
X15480777Y-15173960D01*
X15480777Y-15173960D02*
X15471253Y-15183484D01*
X15471253Y-15183484D02*
X15461729Y-15173960D01*
X15461729Y-15173960D02*
X15471253Y-15164436D01*
X15471253Y-15164436D02*
X15471253Y-15183484D01*
X15661729Y-14983484D02*
X15566491Y-14983484D01*
X15566491Y-14983484D02*
X15556967Y-15078722D01*
X15556967Y-15078722D02*
X15566491Y-15069198D01*
X15566491Y-15069198D02*
X15585539Y-15059674D01*
X15585539Y-15059674D02*
X15633158Y-15059674D01*
X15633158Y-15059674D02*
X15652205Y-15069198D01*
X15652205Y-15069198D02*
X15661729Y-15078722D01*
X15661729Y-15078722D02*
X15671253Y-15097769D01*
X15671253Y-15097769D02*
X15671253Y-15145388D01*
X15671253Y-15145388D02*
X15661729Y-15164436D01*
X15661729Y-15164436D02*
X15652205Y-15173960D01*
X15652205Y-15173960D02*
X15633158Y-15183484D01*
X15633158Y-15183484D02*
X15585539Y-15183484D01*
X15585539Y-15183484D02*
X15566491Y-15173960D01*
X15566491Y-15173960D02*
X15556967Y-15164436D01*
X15795062Y-14983484D02*
X15814110Y-14983484D01*
X15814110Y-14983484D02*
X15833158Y-14993008D01*
X15833158Y-14993008D02*
X15842682Y-15002531D01*
X15842682Y-15002531D02*
X15852205Y-15021579D01*
X15852205Y-15021579D02*
X15861729Y-15059674D01*
X15861729Y-15059674D02*
X15861729Y-15107293D01*
X15861729Y-15107293D02*
X15852205Y-15145388D01*
X15852205Y-15145388D02*
X15842682Y-15164436D01*
X15842682Y-15164436D02*
X15833158Y-15173960D01*
X15833158Y-15173960D02*
X15814110Y-15183484D01*
X15814110Y-15183484D02*
X15795062Y-15183484D01*
X15795062Y-15183484D02*
X15776015Y-15173960D01*
X15776015Y-15173960D02*
X15766491Y-15164436D01*
X15766491Y-15164436D02*
X15756967Y-15145388D01*
X15756967Y-15145388D02*
X15747443Y-15107293D01*
X15747443Y-15107293D02*
X15747443Y-15059674D01*
X15747443Y-15059674D02*
X15756967Y-15021579D01*
X15756967Y-15021579D02*
X15766491Y-15002531D01*
X15766491Y-15002531D02*
X15776015Y-14993008D01*
X15776015Y-14993008D02*
X15795062Y-14983484D01*
X15985539Y-14983484D02*
X16004586Y-14983484D01*
X16004586Y-14983484D02*
X16023634Y-14993008D01*
X16023634Y-14993008D02*
X16033158Y-15002531D01*
X16033158Y-15002531D02*
X16042682Y-15021579D01*
X16042682Y-15021579D02*
X16052205Y-15059674D01*
X16052205Y-15059674D02*
X16052205Y-15107293D01*
X16052205Y-15107293D02*
X16042682Y-15145388D01*
X16042682Y-15145388D02*
X16033158Y-15164436D01*
X16033158Y-15164436D02*
X16023634Y-15173960D01*
X16023634Y-15173960D02*
X16004586Y-15183484D01*
X16004586Y-15183484D02*
X15985539Y-15183484D01*
X15985539Y-15183484D02*
X15966491Y-15173960D01*
X15966491Y-15173960D02*
X15956967Y-15164436D01*
X15956967Y-15164436D02*
X15947443Y-15145388D01*
X15947443Y-15145388D02*
X15937920Y-15107293D01*
X15937920Y-15107293D02*
X15937920Y-15059674D01*
X15937920Y-15059674D02*
X15947443Y-15021579D01*
X15947443Y-15021579D02*
X15956967Y-15002531D01*
X15956967Y-15002531D02*
X15966491Y-14993008D01*
X15966491Y-14993008D02*
X15985539Y-14983484D01*
X16137920Y-15183484D02*
X16137920Y-15050150D01*
X16137920Y-15069198D02*
X16147443Y-15059674D01*
X16147443Y-15059674D02*
X16166491Y-15050150D01*
X16166491Y-15050150D02*
X16195063Y-15050150D01*
X16195063Y-15050150D02*
X16214110Y-15059674D01*
X16214110Y-15059674D02*
X16223634Y-15078722D01*
X16223634Y-15078722D02*
X16223634Y-15183484D01*
X16223634Y-15078722D02*
X16233158Y-15059674D01*
X16233158Y-15059674D02*
X16252205Y-15050150D01*
X16252205Y-15050150D02*
X16280777Y-15050150D01*
X16280777Y-15050150D02*
X16299824Y-15059674D01*
X16299824Y-15059674D02*
X16309348Y-15078722D01*
X16309348Y-15078722D02*
X16309348Y-15183484D01*
X16404586Y-15183484D02*
X16404586Y-15050150D01*
X16404586Y-15069198D02*
X16414110Y-15059674D01*
X16414110Y-15059674D02*
X16433158Y-15050150D01*
X16433158Y-15050150D02*
X16461729Y-15050150D01*
X16461729Y-15050150D02*
X16480777Y-15059674D01*
X16480777Y-15059674D02*
X16490301Y-15078722D01*
X16490301Y-15078722D02*
X16490301Y-15183484D01*
X16490301Y-15078722D02*
X16499824Y-15059674D01*
X16499824Y-15059674D02*
X16518872Y-15050150D01*
X16518872Y-15050150D02*
X16547443Y-15050150D01*
X16547443Y-15050150D02*
X16566491Y-15059674D01*
X16566491Y-15059674D02*
X16576015Y-15078722D01*
X16576015Y-15078722D02*
X16576015Y-15183484D01*
X16966491Y-14973960D02*
X16795063Y-15231103D01*
X17223634Y-14983484D02*
X17242682Y-14983484D01*
X17242682Y-14983484D02*
X17261729Y-14993008D01*
X17261729Y-14993008D02*
X17271253Y-15002531D01*
X17271253Y-15002531D02*
X17280777Y-15021579D01*
X17280777Y-15021579D02*
X17290301Y-15059674D01*
X17290301Y-15059674D02*
X17290301Y-15107293D01*
X17290301Y-15107293D02*
X17280777Y-15145388D01*
X17280777Y-15145388D02*
X17271253Y-15164436D01*
X17271253Y-15164436D02*
X17261729Y-15173960D01*
X17261729Y-15173960D02*
X17242682Y-15183484D01*
X17242682Y-15183484D02*
X17223634Y-15183484D01*
X17223634Y-15183484D02*
X17204587Y-15173960D01*
X17204587Y-15173960D02*
X17195063Y-15164436D01*
X17195063Y-15164436D02*
X17185539Y-15145388D01*
X17185539Y-15145388D02*
X17176015Y-15107293D01*
X17176015Y-15107293D02*
X17176015Y-15059674D01*
X17176015Y-15059674D02*
X17185539Y-15021579D01*
X17185539Y-15021579D02*
X17195063Y-15002531D01*
X17195063Y-15002531D02*
X17204587Y-14993008D01*
X17204587Y-14993008D02*
X17223634Y-14983484D01*
X17376015Y-15164436D02*
X17385539Y-15173960D01*
X17385539Y-15173960D02*
X17376015Y-15183484D01*
X17376015Y-15183484D02*
X17366491Y-15173960D01*
X17366491Y-15173960D02*
X17376015Y-15164436D01*
X17376015Y-15164436D02*
X17376015Y-15183484D01*
X17509348Y-14983484D02*
X17528396Y-14983484D01*
X17528396Y-14983484D02*
X17547444Y-14993008D01*
X17547444Y-14993008D02*
X17556968Y-15002531D01*
X17556968Y-15002531D02*
X17566491Y-15021579D01*
X17566491Y-15021579D02*
X17576015Y-15059674D01*
X17576015Y-15059674D02*
X17576015Y-15107293D01*
X17576015Y-15107293D02*
X17566491Y-15145388D01*
X17566491Y-15145388D02*
X17556968Y-15164436D01*
X17556968Y-15164436D02*
X17547444Y-15173960D01*
X17547444Y-15173960D02*
X17528396Y-15183484D01*
X17528396Y-15183484D02*
X17509348Y-15183484D01*
X17509348Y-15183484D02*
X17490301Y-15173960D01*
X17490301Y-15173960D02*
X17480777Y-15164436D01*
X17480777Y-15164436D02*
X17471253Y-15145388D01*
X17471253Y-15145388D02*
X17461729Y-15107293D01*
X17461729Y-15107293D02*
X17461729Y-15059674D01*
X17461729Y-15059674D02*
X17471253Y-15021579D01*
X17471253Y-15021579D02*
X17480777Y-15002531D01*
X17480777Y-15002531D02*
X17490301Y-14993008D01*
X17490301Y-14993008D02*
X17509348Y-14983484D01*
X17766491Y-15183484D02*
X17652206Y-15183484D01*
X17709348Y-15183484D02*
X17709348Y-14983484D01*
X17709348Y-14983484D02*
X17690301Y-15012055D01*
X17690301Y-15012055D02*
X17671253Y-15031103D01*
X17671253Y-15031103D02*
X17652206Y-15040627D01*
X17861729Y-15183484D02*
X17899825Y-15183484D01*
X17899825Y-15183484D02*
X17918872Y-15173960D01*
X17918872Y-15173960D02*
X17928396Y-15164436D01*
X17928396Y-15164436D02*
X17947444Y-15135865D01*
X17947444Y-15135865D02*
X17956968Y-15097769D01*
X17956968Y-15097769D02*
X17956968Y-15021579D01*
X17956968Y-15021579D02*
X17947444Y-15002531D01*
X17947444Y-15002531D02*
X17937920Y-14993008D01*
X17937920Y-14993008D02*
X17918872Y-14983484D01*
X17918872Y-14983484D02*
X17880777Y-14983484D01*
X17880777Y-14983484D02*
X17861729Y-14993008D01*
X17861729Y-14993008D02*
X17852206Y-15002531D01*
X17852206Y-15002531D02*
X17842682Y-15021579D01*
X17842682Y-15021579D02*
X17842682Y-15069198D01*
X17842682Y-15069198D02*
X17852206Y-15088246D01*
X17852206Y-15088246D02*
X17861729Y-15097769D01*
X17861729Y-15097769D02*
X17880777Y-15107293D01*
X17880777Y-15107293D02*
X17918872Y-15107293D01*
X17918872Y-15107293D02*
X17937920Y-15097769D01*
X17937920Y-15097769D02*
X17947444Y-15088246D01*
X17947444Y-15088246D02*
X17956968Y-15069198D01*
X18023634Y-14983484D02*
X18156968Y-14983484D01*
X18156968Y-14983484D02*
X18071253Y-15183484D01*
X18223634Y-14983484D02*
X18223634Y-15021579D01*
X18299825Y-14983484D02*
X18299825Y-15021579D01*
X18595063Y-15259674D02*
X18585539Y-15250150D01*
X18585539Y-15250150D02*
X18566491Y-15221579D01*
X18566491Y-15221579D02*
X18556968Y-15202531D01*
X18556968Y-15202531D02*
X18547444Y-15173960D01*
X18547444Y-15173960D02*
X18537920Y-15126341D01*
X18537920Y-15126341D02*
X18537920Y-15088246D01*
X18537920Y-15088246D02*
X18547444Y-15040627D01*
X18547444Y-15040627D02*
X18556968Y-15012055D01*
X18556968Y-15012055D02*
X18566491Y-14993008D01*
X18566491Y-14993008D02*
X18585539Y-14964436D01*
X18585539Y-14964436D02*
X18595063Y-14954912D01*
X18652206Y-14983484D02*
X18776015Y-14983484D01*
X18776015Y-14983484D02*
X18709349Y-15059674D01*
X18709349Y-15059674D02*
X18737920Y-15059674D01*
X18737920Y-15059674D02*
X18756968Y-15069198D01*
X18756968Y-15069198D02*
X18766491Y-15078722D01*
X18766491Y-15078722D02*
X18776015Y-15097769D01*
X18776015Y-15097769D02*
X18776015Y-15145388D01*
X18776015Y-15145388D02*
X18766491Y-15164436D01*
X18766491Y-15164436D02*
X18756968Y-15173960D01*
X18756968Y-15173960D02*
X18737920Y-15183484D01*
X18737920Y-15183484D02*
X18680777Y-15183484D01*
X18680777Y-15183484D02*
X18661730Y-15173960D01*
X18661730Y-15173960D02*
X18652206Y-15164436D01*
X18852206Y-15002531D02*
X18861730Y-14993008D01*
X18861730Y-14993008D02*
X18880777Y-14983484D01*
X18880777Y-14983484D02*
X18928396Y-14983484D01*
X18928396Y-14983484D02*
X18947444Y-14993008D01*
X18947444Y-14993008D02*
X18956968Y-15002531D01*
X18956968Y-15002531D02*
X18966491Y-15021579D01*
X18966491Y-15021579D02*
X18966491Y-15040627D01*
X18966491Y-15040627D02*
X18956968Y-15069198D01*
X18956968Y-15069198D02*
X18842682Y-15183484D01*
X18842682Y-15183484D02*
X18966491Y-15183484D01*
X19204587Y-15183484D02*
X19204587Y-14983484D01*
X19290301Y-15183484D02*
X19290301Y-15078722D01*
X19290301Y-15078722D02*
X19280777Y-15059674D01*
X19280777Y-15059674D02*
X19261730Y-15050150D01*
X19261730Y-15050150D02*
X19233158Y-15050150D01*
X19233158Y-15050150D02*
X19214111Y-15059674D01*
X19214111Y-15059674D02*
X19204587Y-15069198D01*
X19414111Y-15183484D02*
X19395063Y-15173960D01*
X19395063Y-15173960D02*
X19385539Y-15164436D01*
X19385539Y-15164436D02*
X19376015Y-15145388D01*
X19376015Y-15145388D02*
X19376015Y-15088246D01*
X19376015Y-15088246D02*
X19385539Y-15069198D01*
X19385539Y-15069198D02*
X19395063Y-15059674D01*
X19395063Y-15059674D02*
X19414111Y-15050150D01*
X19414111Y-15050150D02*
X19442682Y-15050150D01*
X19442682Y-15050150D02*
X19461730Y-15059674D01*
X19461730Y-15059674D02*
X19471253Y-15069198D01*
X19471253Y-15069198D02*
X19480777Y-15088246D01*
X19480777Y-15088246D02*
X19480777Y-15145388D01*
X19480777Y-15145388D02*
X19471253Y-15164436D01*
X19471253Y-15164436D02*
X19461730Y-15173960D01*
X19461730Y-15173960D02*
X19442682Y-15183484D01*
X19442682Y-15183484D02*
X19414111Y-15183484D01*
X19595063Y-15183484D02*
X19576015Y-15173960D01*
X19576015Y-15173960D02*
X19566492Y-15154912D01*
X19566492Y-15154912D02*
X19566492Y-14983484D01*
X19747444Y-15173960D02*
X19728396Y-15183484D01*
X19728396Y-15183484D02*
X19690301Y-15183484D01*
X19690301Y-15183484D02*
X19671253Y-15173960D01*
X19671253Y-15173960D02*
X19661730Y-15154912D01*
X19661730Y-15154912D02*
X19661730Y-15078722D01*
X19661730Y-15078722D02*
X19671253Y-15059674D01*
X19671253Y-15059674D02*
X19690301Y-15050150D01*
X19690301Y-15050150D02*
X19728396Y-15050150D01*
X19728396Y-15050150D02*
X19747444Y-15059674D01*
X19747444Y-15059674D02*
X19756968Y-15078722D01*
X19756968Y-15078722D02*
X19756968Y-15097769D01*
X19756968Y-15097769D02*
X19661730Y-15116817D01*
X19833158Y-15173960D02*
X19852206Y-15183484D01*
X19852206Y-15183484D02*
X19890301Y-15183484D01*
X19890301Y-15183484D02*
X19909349Y-15173960D01*
X19909349Y-15173960D02*
X19918873Y-15154912D01*
X19918873Y-15154912D02*
X19918873Y-15145388D01*
X19918873Y-15145388D02*
X19909349Y-15126341D01*
X19909349Y-15126341D02*
X19890301Y-15116817D01*
X19890301Y-15116817D02*
X19861730Y-15116817D01*
X19861730Y-15116817D02*
X19842682Y-15107293D01*
X19842682Y-15107293D02*
X19833158Y-15088246D01*
X19833158Y-15088246D02*
X19833158Y-15078722D01*
X19833158Y-15078722D02*
X19842682Y-15059674D01*
X19842682Y-15059674D02*
X19861730Y-15050150D01*
X19861730Y-15050150D02*
X19890301Y-15050150D01*
X19890301Y-15050150D02*
X19909349Y-15059674D01*
X19985539Y-15259674D02*
X19995063Y-15250150D01*
X19995063Y-15250150D02*
X20014111Y-15221579D01*
X20014111Y-15221579D02*
X20023634Y-15202531D01*
X20023634Y-15202531D02*
X20033158Y-15173960D01*
X20033158Y-15173960D02*
X20042682Y-15126341D01*
X20042682Y-15126341D02*
X20042682Y-15088246D01*
X20042682Y-15088246D02*
X20033158Y-15040627D01*
X20033158Y-15040627D02*
X20023634Y-15012055D01*
X20023634Y-15012055D02*
X20014111Y-14993008D01*
X20014111Y-14993008D02*
X19995063Y-14964436D01*
X19995063Y-14964436D02*
X19985539Y-14954912D01*
D10*
X14990000Y-15326000D02*
X14990000Y-15386000D01*
X14960000Y-15356000D02*
X15020000Y-15356000D01*
D11*
X15318872Y-15247484D02*
X15337920Y-15247484D01*
X15337920Y-15247484D02*
X15356967Y-15257008D01*
X15356967Y-15257008D02*
X15366491Y-15266531D01*
X15366491Y-15266531D02*
X15376015Y-15285579D01*
X15376015Y-15285579D02*
X15385539Y-15323674D01*
X15385539Y-15323674D02*
X15385539Y-15371293D01*
X15385539Y-15371293D02*
X15376015Y-15409388D01*
X15376015Y-15409388D02*
X15366491Y-15428436D01*
X15366491Y-15428436D02*
X15356967Y-15437960D01*
X15356967Y-15437960D02*
X15337920Y-15447484D01*
X15337920Y-15447484D02*
X15318872Y-15447484D01*
X15318872Y-15447484D02*
X15299824Y-15437960D01*
X15299824Y-15437960D02*
X15290301Y-15428436D01*
X15290301Y-15428436D02*
X15280777Y-15409388D01*
X15280777Y-15409388D02*
X15271253Y-15371293D01*
X15271253Y-15371293D02*
X15271253Y-15323674D01*
X15271253Y-15323674D02*
X15280777Y-15285579D01*
X15280777Y-15285579D02*
X15290301Y-15266531D01*
X15290301Y-15266531D02*
X15299824Y-15257008D01*
X15299824Y-15257008D02*
X15318872Y-15247484D01*
X15471253Y-15428436D02*
X15480777Y-15437960D01*
X15480777Y-15437960D02*
X15471253Y-15447484D01*
X15471253Y-15447484D02*
X15461729Y-15437960D01*
X15461729Y-15437960D02*
X15471253Y-15428436D01*
X15471253Y-15428436D02*
X15471253Y-15447484D01*
X15652205Y-15247484D02*
X15614110Y-15247484D01*
X15614110Y-15247484D02*
X15595062Y-15257008D01*
X15595062Y-15257008D02*
X15585539Y-15266531D01*
X15585539Y-15266531D02*
X15566491Y-15295103D01*
X15566491Y-15295103D02*
X15556967Y-15333198D01*
X15556967Y-15333198D02*
X15556967Y-15409388D01*
X15556967Y-15409388D02*
X15566491Y-15428436D01*
X15566491Y-15428436D02*
X15576015Y-15437960D01*
X15576015Y-15437960D02*
X15595062Y-15447484D01*
X15595062Y-15447484D02*
X15633158Y-15447484D01*
X15633158Y-15447484D02*
X15652205Y-15437960D01*
X15652205Y-15437960D02*
X15661729Y-15428436D01*
X15661729Y-15428436D02*
X15671253Y-15409388D01*
X15671253Y-15409388D02*
X15671253Y-15361769D01*
X15671253Y-15361769D02*
X15661729Y-15342722D01*
X15661729Y-15342722D02*
X15652205Y-15333198D01*
X15652205Y-15333198D02*
X15633158Y-15323674D01*
X15633158Y-15323674D02*
X15595062Y-15323674D01*
X15595062Y-15323674D02*
X15576015Y-15333198D01*
X15576015Y-15333198D02*
X15566491Y-15342722D01*
X15566491Y-15342722D02*
X15556967Y-15361769D01*
X15795062Y-15247484D02*
X15814110Y-15247484D01*
X15814110Y-15247484D02*
X15833158Y-15257008D01*
X15833158Y-15257008D02*
X15842682Y-15266531D01*
X15842682Y-15266531D02*
X15852205Y-15285579D01*
X15852205Y-15285579D02*
X15861729Y-15323674D01*
X15861729Y-15323674D02*
X15861729Y-15371293D01*
X15861729Y-15371293D02*
X15852205Y-15409388D01*
X15852205Y-15409388D02*
X15842682Y-15428436D01*
X15842682Y-15428436D02*
X15833158Y-15437960D01*
X15833158Y-15437960D02*
X15814110Y-15447484D01*
X15814110Y-15447484D02*
X15795062Y-15447484D01*
X15795062Y-15447484D02*
X15776015Y-15437960D01*
X15776015Y-15437960D02*
X15766491Y-15428436D01*
X15766491Y-15428436D02*
X15756967Y-15409388D01*
X15756967Y-15409388D02*
X15747443Y-15371293D01*
X15747443Y-15371293D02*
X15747443Y-15323674D01*
X15747443Y-15323674D02*
X15756967Y-15285579D01*
X15756967Y-15285579D02*
X15766491Y-15266531D01*
X15766491Y-15266531D02*
X15776015Y-15257008D01*
X15776015Y-15257008D02*
X15795062Y-15247484D01*
X15985539Y-15247484D02*
X16004586Y-15247484D01*
X16004586Y-15247484D02*
X16023634Y-15257008D01*
X16023634Y-15257008D02*
X16033158Y-15266531D01*
X16033158Y-15266531D02*
X16042682Y-15285579D01*
X16042682Y-15285579D02*
X16052205Y-15323674D01*
X16052205Y-15323674D02*
X16052205Y-15371293D01*
X16052205Y-15371293D02*
X16042682Y-15409388D01*
X16042682Y-15409388D02*
X16033158Y-15428436D01*
X16033158Y-15428436D02*
X16023634Y-15437960D01*
X16023634Y-15437960D02*
X16004586Y-15447484D01*
X16004586Y-15447484D02*
X15985539Y-15447484D01*
X15985539Y-15447484D02*
X15966491Y-15437960D01*
X15966491Y-15437960D02*
X15956967Y-15428436D01*
X15956967Y-15428436D02*
X15947443Y-15409388D01*
X15947443Y-15409388D02*
X15937920Y-15371293D01*
X15937920Y-15371293D02*
X15937920Y-15323674D01*
X15937920Y-15323674D02*
X15947443Y-15285579D01*
X15947443Y-15285579D02*
X15956967Y-15266531D01*
X15956967Y-15266531D02*
X15966491Y-15257008D01*
X15966491Y-15257008D02*
X15985539Y-15247484D01*
X16137920Y-15447484D02*
X16137920Y-15314150D01*
X16137920Y-15333198D02*
X16147443Y-15323674D01*
X16147443Y-15323674D02*
X16166491Y-15314150D01*
X16166491Y-15314150D02*
X16195063Y-15314150D01*
X16195063Y-15314150D02*
X16214110Y-15323674D01*
X16214110Y-15323674D02*
X16223634Y-15342722D01*
X16223634Y-15342722D02*
X16223634Y-15447484D01*
X16223634Y-15342722D02*
X16233158Y-15323674D01*
X16233158Y-15323674D02*
X16252205Y-15314150D01*
X16252205Y-15314150D02*
X16280777Y-15314150D01*
X16280777Y-15314150D02*
X16299824Y-15323674D01*
X16299824Y-15323674D02*
X16309348Y-15342722D01*
X16309348Y-15342722D02*
X16309348Y-15447484D01*
X16404586Y-15447484D02*
X16404586Y-15314150D01*
X16404586Y-15333198D02*
X16414110Y-15323674D01*
X16414110Y-15323674D02*
X16433158Y-15314150D01*
X16433158Y-15314150D02*
X16461729Y-15314150D01*
X16461729Y-15314150D02*
X16480777Y-15323674D01*
X16480777Y-15323674D02*
X16490301Y-15342722D01*
X16490301Y-15342722D02*
X16490301Y-15447484D01*
X16490301Y-15342722D02*
X16499824Y-15323674D01*
X16499824Y-15323674D02*
X16518872Y-15314150D01*
X16518872Y-15314150D02*
X16547443Y-15314150D01*
X16547443Y-15314150D02*
X16566491Y-15323674D01*
X16566491Y-15323674D02*
X16576015Y-15342722D01*
X16576015Y-15342722D02*
X16576015Y-15447484D01*
X16966491Y-15237960D02*
X16795063Y-15495103D01*
X17223634Y-15247484D02*
X17242682Y-15247484D01*
X17242682Y-15247484D02*
X17261729Y-15257008D01*
X17261729Y-15257008D02*
X17271253Y-15266531D01*
X17271253Y-15266531D02*
X17280777Y-15285579D01*
X17280777Y-15285579D02*
X17290301Y-15323674D01*
X17290301Y-15323674D02*
X17290301Y-15371293D01*
X17290301Y-15371293D02*
X17280777Y-15409388D01*
X17280777Y-15409388D02*
X17271253Y-15428436D01*
X17271253Y-15428436D02*
X17261729Y-15437960D01*
X17261729Y-15437960D02*
X17242682Y-15447484D01*
X17242682Y-15447484D02*
X17223634Y-15447484D01*
X17223634Y-15447484D02*
X17204587Y-15437960D01*
X17204587Y-15437960D02*
X17195063Y-15428436D01*
X17195063Y-15428436D02*
X17185539Y-15409388D01*
X17185539Y-15409388D02*
X17176015Y-15371293D01*
X17176015Y-15371293D02*
X17176015Y-15323674D01*
X17176015Y-15323674D02*
X17185539Y-15285579D01*
X17185539Y-15285579D02*
X17195063Y-15266531D01*
X17195063Y-15266531D02*
X17204587Y-15257008D01*
X17204587Y-15257008D02*
X17223634Y-15247484D01*
X17376015Y-15428436D02*
X17385539Y-15437960D01*
X17385539Y-15437960D02*
X17376015Y-15447484D01*
X17376015Y-15447484D02*
X17366491Y-15437960D01*
X17366491Y-15437960D02*
X17376015Y-15428436D01*
X17376015Y-15428436D02*
X17376015Y-15447484D01*
X17509348Y-15247484D02*
X17528396Y-15247484D01*
X17528396Y-15247484D02*
X17547444Y-15257008D01*
X17547444Y-15257008D02*
X17556968Y-15266531D01*
X17556968Y-15266531D02*
X17566491Y-15285579D01*
X17566491Y-15285579D02*
X17576015Y-15323674D01*
X17576015Y-15323674D02*
X17576015Y-15371293D01*
X17576015Y-15371293D02*
X17566491Y-15409388D01*
X17566491Y-15409388D02*
X17556968Y-15428436D01*
X17556968Y-15428436D02*
X17547444Y-15437960D01*
X17547444Y-15437960D02*
X17528396Y-15447484D01*
X17528396Y-15447484D02*
X17509348Y-15447484D01*
X17509348Y-15447484D02*
X17490301Y-15437960D01*
X17490301Y-15437960D02*
X17480777Y-15428436D01*
X17480777Y-15428436D02*
X17471253Y-15409388D01*
X17471253Y-15409388D02*
X17461729Y-15371293D01*
X17461729Y-15371293D02*
X17461729Y-15323674D01*
X17461729Y-15323674D02*
X17471253Y-15285579D01*
X17471253Y-15285579D02*
X17480777Y-15266531D01*
X17480777Y-15266531D02*
X17490301Y-15257008D01*
X17490301Y-15257008D02*
X17509348Y-15247484D01*
X17652206Y-15266531D02*
X17661729Y-15257008D01*
X17661729Y-15257008D02*
X17680777Y-15247484D01*
X17680777Y-15247484D02*
X17728396Y-15247484D01*
X17728396Y-15247484D02*
X17747444Y-15257008D01*
X17747444Y-15257008D02*
X17756968Y-15266531D01*
X17756968Y-15266531D02*
X17766491Y-15285579D01*
X17766491Y-15285579D02*
X17766491Y-15304627D01*
X17766491Y-15304627D02*
X17756968Y-15333198D01*
X17756968Y-15333198D02*
X17642682Y-15447484D01*
X17642682Y-15447484D02*
X17766491Y-15447484D01*
X17833158Y-15247484D02*
X17956968Y-15247484D01*
X17956968Y-15247484D02*
X17890301Y-15323674D01*
X17890301Y-15323674D02*
X17918872Y-15323674D01*
X17918872Y-15323674D02*
X17937920Y-15333198D01*
X17937920Y-15333198D02*
X17947444Y-15342722D01*
X17947444Y-15342722D02*
X17956968Y-15361769D01*
X17956968Y-15361769D02*
X17956968Y-15409388D01*
X17956968Y-15409388D02*
X17947444Y-15428436D01*
X17947444Y-15428436D02*
X17937920Y-15437960D01*
X17937920Y-15437960D02*
X17918872Y-15447484D01*
X17918872Y-15447484D02*
X17861729Y-15447484D01*
X17861729Y-15447484D02*
X17842682Y-15437960D01*
X17842682Y-15437960D02*
X17833158Y-15428436D01*
X18128396Y-15247484D02*
X18090301Y-15247484D01*
X18090301Y-15247484D02*
X18071253Y-15257008D01*
X18071253Y-15257008D02*
X18061729Y-15266531D01*
X18061729Y-15266531D02*
X18042682Y-15295103D01*
X18042682Y-15295103D02*
X18033158Y-15333198D01*
X18033158Y-15333198D02*
X18033158Y-15409388D01*
X18033158Y-15409388D02*
X18042682Y-15428436D01*
X18042682Y-15428436D02*
X18052206Y-15437960D01*
X18052206Y-15437960D02*
X18071253Y-15447484D01*
X18071253Y-15447484D02*
X18109349Y-15447484D01*
X18109349Y-15447484D02*
X18128396Y-15437960D01*
X18128396Y-15437960D02*
X18137920Y-15428436D01*
X18137920Y-15428436D02*
X18147444Y-15409388D01*
X18147444Y-15409388D02*
X18147444Y-15361769D01*
X18147444Y-15361769D02*
X18137920Y-15342722D01*
X18137920Y-15342722D02*
X18128396Y-15333198D01*
X18128396Y-15333198D02*
X18109349Y-15323674D01*
X18109349Y-15323674D02*
X18071253Y-15323674D01*
X18071253Y-15323674D02*
X18052206Y-15333198D01*
X18052206Y-15333198D02*
X18042682Y-15342722D01*
X18042682Y-15342722D02*
X18033158Y-15361769D01*
X18223634Y-15247484D02*
X18223634Y-15285579D01*
X18299825Y-15247484D02*
X18299825Y-15285579D01*
X18595063Y-15523674D02*
X18585539Y-15514150D01*
X18585539Y-15514150D02*
X18566491Y-15485579D01*
X18566491Y-15485579D02*
X18556968Y-15466531D01*
X18556968Y-15466531D02*
X18547444Y-15437960D01*
X18547444Y-15437960D02*
X18537920Y-15390341D01*
X18537920Y-15390341D02*
X18537920Y-15352246D01*
X18537920Y-15352246D02*
X18547444Y-15304627D01*
X18547444Y-15304627D02*
X18556968Y-15276055D01*
X18556968Y-15276055D02*
X18566491Y-15257008D01*
X18566491Y-15257008D02*
X18585539Y-15228436D01*
X18585539Y-15228436D02*
X18595063Y-15218912D01*
X18709349Y-15247484D02*
X18728396Y-15247484D01*
X18728396Y-15247484D02*
X18747444Y-15257008D01*
X18747444Y-15257008D02*
X18756968Y-15266531D01*
X18756968Y-15266531D02*
X18766491Y-15285579D01*
X18766491Y-15285579D02*
X18776015Y-15323674D01*
X18776015Y-15323674D02*
X18776015Y-15371293D01*
X18776015Y-15371293D02*
X18766491Y-15409388D01*
X18766491Y-15409388D02*
X18756968Y-15428436D01*
X18756968Y-15428436D02*
X18747444Y-15437960D01*
X18747444Y-15437960D02*
X18728396Y-15447484D01*
X18728396Y-15447484D02*
X18709349Y-15447484D01*
X18709349Y-15447484D02*
X18690301Y-15437960D01*
X18690301Y-15437960D02*
X18680777Y-15428436D01*
X18680777Y-15428436D02*
X18671253Y-15409388D01*
X18671253Y-15409388D02*
X18661730Y-15371293D01*
X18661730Y-15371293D02*
X18661730Y-15323674D01*
X18661730Y-15323674D02*
X18671253Y-15285579D01*
X18671253Y-15285579D02*
X18680777Y-15266531D01*
X18680777Y-15266531D02*
X18690301Y-15257008D01*
X18690301Y-15257008D02*
X18709349Y-15247484D01*
X19014111Y-15447484D02*
X19014111Y-15247484D01*
X19099825Y-15447484D02*
X19099825Y-15342722D01*
X19099825Y-15342722D02*
X19090301Y-15323674D01*
X19090301Y-15323674D02*
X19071253Y-15314150D01*
X19071253Y-15314150D02*
X19042682Y-15314150D01*
X19042682Y-15314150D02*
X19023634Y-15323674D01*
X19023634Y-15323674D02*
X19014111Y-15333198D01*
X19223634Y-15447484D02*
X19204587Y-15437960D01*
X19204587Y-15437960D02*
X19195063Y-15428436D01*
X19195063Y-15428436D02*
X19185539Y-15409388D01*
X19185539Y-15409388D02*
X19185539Y-15352246D01*
X19185539Y-15352246D02*
X19195063Y-15333198D01*
X19195063Y-15333198D02*
X19204587Y-15323674D01*
X19204587Y-15323674D02*
X19223634Y-15314150D01*
X19223634Y-15314150D02*
X19252206Y-15314150D01*
X19252206Y-15314150D02*
X19271253Y-15323674D01*
X19271253Y-15323674D02*
X19280777Y-15333198D01*
X19280777Y-15333198D02*
X19290301Y-15352246D01*
X19290301Y-15352246D02*
X19290301Y-15409388D01*
X19290301Y-15409388D02*
X19280777Y-15428436D01*
X19280777Y-15428436D02*
X19271253Y-15437960D01*
X19271253Y-15437960D02*
X19252206Y-15447484D01*
X19252206Y-15447484D02*
X19223634Y-15447484D01*
X19404587Y-15447484D02*
X19385539Y-15437960D01*
X19385539Y-15437960D02*
X19376015Y-15418912D01*
X19376015Y-15418912D02*
X19376015Y-15247484D01*
X19556968Y-15437960D02*
X19537920Y-15447484D01*
X19537920Y-15447484D02*
X19499825Y-15447484D01*
X19499825Y-15447484D02*
X19480777Y-15437960D01*
X19480777Y-15437960D02*
X19471253Y-15418912D01*
X19471253Y-15418912D02*
X19471253Y-15342722D01*
X19471253Y-15342722D02*
X19480777Y-15323674D01*
X19480777Y-15323674D02*
X19499825Y-15314150D01*
X19499825Y-15314150D02*
X19537920Y-15314150D01*
X19537920Y-15314150D02*
X19556968Y-15323674D01*
X19556968Y-15323674D02*
X19566492Y-15342722D01*
X19566492Y-15342722D02*
X19566492Y-15361769D01*
X19566492Y-15361769D02*
X19471253Y-15380817D01*
X19642682Y-15437960D02*
X19661730Y-15447484D01*
X19661730Y-15447484D02*
X19699825Y-15447484D01*
X19699825Y-15447484D02*
X19718873Y-15437960D01*
X19718873Y-15437960D02*
X19728396Y-15418912D01*
X19728396Y-15418912D02*
X19728396Y-15409388D01*
X19728396Y-15409388D02*
X19718873Y-15390341D01*
X19718873Y-15390341D02*
X19699825Y-15380817D01*
X19699825Y-15380817D02*
X19671253Y-15380817D01*
X19671253Y-15380817D02*
X19652206Y-15371293D01*
X19652206Y-15371293D02*
X19642682Y-15352246D01*
X19642682Y-15352246D02*
X19642682Y-15342722D01*
X19642682Y-15342722D02*
X19652206Y-15323674D01*
X19652206Y-15323674D02*
X19671253Y-15314150D01*
X19671253Y-15314150D02*
X19699825Y-15314150D01*
X19699825Y-15314150D02*
X19718873Y-15323674D01*
X19966492Y-15371293D02*
X20118873Y-15371293D01*
X20042682Y-15447484D02*
X20042682Y-15295103D01*
X20452206Y-15314150D02*
X20452206Y-15447484D01*
X20404587Y-15237960D02*
X20356968Y-15380817D01*
X20356968Y-15380817D02*
X20480777Y-15380817D01*
X20699825Y-15437960D02*
X20718873Y-15447484D01*
X20718873Y-15447484D02*
X20756968Y-15447484D01*
X20756968Y-15447484D02*
X20776016Y-15437960D01*
X20776016Y-15437960D02*
X20785539Y-15418912D01*
X20785539Y-15418912D02*
X20785539Y-15409388D01*
X20785539Y-15409388D02*
X20776016Y-15390341D01*
X20776016Y-15390341D02*
X20756968Y-15380817D01*
X20756968Y-15380817D02*
X20728396Y-15380817D01*
X20728396Y-15380817D02*
X20709349Y-15371293D01*
X20709349Y-15371293D02*
X20699825Y-15352246D01*
X20699825Y-15352246D02*
X20699825Y-15342722D01*
X20699825Y-15342722D02*
X20709349Y-15323674D01*
X20709349Y-15323674D02*
X20728396Y-15314150D01*
X20728396Y-15314150D02*
X20756968Y-15314150D01*
X20756968Y-15314150D02*
X20776016Y-15323674D01*
X20899825Y-15447484D02*
X20880777Y-15437960D01*
X20880777Y-15437960D02*
X20871254Y-15418912D01*
X20871254Y-15418912D02*
X20871254Y-15247484D01*
X21004587Y-15447484D02*
X20985539Y-15437960D01*
X20985539Y-15437960D02*
X20976016Y-15428436D01*
X20976016Y-15428436D02*
X20966492Y-15409388D01*
X20966492Y-15409388D02*
X20966492Y-15352246D01*
X20966492Y-15352246D02*
X20976016Y-15333198D01*
X20976016Y-15333198D02*
X20985539Y-15323674D01*
X20985539Y-15323674D02*
X21004587Y-15314150D01*
X21004587Y-15314150D02*
X21033158Y-15314150D01*
X21033158Y-15314150D02*
X21052206Y-15323674D01*
X21052206Y-15323674D02*
X21061730Y-15333198D01*
X21061730Y-15333198D02*
X21071254Y-15352246D01*
X21071254Y-15352246D02*
X21071254Y-15409388D01*
X21071254Y-15409388D02*
X21061730Y-15428436D01*
X21061730Y-15428436D02*
X21052206Y-15437960D01*
X21052206Y-15437960D02*
X21033158Y-15447484D01*
X21033158Y-15447484D02*
X21004587Y-15447484D01*
X21128397Y-15314150D02*
X21204587Y-15314150D01*
X21156968Y-15247484D02*
X21156968Y-15418912D01*
X21156968Y-15418912D02*
X21166492Y-15437960D01*
X21166492Y-15437960D02*
X21185539Y-15447484D01*
X21185539Y-15447484D02*
X21204587Y-15447484D01*
X21261730Y-15437960D02*
X21280777Y-15447484D01*
X21280777Y-15447484D02*
X21318873Y-15447484D01*
X21318873Y-15447484D02*
X21337920Y-15437960D01*
X21337920Y-15437960D02*
X21347444Y-15418912D01*
X21347444Y-15418912D02*
X21347444Y-15409388D01*
X21347444Y-15409388D02*
X21337920Y-15390341D01*
X21337920Y-15390341D02*
X21318873Y-15380817D01*
X21318873Y-15380817D02*
X21290301Y-15380817D01*
X21290301Y-15380817D02*
X21271254Y-15371293D01*
X21271254Y-15371293D02*
X21261730Y-15352246D01*
X21261730Y-15352246D02*
X21261730Y-15342722D01*
X21261730Y-15342722D02*
X21271254Y-15323674D01*
X21271254Y-15323674D02*
X21290301Y-15314150D01*
X21290301Y-15314150D02*
X21318873Y-15314150D01*
X21318873Y-15314150D02*
X21337920Y-15323674D01*
X21414111Y-15523674D02*
X21423635Y-15514150D01*
X21423635Y-15514150D02*
X21442682Y-15485579D01*
X21442682Y-15485579D02*
X21452206Y-15466531D01*
X21452206Y-15466531D02*
X21461730Y-15437960D01*
X21461730Y-15437960D02*
X21471254Y-15390341D01*
X21471254Y-15390341D02*
X21471254Y-15352246D01*
X21471254Y-15352246D02*
X21461730Y-15304627D01*
X21461730Y-15304627D02*
X21452206Y-15276055D01*
X21452206Y-15276055D02*
X21442682Y-15257008D01*
X21442682Y-15257008D02*
X21423635Y-15228436D01*
X21423635Y-15228436D02*
X21414111Y-15218912D01*
D10*
X15008284Y-15648284D02*
X15008284Y-15591715D01*
X14951715Y-15591715D01*
X14951715Y-15648284D01*
X15008284Y-15648284D01*
D11*
X15318872Y-15511484D02*
X15337920Y-15511484D01*
X15337920Y-15511484D02*
X15356967Y-15521008D01*
X15356967Y-15521008D02*
X15366491Y-15530531D01*
X15366491Y-15530531D02*
X15376015Y-15549579D01*
X15376015Y-15549579D02*
X15385539Y-15587674D01*
X15385539Y-15587674D02*
X15385539Y-15635293D01*
X15385539Y-15635293D02*
X15376015Y-15673388D01*
X15376015Y-15673388D02*
X15366491Y-15692436D01*
X15366491Y-15692436D02*
X15356967Y-15701960D01*
X15356967Y-15701960D02*
X15337920Y-15711484D01*
X15337920Y-15711484D02*
X15318872Y-15711484D01*
X15318872Y-15711484D02*
X15299824Y-15701960D01*
X15299824Y-15701960D02*
X15290301Y-15692436D01*
X15290301Y-15692436D02*
X15280777Y-15673388D01*
X15280777Y-15673388D02*
X15271253Y-15635293D01*
X15271253Y-15635293D02*
X15271253Y-15587674D01*
X15271253Y-15587674D02*
X15280777Y-15549579D01*
X15280777Y-15549579D02*
X15290301Y-15530531D01*
X15290301Y-15530531D02*
X15299824Y-15521008D01*
X15299824Y-15521008D02*
X15318872Y-15511484D01*
X15471253Y-15692436D02*
X15480777Y-15701960D01*
X15480777Y-15701960D02*
X15471253Y-15711484D01*
X15471253Y-15711484D02*
X15461729Y-15701960D01*
X15461729Y-15701960D02*
X15471253Y-15692436D01*
X15471253Y-15692436D02*
X15471253Y-15711484D01*
X15595062Y-15597198D02*
X15576015Y-15587674D01*
X15576015Y-15587674D02*
X15566491Y-15578150D01*
X15566491Y-15578150D02*
X15556967Y-15559103D01*
X15556967Y-15559103D02*
X15556967Y-15549579D01*
X15556967Y-15549579D02*
X15566491Y-15530531D01*
X15566491Y-15530531D02*
X15576015Y-15521008D01*
X15576015Y-15521008D02*
X15595062Y-15511484D01*
X15595062Y-15511484D02*
X15633158Y-15511484D01*
X15633158Y-15511484D02*
X15652205Y-15521008D01*
X15652205Y-15521008D02*
X15661729Y-15530531D01*
X15661729Y-15530531D02*
X15671253Y-15549579D01*
X15671253Y-15549579D02*
X15671253Y-15559103D01*
X15671253Y-15559103D02*
X15661729Y-15578150D01*
X15661729Y-15578150D02*
X15652205Y-15587674D01*
X15652205Y-15587674D02*
X15633158Y-15597198D01*
X15633158Y-15597198D02*
X15595062Y-15597198D01*
X15595062Y-15597198D02*
X15576015Y-15606722D01*
X15576015Y-15606722D02*
X15566491Y-15616246D01*
X15566491Y-15616246D02*
X15556967Y-15635293D01*
X15556967Y-15635293D02*
X15556967Y-15673388D01*
X15556967Y-15673388D02*
X15566491Y-15692436D01*
X15566491Y-15692436D02*
X15576015Y-15701960D01*
X15576015Y-15701960D02*
X15595062Y-15711484D01*
X15595062Y-15711484D02*
X15633158Y-15711484D01*
X15633158Y-15711484D02*
X15652205Y-15701960D01*
X15652205Y-15701960D02*
X15661729Y-15692436D01*
X15661729Y-15692436D02*
X15671253Y-15673388D01*
X15671253Y-15673388D02*
X15671253Y-15635293D01*
X15671253Y-15635293D02*
X15661729Y-15616246D01*
X15661729Y-15616246D02*
X15652205Y-15606722D01*
X15652205Y-15606722D02*
X15633158Y-15597198D01*
X15795062Y-15511484D02*
X15814110Y-15511484D01*
X15814110Y-15511484D02*
X15833158Y-15521008D01*
X15833158Y-15521008D02*
X15842682Y-15530531D01*
X15842682Y-15530531D02*
X15852205Y-15549579D01*
X15852205Y-15549579D02*
X15861729Y-15587674D01*
X15861729Y-15587674D02*
X15861729Y-15635293D01*
X15861729Y-15635293D02*
X15852205Y-15673388D01*
X15852205Y-15673388D02*
X15842682Y-15692436D01*
X15842682Y-15692436D02*
X15833158Y-15701960D01*
X15833158Y-15701960D02*
X15814110Y-15711484D01*
X15814110Y-15711484D02*
X15795062Y-15711484D01*
X15795062Y-15711484D02*
X15776015Y-15701960D01*
X15776015Y-15701960D02*
X15766491Y-15692436D01*
X15766491Y-15692436D02*
X15756967Y-15673388D01*
X15756967Y-15673388D02*
X15747443Y-15635293D01*
X15747443Y-15635293D02*
X15747443Y-15587674D01*
X15747443Y-15587674D02*
X15756967Y-15549579D01*
X15756967Y-15549579D02*
X15766491Y-15530531D01*
X15766491Y-15530531D02*
X15776015Y-15521008D01*
X15776015Y-15521008D02*
X15795062Y-15511484D01*
X15985539Y-15511484D02*
X16004586Y-15511484D01*
X16004586Y-15511484D02*
X16023634Y-15521008D01*
X16023634Y-15521008D02*
X16033158Y-15530531D01*
X16033158Y-15530531D02*
X16042682Y-15549579D01*
X16042682Y-15549579D02*
X16052205Y-15587674D01*
X16052205Y-15587674D02*
X16052205Y-15635293D01*
X16052205Y-15635293D02*
X16042682Y-15673388D01*
X16042682Y-15673388D02*
X16033158Y-15692436D01*
X16033158Y-15692436D02*
X16023634Y-15701960D01*
X16023634Y-15701960D02*
X16004586Y-15711484D01*
X16004586Y-15711484D02*
X15985539Y-15711484D01*
X15985539Y-15711484D02*
X15966491Y-15701960D01*
X15966491Y-15701960D02*
X15956967Y-15692436D01*
X15956967Y-15692436D02*
X15947443Y-15673388D01*
X15947443Y-15673388D02*
X15937920Y-15635293D01*
X15937920Y-15635293D02*
X15937920Y-15587674D01*
X15937920Y-15587674D02*
X15947443Y-15549579D01*
X15947443Y-15549579D02*
X15956967Y-15530531D01*
X15956967Y-15530531D02*
X15966491Y-15521008D01*
X15966491Y-15521008D02*
X15985539Y-15511484D01*
X16137920Y-15711484D02*
X16137920Y-15578150D01*
X16137920Y-15597198D02*
X16147443Y-15587674D01*
X16147443Y-15587674D02*
X16166491Y-15578150D01*
X16166491Y-15578150D02*
X16195063Y-15578150D01*
X16195063Y-15578150D02*
X16214110Y-15587674D01*
X16214110Y-15587674D02*
X16223634Y-15606722D01*
X16223634Y-15606722D02*
X16223634Y-15711484D01*
X16223634Y-15606722D02*
X16233158Y-15587674D01*
X16233158Y-15587674D02*
X16252205Y-15578150D01*
X16252205Y-15578150D02*
X16280777Y-15578150D01*
X16280777Y-15578150D02*
X16299824Y-15587674D01*
X16299824Y-15587674D02*
X16309348Y-15606722D01*
X16309348Y-15606722D02*
X16309348Y-15711484D01*
X16404586Y-15711484D02*
X16404586Y-15578150D01*
X16404586Y-15597198D02*
X16414110Y-15587674D01*
X16414110Y-15587674D02*
X16433158Y-15578150D01*
X16433158Y-15578150D02*
X16461729Y-15578150D01*
X16461729Y-15578150D02*
X16480777Y-15587674D01*
X16480777Y-15587674D02*
X16490301Y-15606722D01*
X16490301Y-15606722D02*
X16490301Y-15711484D01*
X16490301Y-15606722D02*
X16499824Y-15587674D01*
X16499824Y-15587674D02*
X16518872Y-15578150D01*
X16518872Y-15578150D02*
X16547443Y-15578150D01*
X16547443Y-15578150D02*
X16566491Y-15587674D01*
X16566491Y-15587674D02*
X16576015Y-15606722D01*
X16576015Y-15606722D02*
X16576015Y-15711484D01*
X16966491Y-15501960D02*
X16795063Y-15759103D01*
X17223634Y-15511484D02*
X17242682Y-15511484D01*
X17242682Y-15511484D02*
X17261729Y-15521008D01*
X17261729Y-15521008D02*
X17271253Y-15530531D01*
X17271253Y-15530531D02*
X17280777Y-15549579D01*
X17280777Y-15549579D02*
X17290301Y-15587674D01*
X17290301Y-15587674D02*
X17290301Y-15635293D01*
X17290301Y-15635293D02*
X17280777Y-15673388D01*
X17280777Y-15673388D02*
X17271253Y-15692436D01*
X17271253Y-15692436D02*
X17261729Y-15701960D01*
X17261729Y-15701960D02*
X17242682Y-15711484D01*
X17242682Y-15711484D02*
X17223634Y-15711484D01*
X17223634Y-15711484D02*
X17204587Y-15701960D01*
X17204587Y-15701960D02*
X17195063Y-15692436D01*
X17195063Y-15692436D02*
X17185539Y-15673388D01*
X17185539Y-15673388D02*
X17176015Y-15635293D01*
X17176015Y-15635293D02*
X17176015Y-15587674D01*
X17176015Y-15587674D02*
X17185539Y-15549579D01*
X17185539Y-15549579D02*
X17195063Y-15530531D01*
X17195063Y-15530531D02*
X17204587Y-15521008D01*
X17204587Y-15521008D02*
X17223634Y-15511484D01*
X17376015Y-15692436D02*
X17385539Y-15701960D01*
X17385539Y-15701960D02*
X17376015Y-15711484D01*
X17376015Y-15711484D02*
X17366491Y-15701960D01*
X17366491Y-15701960D02*
X17376015Y-15692436D01*
X17376015Y-15692436D02*
X17376015Y-15711484D01*
X17509348Y-15511484D02*
X17528396Y-15511484D01*
X17528396Y-15511484D02*
X17547444Y-15521008D01*
X17547444Y-15521008D02*
X17556968Y-15530531D01*
X17556968Y-15530531D02*
X17566491Y-15549579D01*
X17566491Y-15549579D02*
X17576015Y-15587674D01*
X17576015Y-15587674D02*
X17576015Y-15635293D01*
X17576015Y-15635293D02*
X17566491Y-15673388D01*
X17566491Y-15673388D02*
X17556968Y-15692436D01*
X17556968Y-15692436D02*
X17547444Y-15701960D01*
X17547444Y-15701960D02*
X17528396Y-15711484D01*
X17528396Y-15711484D02*
X17509348Y-15711484D01*
X17509348Y-15711484D02*
X17490301Y-15701960D01*
X17490301Y-15701960D02*
X17480777Y-15692436D01*
X17480777Y-15692436D02*
X17471253Y-15673388D01*
X17471253Y-15673388D02*
X17461729Y-15635293D01*
X17461729Y-15635293D02*
X17461729Y-15587674D01*
X17461729Y-15587674D02*
X17471253Y-15549579D01*
X17471253Y-15549579D02*
X17480777Y-15530531D01*
X17480777Y-15530531D02*
X17490301Y-15521008D01*
X17490301Y-15521008D02*
X17509348Y-15511484D01*
X17642682Y-15511484D02*
X17766491Y-15511484D01*
X17766491Y-15511484D02*
X17699825Y-15587674D01*
X17699825Y-15587674D02*
X17728396Y-15587674D01*
X17728396Y-15587674D02*
X17747444Y-15597198D01*
X17747444Y-15597198D02*
X17756968Y-15606722D01*
X17756968Y-15606722D02*
X17766491Y-15625769D01*
X17766491Y-15625769D02*
X17766491Y-15673388D01*
X17766491Y-15673388D02*
X17756968Y-15692436D01*
X17756968Y-15692436D02*
X17747444Y-15701960D01*
X17747444Y-15701960D02*
X17728396Y-15711484D01*
X17728396Y-15711484D02*
X17671253Y-15711484D01*
X17671253Y-15711484D02*
X17652206Y-15701960D01*
X17652206Y-15701960D02*
X17642682Y-15692436D01*
X17956968Y-15711484D02*
X17842682Y-15711484D01*
X17899825Y-15711484D02*
X17899825Y-15511484D01*
X17899825Y-15511484D02*
X17880777Y-15540055D01*
X17880777Y-15540055D02*
X17861729Y-15559103D01*
X17861729Y-15559103D02*
X17842682Y-15568627D01*
X18137920Y-15511484D02*
X18042682Y-15511484D01*
X18042682Y-15511484D02*
X18033158Y-15606722D01*
X18033158Y-15606722D02*
X18042682Y-15597198D01*
X18042682Y-15597198D02*
X18061729Y-15587674D01*
X18061729Y-15587674D02*
X18109349Y-15587674D01*
X18109349Y-15587674D02*
X18128396Y-15597198D01*
X18128396Y-15597198D02*
X18137920Y-15606722D01*
X18137920Y-15606722D02*
X18147444Y-15625769D01*
X18147444Y-15625769D02*
X18147444Y-15673388D01*
X18147444Y-15673388D02*
X18137920Y-15692436D01*
X18137920Y-15692436D02*
X18128396Y-15701960D01*
X18128396Y-15701960D02*
X18109349Y-15711484D01*
X18109349Y-15711484D02*
X18061729Y-15711484D01*
X18061729Y-15711484D02*
X18042682Y-15701960D01*
X18042682Y-15701960D02*
X18033158Y-15692436D01*
X18223634Y-15511484D02*
X18223634Y-15549579D01*
X18299825Y-15511484D02*
X18299825Y-15549579D01*
X18595063Y-15787674D02*
X18585539Y-15778150D01*
X18585539Y-15778150D02*
X18566491Y-15749579D01*
X18566491Y-15749579D02*
X18556968Y-15730531D01*
X18556968Y-15730531D02*
X18547444Y-15701960D01*
X18547444Y-15701960D02*
X18537920Y-15654341D01*
X18537920Y-15654341D02*
X18537920Y-15616246D01*
X18537920Y-15616246D02*
X18547444Y-15568627D01*
X18547444Y-15568627D02*
X18556968Y-15540055D01*
X18556968Y-15540055D02*
X18566491Y-15521008D01*
X18566491Y-15521008D02*
X18585539Y-15492436D01*
X18585539Y-15492436D02*
X18595063Y-15482912D01*
X18756968Y-15578150D02*
X18756968Y-15711484D01*
X18709349Y-15501960D02*
X18661730Y-15644817D01*
X18661730Y-15644817D02*
X18785539Y-15644817D01*
X18842682Y-15511484D02*
X18976015Y-15511484D01*
X18976015Y-15511484D02*
X18890301Y-15711484D01*
X19204587Y-15711484D02*
X19204587Y-15511484D01*
X19290301Y-15711484D02*
X19290301Y-15606722D01*
X19290301Y-15606722D02*
X19280777Y-15587674D01*
X19280777Y-15587674D02*
X19261730Y-15578150D01*
X19261730Y-15578150D02*
X19233158Y-15578150D01*
X19233158Y-15578150D02*
X19214111Y-15587674D01*
X19214111Y-15587674D02*
X19204587Y-15597198D01*
X19414111Y-15711484D02*
X19395063Y-15701960D01*
X19395063Y-15701960D02*
X19385539Y-15692436D01*
X19385539Y-15692436D02*
X19376015Y-15673388D01*
X19376015Y-15673388D02*
X19376015Y-15616246D01*
X19376015Y-15616246D02*
X19385539Y-15597198D01*
X19385539Y-15597198D02*
X19395063Y-15587674D01*
X19395063Y-15587674D02*
X19414111Y-15578150D01*
X19414111Y-15578150D02*
X19442682Y-15578150D01*
X19442682Y-15578150D02*
X19461730Y-15587674D01*
X19461730Y-15587674D02*
X19471253Y-15597198D01*
X19471253Y-15597198D02*
X19480777Y-15616246D01*
X19480777Y-15616246D02*
X19480777Y-15673388D01*
X19480777Y-15673388D02*
X19471253Y-15692436D01*
X19471253Y-15692436D02*
X19461730Y-15701960D01*
X19461730Y-15701960D02*
X19442682Y-15711484D01*
X19442682Y-15711484D02*
X19414111Y-15711484D01*
X19595063Y-15711484D02*
X19576015Y-15701960D01*
X19576015Y-15701960D02*
X19566492Y-15682912D01*
X19566492Y-15682912D02*
X19566492Y-15511484D01*
X19747444Y-15701960D02*
X19728396Y-15711484D01*
X19728396Y-15711484D02*
X19690301Y-15711484D01*
X19690301Y-15711484D02*
X19671253Y-15701960D01*
X19671253Y-15701960D02*
X19661730Y-15682912D01*
X19661730Y-15682912D02*
X19661730Y-15606722D01*
X19661730Y-15606722D02*
X19671253Y-15587674D01*
X19671253Y-15587674D02*
X19690301Y-15578150D01*
X19690301Y-15578150D02*
X19728396Y-15578150D01*
X19728396Y-15578150D02*
X19747444Y-15587674D01*
X19747444Y-15587674D02*
X19756968Y-15606722D01*
X19756968Y-15606722D02*
X19756968Y-15625769D01*
X19756968Y-15625769D02*
X19661730Y-15644817D01*
X19833158Y-15701960D02*
X19852206Y-15711484D01*
X19852206Y-15711484D02*
X19890301Y-15711484D01*
X19890301Y-15711484D02*
X19909349Y-15701960D01*
X19909349Y-15701960D02*
X19918873Y-15682912D01*
X19918873Y-15682912D02*
X19918873Y-15673388D01*
X19918873Y-15673388D02*
X19909349Y-15654341D01*
X19909349Y-15654341D02*
X19890301Y-15644817D01*
X19890301Y-15644817D02*
X19861730Y-15644817D01*
X19861730Y-15644817D02*
X19842682Y-15635293D01*
X19842682Y-15635293D02*
X19833158Y-15616246D01*
X19833158Y-15616246D02*
X19833158Y-15606722D01*
X19833158Y-15606722D02*
X19842682Y-15587674D01*
X19842682Y-15587674D02*
X19861730Y-15578150D01*
X19861730Y-15578150D02*
X19890301Y-15578150D01*
X19890301Y-15578150D02*
X19909349Y-15587674D01*
X19985539Y-15787674D02*
X19995063Y-15778150D01*
X19995063Y-15778150D02*
X20014111Y-15749579D01*
X20014111Y-15749579D02*
X20023634Y-15730531D01*
X20023634Y-15730531D02*
X20033158Y-15701960D01*
X20033158Y-15701960D02*
X20042682Y-15654341D01*
X20042682Y-15654341D02*
X20042682Y-15616246D01*
X20042682Y-15616246D02*
X20033158Y-15568627D01*
X20033158Y-15568627D02*
X20023634Y-15540055D01*
X20023634Y-15540055D02*
X20014111Y-15521008D01*
X20014111Y-15521008D02*
X19995063Y-15492436D01*
X19995063Y-15492436D02*
X19985539Y-15482912D01*
D10*
X14970000Y-15934000D02*
X15020000Y-15884000D01*
X14970000Y-15834000D01*
X14920000Y-15884000D01*
X14970000Y-15934000D01*
D11*
X15385539Y-15975484D02*
X15271253Y-15975484D01*
X15328396Y-15975484D02*
X15328396Y-15775484D01*
X15328396Y-15775484D02*
X15309348Y-15804055D01*
X15309348Y-15804055D02*
X15290301Y-15823103D01*
X15290301Y-15823103D02*
X15271253Y-15832627D01*
X15471253Y-15956436D02*
X15480777Y-15965960D01*
X15480777Y-15965960D02*
X15471253Y-15975484D01*
X15471253Y-15975484D02*
X15461729Y-15965960D01*
X15461729Y-15965960D02*
X15471253Y-15956436D01*
X15471253Y-15956436D02*
X15471253Y-15975484D01*
X15604586Y-15775484D02*
X15623634Y-15775484D01*
X15623634Y-15775484D02*
X15642682Y-15785008D01*
X15642682Y-15785008D02*
X15652205Y-15794531D01*
X15652205Y-15794531D02*
X15661729Y-15813579D01*
X15661729Y-15813579D02*
X15671253Y-15851674D01*
X15671253Y-15851674D02*
X15671253Y-15899293D01*
X15671253Y-15899293D02*
X15661729Y-15937388D01*
X15661729Y-15937388D02*
X15652205Y-15956436D01*
X15652205Y-15956436D02*
X15642682Y-15965960D01*
X15642682Y-15965960D02*
X15623634Y-15975484D01*
X15623634Y-15975484D02*
X15604586Y-15975484D01*
X15604586Y-15975484D02*
X15585539Y-15965960D01*
X15585539Y-15965960D02*
X15576015Y-15956436D01*
X15576015Y-15956436D02*
X15566491Y-15937388D01*
X15566491Y-15937388D02*
X15556967Y-15899293D01*
X15556967Y-15899293D02*
X15556967Y-15851674D01*
X15556967Y-15851674D02*
X15566491Y-15813579D01*
X15566491Y-15813579D02*
X15576015Y-15794531D01*
X15576015Y-15794531D02*
X15585539Y-15785008D01*
X15585539Y-15785008D02*
X15604586Y-15775484D01*
X15795062Y-15775484D02*
X15814110Y-15775484D01*
X15814110Y-15775484D02*
X15833158Y-15785008D01*
X15833158Y-15785008D02*
X15842682Y-15794531D01*
X15842682Y-15794531D02*
X15852205Y-15813579D01*
X15852205Y-15813579D02*
X15861729Y-15851674D01*
X15861729Y-15851674D02*
X15861729Y-15899293D01*
X15861729Y-15899293D02*
X15852205Y-15937388D01*
X15852205Y-15937388D02*
X15842682Y-15956436D01*
X15842682Y-15956436D02*
X15833158Y-15965960D01*
X15833158Y-15965960D02*
X15814110Y-15975484D01*
X15814110Y-15975484D02*
X15795062Y-15975484D01*
X15795062Y-15975484D02*
X15776015Y-15965960D01*
X15776015Y-15965960D02*
X15766491Y-15956436D01*
X15766491Y-15956436D02*
X15756967Y-15937388D01*
X15756967Y-15937388D02*
X15747443Y-15899293D01*
X15747443Y-15899293D02*
X15747443Y-15851674D01*
X15747443Y-15851674D02*
X15756967Y-15813579D01*
X15756967Y-15813579D02*
X15766491Y-15794531D01*
X15766491Y-15794531D02*
X15776015Y-15785008D01*
X15776015Y-15785008D02*
X15795062Y-15775484D01*
X15985539Y-15775484D02*
X16004586Y-15775484D01*
X16004586Y-15775484D02*
X16023634Y-15785008D01*
X16023634Y-15785008D02*
X16033158Y-15794531D01*
X16033158Y-15794531D02*
X16042682Y-15813579D01*
X16042682Y-15813579D02*
X16052205Y-15851674D01*
X16052205Y-15851674D02*
X16052205Y-15899293D01*
X16052205Y-15899293D02*
X16042682Y-15937388D01*
X16042682Y-15937388D02*
X16033158Y-15956436D01*
X16033158Y-15956436D02*
X16023634Y-15965960D01*
X16023634Y-15965960D02*
X16004586Y-15975484D01*
X16004586Y-15975484D02*
X15985539Y-15975484D01*
X15985539Y-15975484D02*
X15966491Y-15965960D01*
X15966491Y-15965960D02*
X15956967Y-15956436D01*
X15956967Y-15956436D02*
X15947443Y-15937388D01*
X15947443Y-15937388D02*
X15937920Y-15899293D01*
X15937920Y-15899293D02*
X15937920Y-15851674D01*
X15937920Y-15851674D02*
X15947443Y-15813579D01*
X15947443Y-15813579D02*
X15956967Y-15794531D01*
X15956967Y-15794531D02*
X15966491Y-15785008D01*
X15966491Y-15785008D02*
X15985539Y-15775484D01*
X16137920Y-15975484D02*
X16137920Y-15842150D01*
X16137920Y-15861198D02*
X16147443Y-15851674D01*
X16147443Y-15851674D02*
X16166491Y-15842150D01*
X16166491Y-15842150D02*
X16195063Y-15842150D01*
X16195063Y-15842150D02*
X16214110Y-15851674D01*
X16214110Y-15851674D02*
X16223634Y-15870722D01*
X16223634Y-15870722D02*
X16223634Y-15975484D01*
X16223634Y-15870722D02*
X16233158Y-15851674D01*
X16233158Y-15851674D02*
X16252205Y-15842150D01*
X16252205Y-15842150D02*
X16280777Y-15842150D01*
X16280777Y-15842150D02*
X16299824Y-15851674D01*
X16299824Y-15851674D02*
X16309348Y-15870722D01*
X16309348Y-15870722D02*
X16309348Y-15975484D01*
X16404586Y-15975484D02*
X16404586Y-15842150D01*
X16404586Y-15861198D02*
X16414110Y-15851674D01*
X16414110Y-15851674D02*
X16433158Y-15842150D01*
X16433158Y-15842150D02*
X16461729Y-15842150D01*
X16461729Y-15842150D02*
X16480777Y-15851674D01*
X16480777Y-15851674D02*
X16490301Y-15870722D01*
X16490301Y-15870722D02*
X16490301Y-15975484D01*
X16490301Y-15870722D02*
X16499824Y-15851674D01*
X16499824Y-15851674D02*
X16518872Y-15842150D01*
X16518872Y-15842150D02*
X16547443Y-15842150D01*
X16547443Y-15842150D02*
X16566491Y-15851674D01*
X16566491Y-15851674D02*
X16576015Y-15870722D01*
X16576015Y-15870722D02*
X16576015Y-15975484D01*
X16966491Y-15765960D02*
X16795063Y-16023103D01*
X17223634Y-15775484D02*
X17242682Y-15775484D01*
X17242682Y-15775484D02*
X17261729Y-15785008D01*
X17261729Y-15785008D02*
X17271253Y-15794531D01*
X17271253Y-15794531D02*
X17280777Y-15813579D01*
X17280777Y-15813579D02*
X17290301Y-15851674D01*
X17290301Y-15851674D02*
X17290301Y-15899293D01*
X17290301Y-15899293D02*
X17280777Y-15937388D01*
X17280777Y-15937388D02*
X17271253Y-15956436D01*
X17271253Y-15956436D02*
X17261729Y-15965960D01*
X17261729Y-15965960D02*
X17242682Y-15975484D01*
X17242682Y-15975484D02*
X17223634Y-15975484D01*
X17223634Y-15975484D02*
X17204587Y-15965960D01*
X17204587Y-15965960D02*
X17195063Y-15956436D01*
X17195063Y-15956436D02*
X17185539Y-15937388D01*
X17185539Y-15937388D02*
X17176015Y-15899293D01*
X17176015Y-15899293D02*
X17176015Y-15851674D01*
X17176015Y-15851674D02*
X17185539Y-15813579D01*
X17185539Y-15813579D02*
X17195063Y-15794531D01*
X17195063Y-15794531D02*
X17204587Y-15785008D01*
X17204587Y-15785008D02*
X17223634Y-15775484D01*
X17376015Y-15956436D02*
X17385539Y-15965960D01*
X17385539Y-15965960D02*
X17376015Y-15975484D01*
X17376015Y-15975484D02*
X17366491Y-15965960D01*
X17366491Y-15965960D02*
X17376015Y-15956436D01*
X17376015Y-15956436D02*
X17376015Y-15975484D01*
X17509348Y-15775484D02*
X17528396Y-15775484D01*
X17528396Y-15775484D02*
X17547444Y-15785008D01*
X17547444Y-15785008D02*
X17556968Y-15794531D01*
X17556968Y-15794531D02*
X17566491Y-15813579D01*
X17566491Y-15813579D02*
X17576015Y-15851674D01*
X17576015Y-15851674D02*
X17576015Y-15899293D01*
X17576015Y-15899293D02*
X17566491Y-15937388D01*
X17566491Y-15937388D02*
X17556968Y-15956436D01*
X17556968Y-15956436D02*
X17547444Y-15965960D01*
X17547444Y-15965960D02*
X17528396Y-15975484D01*
X17528396Y-15975484D02*
X17509348Y-15975484D01*
X17509348Y-15975484D02*
X17490301Y-15965960D01*
X17490301Y-15965960D02*
X17480777Y-15956436D01*
X17480777Y-15956436D02*
X17471253Y-15937388D01*
X17471253Y-15937388D02*
X17461729Y-15899293D01*
X17461729Y-15899293D02*
X17461729Y-15851674D01*
X17461729Y-15851674D02*
X17471253Y-15813579D01*
X17471253Y-15813579D02*
X17480777Y-15794531D01*
X17480777Y-15794531D02*
X17490301Y-15785008D01*
X17490301Y-15785008D02*
X17509348Y-15775484D01*
X17642682Y-15775484D02*
X17766491Y-15775484D01*
X17766491Y-15775484D02*
X17699825Y-15851674D01*
X17699825Y-15851674D02*
X17728396Y-15851674D01*
X17728396Y-15851674D02*
X17747444Y-15861198D01*
X17747444Y-15861198D02*
X17756968Y-15870722D01*
X17756968Y-15870722D02*
X17766491Y-15889769D01*
X17766491Y-15889769D02*
X17766491Y-15937388D01*
X17766491Y-15937388D02*
X17756968Y-15956436D01*
X17756968Y-15956436D02*
X17747444Y-15965960D01*
X17747444Y-15965960D02*
X17728396Y-15975484D01*
X17728396Y-15975484D02*
X17671253Y-15975484D01*
X17671253Y-15975484D02*
X17652206Y-15965960D01*
X17652206Y-15965960D02*
X17642682Y-15956436D01*
X17861729Y-15975484D02*
X17899825Y-15975484D01*
X17899825Y-15975484D02*
X17918872Y-15965960D01*
X17918872Y-15965960D02*
X17928396Y-15956436D01*
X17928396Y-15956436D02*
X17947444Y-15927865D01*
X17947444Y-15927865D02*
X17956968Y-15889769D01*
X17956968Y-15889769D02*
X17956968Y-15813579D01*
X17956968Y-15813579D02*
X17947444Y-15794531D01*
X17947444Y-15794531D02*
X17937920Y-15785008D01*
X17937920Y-15785008D02*
X17918872Y-15775484D01*
X17918872Y-15775484D02*
X17880777Y-15775484D01*
X17880777Y-15775484D02*
X17861729Y-15785008D01*
X17861729Y-15785008D02*
X17852206Y-15794531D01*
X17852206Y-15794531D02*
X17842682Y-15813579D01*
X17842682Y-15813579D02*
X17842682Y-15861198D01*
X17842682Y-15861198D02*
X17852206Y-15880246D01*
X17852206Y-15880246D02*
X17861729Y-15889769D01*
X17861729Y-15889769D02*
X17880777Y-15899293D01*
X17880777Y-15899293D02*
X17918872Y-15899293D01*
X17918872Y-15899293D02*
X17937920Y-15889769D01*
X17937920Y-15889769D02*
X17947444Y-15880246D01*
X17947444Y-15880246D02*
X17956968Y-15861198D01*
X18128396Y-15842150D02*
X18128396Y-15975484D01*
X18080777Y-15765960D02*
X18033158Y-15908817D01*
X18033158Y-15908817D02*
X18156968Y-15908817D01*
X18223634Y-15775484D02*
X18223634Y-15813579D01*
X18299825Y-15775484D02*
X18299825Y-15813579D01*
X18595063Y-16051674D02*
X18585539Y-16042150D01*
X18585539Y-16042150D02*
X18566491Y-16013579D01*
X18566491Y-16013579D02*
X18556968Y-15994531D01*
X18556968Y-15994531D02*
X18547444Y-15965960D01*
X18547444Y-15965960D02*
X18537920Y-15918341D01*
X18537920Y-15918341D02*
X18537920Y-15880246D01*
X18537920Y-15880246D02*
X18547444Y-15832627D01*
X18547444Y-15832627D02*
X18556968Y-15804055D01*
X18556968Y-15804055D02*
X18566491Y-15785008D01*
X18566491Y-15785008D02*
X18585539Y-15756436D01*
X18585539Y-15756436D02*
X18595063Y-15746912D01*
X18776015Y-15975484D02*
X18661730Y-15975484D01*
X18718872Y-15975484D02*
X18718872Y-15775484D01*
X18718872Y-15775484D02*
X18699825Y-15804055D01*
X18699825Y-15804055D02*
X18680777Y-15823103D01*
X18680777Y-15823103D02*
X18661730Y-15832627D01*
X18947444Y-15842150D02*
X18947444Y-15975484D01*
X18899825Y-15765960D02*
X18852206Y-15908817D01*
X18852206Y-15908817D02*
X18976015Y-15908817D01*
X19204587Y-15975484D02*
X19204587Y-15775484D01*
X19290301Y-15975484D02*
X19290301Y-15870722D01*
X19290301Y-15870722D02*
X19280777Y-15851674D01*
X19280777Y-15851674D02*
X19261730Y-15842150D01*
X19261730Y-15842150D02*
X19233158Y-15842150D01*
X19233158Y-15842150D02*
X19214111Y-15851674D01*
X19214111Y-15851674D02*
X19204587Y-15861198D01*
X19414111Y-15975484D02*
X19395063Y-15965960D01*
X19395063Y-15965960D02*
X19385539Y-15956436D01*
X19385539Y-15956436D02*
X19376015Y-15937388D01*
X19376015Y-15937388D02*
X19376015Y-15880246D01*
X19376015Y-15880246D02*
X19385539Y-15861198D01*
X19385539Y-15861198D02*
X19395063Y-15851674D01*
X19395063Y-15851674D02*
X19414111Y-15842150D01*
X19414111Y-15842150D02*
X19442682Y-15842150D01*
X19442682Y-15842150D02*
X19461730Y-15851674D01*
X19461730Y-15851674D02*
X19471253Y-15861198D01*
X19471253Y-15861198D02*
X19480777Y-15880246D01*
X19480777Y-15880246D02*
X19480777Y-15937388D01*
X19480777Y-15937388D02*
X19471253Y-15956436D01*
X19471253Y-15956436D02*
X19461730Y-15965960D01*
X19461730Y-15965960D02*
X19442682Y-15975484D01*
X19442682Y-15975484D02*
X19414111Y-15975484D01*
X19595063Y-15975484D02*
X19576015Y-15965960D01*
X19576015Y-15965960D02*
X19566492Y-15946912D01*
X19566492Y-15946912D02*
X19566492Y-15775484D01*
X19747444Y-15965960D02*
X19728396Y-15975484D01*
X19728396Y-15975484D02*
X19690301Y-15975484D01*
X19690301Y-15975484D02*
X19671253Y-15965960D01*
X19671253Y-15965960D02*
X19661730Y-15946912D01*
X19661730Y-15946912D02*
X19661730Y-15870722D01*
X19661730Y-15870722D02*
X19671253Y-15851674D01*
X19671253Y-15851674D02*
X19690301Y-15842150D01*
X19690301Y-15842150D02*
X19728396Y-15842150D01*
X19728396Y-15842150D02*
X19747444Y-15851674D01*
X19747444Y-15851674D02*
X19756968Y-15870722D01*
X19756968Y-15870722D02*
X19756968Y-15889769D01*
X19756968Y-15889769D02*
X19661730Y-15908817D01*
X19833158Y-15965960D02*
X19852206Y-15975484D01*
X19852206Y-15975484D02*
X19890301Y-15975484D01*
X19890301Y-15975484D02*
X19909349Y-15965960D01*
X19909349Y-15965960D02*
X19918873Y-15946912D01*
X19918873Y-15946912D02*
X19918873Y-15937388D01*
X19918873Y-15937388D02*
X19909349Y-15918341D01*
X19909349Y-15918341D02*
X19890301Y-15908817D01*
X19890301Y-15908817D02*
X19861730Y-15908817D01*
X19861730Y-15908817D02*
X19842682Y-15899293D01*
X19842682Y-15899293D02*
X19833158Y-15880246D01*
X19833158Y-15880246D02*
X19833158Y-15870722D01*
X19833158Y-15870722D02*
X19842682Y-15851674D01*
X19842682Y-15851674D02*
X19861730Y-15842150D01*
X19861730Y-15842150D02*
X19890301Y-15842150D01*
X19890301Y-15842150D02*
X19909349Y-15851674D01*
X19985539Y-16051674D02*
X19995063Y-16042150D01*
X19995063Y-16042150D02*
X20014111Y-16013579D01*
X20014111Y-16013579D02*
X20023634Y-15994531D01*
X20023634Y-15994531D02*
X20033158Y-15965960D01*
X20033158Y-15965960D02*
X20042682Y-15918341D01*
X20042682Y-15918341D02*
X20042682Y-15880246D01*
X20042682Y-15880246D02*
X20033158Y-15832627D01*
X20033158Y-15832627D02*
X20023634Y-15804055D01*
X20023634Y-15804055D02*
X20014111Y-15785008D01*
X20014111Y-15785008D02*
X19995063Y-15756436D01*
X19995063Y-15756436D02*
X19985539Y-15746912D01*
X14820000Y-16048000D02*
X15020000Y-16248000D01*
X15020000Y-16048000D02*
X14820000Y-16248000D01*
X15020000Y-16148000D02*
G75*
G02*
X14820000Y-16148000I-100000J0D01*
G01*
X14820000Y-16148000D02*
G75*
G02*
X15020000Y-16148000I100000J0D01*
G01*
X15261729Y-16039484D02*
X15385539Y-16039484D01*
X15385539Y-16039484D02*
X15318872Y-16115674D01*
X15318872Y-16115674D02*
X15347443Y-16115674D01*
X15347443Y-16115674D02*
X15366491Y-16125198D01*
X15366491Y-16125198D02*
X15376015Y-16134722D01*
X15376015Y-16134722D02*
X15385539Y-16153769D01*
X15385539Y-16153769D02*
X15385539Y-16201388D01*
X15385539Y-16201388D02*
X15376015Y-16220436D01*
X15376015Y-16220436D02*
X15366491Y-16229960D01*
X15366491Y-16229960D02*
X15347443Y-16239484D01*
X15347443Y-16239484D02*
X15290301Y-16239484D01*
X15290301Y-16239484D02*
X15271253Y-16229960D01*
X15271253Y-16229960D02*
X15261729Y-16220436D01*
X15471253Y-16220436D02*
X15480777Y-16229960D01*
X15480777Y-16229960D02*
X15471253Y-16239484D01*
X15471253Y-16239484D02*
X15461729Y-16229960D01*
X15461729Y-16229960D02*
X15471253Y-16220436D01*
X15471253Y-16220436D02*
X15471253Y-16239484D01*
X15556967Y-16058531D02*
X15566491Y-16049008D01*
X15566491Y-16049008D02*
X15585539Y-16039484D01*
X15585539Y-16039484D02*
X15633158Y-16039484D01*
X15633158Y-16039484D02*
X15652205Y-16049008D01*
X15652205Y-16049008D02*
X15661729Y-16058531D01*
X15661729Y-16058531D02*
X15671253Y-16077579D01*
X15671253Y-16077579D02*
X15671253Y-16096627D01*
X15671253Y-16096627D02*
X15661729Y-16125198D01*
X15661729Y-16125198D02*
X15547443Y-16239484D01*
X15547443Y-16239484D02*
X15671253Y-16239484D01*
X15795062Y-16039484D02*
X15814110Y-16039484D01*
X15814110Y-16039484D02*
X15833158Y-16049008D01*
X15833158Y-16049008D02*
X15842682Y-16058531D01*
X15842682Y-16058531D02*
X15852205Y-16077579D01*
X15852205Y-16077579D02*
X15861729Y-16115674D01*
X15861729Y-16115674D02*
X15861729Y-16163293D01*
X15861729Y-16163293D02*
X15852205Y-16201388D01*
X15852205Y-16201388D02*
X15842682Y-16220436D01*
X15842682Y-16220436D02*
X15833158Y-16229960D01*
X15833158Y-16229960D02*
X15814110Y-16239484D01*
X15814110Y-16239484D02*
X15795062Y-16239484D01*
X15795062Y-16239484D02*
X15776015Y-16229960D01*
X15776015Y-16229960D02*
X15766491Y-16220436D01*
X15766491Y-16220436D02*
X15756967Y-16201388D01*
X15756967Y-16201388D02*
X15747443Y-16163293D01*
X15747443Y-16163293D02*
X15747443Y-16115674D01*
X15747443Y-16115674D02*
X15756967Y-16077579D01*
X15756967Y-16077579D02*
X15766491Y-16058531D01*
X15766491Y-16058531D02*
X15776015Y-16049008D01*
X15776015Y-16049008D02*
X15795062Y-16039484D01*
X15985539Y-16039484D02*
X16004586Y-16039484D01*
X16004586Y-16039484D02*
X16023634Y-16049008D01*
X16023634Y-16049008D02*
X16033158Y-16058531D01*
X16033158Y-16058531D02*
X16042682Y-16077579D01*
X16042682Y-16077579D02*
X16052205Y-16115674D01*
X16052205Y-16115674D02*
X16052205Y-16163293D01*
X16052205Y-16163293D02*
X16042682Y-16201388D01*
X16042682Y-16201388D02*
X16033158Y-16220436D01*
X16033158Y-16220436D02*
X16023634Y-16229960D01*
X16023634Y-16229960D02*
X16004586Y-16239484D01*
X16004586Y-16239484D02*
X15985539Y-16239484D01*
X15985539Y-16239484D02*
X15966491Y-16229960D01*
X15966491Y-16229960D02*
X15956967Y-16220436D01*
X15956967Y-16220436D02*
X15947443Y-16201388D01*
X15947443Y-16201388D02*
X15937920Y-16163293D01*
X15937920Y-16163293D02*
X15937920Y-16115674D01*
X15937920Y-16115674D02*
X15947443Y-16077579D01*
X15947443Y-16077579D02*
X15956967Y-16058531D01*
X15956967Y-16058531D02*
X15966491Y-16049008D01*
X15966491Y-16049008D02*
X15985539Y-16039484D01*
X16137920Y-16239484D02*
X16137920Y-16106150D01*
X16137920Y-16125198D02*
X16147443Y-16115674D01*
X16147443Y-16115674D02*
X16166491Y-16106150D01*
X16166491Y-16106150D02*
X16195063Y-16106150D01*
X16195063Y-16106150D02*
X16214110Y-16115674D01*
X16214110Y-16115674D02*
X16223634Y-16134722D01*
X16223634Y-16134722D02*
X16223634Y-16239484D01*
X16223634Y-16134722D02*
X16233158Y-16115674D01*
X16233158Y-16115674D02*
X16252205Y-16106150D01*
X16252205Y-16106150D02*
X16280777Y-16106150D01*
X16280777Y-16106150D02*
X16299824Y-16115674D01*
X16299824Y-16115674D02*
X16309348Y-16134722D01*
X16309348Y-16134722D02*
X16309348Y-16239484D01*
X16404586Y-16239484D02*
X16404586Y-16106150D01*
X16404586Y-16125198D02*
X16414110Y-16115674D01*
X16414110Y-16115674D02*
X16433158Y-16106150D01*
X16433158Y-16106150D02*
X16461729Y-16106150D01*
X16461729Y-16106150D02*
X16480777Y-16115674D01*
X16480777Y-16115674D02*
X16490301Y-16134722D01*
X16490301Y-16134722D02*
X16490301Y-16239484D01*
X16490301Y-16134722D02*
X16499824Y-16115674D01*
X16499824Y-16115674D02*
X16518872Y-16106150D01*
X16518872Y-16106150D02*
X16547443Y-16106150D01*
X16547443Y-16106150D02*
X16566491Y-16115674D01*
X16566491Y-16115674D02*
X16576015Y-16134722D01*
X16576015Y-16134722D02*
X16576015Y-16239484D01*
X16966491Y-16029960D02*
X16795063Y-16287103D01*
X17223634Y-16039484D02*
X17242682Y-16039484D01*
X17242682Y-16039484D02*
X17261729Y-16049008D01*
X17261729Y-16049008D02*
X17271253Y-16058531D01*
X17271253Y-16058531D02*
X17280777Y-16077579D01*
X17280777Y-16077579D02*
X17290301Y-16115674D01*
X17290301Y-16115674D02*
X17290301Y-16163293D01*
X17290301Y-16163293D02*
X17280777Y-16201388D01*
X17280777Y-16201388D02*
X17271253Y-16220436D01*
X17271253Y-16220436D02*
X17261729Y-16229960D01*
X17261729Y-16229960D02*
X17242682Y-16239484D01*
X17242682Y-16239484D02*
X17223634Y-16239484D01*
X17223634Y-16239484D02*
X17204587Y-16229960D01*
X17204587Y-16229960D02*
X17195063Y-16220436D01*
X17195063Y-16220436D02*
X17185539Y-16201388D01*
X17185539Y-16201388D02*
X17176015Y-16163293D01*
X17176015Y-16163293D02*
X17176015Y-16115674D01*
X17176015Y-16115674D02*
X17185539Y-16077579D01*
X17185539Y-16077579D02*
X17195063Y-16058531D01*
X17195063Y-16058531D02*
X17204587Y-16049008D01*
X17204587Y-16049008D02*
X17223634Y-16039484D01*
X17376015Y-16220436D02*
X17385539Y-16229960D01*
X17385539Y-16229960D02*
X17376015Y-16239484D01*
X17376015Y-16239484D02*
X17366491Y-16229960D01*
X17366491Y-16229960D02*
X17376015Y-16220436D01*
X17376015Y-16220436D02*
X17376015Y-16239484D01*
X17576015Y-16239484D02*
X17461729Y-16239484D01*
X17518872Y-16239484D02*
X17518872Y-16039484D01*
X17518872Y-16039484D02*
X17499825Y-16068055D01*
X17499825Y-16068055D02*
X17480777Y-16087103D01*
X17480777Y-16087103D02*
X17461729Y-16096627D01*
X17652206Y-16058531D02*
X17661729Y-16049008D01*
X17661729Y-16049008D02*
X17680777Y-16039484D01*
X17680777Y-16039484D02*
X17728396Y-16039484D01*
X17728396Y-16039484D02*
X17747444Y-16049008D01*
X17747444Y-16049008D02*
X17756968Y-16058531D01*
X17756968Y-16058531D02*
X17766491Y-16077579D01*
X17766491Y-16077579D02*
X17766491Y-16096627D01*
X17766491Y-16096627D02*
X17756968Y-16125198D01*
X17756968Y-16125198D02*
X17642682Y-16239484D01*
X17642682Y-16239484D02*
X17766491Y-16239484D01*
X17937920Y-16039484D02*
X17899825Y-16039484D01*
X17899825Y-16039484D02*
X17880777Y-16049008D01*
X17880777Y-16049008D02*
X17871253Y-16058531D01*
X17871253Y-16058531D02*
X17852206Y-16087103D01*
X17852206Y-16087103D02*
X17842682Y-16125198D01*
X17842682Y-16125198D02*
X17842682Y-16201388D01*
X17842682Y-16201388D02*
X17852206Y-16220436D01*
X17852206Y-16220436D02*
X17861729Y-16229960D01*
X17861729Y-16229960D02*
X17880777Y-16239484D01*
X17880777Y-16239484D02*
X17918872Y-16239484D01*
X17918872Y-16239484D02*
X17937920Y-16229960D01*
X17937920Y-16229960D02*
X17947444Y-16220436D01*
X17947444Y-16220436D02*
X17956968Y-16201388D01*
X17956968Y-16201388D02*
X17956968Y-16153769D01*
X17956968Y-16153769D02*
X17947444Y-16134722D01*
X17947444Y-16134722D02*
X17937920Y-16125198D01*
X17937920Y-16125198D02*
X17918872Y-16115674D01*
X17918872Y-16115674D02*
X17880777Y-16115674D01*
X17880777Y-16115674D02*
X17861729Y-16125198D01*
X17861729Y-16125198D02*
X17852206Y-16134722D01*
X17852206Y-16134722D02*
X17842682Y-16153769D01*
X18080777Y-16039484D02*
X18099825Y-16039484D01*
X18099825Y-16039484D02*
X18118872Y-16049008D01*
X18118872Y-16049008D02*
X18128396Y-16058531D01*
X18128396Y-16058531D02*
X18137920Y-16077579D01*
X18137920Y-16077579D02*
X18147444Y-16115674D01*
X18147444Y-16115674D02*
X18147444Y-16163293D01*
X18147444Y-16163293D02*
X18137920Y-16201388D01*
X18137920Y-16201388D02*
X18128396Y-16220436D01*
X18128396Y-16220436D02*
X18118872Y-16229960D01*
X18118872Y-16229960D02*
X18099825Y-16239484D01*
X18099825Y-16239484D02*
X18080777Y-16239484D01*
X18080777Y-16239484D02*
X18061729Y-16229960D01*
X18061729Y-16229960D02*
X18052206Y-16220436D01*
X18052206Y-16220436D02*
X18042682Y-16201388D01*
X18042682Y-16201388D02*
X18033158Y-16163293D01*
X18033158Y-16163293D02*
X18033158Y-16115674D01*
X18033158Y-16115674D02*
X18042682Y-16077579D01*
X18042682Y-16077579D02*
X18052206Y-16058531D01*
X18052206Y-16058531D02*
X18061729Y-16049008D01*
X18061729Y-16049008D02*
X18080777Y-16039484D01*
X18223634Y-16039484D02*
X18223634Y-16077579D01*
X18299825Y-16039484D02*
X18299825Y-16077579D01*
X18595063Y-16315674D02*
X18585539Y-16306150D01*
X18585539Y-16306150D02*
X18566491Y-16277579D01*
X18566491Y-16277579D02*
X18556968Y-16258531D01*
X18556968Y-16258531D02*
X18547444Y-16229960D01*
X18547444Y-16229960D02*
X18537920Y-16182341D01*
X18537920Y-16182341D02*
X18537920Y-16144246D01*
X18537920Y-16144246D02*
X18547444Y-16096627D01*
X18547444Y-16096627D02*
X18556968Y-16068055D01*
X18556968Y-16068055D02*
X18566491Y-16049008D01*
X18566491Y-16049008D02*
X18585539Y-16020436D01*
X18585539Y-16020436D02*
X18595063Y-16010912D01*
X18756968Y-16106150D02*
X18756968Y-16239484D01*
X18709349Y-16029960D02*
X18661730Y-16172817D01*
X18661730Y-16172817D02*
X18785539Y-16172817D01*
X19014111Y-16239484D02*
X19014111Y-16039484D01*
X19099825Y-16239484D02*
X19099825Y-16134722D01*
X19099825Y-16134722D02*
X19090301Y-16115674D01*
X19090301Y-16115674D02*
X19071253Y-16106150D01*
X19071253Y-16106150D02*
X19042682Y-16106150D01*
X19042682Y-16106150D02*
X19023634Y-16115674D01*
X19023634Y-16115674D02*
X19014111Y-16125198D01*
X19223634Y-16239484D02*
X19204587Y-16229960D01*
X19204587Y-16229960D02*
X19195063Y-16220436D01*
X19195063Y-16220436D02*
X19185539Y-16201388D01*
X19185539Y-16201388D02*
X19185539Y-16144246D01*
X19185539Y-16144246D02*
X19195063Y-16125198D01*
X19195063Y-16125198D02*
X19204587Y-16115674D01*
X19204587Y-16115674D02*
X19223634Y-16106150D01*
X19223634Y-16106150D02*
X19252206Y-16106150D01*
X19252206Y-16106150D02*
X19271253Y-16115674D01*
X19271253Y-16115674D02*
X19280777Y-16125198D01*
X19280777Y-16125198D02*
X19290301Y-16144246D01*
X19290301Y-16144246D02*
X19290301Y-16201388D01*
X19290301Y-16201388D02*
X19280777Y-16220436D01*
X19280777Y-16220436D02*
X19271253Y-16229960D01*
X19271253Y-16229960D02*
X19252206Y-16239484D01*
X19252206Y-16239484D02*
X19223634Y-16239484D01*
X19404587Y-16239484D02*
X19385539Y-16229960D01*
X19385539Y-16229960D02*
X19376015Y-16210912D01*
X19376015Y-16210912D02*
X19376015Y-16039484D01*
X19556968Y-16229960D02*
X19537920Y-16239484D01*
X19537920Y-16239484D02*
X19499825Y-16239484D01*
X19499825Y-16239484D02*
X19480777Y-16229960D01*
X19480777Y-16229960D02*
X19471253Y-16210912D01*
X19471253Y-16210912D02*
X19471253Y-16134722D01*
X19471253Y-16134722D02*
X19480777Y-16115674D01*
X19480777Y-16115674D02*
X19499825Y-16106150D01*
X19499825Y-16106150D02*
X19537920Y-16106150D01*
X19537920Y-16106150D02*
X19556968Y-16115674D01*
X19556968Y-16115674D02*
X19566492Y-16134722D01*
X19566492Y-16134722D02*
X19566492Y-16153769D01*
X19566492Y-16153769D02*
X19471253Y-16172817D01*
X19642682Y-16229960D02*
X19661730Y-16239484D01*
X19661730Y-16239484D02*
X19699825Y-16239484D01*
X19699825Y-16239484D02*
X19718873Y-16229960D01*
X19718873Y-16229960D02*
X19728396Y-16210912D01*
X19728396Y-16210912D02*
X19728396Y-16201388D01*
X19728396Y-16201388D02*
X19718873Y-16182341D01*
X19718873Y-16182341D02*
X19699825Y-16172817D01*
X19699825Y-16172817D02*
X19671253Y-16172817D01*
X19671253Y-16172817D02*
X19652206Y-16163293D01*
X19652206Y-16163293D02*
X19642682Y-16144246D01*
X19642682Y-16144246D02*
X19642682Y-16134722D01*
X19642682Y-16134722D02*
X19652206Y-16115674D01*
X19652206Y-16115674D02*
X19671253Y-16106150D01*
X19671253Y-16106150D02*
X19699825Y-16106150D01*
X19699825Y-16106150D02*
X19718873Y-16115674D01*
X19795063Y-16315674D02*
X19804587Y-16306150D01*
X19804587Y-16306150D02*
X19823634Y-16277579D01*
X19823634Y-16277579D02*
X19833158Y-16258531D01*
X19833158Y-16258531D02*
X19842682Y-16229960D01*
X19842682Y-16229960D02*
X19852206Y-16182341D01*
X19852206Y-16182341D02*
X19852206Y-16144246D01*
X19852206Y-16144246D02*
X19842682Y-16096627D01*
X19842682Y-16096627D02*
X19833158Y-16068055D01*
X19833158Y-16068055D02*
X19823634Y-16049008D01*
X19823634Y-16049008D02*
X19804587Y-16020436D01*
X19804587Y-16020436D02*
X19795063Y-16010912D01*
M02*
