G04 #@! TF.GenerationSoftware,KiCad,Pcbnew,8.0.4*
G04 #@! TF.CreationDate,2024-11-10T19:37:50+01:00*
G04 #@! TF.ProjectId,SchrackCounter,53636872-6163-46b4-936f-756e7465722e,v0.0.4*
G04 #@! TF.SameCoordinates,Original*
G04 #@! TF.FileFunction,Profile,NP*
%FSLAX46Y46*%
G04 Gerber Fmt 4.6, Leading zero omitted, Abs format (unit mm)*
G04 Created by KiCad (PCBNEW 8.0.4) date 2024-11-10 19:37:50*
%MOMM*%
%LPD*%
G01*
G04 APERTURE LIST*
G04 #@! TA.AperFunction,Profile*
%ADD10C,0.100000*%
G04 #@! TD*
G04 APERTURE END LIST*
D10*
X156250000Y-53330000D02*
X152750000Y-53330000D01*
X150250000Y-55830000D02*
X152750000Y-53330000D01*
X157500000Y-140580000D02*
X160500000Y-137580000D01*
X248750000Y-139330000D02*
X248750000Y-135830000D01*
X152750000Y-141830000D02*
X150250000Y-139330000D01*
X162000000Y-57580000D02*
X238500000Y-57580000D01*
X244500000Y-53330000D02*
X246250000Y-53330000D01*
X247500000Y-134580000D02*
X248750000Y-135830000D01*
X240250000Y-55830000D02*
X238500000Y-57580000D01*
X151500000Y-60580000D02*
X150250000Y-59330000D01*
X150250000Y-135830000D02*
X154500000Y-131580000D01*
X152750000Y-141830000D02*
X156250000Y-141830000D01*
X247500000Y-134580000D02*
X244500000Y-131580000D01*
X244500000Y-63580000D02*
X244500000Y-131580000D01*
X151500000Y-60580000D02*
X154500000Y-63580000D01*
X248750000Y-55830000D02*
X248750000Y-59330000D01*
X242750000Y-141830000D02*
X246250000Y-141830000D01*
X154500000Y-131580000D02*
X154500000Y-63580000D01*
X246250000Y-53330000D02*
X248750000Y-55830000D01*
X150250000Y-135830000D02*
X150250000Y-139330000D01*
X157500000Y-140580000D02*
X156250000Y-141830000D01*
X162000000Y-57580000D02*
X160500000Y-57580000D01*
X150250000Y-55830000D02*
X150250000Y-59330000D01*
X248750000Y-139330000D02*
X246250000Y-141830000D01*
X244500000Y-53330000D02*
X242750000Y-53330000D01*
X248750000Y-59330000D02*
X246250000Y-61830000D01*
X246250000Y-61830000D02*
X244500000Y-63580000D01*
X242750000Y-53330000D02*
X240250000Y-55830000D01*
X156250000Y-53330000D02*
X160500000Y-57580000D01*
X242750000Y-141830000D02*
X238500000Y-137580000D01*
X160500000Y-137580000D02*
X238500000Y-137580000D01*
M02*
