%TF.GenerationSoftware,KiCad,Pcbnew,8.0.4*%
%TF.CreationDate,2024-11-10T19:38:01+01:00*%
%TF.ProjectId,SchrackCounter,53636872-6163-46b4-936f-756e7465722e,v0.0.4*%
%TF.SameCoordinates,Original*%
%TF.FileFunction,Drillmap*%
%TF.FilePolarity,Positive*%
%FSLAX45Y45*%
G04 Gerber Fmt 4.5, Leading zero omitted, Abs format (unit mm)*
G04 Created by KiCad (PCBNEW 8.0.4) date 2024-11-10 19:38:01*
%MOMM*%
%LPD*%
G01*
G04 APERTURE LIST*
%ADD10C,0.100000*%
%ADD11C,0.200000*%
G04 APERTURE END LIST*
D10*
X15625000Y-5333000D02*
X15275000Y-5333000D01*
X15025000Y-5583000D02*
X15275000Y-5333000D01*
X15750000Y-14058000D02*
X16050000Y-13758000D01*
X24875000Y-13933000D02*
X24875000Y-13583000D01*
X15275000Y-14183000D02*
X15025000Y-13933000D01*
X16200000Y-5758000D02*
X23850000Y-5758000D01*
X24450000Y-5333000D02*
X24625000Y-5333000D01*
X24750000Y-13458000D02*
X24875000Y-13583000D01*
X24025000Y-5583000D02*
X23850000Y-5758000D01*
X15150000Y-6058000D02*
X15025000Y-5933000D01*
X15025000Y-13583000D02*
X15450000Y-13158000D01*
X15275000Y-14183000D02*
X15625000Y-14183000D01*
X24750000Y-13458000D02*
X24450000Y-13158000D01*
X24450000Y-6358000D02*
X24450000Y-13158000D01*
X15150000Y-6058000D02*
X15450000Y-6358000D01*
X24875000Y-5583000D02*
X24875000Y-5933000D01*
X24275000Y-14183000D02*
X24625000Y-14183000D01*
X15450000Y-13158000D02*
X15450000Y-6358000D01*
X24625000Y-5333000D02*
X24875000Y-5583000D01*
X15025000Y-13583000D02*
X15025000Y-13933000D01*
X15750000Y-14058000D02*
X15625000Y-14183000D01*
X16200000Y-5758000D02*
X16050000Y-5758000D01*
X15025000Y-5583000D02*
X15025000Y-5933000D01*
X24875000Y-13933000D02*
X24625000Y-14183000D01*
X24450000Y-5333000D02*
X24275000Y-5333000D01*
X24875000Y-5933000D02*
X24625000Y-6183000D01*
X24625000Y-6183000D02*
X24450000Y-6358000D01*
X24275000Y-5333000D02*
X24025000Y-5583000D01*
X15625000Y-5333000D02*
X16050000Y-5758000D01*
X24275000Y-14183000D02*
X23850000Y-13758000D01*
X16050000Y-13758000D02*
X23850000Y-13758000D01*
D11*
D10*
X20306000Y-13156250D02*
X20366000Y-13216250D01*
X20366000Y-13156250D02*
X20306000Y-13216250D01*
X20884000Y-13156250D02*
X20944000Y-13216250D01*
X20944000Y-13156250D02*
X20884000Y-13216250D01*
D11*
X15280777Y-14499484D02*
X15280777Y-14299484D01*
X15280777Y-14299484D02*
X15328396Y-14299484D01*
X15328396Y-14299484D02*
X15356967Y-14309008D01*
X15356967Y-14309008D02*
X15376015Y-14328055D01*
X15376015Y-14328055D02*
X15385539Y-14347103D01*
X15385539Y-14347103D02*
X15395062Y-14385198D01*
X15395062Y-14385198D02*
X15395062Y-14413769D01*
X15395062Y-14413769D02*
X15385539Y-14451865D01*
X15385539Y-14451865D02*
X15376015Y-14470912D01*
X15376015Y-14470912D02*
X15356967Y-14489960D01*
X15356967Y-14489960D02*
X15328396Y-14499484D01*
X15328396Y-14499484D02*
X15280777Y-14499484D01*
X15480777Y-14499484D02*
X15480777Y-14366150D01*
X15480777Y-14404246D02*
X15490301Y-14385198D01*
X15490301Y-14385198D02*
X15499824Y-14375674D01*
X15499824Y-14375674D02*
X15518872Y-14366150D01*
X15518872Y-14366150D02*
X15537920Y-14366150D01*
X15604586Y-14499484D02*
X15604586Y-14366150D01*
X15604586Y-14299484D02*
X15595062Y-14309008D01*
X15595062Y-14309008D02*
X15604586Y-14318531D01*
X15604586Y-14318531D02*
X15614110Y-14309008D01*
X15614110Y-14309008D02*
X15604586Y-14299484D01*
X15604586Y-14299484D02*
X15604586Y-14318531D01*
X15728396Y-14499484D02*
X15709348Y-14489960D01*
X15709348Y-14489960D02*
X15699824Y-14470912D01*
X15699824Y-14470912D02*
X15699824Y-14299484D01*
X15833158Y-14499484D02*
X15814110Y-14489960D01*
X15814110Y-14489960D02*
X15804586Y-14470912D01*
X15804586Y-14470912D02*
X15804586Y-14299484D01*
X16061729Y-14499484D02*
X16061729Y-14299484D01*
X16061729Y-14299484D02*
X16128396Y-14442341D01*
X16128396Y-14442341D02*
X16195062Y-14299484D01*
X16195062Y-14299484D02*
X16195062Y-14499484D01*
X16376015Y-14499484D02*
X16376015Y-14394722D01*
X16376015Y-14394722D02*
X16366491Y-14375674D01*
X16366491Y-14375674D02*
X16347443Y-14366150D01*
X16347443Y-14366150D02*
X16309348Y-14366150D01*
X16309348Y-14366150D02*
X16290301Y-14375674D01*
X16376015Y-14489960D02*
X16356967Y-14499484D01*
X16356967Y-14499484D02*
X16309348Y-14499484D01*
X16309348Y-14499484D02*
X16290301Y-14489960D01*
X16290301Y-14489960D02*
X16280777Y-14470912D01*
X16280777Y-14470912D02*
X16280777Y-14451865D01*
X16280777Y-14451865D02*
X16290301Y-14432817D01*
X16290301Y-14432817D02*
X16309348Y-14423293D01*
X16309348Y-14423293D02*
X16356967Y-14423293D01*
X16356967Y-14423293D02*
X16376015Y-14413769D01*
X16471253Y-14366150D02*
X16471253Y-14566150D01*
X16471253Y-14375674D02*
X16490301Y-14366150D01*
X16490301Y-14366150D02*
X16528396Y-14366150D01*
X16528396Y-14366150D02*
X16547443Y-14375674D01*
X16547443Y-14375674D02*
X16556967Y-14385198D01*
X16556967Y-14385198D02*
X16566491Y-14404246D01*
X16566491Y-14404246D02*
X16566491Y-14461388D01*
X16566491Y-14461388D02*
X16556967Y-14480436D01*
X16556967Y-14480436D02*
X16547443Y-14489960D01*
X16547443Y-14489960D02*
X16528396Y-14499484D01*
X16528396Y-14499484D02*
X16490301Y-14499484D01*
X16490301Y-14499484D02*
X16471253Y-14489960D01*
X16652205Y-14480436D02*
X16661729Y-14489960D01*
X16661729Y-14489960D02*
X16652205Y-14499484D01*
X16652205Y-14499484D02*
X16642682Y-14489960D01*
X16642682Y-14489960D02*
X16652205Y-14480436D01*
X16652205Y-14480436D02*
X16652205Y-14499484D01*
X16652205Y-14375674D02*
X16661729Y-14385198D01*
X16661729Y-14385198D02*
X16652205Y-14394722D01*
X16652205Y-14394722D02*
X16642682Y-14385198D01*
X16642682Y-14385198D02*
X16652205Y-14375674D01*
X16652205Y-14375674D02*
X16652205Y-14394722D01*
D10*
X14960000Y-14798000D02*
X15020000Y-14858000D01*
X15020000Y-14798000D02*
X14960000Y-14858000D01*
D11*
X15318872Y-14719484D02*
X15337920Y-14719484D01*
X15337920Y-14719484D02*
X15356967Y-14729008D01*
X15356967Y-14729008D02*
X15366491Y-14738531D01*
X15366491Y-14738531D02*
X15376015Y-14757579D01*
X15376015Y-14757579D02*
X15385539Y-14795674D01*
X15385539Y-14795674D02*
X15385539Y-14843293D01*
X15385539Y-14843293D02*
X15376015Y-14881388D01*
X15376015Y-14881388D02*
X15366491Y-14900436D01*
X15366491Y-14900436D02*
X15356967Y-14909960D01*
X15356967Y-14909960D02*
X15337920Y-14919484D01*
X15337920Y-14919484D02*
X15318872Y-14919484D01*
X15318872Y-14919484D02*
X15299824Y-14909960D01*
X15299824Y-14909960D02*
X15290301Y-14900436D01*
X15290301Y-14900436D02*
X15280777Y-14881388D01*
X15280777Y-14881388D02*
X15271253Y-14843293D01*
X15271253Y-14843293D02*
X15271253Y-14795674D01*
X15271253Y-14795674D02*
X15280777Y-14757579D01*
X15280777Y-14757579D02*
X15290301Y-14738531D01*
X15290301Y-14738531D02*
X15299824Y-14729008D01*
X15299824Y-14729008D02*
X15318872Y-14719484D01*
X15471253Y-14900436D02*
X15480777Y-14909960D01*
X15480777Y-14909960D02*
X15471253Y-14919484D01*
X15471253Y-14919484D02*
X15461729Y-14909960D01*
X15461729Y-14909960D02*
X15471253Y-14900436D01*
X15471253Y-14900436D02*
X15471253Y-14919484D01*
X15652205Y-14719484D02*
X15614110Y-14719484D01*
X15614110Y-14719484D02*
X15595062Y-14729008D01*
X15595062Y-14729008D02*
X15585539Y-14738531D01*
X15585539Y-14738531D02*
X15566491Y-14767103D01*
X15566491Y-14767103D02*
X15556967Y-14805198D01*
X15556967Y-14805198D02*
X15556967Y-14881388D01*
X15556967Y-14881388D02*
X15566491Y-14900436D01*
X15566491Y-14900436D02*
X15576015Y-14909960D01*
X15576015Y-14909960D02*
X15595062Y-14919484D01*
X15595062Y-14919484D02*
X15633158Y-14919484D01*
X15633158Y-14919484D02*
X15652205Y-14909960D01*
X15652205Y-14909960D02*
X15661729Y-14900436D01*
X15661729Y-14900436D02*
X15671253Y-14881388D01*
X15671253Y-14881388D02*
X15671253Y-14833769D01*
X15671253Y-14833769D02*
X15661729Y-14814722D01*
X15661729Y-14814722D02*
X15652205Y-14805198D01*
X15652205Y-14805198D02*
X15633158Y-14795674D01*
X15633158Y-14795674D02*
X15595062Y-14795674D01*
X15595062Y-14795674D02*
X15576015Y-14805198D01*
X15576015Y-14805198D02*
X15566491Y-14814722D01*
X15566491Y-14814722D02*
X15556967Y-14833769D01*
X15795062Y-14719484D02*
X15814110Y-14719484D01*
X15814110Y-14719484D02*
X15833158Y-14729008D01*
X15833158Y-14729008D02*
X15842682Y-14738531D01*
X15842682Y-14738531D02*
X15852205Y-14757579D01*
X15852205Y-14757579D02*
X15861729Y-14795674D01*
X15861729Y-14795674D02*
X15861729Y-14843293D01*
X15861729Y-14843293D02*
X15852205Y-14881388D01*
X15852205Y-14881388D02*
X15842682Y-14900436D01*
X15842682Y-14900436D02*
X15833158Y-14909960D01*
X15833158Y-14909960D02*
X15814110Y-14919484D01*
X15814110Y-14919484D02*
X15795062Y-14919484D01*
X15795062Y-14919484D02*
X15776015Y-14909960D01*
X15776015Y-14909960D02*
X15766491Y-14900436D01*
X15766491Y-14900436D02*
X15756967Y-14881388D01*
X15756967Y-14881388D02*
X15747443Y-14843293D01*
X15747443Y-14843293D02*
X15747443Y-14795674D01*
X15747443Y-14795674D02*
X15756967Y-14757579D01*
X15756967Y-14757579D02*
X15766491Y-14738531D01*
X15766491Y-14738531D02*
X15776015Y-14729008D01*
X15776015Y-14729008D02*
X15795062Y-14719484D01*
X15985539Y-14719484D02*
X16004586Y-14719484D01*
X16004586Y-14719484D02*
X16023634Y-14729008D01*
X16023634Y-14729008D02*
X16033158Y-14738531D01*
X16033158Y-14738531D02*
X16042682Y-14757579D01*
X16042682Y-14757579D02*
X16052205Y-14795674D01*
X16052205Y-14795674D02*
X16052205Y-14843293D01*
X16052205Y-14843293D02*
X16042682Y-14881388D01*
X16042682Y-14881388D02*
X16033158Y-14900436D01*
X16033158Y-14900436D02*
X16023634Y-14909960D01*
X16023634Y-14909960D02*
X16004586Y-14919484D01*
X16004586Y-14919484D02*
X15985539Y-14919484D01*
X15985539Y-14919484D02*
X15966491Y-14909960D01*
X15966491Y-14909960D02*
X15956967Y-14900436D01*
X15956967Y-14900436D02*
X15947443Y-14881388D01*
X15947443Y-14881388D02*
X15937920Y-14843293D01*
X15937920Y-14843293D02*
X15937920Y-14795674D01*
X15937920Y-14795674D02*
X15947443Y-14757579D01*
X15947443Y-14757579D02*
X15956967Y-14738531D01*
X15956967Y-14738531D02*
X15966491Y-14729008D01*
X15966491Y-14729008D02*
X15985539Y-14719484D01*
X16137920Y-14919484D02*
X16137920Y-14786150D01*
X16137920Y-14805198D02*
X16147443Y-14795674D01*
X16147443Y-14795674D02*
X16166491Y-14786150D01*
X16166491Y-14786150D02*
X16195063Y-14786150D01*
X16195063Y-14786150D02*
X16214110Y-14795674D01*
X16214110Y-14795674D02*
X16223634Y-14814722D01*
X16223634Y-14814722D02*
X16223634Y-14919484D01*
X16223634Y-14814722D02*
X16233158Y-14795674D01*
X16233158Y-14795674D02*
X16252205Y-14786150D01*
X16252205Y-14786150D02*
X16280777Y-14786150D01*
X16280777Y-14786150D02*
X16299824Y-14795674D01*
X16299824Y-14795674D02*
X16309348Y-14814722D01*
X16309348Y-14814722D02*
X16309348Y-14919484D01*
X16404586Y-14919484D02*
X16404586Y-14786150D01*
X16404586Y-14805198D02*
X16414110Y-14795674D01*
X16414110Y-14795674D02*
X16433158Y-14786150D01*
X16433158Y-14786150D02*
X16461729Y-14786150D01*
X16461729Y-14786150D02*
X16480777Y-14795674D01*
X16480777Y-14795674D02*
X16490301Y-14814722D01*
X16490301Y-14814722D02*
X16490301Y-14919484D01*
X16490301Y-14814722D02*
X16499824Y-14795674D01*
X16499824Y-14795674D02*
X16518872Y-14786150D01*
X16518872Y-14786150D02*
X16547443Y-14786150D01*
X16547443Y-14786150D02*
X16566491Y-14795674D01*
X16566491Y-14795674D02*
X16576015Y-14814722D01*
X16576015Y-14814722D02*
X16576015Y-14919484D01*
X16966491Y-14709960D02*
X16795063Y-14967103D01*
X17223634Y-14719484D02*
X17242682Y-14719484D01*
X17242682Y-14719484D02*
X17261729Y-14729008D01*
X17261729Y-14729008D02*
X17271253Y-14738531D01*
X17271253Y-14738531D02*
X17280777Y-14757579D01*
X17280777Y-14757579D02*
X17290301Y-14795674D01*
X17290301Y-14795674D02*
X17290301Y-14843293D01*
X17290301Y-14843293D02*
X17280777Y-14881388D01*
X17280777Y-14881388D02*
X17271253Y-14900436D01*
X17271253Y-14900436D02*
X17261729Y-14909960D01*
X17261729Y-14909960D02*
X17242682Y-14919484D01*
X17242682Y-14919484D02*
X17223634Y-14919484D01*
X17223634Y-14919484D02*
X17204587Y-14909960D01*
X17204587Y-14909960D02*
X17195063Y-14900436D01*
X17195063Y-14900436D02*
X17185539Y-14881388D01*
X17185539Y-14881388D02*
X17176015Y-14843293D01*
X17176015Y-14843293D02*
X17176015Y-14795674D01*
X17176015Y-14795674D02*
X17185539Y-14757579D01*
X17185539Y-14757579D02*
X17195063Y-14738531D01*
X17195063Y-14738531D02*
X17204587Y-14729008D01*
X17204587Y-14729008D02*
X17223634Y-14719484D01*
X17376015Y-14900436D02*
X17385539Y-14909960D01*
X17385539Y-14909960D02*
X17376015Y-14919484D01*
X17376015Y-14919484D02*
X17366491Y-14909960D01*
X17366491Y-14909960D02*
X17376015Y-14900436D01*
X17376015Y-14900436D02*
X17376015Y-14919484D01*
X17509348Y-14719484D02*
X17528396Y-14719484D01*
X17528396Y-14719484D02*
X17547444Y-14729008D01*
X17547444Y-14729008D02*
X17556968Y-14738531D01*
X17556968Y-14738531D02*
X17566491Y-14757579D01*
X17566491Y-14757579D02*
X17576015Y-14795674D01*
X17576015Y-14795674D02*
X17576015Y-14843293D01*
X17576015Y-14843293D02*
X17566491Y-14881388D01*
X17566491Y-14881388D02*
X17556968Y-14900436D01*
X17556968Y-14900436D02*
X17547444Y-14909960D01*
X17547444Y-14909960D02*
X17528396Y-14919484D01*
X17528396Y-14919484D02*
X17509348Y-14919484D01*
X17509348Y-14919484D02*
X17490301Y-14909960D01*
X17490301Y-14909960D02*
X17480777Y-14900436D01*
X17480777Y-14900436D02*
X17471253Y-14881388D01*
X17471253Y-14881388D02*
X17461729Y-14843293D01*
X17461729Y-14843293D02*
X17461729Y-14795674D01*
X17461729Y-14795674D02*
X17471253Y-14757579D01*
X17471253Y-14757579D02*
X17480777Y-14738531D01*
X17480777Y-14738531D02*
X17490301Y-14729008D01*
X17490301Y-14729008D02*
X17509348Y-14719484D01*
X17652206Y-14738531D02*
X17661729Y-14729008D01*
X17661729Y-14729008D02*
X17680777Y-14719484D01*
X17680777Y-14719484D02*
X17728396Y-14719484D01*
X17728396Y-14719484D02*
X17747444Y-14729008D01*
X17747444Y-14729008D02*
X17756968Y-14738531D01*
X17756968Y-14738531D02*
X17766491Y-14757579D01*
X17766491Y-14757579D02*
X17766491Y-14776627D01*
X17766491Y-14776627D02*
X17756968Y-14805198D01*
X17756968Y-14805198D02*
X17642682Y-14919484D01*
X17642682Y-14919484D02*
X17766491Y-14919484D01*
X17833158Y-14719484D02*
X17956968Y-14719484D01*
X17956968Y-14719484D02*
X17890301Y-14795674D01*
X17890301Y-14795674D02*
X17918872Y-14795674D01*
X17918872Y-14795674D02*
X17937920Y-14805198D01*
X17937920Y-14805198D02*
X17947444Y-14814722D01*
X17947444Y-14814722D02*
X17956968Y-14833769D01*
X17956968Y-14833769D02*
X17956968Y-14881388D01*
X17956968Y-14881388D02*
X17947444Y-14900436D01*
X17947444Y-14900436D02*
X17937920Y-14909960D01*
X17937920Y-14909960D02*
X17918872Y-14919484D01*
X17918872Y-14919484D02*
X17861729Y-14919484D01*
X17861729Y-14919484D02*
X17842682Y-14909960D01*
X17842682Y-14909960D02*
X17833158Y-14900436D01*
X18128396Y-14719484D02*
X18090301Y-14719484D01*
X18090301Y-14719484D02*
X18071253Y-14729008D01*
X18071253Y-14729008D02*
X18061729Y-14738531D01*
X18061729Y-14738531D02*
X18042682Y-14767103D01*
X18042682Y-14767103D02*
X18033158Y-14805198D01*
X18033158Y-14805198D02*
X18033158Y-14881388D01*
X18033158Y-14881388D02*
X18042682Y-14900436D01*
X18042682Y-14900436D02*
X18052206Y-14909960D01*
X18052206Y-14909960D02*
X18071253Y-14919484D01*
X18071253Y-14919484D02*
X18109349Y-14919484D01*
X18109349Y-14919484D02*
X18128396Y-14909960D01*
X18128396Y-14909960D02*
X18137920Y-14900436D01*
X18137920Y-14900436D02*
X18147444Y-14881388D01*
X18147444Y-14881388D02*
X18147444Y-14833769D01*
X18147444Y-14833769D02*
X18137920Y-14814722D01*
X18137920Y-14814722D02*
X18128396Y-14805198D01*
X18128396Y-14805198D02*
X18109349Y-14795674D01*
X18109349Y-14795674D02*
X18071253Y-14795674D01*
X18071253Y-14795674D02*
X18052206Y-14805198D01*
X18052206Y-14805198D02*
X18042682Y-14814722D01*
X18042682Y-14814722D02*
X18033158Y-14833769D01*
X18223634Y-14719484D02*
X18223634Y-14757579D01*
X18299825Y-14719484D02*
X18299825Y-14757579D01*
X18595063Y-14995674D02*
X18585539Y-14986150D01*
X18585539Y-14986150D02*
X18566491Y-14957579D01*
X18566491Y-14957579D02*
X18556968Y-14938531D01*
X18556968Y-14938531D02*
X18547444Y-14909960D01*
X18547444Y-14909960D02*
X18537920Y-14862341D01*
X18537920Y-14862341D02*
X18537920Y-14824246D01*
X18537920Y-14824246D02*
X18547444Y-14776627D01*
X18547444Y-14776627D02*
X18556968Y-14748055D01*
X18556968Y-14748055D02*
X18566491Y-14729008D01*
X18566491Y-14729008D02*
X18585539Y-14700436D01*
X18585539Y-14700436D02*
X18595063Y-14690912D01*
X18661730Y-14738531D02*
X18671253Y-14729008D01*
X18671253Y-14729008D02*
X18690301Y-14719484D01*
X18690301Y-14719484D02*
X18737920Y-14719484D01*
X18737920Y-14719484D02*
X18756968Y-14729008D01*
X18756968Y-14729008D02*
X18766491Y-14738531D01*
X18766491Y-14738531D02*
X18776015Y-14757579D01*
X18776015Y-14757579D02*
X18776015Y-14776627D01*
X18776015Y-14776627D02*
X18766491Y-14805198D01*
X18766491Y-14805198D02*
X18652206Y-14919484D01*
X18652206Y-14919484D02*
X18776015Y-14919484D01*
X19014111Y-14919484D02*
X19014111Y-14719484D01*
X19099825Y-14919484D02*
X19099825Y-14814722D01*
X19099825Y-14814722D02*
X19090301Y-14795674D01*
X19090301Y-14795674D02*
X19071253Y-14786150D01*
X19071253Y-14786150D02*
X19042682Y-14786150D01*
X19042682Y-14786150D02*
X19023634Y-14795674D01*
X19023634Y-14795674D02*
X19014111Y-14805198D01*
X19223634Y-14919484D02*
X19204587Y-14909960D01*
X19204587Y-14909960D02*
X19195063Y-14900436D01*
X19195063Y-14900436D02*
X19185539Y-14881388D01*
X19185539Y-14881388D02*
X19185539Y-14824246D01*
X19185539Y-14824246D02*
X19195063Y-14805198D01*
X19195063Y-14805198D02*
X19204587Y-14795674D01*
X19204587Y-14795674D02*
X19223634Y-14786150D01*
X19223634Y-14786150D02*
X19252206Y-14786150D01*
X19252206Y-14786150D02*
X19271253Y-14795674D01*
X19271253Y-14795674D02*
X19280777Y-14805198D01*
X19280777Y-14805198D02*
X19290301Y-14824246D01*
X19290301Y-14824246D02*
X19290301Y-14881388D01*
X19290301Y-14881388D02*
X19280777Y-14900436D01*
X19280777Y-14900436D02*
X19271253Y-14909960D01*
X19271253Y-14909960D02*
X19252206Y-14919484D01*
X19252206Y-14919484D02*
X19223634Y-14919484D01*
X19404587Y-14919484D02*
X19385539Y-14909960D01*
X19385539Y-14909960D02*
X19376015Y-14890912D01*
X19376015Y-14890912D02*
X19376015Y-14719484D01*
X19556968Y-14909960D02*
X19537920Y-14919484D01*
X19537920Y-14919484D02*
X19499825Y-14919484D01*
X19499825Y-14919484D02*
X19480777Y-14909960D01*
X19480777Y-14909960D02*
X19471253Y-14890912D01*
X19471253Y-14890912D02*
X19471253Y-14814722D01*
X19471253Y-14814722D02*
X19480777Y-14795674D01*
X19480777Y-14795674D02*
X19499825Y-14786150D01*
X19499825Y-14786150D02*
X19537920Y-14786150D01*
X19537920Y-14786150D02*
X19556968Y-14795674D01*
X19556968Y-14795674D02*
X19566492Y-14814722D01*
X19566492Y-14814722D02*
X19566492Y-14833769D01*
X19566492Y-14833769D02*
X19471253Y-14852817D01*
X19642682Y-14909960D02*
X19661730Y-14919484D01*
X19661730Y-14919484D02*
X19699825Y-14919484D01*
X19699825Y-14919484D02*
X19718873Y-14909960D01*
X19718873Y-14909960D02*
X19728396Y-14890912D01*
X19728396Y-14890912D02*
X19728396Y-14881388D01*
X19728396Y-14881388D02*
X19718873Y-14862341D01*
X19718873Y-14862341D02*
X19699825Y-14852817D01*
X19699825Y-14852817D02*
X19671253Y-14852817D01*
X19671253Y-14852817D02*
X19652206Y-14843293D01*
X19652206Y-14843293D02*
X19642682Y-14824246D01*
X19642682Y-14824246D02*
X19642682Y-14814722D01*
X19642682Y-14814722D02*
X19652206Y-14795674D01*
X19652206Y-14795674D02*
X19671253Y-14786150D01*
X19671253Y-14786150D02*
X19699825Y-14786150D01*
X19699825Y-14786150D02*
X19718873Y-14795674D01*
X19795063Y-14995674D02*
X19804587Y-14986150D01*
X19804587Y-14986150D02*
X19823634Y-14957579D01*
X19823634Y-14957579D02*
X19833158Y-14938531D01*
X19833158Y-14938531D02*
X19842682Y-14909960D01*
X19842682Y-14909960D02*
X19852206Y-14862341D01*
X19852206Y-14862341D02*
X19852206Y-14824246D01*
X19852206Y-14824246D02*
X19842682Y-14776627D01*
X19842682Y-14776627D02*
X19833158Y-14748055D01*
X19833158Y-14748055D02*
X19823634Y-14729008D01*
X19823634Y-14729008D02*
X19804587Y-14700436D01*
X19804587Y-14700436D02*
X19795063Y-14690912D01*
X20156968Y-14995674D02*
X20147444Y-14986150D01*
X20147444Y-14986150D02*
X20128396Y-14957579D01*
X20128396Y-14957579D02*
X20118873Y-14938531D01*
X20118873Y-14938531D02*
X20109349Y-14909960D01*
X20109349Y-14909960D02*
X20099825Y-14862341D01*
X20099825Y-14862341D02*
X20099825Y-14824246D01*
X20099825Y-14824246D02*
X20109349Y-14776627D01*
X20109349Y-14776627D02*
X20118873Y-14748055D01*
X20118873Y-14748055D02*
X20128396Y-14729008D01*
X20128396Y-14729008D02*
X20147444Y-14700436D01*
X20147444Y-14700436D02*
X20156968Y-14690912D01*
X20233158Y-14786150D02*
X20233158Y-14919484D01*
X20233158Y-14805198D02*
X20242682Y-14795674D01*
X20242682Y-14795674D02*
X20261730Y-14786150D01*
X20261730Y-14786150D02*
X20290301Y-14786150D01*
X20290301Y-14786150D02*
X20309349Y-14795674D01*
X20309349Y-14795674D02*
X20318873Y-14814722D01*
X20318873Y-14814722D02*
X20318873Y-14919484D01*
X20442682Y-14919484D02*
X20423634Y-14909960D01*
X20423634Y-14909960D02*
X20414111Y-14900436D01*
X20414111Y-14900436D02*
X20404587Y-14881388D01*
X20404587Y-14881388D02*
X20404587Y-14824246D01*
X20404587Y-14824246D02*
X20414111Y-14805198D01*
X20414111Y-14805198D02*
X20423634Y-14795674D01*
X20423634Y-14795674D02*
X20442682Y-14786150D01*
X20442682Y-14786150D02*
X20471254Y-14786150D01*
X20471254Y-14786150D02*
X20490301Y-14795674D01*
X20490301Y-14795674D02*
X20499825Y-14805198D01*
X20499825Y-14805198D02*
X20509349Y-14824246D01*
X20509349Y-14824246D02*
X20509349Y-14881388D01*
X20509349Y-14881388D02*
X20499825Y-14900436D01*
X20499825Y-14900436D02*
X20490301Y-14909960D01*
X20490301Y-14909960D02*
X20471254Y-14919484D01*
X20471254Y-14919484D02*
X20442682Y-14919484D01*
X20566492Y-14786150D02*
X20642682Y-14786150D01*
X20595063Y-14719484D02*
X20595063Y-14890912D01*
X20595063Y-14890912D02*
X20604587Y-14909960D01*
X20604587Y-14909960D02*
X20623634Y-14919484D01*
X20623634Y-14919484D02*
X20642682Y-14919484D01*
X20861730Y-14786150D02*
X20861730Y-14986150D01*
X20861730Y-14795674D02*
X20880777Y-14786150D01*
X20880777Y-14786150D02*
X20918873Y-14786150D01*
X20918873Y-14786150D02*
X20937920Y-14795674D01*
X20937920Y-14795674D02*
X20947444Y-14805198D01*
X20947444Y-14805198D02*
X20956968Y-14824246D01*
X20956968Y-14824246D02*
X20956968Y-14881388D01*
X20956968Y-14881388D02*
X20947444Y-14900436D01*
X20947444Y-14900436D02*
X20937920Y-14909960D01*
X20937920Y-14909960D02*
X20918873Y-14919484D01*
X20918873Y-14919484D02*
X20880777Y-14919484D01*
X20880777Y-14919484D02*
X20861730Y-14909960D01*
X21071254Y-14919484D02*
X21052206Y-14909960D01*
X21052206Y-14909960D02*
X21042682Y-14890912D01*
X21042682Y-14890912D02*
X21042682Y-14719484D01*
X21233158Y-14919484D02*
X21233158Y-14814722D01*
X21233158Y-14814722D02*
X21223635Y-14795674D01*
X21223635Y-14795674D02*
X21204587Y-14786150D01*
X21204587Y-14786150D02*
X21166492Y-14786150D01*
X21166492Y-14786150D02*
X21147444Y-14795674D01*
X21233158Y-14909960D02*
X21214111Y-14919484D01*
X21214111Y-14919484D02*
X21166492Y-14919484D01*
X21166492Y-14919484D02*
X21147444Y-14909960D01*
X21147444Y-14909960D02*
X21137920Y-14890912D01*
X21137920Y-14890912D02*
X21137920Y-14871865D01*
X21137920Y-14871865D02*
X21147444Y-14852817D01*
X21147444Y-14852817D02*
X21166492Y-14843293D01*
X21166492Y-14843293D02*
X21214111Y-14843293D01*
X21214111Y-14843293D02*
X21233158Y-14833769D01*
X21299825Y-14786150D02*
X21376015Y-14786150D01*
X21328396Y-14719484D02*
X21328396Y-14890912D01*
X21328396Y-14890912D02*
X21337920Y-14909960D01*
X21337920Y-14909960D02*
X21356968Y-14919484D01*
X21356968Y-14919484D02*
X21376015Y-14919484D01*
X21518873Y-14909960D02*
X21499825Y-14919484D01*
X21499825Y-14919484D02*
X21461730Y-14919484D01*
X21461730Y-14919484D02*
X21442682Y-14909960D01*
X21442682Y-14909960D02*
X21433158Y-14890912D01*
X21433158Y-14890912D02*
X21433158Y-14814722D01*
X21433158Y-14814722D02*
X21442682Y-14795674D01*
X21442682Y-14795674D02*
X21461730Y-14786150D01*
X21461730Y-14786150D02*
X21499825Y-14786150D01*
X21499825Y-14786150D02*
X21518873Y-14795674D01*
X21518873Y-14795674D02*
X21528396Y-14814722D01*
X21528396Y-14814722D02*
X21528396Y-14833769D01*
X21528396Y-14833769D02*
X21433158Y-14852817D01*
X21699825Y-14919484D02*
X21699825Y-14719484D01*
X21699825Y-14909960D02*
X21680777Y-14919484D01*
X21680777Y-14919484D02*
X21642682Y-14919484D01*
X21642682Y-14919484D02*
X21623635Y-14909960D01*
X21623635Y-14909960D02*
X21614111Y-14900436D01*
X21614111Y-14900436D02*
X21604587Y-14881388D01*
X21604587Y-14881388D02*
X21604587Y-14824246D01*
X21604587Y-14824246D02*
X21614111Y-14805198D01*
X21614111Y-14805198D02*
X21623635Y-14795674D01*
X21623635Y-14795674D02*
X21642682Y-14786150D01*
X21642682Y-14786150D02*
X21680777Y-14786150D01*
X21680777Y-14786150D02*
X21699825Y-14795674D01*
X21776016Y-14995674D02*
X21785539Y-14986150D01*
X21785539Y-14986150D02*
X21804587Y-14957579D01*
X21804587Y-14957579D02*
X21814111Y-14938531D01*
X21814111Y-14938531D02*
X21823635Y-14909960D01*
X21823635Y-14909960D02*
X21833158Y-14862341D01*
X21833158Y-14862341D02*
X21833158Y-14824246D01*
X21833158Y-14824246D02*
X21823635Y-14776627D01*
X21823635Y-14776627D02*
X21814111Y-14748055D01*
X21814111Y-14748055D02*
X21804587Y-14729008D01*
X21804587Y-14729008D02*
X21785539Y-14700436D01*
X21785539Y-14700436D02*
X21776016Y-14690912D01*
M02*
