M48
; DRILL file {KiCad 8.0.4} date 2024-11-10T19:38:00+0100
; FORMAT={-:-/ absolute / metric / decimal}
; #@! TF.CreationDate,2024-11-10T19:38:00+01:00
; #@! TF.GenerationSoftware,Kicad,Pcbnew,8.0.4
; #@! TF.FileFunction,Plated,1,4,PTH
FMAT,2
METRIC
; #@! TA.AperFunction,Plated,PTH,ViaDrill
T1C0.300
; #@! TA.AperFunction,Plated,PTH,ComponentDrill
T2C0.500
; #@! TA.AperFunction,Plated,PTH,ComponentDrill
T3C0.600
; #@! TA.AperFunction,Plated,PTH,ComponentDrill
T4C0.800
; #@! TA.AperFunction,Plated,PTH,ComponentDrill
T5C1.000
; #@! TA.AperFunction,Plated,PTH,ComponentDrill
T6C3.200
%
G90
G05
T1
X158.255Y-61.284
X158.255Y-64.284
X158.255Y-67.284
X158.255Y-70.284
X158.255Y-73.284
X158.255Y-76.284
X158.255Y-79.284
X158.255Y-82.284
X158.255Y-85.284
X158.255Y-88.284
X158.255Y-91.284
X158.255Y-94.284
X158.255Y-97.284
X158.255Y-100.284
X158.255Y-103.284
X158.255Y-106.284
X158.255Y-109.284
X158.255Y-112.284
X158.255Y-115.284
X158.255Y-118.284
X158.255Y-121.284
X158.255Y-124.284
X158.255Y-127.284
X158.255Y-130.284
X158.255Y-133.284
X160.0Y-117.08
X160.0Y-118.08
X160.0Y-119.08
X160.0Y-120.08
X160.0Y-121.08
X161.0Y-116.58
X161.0Y-117.58
X161.0Y-118.58
X161.0Y-119.58
X161.0Y-120.58
X161.0Y-121.58
X161.255Y-61.284
X161.255Y-64.284
X161.255Y-67.284
X161.255Y-70.284
X161.255Y-73.284
X161.255Y-76.284
X161.255Y-79.284
X161.255Y-82.284
X161.255Y-85.284
X161.255Y-88.284
X161.255Y-91.284
X161.255Y-94.284
X161.255Y-97.284
X161.255Y-100.284
X161.255Y-103.284
X161.255Y-106.284
X161.255Y-109.284
X161.255Y-112.284
X161.255Y-127.284
X161.255Y-130.284
X162.0Y-117.08
X162.0Y-118.08
X162.0Y-119.08
X162.0Y-120.08
X162.0Y-121.08
X162.9Y-77.78
X163.0Y-116.58
X163.0Y-117.58
X163.0Y-118.58
X163.0Y-119.58
X163.0Y-120.58
X163.0Y-121.58
X164.0Y-117.08
X164.0Y-118.08
X164.0Y-119.08
X164.0Y-120.08
X164.0Y-121.08
X164.255Y-88.284
X164.255Y-91.284
X164.255Y-94.284
X164.255Y-97.284
X164.255Y-100.284
X164.255Y-103.284
X164.255Y-106.284
X164.255Y-109.284
X164.255Y-130.284
X165.55Y-70.08
X165.7Y-64.28
X165.7Y-73.28
X165.85Y-67.63
X166.8Y-136.73
X167.255Y-88.284
X167.255Y-91.284
X167.255Y-94.284
X167.255Y-97.284
X167.255Y-100.284
X167.255Y-103.284
X167.255Y-106.284
X167.255Y-109.284
X167.35Y-135.98
X167.85Y-136.73
X168.0Y-79.03
X168.0Y-124.08
X168.5Y-75.22
X170.255Y-94.284
X170.255Y-97.284
X170.255Y-100.284
X170.255Y-103.284
X170.255Y-106.284
X170.255Y-109.284
X170.255Y-127.284
X170.255Y-130.284
X170.255Y-133.284
X170.255Y-136.284
X170.8Y-64.28
X170.8Y-71.48
X171.1Y-115.33
X172.0Y-68.88
X172.1Y-115.33
X172.2Y-118.78
X173.255Y-64.284
X173.255Y-82.284
X173.255Y-97.284
X173.255Y-100.284
X173.255Y-103.284
X173.255Y-106.284
X173.255Y-109.284
X173.255Y-124.284
X173.255Y-127.284
X173.255Y-130.284
X173.255Y-133.284
X173.255Y-136.284
X173.3Y-87.28
X173.4Y-70.08
X175.0Y-76.48
X176.255Y-64.284
X176.255Y-97.284
X176.255Y-100.284
X176.255Y-103.284
X176.255Y-106.284
X176.255Y-109.284
X176.255Y-124.284
X176.255Y-127.284
X176.255Y-130.284
X176.255Y-133.284
X176.3Y-67.58
X178.9Y-77.88
X179.25Y-124.28
X179.25Y-127.28
X179.255Y-97.284
X179.255Y-103.284
X179.255Y-106.284
X179.255Y-109.284
X179.255Y-115.284
X179.255Y-130.284
X179.255Y-133.284
X180.7Y-75.28
X180.9Y-64.28
X181.3Y-71.48
X182.25Y-92.33
X182.25Y-127.28
X182.25Y-130.28
X182.255Y-88.284
X182.255Y-97.284
X182.255Y-103.284
X182.255Y-106.284
X182.255Y-109.284
X182.255Y-115.284
X182.255Y-124.284
X182.255Y-133.284
X183.5Y-79.08
X184.7Y-68.88
X185.255Y-97.284
X185.255Y-103.284
X185.255Y-106.284
X185.255Y-109.284
X185.255Y-124.284
X185.8Y-76.58
X186.5Y-130.58
X188.25Y-111.33
X188.25Y-118.58
X188.255Y-61.284
X188.255Y-64.284
X188.255Y-73.284
X188.255Y-97.284
X188.255Y-100.284
X188.255Y-103.284
X188.255Y-106.284
X188.255Y-109.284
X188.255Y-121.284
X188.255Y-136.284
X189.275Y-131.542
X189.5Y-70.08
X189.9Y-88.28
X190.3Y-77.78
X191.255Y-61.284
X191.255Y-64.284
X191.255Y-73.284
X191.255Y-97.284
X191.255Y-100.284
X191.255Y-103.284
X191.255Y-106.284
X191.255Y-109.284
X191.475Y-131.542
X192.5Y-136.08
X192.55Y-131.542
X193.65Y-131.542
X194.255Y-61.284
X194.255Y-64.284
X194.255Y-73.284
X194.255Y-82.284
X194.255Y-85.284
X194.255Y-88.284
X194.255Y-97.284
X194.255Y-100.284
X194.255Y-103.284
X194.255Y-106.284
X194.255Y-109.284
X194.8Y-131.542
X195.1Y-75.18
X195.25Y-118.58
X196.86Y-118.215
X197.25Y-116.08
X197.255Y-61.284
X197.255Y-64.284
X197.255Y-73.284
X197.255Y-82.284
X197.255Y-85.284
X197.255Y-88.284
X197.255Y-97.284
X197.255Y-100.284
X197.255Y-103.284
X197.255Y-106.284
X197.255Y-109.284
X197.255Y-127.284
X197.255Y-130.284
X197.255Y-136.284
X197.3Y-78.98
X199.1Y-113.58
X199.1Y-114.48
X199.6Y-77.78
X200.255Y-88.284
X200.255Y-97.284
X200.255Y-100.284
X200.255Y-103.284
X200.255Y-106.284
X200.255Y-124.284
X200.5Y-109.58
X201.5Y-108.58
X201.5Y-112.58
X202.25Y-70.08
X202.4Y-64.28
X202.5Y-67.68
X202.5Y-82.28
X203.0Y-130.33
X203.255Y-88.284
X203.255Y-94.284
X203.255Y-97.284
X203.255Y-100.284
X203.255Y-103.284
X203.55Y-126.742
X204.5Y-124.38
X204.7Y-79.03
X205.2Y-75.22
X205.55Y-126.742
X206.255Y-88.284
X206.255Y-94.284
X206.255Y-97.284
X206.255Y-100.284
X207.45Y-64.28
X207.5Y-71.48
X208.7Y-68.88
X209.255Y-88.284
X209.255Y-94.284
X209.255Y-97.284
X209.255Y-118.284
X209.255Y-121.284
X209.5Y-130.33
X210.1Y-70.08
X211.7Y-76.48
X212.255Y-64.284
X212.255Y-82.284
X212.255Y-88.284
X212.255Y-94.284
X212.255Y-115.284
X212.255Y-121.284
X212.255Y-124.284
X212.255Y-127.284
X212.255Y-136.284
X213.0Y-67.58
X215.255Y-64.284
X215.255Y-82.284
X215.255Y-88.284
X215.255Y-112.284
X215.255Y-115.284
X215.255Y-121.284
X215.255Y-124.284
X215.255Y-136.284
X215.6Y-77.88
X216.25Y-118.83
X216.9Y-99.13
X216.9Y-100.38
X216.9Y-101.68
X216.9Y-102.98
X216.9Y-104.18
X217.4Y-75.28
X217.6Y-64.28
X218.0Y-71.48
X218.255Y-88.284
X218.255Y-112.284
X218.255Y-115.284
X218.255Y-121.284
X218.255Y-136.284
X220.2Y-79.08
X221.255Y-106.284
X221.255Y-109.284
X221.255Y-115.284
X221.255Y-127.284
X221.255Y-130.284
X221.255Y-136.284
X221.4Y-68.88
X221.75Y-100.58
X221.75Y-102.58
X222.5Y-76.58
X224.25Y-114.83
X224.255Y-64.284
X224.255Y-100.284
X224.255Y-106.284
X224.255Y-136.284
X226.5Y-108.33
X226.6Y-114.83
X227.255Y-64.284
X227.255Y-82.284
X227.255Y-85.284
X227.255Y-88.284
X227.255Y-97.284
X227.255Y-100.284
X227.255Y-106.284
X227.255Y-136.284
X229.0Y-114.83
X229.047Y-108.33
X229.2Y-67.63
X229.2Y-68.88
X229.2Y-70.13
X229.2Y-71.43
X229.2Y-75.23
X229.2Y-76.48
X229.2Y-77.78
X229.2Y-79.03
X229.2Y-88.58
X229.2Y-89.58
X229.2Y-90.58
X229.2Y-93.08
X229.25Y-58.53
X229.25Y-59.53
X229.25Y-60.53
X229.25Y-61.53
X230.255Y-97.284
X230.255Y-106.284
X230.255Y-121.284
X230.255Y-124.284
X230.255Y-127.284
X230.255Y-130.284
X230.255Y-136.284
X230.41Y-93.08
X231.25Y-114.83
X231.5Y-108.33
X231.68Y-93.08
X232.25Y-66.08
X232.5Y-72.08
X232.75Y-84.83
X232.95Y-93.08
X233.2Y-106.08
X233.255Y-61.284
X233.255Y-136.284
X234.22Y-93.08
X234.25Y-118.83
X234.75Y-84.83
X235.2Y-106.48
X235.49Y-93.08
X236.255Y-61.284
X236.255Y-64.284
X236.255Y-82.284
X236.255Y-136.284
X236.6Y-118.88
X236.8Y-93.08
X237.0Y-131.78
X239.255Y-115.284
X239.255Y-136.284
X242.255Y-115.284
X242.255Y-118.284
X242.255Y-121.284
X242.255Y-124.284
X242.255Y-133.284
T2
X152.1Y-57.58
X152.1Y-137.58
X152.803Y-55.883
X152.803Y-59.277
X152.803Y-135.883
X152.803Y-139.277
X154.5Y-55.18
X154.5Y-59.98
X154.5Y-135.18
X154.5Y-139.98
X156.197Y-55.883
X156.197Y-59.277
X156.197Y-135.883
X156.197Y-139.277
X156.9Y-57.58
X156.9Y-137.58
X242.1Y-57.58
X242.1Y-137.58
X242.803Y-55.883
X242.803Y-59.277
X242.803Y-135.883
X242.803Y-139.277
X244.5Y-55.18
X244.5Y-59.98
X244.5Y-135.18
X244.5Y-139.98
X246.197Y-55.883
X246.197Y-59.277
X246.197Y-135.883
X246.197Y-139.277
X246.9Y-57.58
X246.9Y-137.58
T4
X164.4Y-62.55
X164.4Y-84.58
X166.94Y-62.55
X166.94Y-84.58
X169.48Y-62.55
X169.48Y-84.58
X170.8Y-90.88
X172.02Y-62.58
X172.02Y-84.58
X173.34Y-90.88
X174.56Y-62.58
X174.56Y-84.58
X175.88Y-90.88
X177.1Y-62.58
X177.1Y-84.58
X178.42Y-90.88
X179.64Y-62.58
X179.64Y-84.61
X180.96Y-90.88
X182.18Y-62.58
X182.18Y-84.61
X183.5Y-90.88
X184.72Y-62.58
X184.72Y-84.61
X186.04Y-90.91
X188.58Y-90.91
X191.12Y-90.91
X193.66Y-90.91
X196.2Y-90.91
X201.1Y-62.55
X201.1Y-84.58
X203.64Y-62.55
X203.64Y-84.58
X206.18Y-62.55
X206.18Y-84.58
X208.72Y-62.58
X208.72Y-84.58
X211.26Y-62.58
X211.26Y-84.58
X213.8Y-62.58
X213.8Y-84.58
X216.34Y-62.58
X216.34Y-84.61
X218.88Y-62.58
X218.88Y-84.61
X221.42Y-62.58
X221.42Y-84.61
T5
X163.5Y-126.805
X166.0Y-126.805
X214.75Y-126.13
X214.75Y-133.305
X217.25Y-126.13
X217.25Y-133.305
X223.75Y-126.13
X223.75Y-133.305
X226.25Y-126.13
X226.25Y-133.305
X232.5Y-133.305
X232.75Y-126.13
X235.0Y-133.305
X235.25Y-126.13
T6
X154.5Y-57.58
X154.5Y-137.58
X244.5Y-57.58
X244.5Y-137.58
T3
X201.925Y-130.822G85X201.925Y-131.922
G05
X201.925Y-135.142G85X201.925Y-135.942
G05
X210.575Y-130.822G85X210.575Y-131.922
G05
X210.575Y-135.142G85X210.575Y-135.942
G05
M30
